<svg width="128" height="52" viewBox="0 0 128 52" fill="none" xmlns="http://www.w3.org/2000/svg">
<path d="M3.64279 43.8777H7.9282L7.96183 43.9151C7.97577 44.2471 7.87865 44.5743 7.6858 44.845C7.49296 45.1156 7.2154 45.3143 6.89701 45.4096C6.71008 45.4701 6.51437 45.4992 6.3179 45.4955H3.93795C3.57459 45.4974 3.21665 45.5838 2.89243 45.7478C2.5682 45.9119 2.28659 46.1491 2.06985 46.4407C1.79406 46.8048 1.64099 47.247 1.63272 47.7036V47.9277C1.63272 48.675 2.03623 49.3288 2.83951 49.8556C3.09594 49.9847 3.37521 50.0621 3.66147 50.0835H4.532C4.87387 50.0733 5.209 49.986 5.51241 49.8281C5.81582 49.6703 6.07967 49.446 6.28428 49.1719C6.42986 48.994 6.53103 48.7839 6.57944 48.5592H4.81222C4.50738 48.5814 4.20346 48.5052 3.94519 48.3418C3.68691 48.1783 3.48793 47.9363 3.37752 47.6513L3.34389 47.386V47.0348L3.37752 47.0012H8.31303L8.34666 47.0348V47.7559C8.34815 48.2789 8.24592 48.7971 8.04588 49.2804C7.84584 49.7637 7.55195 50.2025 7.18123 50.5715C6.8105 50.9405 6.37029 51.2323 5.88606 51.4301C5.40182 51.6279 4.88319 51.7277 4.36014 51.7237H3.65774C2.79534 51.6741 1.97505 51.3344 1.33009 50.7598C0.911791 50.3926 0.57674 49.9404 0.347355 49.4333C0.11797 48.9262 -0.000456143 48.376 1.32029e-06 47.8194C0.00457302 46.9267 0.29966 46.0598 0.840645 45.3498C1.31598 44.7607 1.94798 44.3178 2.66391 44.072C2.97196 43.9533 3.29787 43.8876 3.62785 43.8777H3.64279ZM12.1277 46.1194H13.7903C14.5375 46.1194 15.0868 46.5566 15.4193 47.4159L15.4529 47.7671C15.4793 48.1909 15.35 48.6097 15.0892 48.9448C14.8284 49.2799 14.4542 49.5082 14.0369 49.5866L13.6633 49.6202H11.0479V49.6389C11.1758 49.8401 11.348 50.0093 11.5513 50.1337C11.7547 50.258 11.9838 50.3342 12.2211 50.3563H13.8463C14.4778 50.3563 14.8962 50.5655 15.1092 50.9877C15.1912 51.1443 15.2323 51.3191 15.2287 51.4958V51.6191L15.1241 51.7237H12.3593C11.2385 51.7237 10.3642 51.1633 9.78883 50.0574C9.62707 49.6821 9.54317 49.2779 9.54224 48.8693C9.54224 47.8343 10.069 47.0012 11.1376 46.366C11.4601 46.2312 11.8017 46.148 12.1501 46.1194H12.1277ZM11.0591 48.2864H13.5437C13.615 48.297 13.6878 48.2908 13.7563 48.2683C13.8248 48.2459 13.8871 48.2077 13.9382 48.1569C13.9894 48.1061 14.0279 48.0441 14.0509 47.9758C14.0739 47.9075 14.0806 47.8347 14.0705 47.7634C14.0705 47.6401 13.9472 47.5504 13.7193 47.4831H12.2697C12.0121 47.4866 11.7609 47.5642 11.5462 47.7067C11.3316 47.8491 11.1625 48.0504 11.0591 48.2864ZM19.1443 46.097C19.8336 46.1039 20.4972 46.36 21.0124 46.8181C21.5376 47.2918 21.8545 47.9538 21.8941 48.66V51.6191L21.7857 51.7237H21.7185C21.1244 51.7237 20.7209 51.3912 20.5453 50.7075V48.9403C20.5597 48.6125 20.4615 48.2896 20.2672 48.0253C20.0728 47.7609 19.7939 47.5709 19.4768 47.4869L19.1032 47.4346C18.4568 47.4346 18.001 47.8082 17.7394 48.4994L17.6871 49.0075V51.6228L17.5825 51.7275H16.4168L16.3122 51.6228V48.944C16.2981 48.3878 16.4526 47.8404 16.7553 47.3736C17.058 46.9069 17.4949 46.5426 18.0085 46.3287C18.3644 46.1829 18.7447 46.1056 19.1293 46.1007L19.1443 46.097ZM23.5866 44.2812C23.747 44.2842 23.9016 44.3411 24.0257 44.4428C24.1497 44.5445 24.2359 44.685 24.2703 44.8417V44.9836C24.2703 45.3573 24.0424 45.5777 23.5866 45.6487C23.1308 45.5789 22.9029 45.351 22.9029 44.9649C22.9073 44.812 22.9631 44.6649 23.0614 44.5476C23.1597 44.4303 23.2948 44.3496 23.4446 44.3186L23.5866 44.2812ZM24.2367 46.0447L24.2554 46.0634V51.6677L24.218 51.705H22.944L22.9066 51.6677V47.2926C22.9102 47.0459 22.9871 46.8058 23.1275 46.6029C23.2678 46.4 23.4654 46.2434 23.6949 46.1531C23.8669 46.0829 24.051 46.0474 24.2367 46.0484V46.0447ZM25.5481 46.097C25.8225 46.0804 26.0941 46.1607 26.3153 46.3239C26.5366 46.4871 26.6935 46.7229 26.7586 46.99L26.7922 47.2179V48.66C26.7922 49.4073 27.0015 49.8855 27.4237 50.1284C27.6321 50.2817 27.8824 50.3677 28.141 50.375H28.2456C28.892 50.375 29.3665 50.0013 29.6093 49.2541V48.9403V47.2739C29.603 47.0148 29.6867 46.7615 29.8461 46.5572C30.0055 46.3528 30.2308 46.21 30.4836 46.1531L30.8871 46.1157L30.973 46.224V49.0225C30.973 50.1097 30.3939 50.9503 29.2395 51.5257C28.9229 51.6575 28.5847 51.7297 28.2419 51.7387H28.1746C27.0164 51.7387 26.1608 51.1596 25.5817 49.9864C25.4696 49.6948 25.4052 49.3869 25.3912 49.0748V46.224C25.4435 46.1531 25.4771 46.1157 25.5294 46.1157L25.5481 46.097ZM33.6855 46.097H37.4479C37.5525 46.097 37.6235 46.168 37.6235 46.2577C37.6265 46.5364 37.5322 46.8075 37.357 47.0244C37.1818 47.2412 36.9365 47.3902 36.6633 47.4458L36.4354 47.4645H33.7229C33.4763 47.4981 33.3493 47.6214 33.3493 47.8381V47.8754C33.3493 48.0847 33.4875 48.208 33.7229 48.2491H35.6134C36.5736 48.2491 37.1863 48.6003 37.4815 49.2989C37.5851 49.5554 37.6384 49.8294 37.6384 50.1059C37.6384 50.6813 37.3246 51.1558 36.6932 51.5593C36.4618 51.6771 36.2055 51.7373 35.9459 51.7349H32.0939C32.0584 51.721 32.0277 51.6969 32.0058 51.6657C31.9839 51.6345 31.9716 51.5975 31.9706 51.5593C31.9652 51.2976 32.0515 51.0423 32.2146 50.8376C32.3777 50.6328 32.6073 50.4916 32.8636 50.4385C32.932 50.3971 33.0119 50.3788 33.0915 50.3862H35.733C36.0132 50.3862 36.1888 50.2965 36.2598 50.1059V49.9303C36.2381 49.8298 36.1789 49.7413 36.0941 49.683C36.0094 49.6246 35.9056 49.6009 35.8039 49.6165H33.9358C33.5344 49.6482 33.1334 49.5492 32.7927 49.3345C32.452 49.1197 32.1899 48.8006 32.0453 48.4247C31.9962 48.1948 31.9674 47.961 31.9594 47.726C31.9594 47.1282 32.3069 46.6051 33.0093 46.2539C33.2251 46.1645 33.4557 46.1164 33.6893 46.112L33.6855 46.097ZM52.8298 43.8553H57.1189L57.1526 43.8927C57.163 44.2219 57.0663 44.5456 56.877 44.8151C56.6876 45.0846 56.4159 45.2853 56.1027 45.3871C55.9092 45.4394 55.7089 45.4621 55.5086 45.4544H53.1287C52.7655 45.4574 52.408 45.5443 52.0839 45.7083C51.7599 45.8722 51.4781 46.1088 51.2606 46.3996C50.9809 46.7698 50.823 47.2175 50.8085 47.6812V47.9128C50.8173 48.2772 50.9182 48.6334 51.1018 48.9483C51.2853 49.2632 51.5456 49.5265 51.8584 49.7137C52.1858 49.9483 52.5765 50.0785 52.9792 50.0873H55.4825C55.8221 50.0631 56.1601 50.1534 56.4424 50.3437C56.7248 50.5339 56.9353 50.8133 57.0405 51.1371C57.0971 51.3057 57.1261 51.4824 57.1264 51.6602L57.0928 51.6976H53.181C51.623 51.6976 50.4349 50.9503 49.5942 49.4895C49.3465 48.9518 49.219 48.3666 49.2206 47.7746C49.2252 46.8819 49.5203 46.015 50.0613 45.3049C50.7213 44.5876 51.3328 44.1679 51.8957 44.0458C52.1969 43.926 52.5169 43.8603 52.841 43.8516L52.8298 43.8553ZM59.2523 46.097H61.9312C61.9648 46.097 61.9835 46.1306 61.9835 46.1867V46.3249C61.9876 46.5754 61.9039 46.8193 61.7469 47.0145C61.59 47.2097 61.3696 47.3438 61.1241 47.3935C61.0462 47.4206 60.9637 47.4321 60.8813 47.4271H59.936C59.7604 47.4271 59.6745 47.5504 59.6745 47.7596V51.6864L59.6371 51.7237H58.378L58.3444 51.6864V47.0834C58.3444 46.6799 58.5873 46.366 59.0916 46.1194L59.2523 46.097ZM65.2302 46.097H66.8928C67.6401 46.097 68.1893 46.5342 68.5031 47.3935L68.5554 47.7447C68.5827 48.1686 68.4537 48.5879 68.1927 48.9232C67.9318 49.2585 67.5571 49.4865 67.1394 49.5642L66.7658 49.5978H64.1206V49.6165C64.252 49.8185 64.4275 49.988 64.634 50.1123C64.8404 50.2365 65.0724 50.3123 65.3124 50.3339H66.9264C67.5579 50.3339 67.98 50.5431 68.1893 50.9653C68.2724 51.1216 68.3148 51.2964 68.3126 51.4734V51.5967L68.2042 51.7013H65.432C64.3111 51.7013 63.4368 51.1409 62.8615 50.035C62.6997 49.6597 62.6158 49.2555 62.6149 48.8469C62.6149 47.8119 63.1417 46.9788 64.1915 46.3436C64.5204 46.2083 64.8683 46.1251 65.2227 46.097H65.2302ZM64.1542 48.2864H66.6388C66.7098 48.2964 66.7821 48.2897 66.8501 48.2669C66.9181 48.2442 66.9799 48.2059 67.0306 48.1552C67.0813 48.1045 67.1196 48.0427 67.1423 47.9747C67.1651 47.9067 67.1718 47.8344 67.1618 47.7634C67.1618 47.6401 67.0385 47.5504 66.8106 47.4831H65.361C65.1038 47.4864 64.853 47.564 64.6389 47.7065C64.4248 47.849 64.2565 48.0504 64.1542 48.2864ZM69.3849 46.0821H72.3738C73.6665 46.0821 74.5072 46.5902 74.9107 47.6214C74.9785 47.8302 75.0138 48.0482 75.0153 48.2677V50.3862C75.0208 50.6855 74.9253 50.978 74.7444 51.2166C74.5634 51.4551 74.3075 51.6259 74.0177 51.7013H73.7375H71.0774C70.7654 51.6985 70.4595 51.6148 70.1897 51.4583C69.9199 51.3017 69.6953 51.0778 69.538 50.8084C69.4115 50.6143 69.3392 50.3898 69.3288 50.1583V49.9154C69.3288 49.0561 69.7996 48.5143 70.7299 48.2677H71.0774H73.6516C73.6543 48.0729 73.5896 47.8832 73.4684 47.7307C73.3472 47.5781 73.1769 47.4722 72.9865 47.4308C72.7102 47.3733 72.428 47.3495 72.1459 47.3599H70.5169C70.2755 47.3546 70.0408 47.279 69.8416 47.1423C69.6425 47.0056 69.4877 46.8137 69.3961 46.5902L69.3438 46.2913V46.1344L69.3849 46.0821ZM70.644 50.0051C70.644 50.2816 70.8719 50.4235 71.3613 50.4422H73.278C73.3771 50.4422 73.4721 50.4028 73.5422 50.3328C73.6122 50.2627 73.6516 50.1677 73.6516 50.0686V49.5642H71.1857C71.0611 49.547 70.9347 49.5791 70.8335 49.6538C70.7322 49.7285 70.6642 49.8398 70.644 49.964V50.0051ZM76.7526 43.8777C77.0312 43.8704 77.3044 43.956 77.529 44.1211C77.7536 44.2862 77.9168 44.5213 77.993 44.7893C78.0287 44.903 78.0463 45.0215 78.0453 45.1406V46.0447H79.3418L79.3754 46.0783C79.3843 46.3569 79.3018 46.6306 79.1406 46.858C78.9794 47.0853 78.7483 47.2536 78.4825 47.3374C78.3399 47.3756 78.1929 47.3945 78.0453 47.3935V50.3824H78.2733C78.5563 50.3607 78.8383 50.4352 79.0737 50.5939C79.309 50.7526 79.4838 50.9862 79.5697 51.2567C79.6198 51.3969 79.6439 51.545 79.6407 51.6938L79.6033 51.7312H78.0827C77.79 51.7552 77.498 51.6777 77.2557 51.5117C77.0135 51.3456 76.8358 51.1012 76.7526 50.8196C76.717 50.7059 76.6994 50.5874 76.7003 50.4684V47.3897H75.4039L75.3702 47.3711C75.3569 47.0937 75.4353 46.8197 75.5933 46.5915C75.7514 46.3632 75.9802 46.1933 76.2445 46.1082C76.3913 46.059 76.5456 46.0362 76.7003 46.041V43.9151C76.7003 43.9151 76.7003 43.8777 76.7526 43.8777ZM81.2846 44.2812C81.4447 44.2837 81.5992 44.3405 81.7228 44.4424C81.8463 44.5442 81.9316 44.685 81.9646 44.8417V44.9836C81.9646 45.3573 81.7404 45.5777 81.2846 45.6487C80.8288 45.5789 80.6009 45.351 80.6009 44.9649C80.6019 44.811 80.6565 44.6622 80.7554 44.5442C80.8543 44.4262 80.9912 44.3464 81.1427 44.3186L81.2846 44.2812ZM81.931 46.0484V51.6864L81.8974 51.7237H80.6383L80.6009 51.6864V47.2926C80.6045 47.0459 80.6814 46.8058 80.8218 46.6029C80.9621 46.4 81.1597 46.2434 81.3893 46.1531C81.5607 46.0811 81.7451 46.0455 81.931 46.0484ZM83.7505 46.0858C84.0174 46.0552 84.2856 46.1303 84.4978 46.295L85.9362 50.3563L87.4083 46.2465C87.6353 46.1185 87.8962 46.0637 88.1555 46.0895C88.3814 46.0645 88.6094 46.113 88.8056 46.2278V46.2465L86.9375 51.4771C86.7604 51.6123 86.5471 51.6916 86.3248 51.705L85.925 51.7387C85.2413 51.6864 84.9087 51.5631 84.9087 51.3651L83.0892 46.2353C83.2854 46.1247 83.5124 46.0814 83.7356 46.112L83.7505 46.0858ZM92.2018 46.1194H93.8494C94.6191 46.1194 95.1422 46.5566 95.4747 47.4159L95.527 47.7671C95.5543 48.1911 95.4252 48.6103 95.1643 48.9456C94.9034 49.2809 94.5287 49.5089 94.111 49.5866L93.7374 49.6202H91.0959V49.6389C91.2263 49.841 91.4011 50.0107 91.607 50.135C91.8129 50.2593 92.0444 50.335 92.284 50.3563H93.913C94.5406 50.3563 94.9628 50.5655 95.1534 50.9877C95.244 51.1419 95.2929 51.317 95.2954 51.4958V51.6191L95.1907 51.7237H92.4073C91.2864 51.7237 90.4308 51.1633 89.8517 50.0574C89.6812 49.6849 89.5969 49.2788 89.6051 48.8693C89.6051 47.8343 90.1319 47.0012 91.1818 46.366C91.5106 46.2307 91.8585 46.1475 92.213 46.1194H92.2018ZM91.137 48.2864H93.6029C93.9765 48.2864 94.1446 48.1108 94.1446 47.7634C94.1446 47.6401 94.0213 47.5504 93.771 47.4831H92.3326C92.0772 47.4881 91.8286 47.5665 91.6166 47.7089C91.4046 47.8514 91.2381 48.0519 91.137 48.2864ZM107.916 43.874H112.956L112.994 43.9113V43.9636C112.995 44.2294 112.912 44.4888 112.758 44.7053C112.604 44.9218 112.386 45.0845 112.134 45.1704C111.956 45.2388 111.765 45.2693 111.574 45.2601H108.772C108.715 45.2528 108.658 45.2586 108.603 45.277C108.549 45.2954 108.5 45.326 108.46 45.3665C108.419 45.4069 108.389 45.456 108.37 45.5101C108.352 45.5643 108.346 45.6219 108.353 45.6786V47.2552H111.817H111.854V47.3262C111.855 47.592 111.773 47.8514 111.619 48.0679C111.464 48.2843 111.246 48.447 110.995 48.533C110.814 48.5942 110.625 48.6245 110.434 48.6227H108.353V51.6677C108.353 51.6864 108.353 51.705 108.301 51.705C108.015 51.7119 107.736 51.6245 107.505 51.4563C107.274 51.2882 107.104 51.0486 107.023 50.7747C106.989 50.6621 106.971 50.545 106.971 50.4273V44.8753C106.951 44.6484 107.017 44.4224 107.155 44.2414C107.294 44.0604 107.494 43.9374 107.718 43.8964L107.916 43.874ZM113.868 46.0821H116.876C118.153 46.0821 119.013 46.5902 119.398 47.6214C119.464 47.8306 119.499 48.0484 119.502 48.2677V50.3862C119.508 50.6855 119.412 50.978 119.231 51.2166C119.05 51.4551 118.794 51.6259 118.505 51.7013H118.224H115.564C115.253 51.6967 114.947 51.6122 114.678 51.4559C114.408 51.2995 114.184 51.0765 114.025 50.8084C113.909 50.6104 113.842 50.3874 113.831 50.1583V49.9154C113.831 49.0561 114.286 48.5143 115.232 48.2677H115.564H118.153C118.153 48.0738 118.087 47.8858 117.966 47.7339C117.845 47.5821 117.677 47.4753 117.488 47.4308C117.212 47.3749 116.93 47.351 116.648 47.3599H115.004C114.763 47.3523 114.529 47.2758 114.331 47.1393C114.132 47.0029 113.976 46.8123 113.883 46.5902L113.846 46.2913V46.1344L113.868 46.0821ZM115.127 50.0051C115.127 50.2816 115.374 50.4235 115.844 50.4422H117.769C117.868 50.4422 117.963 50.4028 118.033 50.3328C118.103 50.2627 118.142 50.1677 118.142 50.0686V49.5642H115.658C115.533 49.547 115.407 49.5791 115.305 49.6538C115.204 49.7285 115.136 49.8398 115.116 49.964L115.127 50.0051ZM121.303 44.2775C121.463 44.2805 121.618 44.3374 121.742 44.4391C121.866 44.5408 121.952 44.6813 121.987 44.8379V44.9799C121.987 45.3535 121.759 45.5739 121.303 45.6449C120.851 45.5739 120.619 45.346 120.619 44.9612C120.619 44.6474 120.795 44.4381 121.165 44.3149L121.303 44.2775ZM121.953 46.0447V51.6864V51.7237H120.675L120.638 51.6864V47.2926C120.642 47.046 120.719 46.8062 120.859 46.6034C121 46.4005 121.197 46.2438 121.426 46.1531C121.599 46.0811 121.785 46.0455 121.972 46.0484L121.953 46.0447ZM124.105 46.1157H126.799C126.799 46.1157 126.833 46.1493 126.833 46.2054V46.3436C126.838 46.5914 126.757 46.8333 126.603 47.0281C126.45 47.223 126.234 47.3587 125.992 47.4122C125.907 47.4375 125.819 47.4489 125.73 47.4458H124.804C124.61 47.4458 124.524 47.5691 124.524 47.7783V51.6864L124.49 51.7237H123.231L123.194 51.6864V47.0834C123.194 46.6799 123.44 46.366 123.941 46.1194L124.105 46.1157Z" fill="white"/>
<path d="M43.3882 49.7808C43.593 49.7816 43.792 49.8481 43.9561 49.9705C44.1202 50.0929 44.2407 50.2648 44.2999 50.4608C44.3376 50.5558 44.3554 50.6575 44.3522 50.7596C44.3522 51.2678 44.0533 51.5816 43.4742 51.7236H43.3546C42.8278 51.7236 42.514 51.3911 42.4094 50.741C42.4104 50.5367 42.4771 50.3383 42.5995 50.1748C42.7219 50.0113 42.8937 49.8915 43.0893 49.8331L43.3882 49.7808Z" fill="#E05128"/>
<path d="M101.128 49.7808C101.332 49.7822 101.531 49.8489 101.695 49.9713C101.859 50.0936 101.979 50.2651 102.039 50.4608C102.077 50.5558 102.095 50.6575 102.091 50.7596C102.091 51.2678 101.793 51.5816 101.213 51.7236H101.094C100.567 51.7236 100.235 51.3911 100.13 50.741C100.135 50.5351 100.206 50.3362 100.331 50.1731C100.457 50.0099 100.631 49.8908 100.829 49.8331L101.128 49.7808Z" fill="#007292"/>
<path d="M84.1126 10.7271C87.1838 10.7271 89.702 12.2713 91.6672 15.3599C92.3187 16.5577 92.6748 17.8937 92.7059 19.2568C92.7059 23.5957 90.7319 26.5972 86.784 28.261C85.3833 28.7193 83.9162 28.9415 82.4426 28.9186H71.4395C70.9136 28.8847 70.3896 29.0089 69.9348 29.2752C69.4801 29.5416 69.1154 29.9378 68.8877 30.4131C68.7209 30.7943 68.6405 31.2077 68.6523 31.6236V34.6125H86.4141C89.3807 34.6125 91.3808 35.9551 92.4145 38.6402C92.6126 39.298 92.7108 39.9819 92.7059 40.6689L92.549 40.8258H62.5996L62.439 40.6689V31.6311C62.439 27.7205 64.4391 24.8947 68.4393 23.1536C69.5035 22.82 70.6163 22.6684 71.7309 22.7053H83.414C85.2746 22.7053 86.3008 21.6529 86.4926 19.5482C86.4926 18.4772 85.8176 17.6602 84.4676 17.0973L83.414 16.9403H68.5215C65.7493 16.9403 63.8189 15.5891 62.7304 12.8866C62.5287 12.2026 62.4305 11.4924 62.439 10.7794L62.5212 10.7271H84.1126Z" fill="white"/>
<path d="M118.397 10.7271C121.468 10.7271 123.986 12.2713 125.951 15.3599C126.605 16.5571 126.965 17.8929 127.001 19.2568C127.001 23.5957 125.028 26.5972 121.083 28.261C119.681 28.7193 118.212 28.9415 116.738 28.9186H105.738C105.212 28.8847 104.688 29.0089 104.234 29.2752C103.779 29.5416 103.414 29.9378 103.186 30.4131C103.018 30.7939 102.937 31.2074 102.947 31.6236V34.6125H120.728C123.692 34.6125 125.692 35.9551 126.728 38.6402C126.925 39.2982 127.022 39.9821 127.016 40.6689L126.859 40.8258H96.8947L96.7378 40.6689V31.6311C96.7378 27.7205 98.7379 24.8947 102.738 23.1536C103.802 22.8197 104.915 22.6681 106.03 22.7053H117.713C119.573 22.7053 120.6 21.6529 120.791 19.5482C120.791 18.4759 120.115 17.6801 118.766 17.0973L117.713 16.9403H102.817C100.044 16.9403 98.1152 15.5891 97.0292 12.8866C96.8275 12.2026 96.7293 11.4924 96.7378 10.7794L96.8163 10.7271H118.397Z" fill="white"/>
<path fill-rule="evenodd" clip-rule="evenodd" d="M17.6426 23.1313L35.1242 40.613H45.141L27.6593 23.1313H17.6426Z" fill="#007197"/>
<path fill-rule="evenodd" clip-rule="evenodd" d="M17.6426 23.1313L35.1242 40.613H45.141L27.6593 23.1313H17.6426Z" fill="white"/>
<path fill-rule="evenodd" clip-rule="evenodd" d="M31.4062 5.64502L50.7224 24.9611V34.9741L31.4062 15.6618V5.64502Z" fill="#007197"/>
<path fill-rule="evenodd" clip-rule="evenodd" d="M31.4062 5.64502L50.7224 24.9611V34.9741L31.4062 15.6618V5.64502Z" fill="white"/>
<path fill-rule="evenodd" clip-rule="evenodd" d="M9.96125 40.613L27.6447 23.1351L27.6409 23.1313H17.6055L0.120117 40.613H9.96125Z" fill="white"/>
<path fill-rule="evenodd" clip-rule="evenodd" d="M9.96125 40.613L27.6447 23.1351L27.6409 23.1313H17.6055L0.120117 40.613H9.96125Z" fill="#D9480A"/>
<path fill-rule="evenodd" clip-rule="evenodd" d="M57.5858 10.5547L46.9787 0L36.9582 0.0261534L31.4062 5.60803V15.6434L31.41 15.6472L41.9834 5.01771L47.5466 10.5547H57.5858Z" fill="white"/>
<path fill-rule="evenodd" clip-rule="evenodd" d="M57.5859 10.5547L46.9788 0L36.9658 0.0261534L47.5467 10.5547H57.5859Z" fill="white"/>
<path fill-rule="evenodd" clip-rule="evenodd" d="M46.9712 0H46.975L31.41 15.6472L31.4062 15.6434V5.60803L36.9582 0.0261534L46.9712 0Z" fill="white"/>
<path fill-rule="evenodd" clip-rule="evenodd" d="M35.1582 40.612L50.7232 24.9648V35.0077L45.1712 40.5896L35.1582 40.612Z" fill="white"/>
<path fill-rule="evenodd" clip-rule="evenodd" d="M15.8416 21.2962L29.531 7.60303V17.6198L25.8583 21.2962H15.8416Z" fill="white"/>
<path fill-rule="evenodd" clip-rule="evenodd" d="M4.35621 0L25.8431 21.2926L25.8393 21.2963H15.8039L4.35248 9.84861V0H4.35621Z" fill="white"/>
<path fill-rule="evenodd" clip-rule="evenodd" d="M4.35621 0L25.8431 21.2926L25.8393 21.2963H15.8039L4.35248 9.84861V0H4.35621Z" fill="#D9480A"/>
<path fill-rule="evenodd" clip-rule="evenodd" d="M15.8416 21.2962L29.531 7.60303V17.6198L25.8583 21.2962H15.8416Z" fill="#D9480A"/>
</svg>
