<svg width="232" height="34" viewBox="0 0 232 34" fill="none" xmlns="http://www.w3.org/2000/svg">
<path d="M16.4682 24.913V20.2612C15.6783 18.1987 13.879 16.7505 11.7725 16.7505C8.6567 16.7505 6.638 19.3397 6.638 22.5871C6.638 25.8346 8.6567 28.3799 11.7725 28.3799C13.879 28.3799 15.6783 26.9756 16.4682 24.913ZM22.7876 0.642578V33.5561L17.1265 33.5978L16.7732 31.3224C15.9701 32.1796 14.9974 32.8602 13.917 33.3211C12.8367 33.7819 11.6722 34.0129 10.4977 33.9994C4.48545 33.995 0.316406 28.9943 0.316406 22.5849C0.316406 16.1756 4.48545 11.1749 10.4977 11.1749C11.5997 11.1558 12.6947 11.3554 13.7191 11.7622C14.7435 12.169 15.6772 12.7748 16.466 13.5447V0.642578H22.7876Z" fill="black"/>
<path d="M42.6656 12.2302L41.3052 14.3367C40.3636 13.9322 39.3454 13.7376 38.321 13.7662C34.9419 13.7662 31.8261 16.7504 31.8261 20.7439V33.556H28.9297V11.6137H31.6067L31.7383 15.2122C33.2743 12.7985 35.7757 11.1748 38.4527 11.1748C40.3836 11.1748 41.5685 11.482 42.6656 12.228" fill="black"/>
<path d="M46.5293 21.2683H61.494C61.099 16.792 58.422 13.6762 54.1213 13.6762C49.7329 13.6762 47.012 16.8359 46.5293 21.2683M64.0832 23.5503H46.4854C46.8365 28.2021 49.6012 31.4495 54.1652 31.4495C57.0177 31.4495 58.9486 30.3524 60.6602 27.7193L62.6788 29.1675C60.9235 32.1956 58.0271 33.9949 54.0774 33.9949C47.7142 33.9949 43.6768 29.0337 43.6768 22.5848C43.6768 16.1777 47.7142 11.1748 54.0774 11.1748C60.2213 11.1748 64.127 15.8705 64.127 22.4093C64.1335 22.7901 64.1188 23.1711 64.0832 23.5503" fill="black"/>
<path d="M125.521 19.3833V33.5559H122.625V19.6466C122.636 18.8713 122.491 18.1018 122.2 17.3834C121.908 16.665 121.475 16.0123 120.927 15.4641C120.379 14.9158 119.726 14.4831 119.008 14.1914C118.289 13.8998 117.52 13.7551 116.744 13.7661C115.948 13.7602 115.157 13.9129 114.42 14.2152C113.683 14.5174 113.013 14.9633 112.449 15.5268C111.886 16.0904 111.44 16.7603 111.138 17.4977C110.835 18.2351 110.683 19.0252 110.688 19.8222V33.5559H107.792V19.6466C107.803 18.8713 107.658 18.1018 107.367 17.3834C107.075 16.665 106.642 16.0123 106.094 15.4641C105.546 14.9158 104.893 14.4831 104.175 14.1914C103.456 13.8998 102.687 13.7551 101.911 13.7661C101.115 13.7602 100.324 13.9129 99.587 14.2152C98.8496 14.5174 98.1797 14.9633 97.6161 15.5268C97.0526 16.0904 96.6068 16.7603 96.3045 17.4977C96.0022 18.2351 95.8495 19.0252 95.8554 19.8222V33.5559H92.959V11.6135H95.6359L95.7676 14.6416C96.5382 13.5589 97.5588 12.6783 98.7427 12.0747C99.9266 11.4711 101.239 11.1624 102.568 11.1747C105.815 11.1747 108.492 12.8862 109.809 15.5631C110.568 14.2217 111.673 13.1076 113.008 12.3361C114.342 11.5646 115.859 11.1636 117.401 11.1747C122.052 11.1747 125.519 14.6854 125.519 19.3811" fill="black"/>
<path d="M158.304 11.616L150.8 33.5605H147.596L143.383 21.5778L139.346 33.5605H136.186L128.636 11.616H131.842L137.942 30.0936L142.067 17.7598L139.916 11.616H142.769L149.044 30.1814L155.144 11.616H158.304Z" fill="black"/>
<path d="M178.927 22.5848C178.927 17.6697 175.941 13.764 171.201 13.764C166.506 13.764 163.478 17.6697 163.478 22.5848C163.478 27.456 166.506 31.4057 171.201 31.4057C175.941 31.4057 178.927 27.456 178.927 22.5848ZM160.669 22.5848C160.669 16.2654 164.926 11.1748 171.201 11.1748C177.521 11.1748 181.78 16.2654 181.78 22.5848C181.78 28.9042 177.521 33.9949 171.201 33.9949C164.926 33.9949 160.669 28.902 160.669 22.5848Z" fill="black"/>
<path d="M220.888 9.79913H216.861L205.798 20.9853H205.708V0.644775H202.801V33.5166H205.708V22.3282H205.798L216.861 33.5166H220.888L209.379 21.6568L220.888 9.79913Z" fill="black"/>
<path d="M196.657 11.1747C193.98 11.1747 191.478 12.7984 189.942 15.2121L189.811 11.6136H187.134V33.5559H190.03V20.7438C190.03 16.7503 193.146 13.7661 196.525 13.7661C197.549 13.7375 198.568 13.9321 199.509 14.3366V11.5521C198.585 11.2728 197.622 11.146 196.657 11.1769" fill="black"/>
<path d="M75.1855 31.4103C72.5524 31.4103 70.8409 29.6549 70.8409 27.1535C70.8409 25.5232 71.6747 24.0048 73.8492 23.4452C74.5178 23.2784 75.2053 23.1995 75.8942 23.2104H83.2164V27.3268C80.7589 29.8283 78.038 31.4103 75.1855 31.4103ZM77.292 11.1772C73.1229 11.1772 70.1388 12.801 68.6028 15.3024L70.6215 17.0578C71.8503 14.8636 74.22 13.6787 77.1164 13.6787C80.5394 13.6787 83.2164 15.3024 83.2164 19.0765V21.0864L75.2425 21.0184C74.7778 21.0184 74.3134 21.044 73.8514 21.0952C69.5814 21.5823 67.8984 24.3405 67.8984 27.2829C67.8984 31.1909 70.6632 33.9995 74.5689 33.9995C77.6408 33.9995 80.7128 32.4635 83.302 29.9621L83.4336 33.5607H86.0228V19.2082C86.0228 13.7664 82.161 11.1772 77.2898 11.1772" fill="black"/>
<path d="M225.598 25.0269C225.314 25.0128 225.031 25.0583 224.765 25.1606C224.5 25.2629 224.259 25.4197 224.058 25.6209C223.857 25.8221 223.701 26.0632 223.598 26.3286C223.496 26.5941 223.451 26.8779 223.466 27.1619V31.4253C223.451 31.7094 223.496 31.9935 223.598 32.259C223.7 32.5246 223.856 32.7659 224.057 32.9671C224.258 33.1684 224.499 33.3252 224.765 33.4274C225.03 33.5295 225.314 33.5748 225.598 33.5603H229.864C230.148 33.5748 230.432 33.5295 230.698 33.4274C230.963 33.3252 231.204 33.1684 231.405 32.9671C231.606 32.7659 231.763 32.5246 231.865 32.259C231.967 31.9935 232.012 31.7094 231.997 31.4253V27.1619C232.011 26.8779 231.966 26.5941 231.864 26.3286C231.762 26.0632 231.605 25.8221 231.404 25.6209C231.203 25.4197 230.963 25.2629 230.697 25.1606C230.432 25.0583 230.148 25.0128 229.864 25.0269H225.598Z" fill="#3CDBC0"/>
</svg>
