<svg width="247" height="36" viewBox="0 0 247 36" fill="none" xmlns="http://www.w3.org/2000/svg">
<path d="M17.2196 26.0595V21.1002C16.3774 18.9013 14.4592 17.3574 12.2135 17.3574C8.89167 17.3574 6.73952 20.1177 6.73952 23.5799C6.73952 27.042 8.89167 29.7556 12.2135 29.7556C14.4592 29.7556 16.3774 28.2585 17.2196 26.0595ZM23.9567 0.18457V35.274L17.9214 35.3185L17.5447 32.8926C16.6886 33.8065 15.6516 34.5321 14.4998 35.0235C13.348 35.5148 12.1065 35.7611 10.8543 35.7466C4.44466 35.7419 0 30.4106 0 23.5775C0 16.7445 4.44466 11.4132 10.8543 11.4132C12.0293 11.3928 13.1966 11.6057 14.2888 12.0393C15.3809 12.473 16.3763 13.1189 17.2172 13.9396V0.18457H23.9567Z" fill="white"/>
<path d="M45.1489 12.5383L43.6985 14.784C42.6947 14.3528 41.6091 14.1453 40.5171 14.1758C36.9146 14.1758 33.5928 17.3572 33.5928 21.6148V35.2739H30.5049V11.8809H33.3588L33.4992 15.7174C35.1367 13.1442 37.8035 11.4131 40.6574 11.4131C42.716 11.4131 43.9792 11.7406 45.1489 12.5359" fill="white"/>
<path d="M49.2676 22.1739H65.2217C64.8006 17.4017 61.9466 14.0799 57.3616 14.0799C52.683 14.0799 49.7823 17.4485 49.2676 22.1739ZM67.982 24.6067H49.2209C49.5952 29.566 52.5427 33.0282 57.4084 33.0282C60.4495 33.0282 62.5081 31.8585 64.3327 29.0514L66.4849 30.5953C64.6134 33.8236 61.5256 35.7418 57.3148 35.7418C50.5309 35.7418 46.2266 30.4526 46.2266 23.5774C46.2266 16.7467 50.5309 11.4131 57.3148 11.4131C63.8649 11.4131 68.0288 16.4192 68.0288 23.3903C68.0357 23.7963 68.0201 24.2024 67.982 24.6067Z" fill="white"/>
<path d="M133.483 20.1643V35.2738H130.395V20.445C130.406 19.6185 130.252 18.798 129.941 18.0321C129.63 17.2662 129.169 16.5705 128.584 15.986C128 15.4015 127.304 14.9401 126.538 14.6292C125.772 14.3182 124.952 14.164 124.125 14.1757C123.276 14.1695 122.433 14.3322 121.647 14.6545C120.861 14.9767 120.147 15.4521 119.546 16.0529C118.945 16.6536 118.47 17.3679 118.148 18.154C117.825 18.9402 117.663 19.7825 117.669 20.6321V35.2738H114.581V20.445C114.593 19.6185 114.439 18.798 114.128 18.0321C113.817 17.2662 113.355 16.5705 112.771 15.986C112.186 15.4015 111.491 14.9401 110.725 14.6292C109.959 14.3182 109.138 14.164 108.312 14.1757C107.462 14.1695 106.62 14.3322 105.834 14.6545C105.048 14.9767 104.333 15.4521 103.732 16.0529C103.132 16.6536 102.656 17.3679 102.334 18.154C102.012 18.9402 101.849 19.7825 101.855 20.6321V35.2738H98.7675V11.8808H101.621L101.762 15.1091C102.583 13.9548 103.671 13.016 104.934 12.3725C106.196 11.729 107.595 11.3999 109.011 11.413C112.473 11.413 115.327 13.2376 116.731 16.0916C117.541 14.6615 118.718 13.4737 120.141 12.6512C121.564 11.8286 123.181 11.4012 124.825 11.413C129.784 11.413 133.48 15.1559 133.48 20.1619" fill="white"/>
<path d="M168.431 11.8833L160.431 35.2786H157.016L152.524 22.5037L148.22 35.2786H144.851L136.802 11.8833H140.219L146.723 31.5825L151.121 18.4333L148.828 11.8833H151.869L158.56 31.6761L165.063 11.8833H168.431Z" fill="white"/>
<path d="M190.418 23.5774C190.418 18.3374 187.235 14.1735 182.182 14.1735C177.176 14.1735 173.947 18.3374 173.947 23.5774C173.947 28.7707 177.176 32.9814 182.182 32.9814C187.235 32.9814 190.418 28.7707 190.418 23.5774ZM170.953 23.5774C170.953 16.8403 175.491 11.4131 182.182 11.4131C188.919 11.4131 193.46 16.8403 193.46 23.5774C193.46 30.3146 188.919 35.7418 182.182 35.7418C175.491 35.7418 170.953 30.3123 170.953 23.5774Z" fill="white"/>
<path d="M235.153 9.94607H230.86L219.066 21.8718H218.97V0.186523H215.87V35.2315H218.97V23.3035H219.066L230.86 35.2315H235.153L222.883 22.5876L235.153 9.94607Z" fill="white"/>
<path d="M209.32 11.4131C206.466 11.4131 203.8 13.1442 202.162 15.7174L202.022 11.881H199.168V35.274H202.256V21.6148C202.256 17.3573 205.578 14.1759 209.18 14.1759C210.272 14.1453 211.358 14.3529 212.361 14.7841V11.8155C211.376 11.5177 210.349 11.3826 209.32 11.4155" fill="white"/>
<path d="M79.8196 32.9862C77.0124 32.9862 75.1878 31.1148 75.1878 28.448C75.1878 26.7099 76.0767 25.0911 78.395 24.4945C79.1077 24.3167 79.8407 24.2326 80.5752 24.2442H88.3814V28.6328C85.7614 31.2996 82.8607 32.9862 79.8196 32.9862ZM82.0653 11.4155C77.6206 11.4155 74.4392 13.1466 72.8017 15.8134L74.9539 17.6848C76.2639 15.3455 78.7903 14.0823 81.8782 14.0823C85.5275 14.0823 88.3814 15.8134 88.3814 19.837V21.9798L79.8804 21.9073C79.3849 21.9073 78.8898 21.9346 78.3973 21.9892C73.845 22.5085 72.0508 25.449 72.0508 28.586C72.0508 32.7523 74.9983 35.7466 79.1622 35.7466C82.4373 35.7466 85.7123 34.1091 88.4727 31.4423L88.613 35.2787H91.3734V19.9774C91.3734 14.1759 87.2562 11.4155 82.063 11.4155" fill="white"/>
<path d="M240.176 26.1814C239.873 26.1663 239.571 26.2148 239.288 26.3239C239.005 26.433 238.748 26.6002 238.534 26.8146C238.32 27.0291 238.153 27.2862 238.044 27.5691C237.935 27.8521 237.887 28.1548 237.902 28.4575V33.0028C237.887 33.3057 237.935 33.6085 238.043 33.8916C238.152 34.1748 238.319 34.4319 238.533 34.6465C238.747 34.8611 239.004 35.0282 239.287 35.1372C239.571 35.2461 239.873 35.2944 240.176 35.2789H244.724C245.027 35.2944 245.329 35.2461 245.612 35.1372C245.895 35.0282 246.152 34.8611 246.367 34.6465C246.581 34.4319 246.748 34.1748 246.857 33.8916C246.965 33.6085 247.013 33.3057 246.998 33.0028V28.4575C247.013 28.1548 246.965 27.8521 246.856 27.5691C246.747 27.2862 246.58 27.0291 246.366 26.8146C246.152 26.6002 245.895 26.433 245.612 26.3239C245.329 26.2148 245.027 26.1663 244.724 26.1814H240.176Z" fill="#3DDBBF"/>
</svg>
