<svg width="0" height="0" fill="none" style="visibility: hidden; position: absolute;" aria-hidden="true">
    <symbol id="academy" viewBox="0 0 38 39" xmlns="http://www.w3.org/2000/svg">
        <path d="M8.08906 23.235H1.20489C0.312822 23.235 0.0391933 22.9652 0.0382689 22.0765C0.0382689 19.7894 0.042891 17.5023 0.0382689 15.2152C0.0290247 11.9647 0.0167025 8.71396 0.00129545 5.46288C-0.00352834 5.29193 0.00512398 5.12087 0.0271763 4.95131C0.119618 4.34267 0.410813 4.08969 1.02833 4.08782C3.07684 4.08409 5.12567 4.08409 7.1748 4.08782H7.74979C7.74979 3.52212 7.74979 2.98535 7.74979 2.44765C7.74979 0.876561 8.6243 0 10.1893 0H14.5813C16.1713 0 17.0319 0.87096 17.0347 2.48032V3.01616H15.2857V2.3207C15.2857 1.95383 15.1008 1.78206 14.7412 1.78299C13.1851 1.78299 11.6293 1.78299 10.0738 1.78299C9.69293 1.78299 9.50342 1.94823 9.51174 2.3431C9.52191 2.8864 9.51174 3.43063 9.51174 4.03461C9.70772 4.04581 9.88151 4.06355 10.0608 4.06448C14.405 4.0732 18.7498 4.08035 23.0952 4.08595C24.0002 4.08595 24.2886 4.37161 24.2886 5.27898C24.2886 8.7317 24.2858 12.1857 24.2803 15.6409C24.2803 16.2663 24.0141 16.6388 23.5361 16.706C22.9815 16.7844 22.5424 16.411 22.5322 15.8229C22.5184 15.0182 22.5322 14.2126 22.5322 13.2679C20.9422 14.7102 19.073 14.5814 17.1613 14.5347C17.1613 14.8623 17.1696 15.1517 17.1613 15.4402C17.1419 16.0218 16.7592 16.426 16.2554 16.4101C15.7516 16.3942 15.4234 16.0096 15.4114 15.4383C15.4114 15.1583 15.4114 14.8838 15.4114 14.5776H9.06063C9.06063 14.8997 9.0708 15.2068 9.06063 15.5111C9.04029 16.0208 8.7001 16.383 8.23604 16.4073C7.77198 16.4316 7.36339 16.0656 7.32364 15.5457C7.2996 15.2367 7.32364 14.9249 7.32364 14.545C5.42395 14.5328 3.47989 14.7849 1.85291 13.3146V21.452H2.35857C5.36294 21.452 8.36731 21.4585 11.3708 21.4426C11.6747 21.4393 11.9741 21.3675 12.2471 21.2326C15.1122 19.7962 17.9711 18.3468 20.8239 16.8843C21.2528 16.664 21.618 16.6705 22.0423 16.8843C26.4086 19.1123 30.7793 21.3309 35.1543 23.5402C35.6988 23.8147 35.8938 24.203 35.8938 24.8004C35.8772 27.5692 35.8772 30.3386 35.8938 33.1086C35.9005 33.4322 35.9758 33.7505 36.1147 34.0421C36.6694 35.2044 37.2536 36.3498 37.824 37.5036C38.252 38.3708 37.8785 38.9972 36.9301 38.9972C35.6359 39.0009 34.3417 39.0009 33.0475 38.9972C32.1508 38.9972 31.7727 38.3745 32.1749 37.5615C32.7646 36.3656 33.3664 35.1764 33.9571 33.9805C34.0412 33.8335 34.0926 33.6698 34.1078 33.5007C34.1171 30.9971 34.1143 28.4934 34.1143 25.9011C33.5883 26.168 33.1058 26.3911 32.6519 26.6637C32.5594 26.7207 32.5354 26.9596 32.5345 27.1146C32.5271 29.0899 32.5224 31.0661 32.5345 33.0414C32.5442 33.1699 32.5183 33.2985 32.4594 33.4128C32.4006 33.5271 32.3114 33.6226 32.2017 33.6884C30.0422 35.2202 27.6184 36.0828 25.0448 36.5299C21.0097 37.2301 17.0606 36.9463 13.2834 35.2557C12.3044 34.8179 11.3985 34.2121 10.4787 33.6491C10.3933 33.5841 10.3226 33.5014 10.2715 33.4066C10.2203 33.3118 10.1898 33.207 10.1819 33.0993C10.1561 31.7616 10.1644 30.4239 10.1699 29.0852C10.1699 28.4421 10.5147 28.0584 11.0583 28.0649C11.6019 28.0715 11.9171 28.4458 11.9199 29.103C11.9199 30.0981 11.9347 31.0941 11.9125 32.0902C11.9051 32.4132 12.0132 32.5915 12.2822 32.7548C14.3206 33.9992 16.5401 34.7003 18.8928 34.957C22.4499 35.3453 25.8971 34.8982 29.1779 33.3999C29.7076 33.1581 30.3611 32.9443 30.657 32.5093C30.913 32.1359 30.7494 31.4638 30.7577 30.9224C30.766 29.8386 30.7577 28.7548 30.7577 27.615C30.5488 27.7149 30.388 27.7895 30.2253 27.8707C27.5038 29.2505 24.7786 30.6237 22.0645 32.0192C21.6023 32.2554 21.2195 32.2461 20.7619 32.0127C16.411 29.7897 12.0539 27.5779 7.69063 25.3774C7.29683 25.1776 6.95849 24.9517 6.95572 24.4597C6.95294 23.9678 7.27002 23.7129 7.68324 23.543C7.83248 23.4743 7.97784 23.3974 8.11864 23.3124L8.08906 23.235ZM9.80941 24.4588C9.94067 24.5372 10.0035 24.5801 10.0719 24.6147C13.7536 26.4817 17.4383 28.3456 21.1262 30.2064C21.2273 30.2438 21.3347 30.2607 21.4423 30.2558C21.5499 30.251 21.6555 30.2247 21.7529 30.1784C24.3413 28.8817 26.9241 27.5646 29.5061 26.2577C30.6533 25.6751 31.7986 25.0889 33.0013 24.4747C32.8164 24.372 32.6833 24.2954 32.5493 24.2273C28.9791 22.4094 25.4102 20.59 21.8426 18.7691C21.5191 18.6038 21.275 18.6206 20.9561 18.784C17.9684 20.3177 14.9705 21.8319 11.9762 23.3526C11.2672 23.712 10.56 24.0788 9.80941 24.4588ZM15.4049 12.7433C15.4049 12.4735 15.3994 12.2289 15.4049 11.9843C15.4179 11.4242 15.7691 11.0359 16.2674 11.0322C16.7657 11.0284 17.129 11.4214 17.153 11.975C17.1641 12.2308 17.153 12.4875 17.153 12.7592C17.9674 12.7592 18.7079 12.8021 19.441 12.7498C20.8831 12.6481 22.2595 11.5447 22.3991 10.1705C22.5433 8.76188 22.4315 7.32615 22.4315 5.88388H1.81686C1.81686 7.11051 1.81686 8.3054 1.81686 9.49935C1.8224 11.0275 2.83834 12.3932 4.32019 12.649C5.27697 12.8161 6.27257 12.7638 7.30977 12.8124C7.30977 12.4446 7.29221 12.1673 7.30977 11.8938C7.3523 11.372 7.74979 11.0079 8.2231 11.034C8.6964 11.0602 9.0255 11.4158 9.04768 11.9283C9.05878 12.2 9.04768 12.4735 9.04768 12.7433H15.4049ZM35.0027 35.8009C34.7429 36.3199 34.5321 36.74 34.301 37.2011H35.6877C35.4621 36.7409 35.256 36.3218 35.0027 35.8046V35.8009Z"/>
    </symbol>
    <symbol id="consulting" viewBox="0 0 41 41" xmlns="http://www.w3.org/2000/svg">
        <g clip-path="url(#clip0_9_2031__consulting)">
            <path d="M40.833 17.4858L33.9707 8.57147C33.7167 8.24177 33.2534 8.16045 32.9022 8.38379L28.4716 11.2015H22.6931C22.6184 11.2015 22.5439 11.2175 22.472 11.2384L17.9917 12.5281L13.3428 11.2566L8.82553 8.38379C8.4802 8.1642 8.02538 8.23865 7.76856 8.55708L0.178345 17.9588C-0.0944208 18.2966 -0.0493769 18.7899 0.279694 19.073L4.25795 22.4966L7.82706 27.3063C6.78323 28.4183 6.80356 30.1722 7.88962 31.2586C8.37103 31.7397 8.98319 32.0115 9.61286 32.0747C9.59097 32.2174 9.57971 32.3622 9.57971 32.5092C9.57971 33.2681 9.87531 33.9816 10.4118 34.518C10.9485 35.0548 11.6621 35.3504 12.4209 35.3504C12.4312 35.3504 12.4412 35.3498 12.4513 35.3495C12.4509 35.3689 12.45 35.388 12.45 35.4073C12.45 36.1662 12.7456 36.8797 13.2821 37.4165C13.8188 37.953 14.5324 38.2486 15.2912 38.2486C15.4411 38.2486 15.5893 38.2364 15.7348 38.2138C15.7964 38.8457 16.0689 39.4607 16.5518 39.9436C17.1055 40.4976 17.8331 40.7745 18.5607 40.7745C19.2882 40.7745 20.0158 40.4976 20.5698 39.9436L21.0043 39.5092L21.1867 39.6562C21.7359 40.1883 22.4491 40.4541 23.1623 40.4541C23.8899 40.4541 24.6175 40.1773 25.1712 39.6233C25.7364 39.0581 26.0132 38.3121 26.0017 37.5698C26.7436 37.581 27.49 37.3045 28.0552 36.7396C28.6198 36.1747 28.8967 35.4292 28.8857 34.6873C29.6587 34.6995 30.3919 34.4026 30.939 33.8555C31.5042 33.2903 31.7811 32.5442 31.7695 31.802C32.5121 31.8132 33.2578 31.5367 33.8231 30.9715C34.7877 30.0068 34.9119 28.5156 34.1965 27.4149L36.8025 21.957L40.7204 18.5856C41.0442 18.3069 41.0936 17.8239 40.833 17.4858ZM8.56841 10.1258L11.8166 12.1913L4.75062 20.7997L1.91911 18.3626L8.56841 10.1258ZM9.02667 28.3774L10.007 27.397C10.0367 27.3673 10.068 27.3392 10.0999 27.3129C10.2917 27.1565 10.5238 27.0633 10.7696 27.0411C10.7765 27.0404 10.7837 27.0404 10.7906 27.0401C10.8256 27.0373 10.8606 27.0354 10.896 27.0357C11.2319 27.0404 11.5441 27.1778 11.7756 27.4221C12.2298 27.9022 12.2054 28.6867 11.7212 29.1709L10.7706 30.1216C10.2898 30.6023 9.50745 30.6023 9.02667 30.1216C8.54589 29.6405 8.54589 28.8581 9.02667 28.3774ZM11.5488 33.381C11.3158 33.1483 11.1875 32.8386 11.1875 32.5092C11.1875 32.1798 11.3158 31.8701 11.5488 31.6371L13.4497 29.7362C13.8138 29.3721 14.3863 29.2723 14.8517 29.4941C15.3316 29.7227 15.6015 30.2436 15.5311 30.7675C15.4936 31.0472 15.3635 31.3105 15.1639 31.5104L13.293 33.381C13.06 33.614 12.7503 33.7423 12.4209 33.7423C12.0915 33.7423 11.7819 33.614 11.5488 33.381ZM14.4191 36.2791C14.1861 36.0464 14.0578 35.7367 14.0578 35.4073C14.0578 35.078 14.1861 34.7683 14.4191 34.5352L16.3197 32.6343C16.7092 32.2452 17.3338 32.1614 17.8106 32.4388C18.246 32.6922 18.474 33.1896 18.3993 33.685C18.3583 33.9575 18.2288 34.2137 18.0339 34.4086L16.1633 36.2791C15.9303 36.5122 15.6206 36.6404 15.2912 36.6404C14.9618 36.6404 14.6522 36.5122 14.4191 36.2791ZM17.6886 38.8066C17.2078 38.3258 17.2078 37.5435 17.6886 37.0627L18.6689 36.0824C18.6986 36.0527 18.7296 36.0248 18.7615 35.9985C18.7624 35.9979 18.763 35.9973 18.7637 35.9967C18.9232 35.8672 19.1106 35.7805 19.3105 35.7427C19.3151 35.742 19.3198 35.7414 19.3245 35.7408C19.3589 35.7345 19.394 35.7295 19.429 35.7264C19.4431 35.7252 19.4572 35.7252 19.4715 35.7242C19.5003 35.7227 19.5288 35.7208 19.5579 35.7211C19.8935 35.7258 20.206 35.8628 20.4375 36.1074C20.466 36.1374 20.4925 36.1687 20.5169 36.2009C20.8867 36.6842 20.8369 37.4021 20.3781 37.8613L19.4324 38.8069C18.9517 39.2877 18.1693 39.2874 17.6886 38.8066ZM32.686 29.8344C32.2052 30.3155 31.4229 30.3152 30.9421 29.8344C30.9246 29.8169 30.9061 29.8006 30.8874 29.7853L25.718 24.5614C25.4055 24.2458 24.8965 24.2433 24.5809 24.5558C24.2653 24.868 24.2628 25.3769 24.575 25.6926L29.8004 30.9724C29.801 30.973 29.8016 30.9736 29.8023 30.9743C30.283 31.455 30.283 32.2377 29.8023 32.7185C29.5692 32.9515 29.2595 33.0798 28.9302 33.0798C28.6005 33.0798 28.2908 32.9515 28.0581 32.7185L24.5625 29.1866C24.2503 28.871 23.7413 28.8685 23.4257 29.1806C23.1101 29.4931 23.1076 30.0021 23.4198 30.3177L26.8619 33.7955C26.8794 33.8174 26.8982 33.8383 26.9182 33.8583C27.399 34.3391 27.399 35.1218 26.9182 35.6025C26.4371 36.0833 25.6545 36.083 25.1737 35.6022L23.2659 33.6744C22.9534 33.3588 22.4444 33.356 22.1288 33.6685C21.8132 33.9806 21.8107 34.4896 22.1229 34.8052L23.9775 36.6789C23.995 36.7008 24.0138 36.7221 24.0341 36.7421C24.5149 37.2229 24.5149 38.0055 24.0341 38.4863C23.5533 38.9674 22.771 38.9671 22.2902 38.4863C22.2349 38.4309 22.1698 38.3884 22.1079 38.3408C22.0553 38.3008 22.0416 38.273 22.0678 38.2091C22.0944 38.1444 22.1341 38.0859 22.1607 38.0208C22.1901 37.9483 22.2139 37.8735 22.2371 37.7984C22.3603 37.4012 22.3966 36.9739 22.3412 36.5616C22.2349 35.7705 21.7998 35.0567 21.1404 34.605C20.7841 34.3613 20.3718 34.2015 19.9445 34.1414C20.1516 33.228 19.9029 32.2377 19.256 31.5542C18.7236 30.9918 18.0045 30.6762 17.2309 30.6655C17.2028 30.6652 17.1746 30.6652 17.1462 30.6655C17.1634 29.9273 16.895 29.1938 16.386 28.6561C15.8533 28.0936 15.1342 27.778 14.3609 27.7674C14.131 27.7643 13.8989 27.7887 13.675 27.8403C13.5792 27.1743 13.2436 26.5581 12.7353 26.1173C12.2301 25.68 11.5948 25.4373 10.9182 25.4279C10.2059 25.4176 9.5062 25.6804 8.97724 26.158L5.86952 21.9705L13.3043 12.9129L15.6738 13.561L12.5792 19.0217C12.2051 19.682 12.1106 20.4484 12.313 21.1797C12.5154 21.9114 12.9902 22.5201 13.6506 22.8942C13.6918 22.9177 13.7334 22.9399 13.7757 22.9611C13.7788 22.9627 13.7819 22.9643 13.7854 22.9658C13.8964 23.0212 14.0106 23.0687 14.1263 23.1088C14.6653 23.2955 15.2474 23.3159 15.8089 23.1607C16.5402 22.9583 17.149 22.4832 17.5231 21.8232L19.5341 18.2744L23.1248 18.529L32.6863 28.0902C33.1668 28.5713 33.1668 29.3536 32.686 29.8344ZM33.0191 26.1492L24.0495 17.1799C24.0326 17.1627 24.0147 17.1464 23.9963 17.1311C23.8671 17.0235 23.7069 16.9584 23.538 16.9465L19.1415 16.6347C18.8375 16.6137 18.5353 16.7754 18.3852 17.0404L16.1242 21.0305C15.9619 21.317 15.6976 21.5232 15.3801 21.6111C15.0629 21.699 14.73 21.6577 14.4432 21.4953C14.1567 21.333 13.9505 21.0687 13.8626 20.7512C13.7747 20.4337 13.8157 20.1008 13.9784 19.8143L16.9966 14.4876L18.2197 14.1357C18.2278 14.1331 18.2357 14.13 18.2438 14.1275L22.8086 12.8094H28.3239L35.2094 21.5623L33.0191 26.1492ZM36.2626 20.3004L29.8952 12.2016L33.1449 10.1349L39.0948 17.8633L36.2626 20.3004Z"/>
            <path d="M24.8388 9.6919C25.0446 9.6919 25.2505 9.61339 25.4075 9.45636L30.8991 3.96475C31.2132 3.6507 31.2132 3.14176 30.8991 2.82771C30.5851 2.51365 30.0761 2.51365 29.7621 2.82771L24.2705 8.31931C23.9564 8.63337 23.9564 9.1423 24.2705 9.45636C24.4275 9.61339 24.6333 9.6919 24.8388 9.6919Z"/>
            <path d="M15.5924 9.45636C15.7494 9.61339 15.9552 9.6919 16.1611 9.6919C16.3666 9.6919 16.5724 9.61339 16.7294 9.45636C17.0435 9.1423 17.0435 8.63337 16.7294 8.31931L11.2378 2.82771C10.9238 2.51365 10.4148 2.51365 10.1008 2.82771C9.78672 3.14176 9.78672 3.6507 10.1008 3.96475L15.5924 9.45636Z"/>
            <path d="M20.5 9.69199C20.9438 9.69199 21.3039 9.33196 21.3039 8.88808V4.34334C21.3039 3.89947 20.9438 3.53943 20.5 3.53943C20.0561 3.53943 19.696 3.89947 19.696 4.34334V8.88808C19.696 9.33196 20.0561 9.69199 20.5 9.69199Z"/>
            <path d="M19.7581 1.42951C19.8858 1.73888 20.2039 1.94189 20.5395 1.92437C20.8711 1.90717 21.1623 1.6832 21.2649 1.36758C21.3678 1.04945 21.2559 0.686913 20.9893 0.484215C20.7175 0.277138 20.3384 0.265565 20.0541 0.45356C19.7369 0.66314 19.6139 1.08042 19.7581 1.42951Z"/>
        </g>
        <defs>
            <clipPath id="clip0_9_2031__consulting">
                <rect width="41" height="41" fill="white"/>
            </clipPath>
        </defs>
    </symbol>
    <symbol id="staffing" viewBox="0 0 38 38" xmlns="http://www.w3.org/2000/svg">
        <g clip-path="url(#clip0_9_2014__staffing)">
            <path d="M10.2918 22.1667C9.85457 22.1667 9.5 21.8128 9.5 21.375V13.4582C9.5 13.0213 9.85457 12.6667 10.2918 12.6667C10.7287 12.6667 11.0832 13.0213 11.0832 13.4582V21.375C11.0832 21.8128 10.7287 22.1667 10.2918 22.1667Z"/>
            <path d="M7.12498 7.91676C4.94249 7.91676 3.16675 6.14102 3.16675 3.95824C3.16675 1.77574 4.94249 0 7.12498 0C9.30748 0 11.0832 1.77574 11.0832 3.95824C11.0832 6.14102 9.30748 7.91676 7.12498 7.91676ZM7.12498 1.58324C5.81543 1.58324 4.74998 2.64897 4.74998 3.95824C4.74998 5.26779 5.81543 6.33324 7.12498 6.33324C8.43454 6.33324 9.49998 5.26779 9.49998 3.95824C9.49998 2.64897 8.43454 1.58324 7.12498 1.58324Z"/>
            <path d="M6.33325 12.6667H7.91678V14.25H6.33325V12.6667Z"/>
            <path d="M0.791763 22.1668C0.354568 22.1668 0 21.8128 0 21.375V14.25C0 11.6303 2.13031 9.5 4.75 9.5H22.1668C22.6045 9.5 22.9582 9.85457 22.9582 10.2918V13.4582C22.9582 13.8954 22.6045 14.25 22.1668 14.25H10.2918C9.85457 14.25 9.5 13.8954 9.5 13.4582C9.5 13.0213 9.85457 12.6668 10.2918 12.6668H21.375V11.0832H4.75C3.00354 11.0832 1.58324 12.5035 1.58324 14.25V21.375C1.58324 21.8128 1.22867 22.1668 0.791763 22.1668Z"/>
            <path d="M3.95822 22.1668C3.52132 22.1668 3.16675 21.8128 3.16675 21.375V19C3.16675 18.5631 3.52132 18.2083 3.95822 18.2083C4.39542 18.2083 4.74998 18.5631 4.74998 19V21.375C4.74998 21.8128 4.39542 22.1668 3.95822 22.1668Z"/>
            <path d="M6.33322 30.0832C4.58676 30.0832 3.16675 28.6632 3.16675 26.9168C3.16675 25.1703 4.58676 23.75 6.33322 23.75C8.07968 23.75 9.49998 25.1703 9.49998 26.9168C9.49998 28.6632 8.07968 30.0832 6.33322 30.0832ZM6.33322 25.3332C5.45999 25.3332 4.74998 26.0435 4.74998 26.9168C4.74998 27.79 5.45999 28.5 6.33322 28.5C7.20645 28.5 7.91675 27.79 7.91675 26.9168C7.91675 26.0435 7.20645 25.3332 6.33322 25.3332Z"/>
            <path d="M10.2918 38H0.791763C0.354568 38 0 37.646 0 37.2082V35.625C0 34.5682 0.411682 33.5747 1.15909 32.8264C1.90707 32.079 2.90149 31.6667 3.95824 31.6667H8.70824C9.76614 31.6667 10.7603 32.079 11.5077 32.8264C11.8164 33.1369 11.8164 33.637 11.5068 33.9467C11.1975 34.2554 10.6962 34.2545 10.3874 33.9458C9.93951 33.497 9.34315 33.25 8.70824 33.25H3.95824C3.32419 33.25 2.72812 33.4979 2.27933 33.9458C1.83025 34.3949 1.58324 34.9909 1.58324 35.625V36.4167H10.2918C10.7287 36.4167 11.0832 36.7704 11.0832 37.2082C11.0832 37.646 10.7287 38 10.2918 38Z"/>
            <path d="M19 30.0832C17.2536 30.0832 15.8333 28.6632 15.8333 26.9168C15.8333 25.1703 17.2536 23.75 19 23.75C20.7465 23.75 22.1668 25.1703 22.1668 26.9168C22.1668 28.6632 20.7465 30.0832 19 30.0832ZM19 25.3332C18.1268 25.3332 17.4168 26.0435 17.4168 26.9168C17.4168 27.79 18.1268 28.5 19 28.5C19.8732 28.5 20.5833 27.79 20.5833 26.9168C20.5833 26.0435 19.8732 25.3332 19 25.3332Z"/>
            <path d="M24.5417 38H13.4582C13.0213 38 12.6667 37.646 12.6667 37.2082V35.625C12.6667 34.5682 13.0784 33.5747 13.8255 32.8264C14.5738 32.079 15.5682 31.6667 16.625 31.6667H21.375C22.4326 31.6667 23.427 32.079 24.1744 32.8264C24.921 33.5738 25.3332 34.5682 25.3332 35.625V37.2082C25.3332 37.646 24.9795 38 24.5417 38ZM14.25 36.4167H23.75V35.625C23.75 34.9909 23.5021 34.394 23.0542 33.9458C22.606 33.497 22.0099 33.25 21.375 33.25H16.625C15.9909 33.25 15.3949 33.4979 14.9458 33.9458C14.497 34.3949 14.25 34.9909 14.25 35.625V36.4167Z"/>
            <path d="M31.6668 30.0832C29.9203 30.0832 28.5 28.6632 28.5 26.9168C28.5 25.1703 29.9203 23.75 31.6668 23.75C33.4132 23.75 34.8332 25.1703 34.8332 26.9168C34.8332 28.6632 33.4132 30.0832 31.6668 30.0832ZM31.6668 25.3332C30.7935 25.3332 30.0832 26.0435 30.0832 26.9168C30.0832 27.79 30.7935 28.5 31.6668 28.5C32.54 28.5 33.25 27.79 33.25 26.9168C33.25 26.0435 32.54 25.3332 31.6668 25.3332Z"/>
            <path d="M37.2083 38H27.7083C27.2705 38 26.9168 37.646 26.9168 37.2082C26.9168 36.7704 27.2705 36.4167 27.7083 36.4167H36.4168V35.625C36.4168 34.9909 36.1689 34.394 35.7207 33.9458C35.2728 33.497 34.6767 33.25 34.0418 33.25H29.2918C28.6574 33.25 28.0605 33.4979 27.6126 33.9458C27.3029 34.2554 26.8026 34.2554 26.4932 33.9458C26.1836 33.6364 26.1836 33.136 26.4932 32.8264C27.2406 32.079 28.2347 31.6667 29.2918 31.6667H34.0418C35.0994 31.6667 36.0938 32.079 36.8409 32.8264C37.5875 33.5738 38 34.5682 38 35.625V37.2082C38 37.646 37.646 38 37.2083 38Z"/>
            <path d="M35.625 22.1668H13.4582C13.0213 22.1668 12.6667 21.8128 12.6667 21.375C12.6667 20.9372 13.0213 20.5832 13.4582 20.5832H35.625C36.0619 20.5832 36.4167 20.2287 36.4167 19.7918V2.375C36.4167 1.93867 36.0619 1.58324 35.625 1.58324H13.4582C13.0213 1.58324 12.6667 1.22867 12.6667 0.791763C12.6667 0.354568 13.0213 0 13.4582 0H35.625C36.9345 0 38 1.06544 38 2.375V19.7918C38 21.101 36.9345 22.1668 35.625 22.1668Z"/>
            <path d="M34.0417 19H13.4582C13.0213 19 12.6667 18.6454 12.6667 18.2082C12.6667 17.7713 13.0213 17.4167 13.4582 17.4167H34.0417C34.4795 17.4167 34.8332 17.7713 34.8332 18.2082C34.8332 18.6454 34.4795 19 34.0417 19Z"/>
            <path d="M19 3.16675H20.5832V4.74998H19V3.16675Z"/>
            <path d="M15.8333 3.16675H17.4168V4.74998H15.8333V3.16675Z"/>
            <path d="M12.6667 3.16675H14.25V4.74998H12.6667V3.16675Z"/>
        </g>
        <defs>
            <clipPath id="clip0_9_2014__staffing">
                <rect width="38" height="38" fill="white"/>
            </clipPath>
        </defs>
    </symbol>
    <symbol id="talents" viewBox="0 0 43 43" xmlns="http://www.w3.org/2000/svg">
        <path d="M38.7113 22.549C39.0912 21.9857 39.3133 21.3074 39.3133 20.5782V19.9046C39.3133 17.9559 37.7278 16.3705 35.7791 16.3705C34.8068 16.3705 33.925 16.7653 33.2854 17.4029C31.6304 12.4808 26.9727 8.92542 21.5 8.92542C16.0273 8.92542 11.3696 12.4807 9.71464 17.4029C9.07502 16.7653 8.19326 16.3705 7.22089 16.3705C5.2722 16.3705 3.68675 17.9559 3.68675 19.9046V20.5782C3.68675 21.3074 3.9088 21.9857 4.28875 22.549C1.84237 23.0645 0 25.2393 0 27.8368V29.5277C0 29.9915 0.376082 30.3676 0.839844 30.3676H5.20703C5.67079 30.3676 6.04688 29.9915 6.04688 29.5277C6.04688 29.0639 5.67079 28.6879 5.20703 28.6879H1.67969V27.8368C1.67969 25.7831 3.35047 24.1123 5.40414 24.1123H9.37904C9.70137 25.5301 10.2663 26.8567 11.0286 28.0454L1.44604 37.6279C0.219031 38.855 0.219031 40.8517 1.44613 42.0789C2.05972 42.6925 2.86555 42.9992 3.67154 42.9992C4.47754 42.9992 5.28354 42.6924 5.89713 42.0789L11.18 36.796C11.508 36.468 11.508 35.9362 11.18 35.6082C10.852 35.2803 10.3203 35.2803 9.99221 35.6082L4.70942 40.8911C4.13707 41.4634 3.20602 41.4633 2.63375 40.8912C2.06156 40.3189 2.06156 39.3878 2.63375 38.8155L12.0406 29.4088C14.3222 32.0847 17.7161 33.7848 21.5 33.7848C27.4065 33.7848 32.3634 29.6435 33.621 24.1123H37.5959C39.6495 24.1123 41.3203 25.7831 41.3203 27.8368V28.6879H33.4258C32.962 28.6879 32.5859 29.0639 32.5859 29.5277C32.5859 29.9915 32.962 30.3676 33.4258 30.3676H42.1602C42.6239 30.3676 43 29.9915 43 29.5277V27.8368C43 25.2393 41.1576 23.0645 38.7113 22.549ZM9.07535 20.5783C9.07535 21.6008 8.24349 22.4327 7.22089 22.4327C6.1983 22.4327 5.36643 21.6008 5.36643 20.5783V19.9047C5.36643 18.8821 6.1983 18.0502 7.22089 18.0502C8.24349 18.0502 9.07535 18.8821 9.07535 19.9047V20.5783ZM21.5 32.1051C15.5725 32.1051 10.75 27.2826 10.75 21.3551C10.75 15.4276 15.5725 10.6051 21.5 10.6051C27.4275 10.6051 32.25 15.4276 32.25 21.3551C32.25 27.2826 27.4275 32.1051 21.5 32.1051ZM37.6335 20.5783C37.6335 21.6008 36.8016 22.4327 35.779 22.4327C34.7564 22.4327 33.9246 21.6008 33.9246 20.5783V19.9047C33.9246 18.8821 34.7564 18.0502 35.779 18.0502C36.8016 18.0502 37.6335 18.8821 37.6335 19.9047V20.5783Z"/>
        <path d="M21.5 12.2848C16.4986 12.2848 12.4297 16.3537 12.4297 21.3551C12.4297 23.9511 13.5262 26.2955 15.2799 27.9504C15.3099 27.9828 15.3421 28.0134 15.3774 28.0411C16.9921 29.521 19.1423 30.4254 21.5 30.4254C23.8577 30.4254 26.0079 29.5209 27.6226 28.0411C27.6579 28.0135 27.6901 27.9828 27.7201 27.9504C29.4738 26.2955 30.5703 23.9511 30.5703 21.3551C30.5703 16.3537 26.5014 12.2848 21.5 12.2848ZM21.5 28.7457C19.773 28.7457 18.1827 28.1502 16.9231 27.1539C17.8154 25.4655 19.5544 24.4031 21.5 24.4031C23.4456 24.4031 25.1846 25.4655 26.0769 27.1539C24.8173 28.1502 23.227 28.7457 21.5 28.7457ZM19.7302 20.9537V20.3012C19.7302 19.3253 20.5241 18.5314 21.5 18.5314C22.4759 18.5314 23.2698 19.3253 23.2698 20.3012V20.9537C23.2698 21.9296 22.4759 22.7235 21.5 22.7235C20.5241 22.7235 19.7302 21.9296 19.7302 20.9537ZM27.3054 25.9238C26.536 24.6962 25.4099 23.76 24.0918 23.2262C24.6251 22.6187 24.9495 21.8237 24.9495 20.9537V20.3013C24.9495 18.3993 23.402 16.8518 21.5 16.8518C19.598 16.8518 18.0505 18.3993 18.0505 20.3013V20.9537C18.0505 21.8237 18.3749 22.6187 18.9082 23.2262C17.5901 23.7601 16.464 24.6962 15.6946 25.9238C14.7022 24.6655 14.1094 23.0783 14.1094 21.3551C14.1094 17.2799 17.4248 13.9645 21.5 13.9645C25.5752 13.9645 28.8906 17.2799 28.8906 21.3551C28.8906 23.0783 28.2978 24.6655 27.3054 25.9238Z"/>
        <path d="M13.4265 33.3619C13.2703 33.2057 13.0536 33.1158 12.8328 33.1158C12.6119 33.1158 12.3952 33.2057 12.239 33.3619C12.0829 33.5181 11.9929 33.7348 11.9929 33.9557C11.9929 34.1766 12.0828 34.3932 12.239 34.5495C12.3952 34.7056 12.6119 34.7955 12.8328 34.7955C13.0536 34.7955 13.2703 34.7057 13.4265 34.5495C13.5827 34.3932 13.6726 34.1766 13.6726 33.9557C13.6726 33.7348 13.5827 33.5181 13.4265 33.3619Z"/>
        <path d="M21.5171 0.000732422C21.0533 0.000732422 20.6772 0.376814 20.6772 0.840576V3.69806C20.6772 4.16191 21.0533 4.5379 21.5171 4.5379C21.9809 4.5379 22.3569 4.16182 22.3569 3.69806V0.840576C22.3569 0.376814 21.9809 0.000732422 21.5171 0.000732422Z"/>
        <path d="M22.1105 5.87376C21.9544 5.71755 21.7385 5.62769 21.5168 5.62769C21.2959 5.62769 21.0793 5.71746 20.9231 5.87376C20.7669 6.03005 20.677 6.24665 20.677 6.46753C20.677 6.68841 20.7668 6.90509 20.9231 7.06121C21.0793 7.21743 21.2959 7.30737 21.5168 7.30737C21.7386 7.30737 21.9544 7.21751 22.1105 7.06121C22.2667 6.90509 22.3567 6.68841 22.3567 6.46753C22.3567 6.24665 22.2668 6.02997 22.1105 5.87376Z"/>
        <path d="M28.6369 3.2951C28.3089 2.96723 27.7773 2.96723 27.4491 3.2951L25.973 4.77121C25.6451 5.09917 25.6451 5.63096 25.973 5.959C26.1371 6.12294 26.352 6.20499 26.567 6.20499C26.782 6.20499 26.9968 6.12294 27.1608 5.959L28.6369 4.48289C28.9649 4.15493 28.9649 3.62314 28.6369 3.2951Z"/>
        <path d="M17.041 4.78138L15.5507 3.29107C15.2227 2.9632 14.691 2.9632 14.3629 3.29107C14.035 3.61903 14.035 4.15082 14.3629 4.47886L15.8533 5.96917C16.0173 6.1331 16.2322 6.21516 16.4472 6.21516C16.6621 6.21516 16.877 6.1331 17.041 5.96917C17.369 5.64121 17.369 5.10942 17.041 4.78138Z"/>
    </symbol>
</svg>