<svg width="0" height="0" fill="none" style="visibility: hidden; position: absolute;" aria-hidden="true">
    <symbol id="call" viewBox="0 0 18 18" fill="none" xmlns="http://www.w3.org/2000/svg">
        <path
            d="M14.2253 11.1502C13.8568 10.7665 13.4123 10.5614 12.9412 10.5614C12.4739 10.5614 12.0256 10.7627 11.6419 11.1464L10.4415 12.3431C10.3427 12.2899 10.2439 12.2405 10.1489 12.1911C10.0122 12.1228 9.883 12.0582 9.77282 11.9898C8.64831 11.2756 7.62637 10.3448 6.64623 9.14053C6.17135 8.54029 5.85223 8.03502 5.62049 7.52215C5.93201 7.23722 6.22074 6.9409 6.50186 6.65597C6.60824 6.5496 6.71461 6.43943 6.82098 6.33305C7.61878 5.53526 7.61878 4.50193 6.82098 3.70413L5.78385 2.667C5.66608 2.54923 5.54451 2.42766 5.43054 2.30609C5.2026 2.07055 4.96326 1.82741 4.71632 1.59947C4.34782 1.23477 3.90713 1.04102 3.44365 1.04102C2.98017 1.04102 2.53188 1.23477 2.15198 1.59947C2.14818 1.60327 2.14818 1.60327 2.14438 1.60707L0.852716 2.91014C0.366441 3.39641 0.0891121 3.98906 0.0283277 4.67668C-0.0628488 5.786 0.263867 6.81933 0.514603 7.49556C1.13004 9.15573 2.04941 10.6943 3.42086 12.3431C5.08483 14.33 7.08691 15.899 9.37393 17.0045C10.2477 17.4186 11.414 17.9087 12.7171 17.9923C12.7968 17.9961 12.8804 17.9999 12.9564 17.9999C13.834 17.9999 14.571 17.6845 15.1484 17.0577C15.1522 17.0501 15.1598 17.0463 15.1636 17.0387C15.3612 16.7994 15.5891 16.5828 15.8285 16.3511C15.9918 16.1953 16.159 16.032 16.3223 15.861C16.6984 15.4697 16.896 15.0138 16.896 14.5465C16.896 14.0755 16.6946 13.6234 16.3109 13.2435L14.2253 11.1502ZM15.5853 15.1506C15.5815 15.1506 15.5815 15.1544 15.5853 15.1506C15.4372 15.3101 15.2852 15.4545 15.1218 15.6141C14.8749 15.8496 14.6242 16.0965 14.3886 16.3739C14.0049 16.7842 13.5529 16.9779 12.9602 16.9779C12.9032 16.9779 12.8424 16.9779 12.7854 16.9741C11.6571 16.9019 10.6086 16.4613 9.82221 16.0851C7.67196 15.0442 5.78385 13.5664 4.21485 11.6935C2.91938 10.1321 2.05321 8.68845 1.47955 7.13845C1.12625 6.19249 0.997079 5.45548 1.05406 4.76026C1.09205 4.31577 1.26301 3.94727 1.57833 3.63195L2.8738 2.33648C3.05995 2.16173 3.2575 2.06675 3.45125 2.06675C3.69059 2.06675 3.88434 2.21111 4.00591 2.33268C4.0097 2.33648 4.0135 2.34028 4.0173 2.34408C4.24904 2.56062 4.46939 2.78477 4.70113 3.02411C4.8189 3.14567 4.94046 3.26724 5.06203 3.39261L6.09917 4.42974C6.50186 4.83244 6.50186 5.20475 6.09917 5.60744C5.989 5.71761 5.88262 5.82778 5.77245 5.93416C5.45333 6.26087 5.14941 6.5648 4.8189 6.86112C4.8113 6.86872 4.8037 6.87252 4.7999 6.88011C4.47319 7.20683 4.53397 7.52595 4.60235 7.74249C4.60615 7.75389 4.60995 7.76529 4.61375 7.77668C4.88348 8.43012 5.26338 9.04556 5.84083 9.77877L5.84463 9.78257C6.89316 11.0742 7.99868 12.081 9.21817 12.8522C9.37393 12.951 9.53348 13.0307 9.68544 13.1067C9.82221 13.1751 9.95138 13.2397 10.0615 13.3081C10.0767 13.3157 10.0919 13.3271 10.1071 13.3347C10.2363 13.3992 10.3579 13.4296 10.4832 13.4296C10.7986 13.4296 10.9961 13.2321 11.0607 13.1675L12.36 11.8682C12.4891 11.7391 12.6943 11.5833 12.9336 11.5833C13.1691 11.5833 13.3629 11.7315 13.4807 11.8606C13.4845 11.8644 13.4845 11.8644 13.4883 11.8682L15.5815 13.9615C15.9728 14.349 15.9728 14.7479 15.5853 15.1506Z"
            fill="#3DDBBF" />
        <path
            d="M9.72684 4.28157C10.7222 4.44872 11.6264 4.9198 12.3482 5.64162C13.07 6.36343 13.5373 7.2676 13.7082 8.26294C13.75 8.51368 13.9666 8.68843 14.2135 8.68843C14.2439 8.68843 14.2705 8.68463 14.3009 8.68084C14.582 8.63525 14.7681 8.36932 14.7226 8.08819C14.5174 6.8839 13.9476 5.78598 13.0776 4.916C12.2076 4.04603 11.1097 3.47617 9.9054 3.27103C9.62427 3.22544 9.36214 3.41159 9.31275 3.68892C9.26336 3.96625 9.44572 4.23598 9.72684 4.28157Z"
            fill="white" />
        <path
            d="M17.9783 7.94018C17.6402 5.95709 16.7056 4.15255 15.2696 2.71652C13.8335 1.28049 12.029 0.345932 10.0459 0.00781895C9.76858 -0.0415683 9.50644 0.148383 9.45706 0.425712C9.41147 0.706839 9.59762 0.968972 9.87875 1.01836C11.6491 1.31848 13.2637 2.15807 14.5477 3.43834C15.8318 4.72241 16.6676 6.33699 16.9677 8.10734C17.0095 8.35807 17.2261 8.53283 17.473 8.53283C17.5034 8.53283 17.53 8.52903 17.5604 8.52523C17.8377 8.48344 18.0277 8.21751 17.9783 7.94018Z"
            fill="white" />
    </symbol>
    <symbol id="location" viewBox="0 0 19 19" fill="none" xmlns="http://www.w3.org/2000/svg">
        <path
            d="M12.672 12.5535C14.6938 9.38095 14.4396 9.77676 14.4979 9.69405C15.234 8.6558 15.623 7.43382 15.623 6.16016C15.623 2.78246 12.8821 0 9.5 0C6.12891 0 3.37695 2.77697 3.37695 6.16016C3.37695 7.43301 3.77417 8.68697 4.53439 9.73921L6.32796 12.5536C4.41034 12.8483 1.15039 13.7265 1.15039 15.6602C1.15039 16.365 1.61047 17.3696 3.8023 18.1524C5.33277 18.699 7.35623 19 9.5 19C13.5087 19 17.8496 17.8692 17.8496 15.6602C17.8496 13.7261 14.5935 12.8489 12.672 12.5535ZM5.46432 9.12687C5.4582 9.11729 5.45181 9.10794 5.44513 9.09874C4.81253 8.22845 4.49023 7.19703 4.49023 6.16016C4.49023 3.37629 6.73186 1.11328 9.5 1.11328C12.2624 1.11328 14.5098 3.37729 14.5098 6.16016C14.5098 7.1987 14.1936 8.19512 13.5952 9.04248C13.5415 9.11321 13.8213 8.67858 9.5 15.4594L5.46432 9.12687ZM9.5 17.8867C5.12132 17.8867 2.26367 16.5997 2.26367 15.6602C2.26367 15.0287 3.73202 13.9904 6.98577 13.5857L9.03057 16.7943C9.13277 16.9547 9.30978 17.0518 9.49996 17.0518C9.69015 17.0518 9.8672 16.9546 9.96936 16.7943L12.0141 13.5857C15.2679 13.9904 16.7363 15.0287 16.7363 15.6602C16.7363 16.5917 13.9044 17.8867 9.5 17.8867Z"
            fill="#3DDBBF" />
        <path
            d="M9.5 3.37695C7.96534 3.37695 6.7168 4.6255 6.7168 6.16016C6.7168 7.69481 7.96534 8.94336 9.5 8.94336C11.0347 8.94336 12.2832 7.69481 12.2832 6.16016C12.2832 4.6255 11.0347 3.37695 9.5 3.37695ZM9.5 7.83008C8.57921 7.83008 7.83008 7.08095 7.83008 6.16016C7.83008 5.23936 8.57921 4.49023 9.5 4.49023C10.4208 4.49023 11.1699 5.23936 11.1699 6.16016C11.1699 7.08095 10.4208 7.83008 9.5 7.83008Z"
            fill="#F0F1F2" />
    </symbol>
    <symbol id="mail" viewBox="0 0 20 16" fill="none" xmlns="http://www.w3.org/2000/svg">
        <path
            d="M16.9799 0.999666H3.12124C2.34024 0.999666 1.70709 1.63281 1.70709 2.41381V3.80837L9.20656 9.38654C9.70752 9.75917 10.3936 9.75917 10.8946 9.38654L18.394 3.80837V2.41381C18.394 1.63281 17.7609 0.999666 16.9799 0.999666Z"
            stroke="white" stroke-width="1.2" stroke-miterlimit="10" />
        <path
            d="M17.6869 6.97822V12.8788C17.6869 13.2686 17.3697 13.5859 16.9799 13.5859H3.12122C2.73134 13.5859 2.41415 13.2686 2.41415 12.8788V6.97822L1 5.92638V12.8788C1 14.0484 1.95158 15 3.12122 15H16.9799C18.1495 15 19.1011 14.0484 19.1011 12.8788V5.92638L17.6869 6.97822Z"
            fill="#3DDBBF" stroke="#2B3A46" stroke-width="0.5" />
    </symbol>

    <symbol version="1.2" xmlns="http://www.w3.org/2000/svg" viewBox="0 0 115 117" id="organization">
        <g id="321353356351 1">
            <g id="&lt;Group&gt;">
                <path id="&lt;Compound Path&gt;" fill-rule="evenodd" class="s0" fill="#3ddbbf" d="m36.1 92.2c-0.6 1-1.9 1.3-2.8 0.7-6.6-4-12.6-4-19.2 0-4.7 2.9-9.6 7.8-9.6 21.7 0 1.1-0.9 2.1-2.1 2.1-1.2 0-2.1-1-2.1-2.1 0-12.6 3.6-20.4 11.7-25.3q3.4-2.1 6.9-2.9c-2.5-1.1-4.7-3.1-6-5.7q-1.3-2.6-1.3-5.4c0-6.7 5.4-12.1 12.1-12.1 6.6 0 12 5.4 12 12.1q0 2.8-1.3 5.4c-1.3 2.6-3.4 4.6-6 5.7q3.5 0.8 7 2.9c1 0.6 1.3 1.9 0.7 2.9zm-12.4-9.1c3 0 5.6-1.6 7-4.3q0.8-1.7 0.8-3.5c0-4.3-3.5-7.9-7.8-7.9-4.4 0-7.9 3.6-7.9 7.9q0 1.8 0.9 3.5c1.3 2.7 4 4.3 7 4.3z"/>
                <path id="&lt;Compound Path&gt;" fill-rule="evenodd" class="s0" fill="#3ddbbf" d="m114.6 114.6c0 1.1-0.9 2.1-2.1 2.1-1.1 0-2.1-1-2.1-2.1 0-13.9-4.8-18.8-9.6-21.7-6.5-4-12.6-4-19.1 0-1 0.6-2.3 0.3-2.9-0.7-0.6-1-0.3-2.3 0.7-2.9q3.5-2.1 7-2.9c-2.5-1.1-4.7-3.1-6-5.7q-1.3-2.6-1.3-5.4c0-6.7 5.4-12.1 12.1-12.1 6.6 0 12 5.4 12 12.1q0 2.8-1.3 5.4c-1.3 2.6-3.4 4.6-6 5.7q3.5 0.8 7 2.9c8 4.9 11.6 12.7 11.6 25.3zm-23.3-31.5c3 0 5.7-1.6 7-4.3q0.8-1.7 0.8-3.5c0-4.3-3.5-7.9-7.8-7.9-4.3 0-7.9 3.6-7.9 7.9q0 1.8 0.9 3.5c1.3 2.7 4 4.3 7 4.3z"/>
                <path id="&lt;Compound Path&gt;" fill-rule="evenodd" class="s0" fill="#3ddbbf" d="m80.9 114.6c0 1.1-0.9 2.1-2.1 2.1-1.2 0-2.1-1-2.1-2.1 0-13.9-4.9-18.8-9.6-21.7-6.6-4-12.6-4-19.2 0-4.7 2.9-9.6 7.8-9.6 21.7 0 1.1-0.9 2.1-2.1 2.1-1.1 0-2.1-1-2.1-2.1 0-12.6 3.6-20.4 11.7-25.3q3.5-2.1 7-2.9c-2.6-1.1-4.8-3.1-6.1-5.7q-1.3-2.6-1.3-5.4c0-6.7 5.4-12.1 12.1-12.1 6.6 0 12 5.4 12 12.1q0 2.8-1.3 5.4c-1.3 2.6-3.4 4.6-6 5.7q3.5 0.8 7 2.9c8.1 4.9 11.7 12.7 11.7 25.3zm-23.4-31.5c3 0 5.7-1.6 7-4.3q0.8-1.7 0.8-3.5c0-4.3-3.5-7.9-7.8-7.9-4.3 0-7.9 3.6-7.9 7.9q0 1.8 0.9 3.5c1.3 2.7 4 4.3 7 4.3z"/>
                <g id="&lt;Group&gt;">
                    <g id="&lt;Group&gt;">
                        <path id="&lt;Compound Path&gt;" fill-rule="evenodd" class="s1" fill="#ffffff" d="m56.7 42.3c-7.4 0-13.3-6-13.3-13.3 0-7.3 5.9-13.3 13.3-13.3 7.3 0 13.2 6 13.2 13.3 0 7.3-5.9 13.3-13.2 13.3zm0-22.4c-5 0-9.1 4.1-9.1 9.1 0 5 4.1 9.1 9.1 9.1 5 0 9-4.1 9-9.1 0-5-4-9.1-9-9.1z"/>
                    </g>
                    <path id="&lt;Compound Path&gt;" fill-rule="evenodd" class="s1" fill="#ffffff" d="m84.9 25.8v6.5c0 2.7-2.3 5-5 5h-2.9q-0.1 0.1-0.1 0.3l2 2c2 1.9 2 5.1 0 7l-4.6 4.7c-1 0.9-2.2 1.4-3.5 1.4-1.3 0-2.6-0.5-3.5-1.4l-2.1-2.1q-0.1 0.1-0.3 0.1v2.9c0 2.8-2.2 5-4.9 5h-6.6c-2.7 0-4.9-2.2-4.9-5v-2.9q-0.2 0-0.4-0.1l-2 2.1c-1 0.9-2.2 1.4-3.5 1.4-1.3 0-2.6-0.5-3.5-1.4l-4.6-4.7c-2-1.9-2-5.1 0-7l2-2q-0.1-0.2-0.2-0.3h-2.8c-2.8 0-5-2.3-5-5v-6.5c0-2.8 2.2-5 5-5h2.8q0.1-0.2 0.2-0.3l-2-2.1c-2-1.9-2-5 0-7l4.6-4.6c1.9-1.9 5.1-1.9 7 0l2 2q0.2 0 0.4-0.1v-2.9c0-2.7 2.2-4.9 4.9-4.9h6.6c2.7 0 4.9 2.2 4.9 4.9v2.9q0.2 0.1 0.3 0.1l2.1-2c1.9-1.9 5.1-1.9 7 0l4.6 4.6c2 2 2 5.1 0 7l-2 2.1q0 0.1 0.1 0.3h2.9c2.7 0 5 2.2 5 5zm-4.2 0c0-0.5-0.4-0.8-0.8-0.8h-4.4q0 0 0 0 0 0 0 0-0.3 0-0.6-0.1 0 0-0.1 0-0.3-0.1-0.5-0.3 0 0-0.1 0-0.2-0.2-0.3-0.4-0.1-0.1-0.1-0.1-0.2-0.2-0.3-0.5 0 0 0-0.1-0.4-1.3-1-2.5 0 0-0.1-0.1 0-0.1 0-0.2-0.1-0.1-0.1-0.2 0-0.1 0-0.2 0-0.1-0.1-0.2 0-0.1 0.1-0.2 0-0.1 0-0.2 0-0.1 0-0.2 0-0.1 0.1-0.2 0-0.1 0.1-0.2 0 0 0-0.1 0.1-0.1 0.2-0.2 0-0.1 0.1-0.2 0 0 0.1 0l3.1-3.1c0.3-0.3 0.3-0.8 0-1.1l-4.7-4.6c-0.2-0.2-0.4-0.3-0.5-0.3-0.1 0-0.4 0.1-0.6 0.3l-3 3q-0.2 0.2-0.4 0.3-0.1 0.1-0.1 0.1-0.2 0.1-0.4 0.2-0.1 0-0.1 0-0.3 0.1-0.5 0.1 0 0 0 0-0.1 0-0.1 0-0.2 0-0.4-0.1 0 0-0.1 0-0.2-0.1-0.3-0.1 0-0.1-0.1-0.1-1.3-0.6-2.5-1-0.1 0-0.1-0.1-0.1 0-0.2 0-0.1-0.1-0.2-0.1-0.1-0.1-0.1-0.2-0.1 0-0.2-0.1-0.1 0-0.1-0.1-0.1-0.1-0.2-0.2 0-0.1-0.1-0.2 0 0-0.1-0.1 0-0.1 0-0.2-0.1-0.1-0.1-0.2 0-0.1 0-0.2-0.1-0.1-0.1-0.2 0-0.1 0-0.1v-4.4c0-0.4-0.3-0.7-0.7-0.7h-6.6c-0.4 0-0.7 0.3-0.7 0.7v4.4q-0.1 0-0.1 0 0 0.2 0 0.3 0 0.1 0 0.2 0 0.1-0.1 0.2 0 0.1 0 0.1-0.1 0.1-0.1 0.2-0.1 0.1-0.2 0.2 0 0.1-0.1 0.1 0 0.1-0.1 0.2-0.1 0.1-0.2 0.1-0.1 0.1-0.1 0.1-0.1 0.1-0.2 0.1-0.1 0.1-0.2 0.1-0.1 0-0.1 0.1-1.3 0.4-2.5 1-0.1 0-0.1 0-0.2 0.1-0.3 0.2-0.1 0-0.2 0-0.2 0-0.4 0 0 0 0 0 0 0 0 0-0.3 0-0.5 0-0.1 0-0.1-0.1-0.2 0-0.4-0.1-0.1 0-0.1-0.1-0.2-0.1-0.4-0.3 0 0 0 0l-3.1-3c-0.3-0.3-0.8-0.3-1.1 0l-4.6 4.6c-0.3 0.3-0.3 0.8 0 1.1l3.1 3q0 0.1 0 0.1 0.1 0.1 0.2 0.2 0 0 0.1 0.1 0 0.1 0.1 0.2 0 0.1 0.1 0.2 0 0.1 0 0.2 0 0.1 0.1 0.2 0 0.1 0 0.2 0 0.1 0 0.2 0 0.1 0 0.2 0 0.1-0.1 0.2 0 0.1 0 0.2-0.1 0.1-0.1 0.2 0 0 0 0.1-0.7 1.3-1.1 2.5 0 0 0 0.1-0.1 0.3-0.3 0.5 0 0 0 0.1-0.2 0.2-0.4 0.3-0.1 0.1-0.1 0.1-0.2 0.2-0.5 0.3 0 0-0.1 0-0.3 0.1-0.6 0.1 0 0 0 0 0 0 0 0h-4.3c-0.4 0-0.8 0.3-0.8 0.8v6.5c0 0.4 0.4 0.8 0.8 0.8h4.3q0.1 0 0.1 0 0.1 0 0.2 0 0.1 0 0.2 0 0.1 0.1 0.2 0.1 0.1 0 0.2 0.1 0.1 0 0.2 0.1 0.1 0 0.1 0.1 0.1 0 0.2 0.1 0.1 0.1 0.1 0.1 0.1 0.1 0.2 0.2 0 0.1 0.1 0.2 0 0 0.1 0.1 0 0.1 0.1 0.2 0 0.1 0 0.1 0.4 1.4 1.1 2.6 0 0 0 0.1 0 0.1 0.1 0.2 0 0.1 0 0.2 0.1 0.1 0.1 0.2 0 0.1 0 0.2 0 0.1 0 0.2 0 0.1 0 0.2-0.1 0.1-0.1 0.2 0 0.1 0 0.1-0.1 0.1-0.1 0.2-0.1 0.1-0.1 0.2-0.1 0.1-0.1 0.2-0.1 0.1-0.2 0.2 0 0 0 0l-3.1 3.1c-0.3 0.3-0.3 0.8 0 1.1l4.6 4.6c0.3 0.3 0.8 0.3 1.1 0l3.1-3.1q0 0 0.1 0 0.1-0.1 0.2-0.2 0 0 0.1-0.1 0.1 0 0.2-0.1 0.1 0 0.2-0.1 0.1 0 0.2 0 0.1-0.1 0.2-0.1 0.1 0 0.2 0 0.1 0 0.2 0 0.1 0 0.2 0 0.1 0 0.2 0.1 0.1 0 0.2 0 0.1 0.1 0.2 0.1 0 0 0.1 0 1.2 0.7 2.5 1.1 0 0 0.1 0 0.1 0.1 0.2 0.1 0.1 0.1 0.2 0.1 0 0.1 0.1 0.1 0.1 0.1 0.2 0.2 0.1 0 0.1 0.1 0.1 0.1 0.1 0.2 0.1 0 0.2 0.1 0 0.1 0.1 0.2 0 0.1 0 0.2 0.1 0.1 0.1 0.2 0 0.1 0 0.2 0 0.1 0 0.2 0 0 0.1 0.1v4.3c0 0.5 0.3 0.8 0.7 0.8h6.6c0.4 0 0.7-0.3 0.7-0.8v-4.3q0-0.1 0-0.1 0-0.1 0.1-0.3 0 0 0-0.1 0-0.1 0.1-0.2 0-0.1 0-0.2 0.1-0.1 0.1-0.2 0.1-0.1 0.1-0.2 0.1-0.1 0.2-0.1 0-0.1 0.1-0.2 0.1 0 0.2-0.1 0-0.1 0.1-0.1 0.1-0.1 0.2-0.1 0.1-0.1 0.2-0.1 0 0 0.1 0 1.2-0.4 2.5-1.1 0.1 0 0.1 0 0.1-0.1 0.2-0.1 0.1 0 0.2-0.1 0.1 0 0.2 0 0.1 0 0.2 0 0.1 0 0.2 0 0.1 0 0.2 0 0.1 0 0.2 0.1 0.1 0 0.2 0 0.1 0.1 0.2 0.1 0.1 0 0.2 0.1 0 0 0.1 0.1 0.1 0.1 0.2 0.1 0 0.1 0.1 0.1l3 3.1c0.3 0.3 0.8 0.3 1.1 0l4.7-4.6c0.3-0.3 0.3-0.8 0-1.1l-3.1-3.1q-0.1 0-0.1-0.1-0.1-0.1-0.1-0.2-0.1 0-0.2-0.1 0-0.1 0-0.2-0.1-0.1-0.1-0.2-0.1-0.1-0.1-0.2 0-0.1 0-0.2 0-0.1 0-0.2-0.1-0.1-0.1-0.2 0.1-0.1 0.1-0.2 0-0.1 0-0.2 0-0.1 0.1-0.2 0-0.1 0-0.2 0.1 0 0.1-0.1 0.6-1.2 1-2.5 0 0 0-0.1 0.1-0.1 0.1-0.2 0.1 0 0.1-0.1 0.1-0.1 0.2-0.2 0-0.1 0.1-0.2 0 0 0.1-0.1 0.1-0.1 0.2-0.1 0.1-0.1 0.2-0.1 0-0.1 0.1-0.1 0.1-0.1 0.2-0.1 0.1 0 0.2-0.1 0.1 0 0.2 0 0.1 0 0.2 0 0.1 0 0.1 0h4.4c0.4 0 0.8-0.4 0.8-0.8z"/>
                </g>
            </g>
        </g>
    </symbol>
</svg>