<svg width="0" height="0" fill="none" style="visibility: hidden; position: absolute;" aria-hidden="true">
    <symbol id="find" viewBox="0 0 30 25" fill="none" xmlns="http://www.w3.org/2000/svg">
        <path d="M15.2939 12.2267C12.5143 12.2267 10.2607 9.48965 10.2607 6.1134C10.2607 2.73707 11.0007 0 15.2939 0C19.5873 0 20.3271 2.73707 20.3271 6.1134C20.3271 9.48965 18.0736 12.2267 15.2939 12.2267Z" fill="#1A1A1A"/>
        <path d="M5.7986 21.3141C5.8917 15.4324 6.65989 13.7565 12.538 12.6956C12.538 12.6956 13.3656 13.7499 15.2941 13.7499C17.2227 13.7499 18.0502 12.6956 18.0502 12.6956C23.8642 13.7448 24.6792 15.396 24.7863 21.1229C24.795 21.5906 24.799 21.6151 24.8006 21.5608C24.8003 21.6625 24.7999 21.8507 24.7999 22.1788C24.7999 22.1788 23.4004 24.9999 15.2941 24.9999C7.18778 24.9999 5.78814 22.1788 5.78814 22.1788C5.78814 21.968 5.78799 21.8213 5.78784 21.7217C5.78943 21.7553 5.79269 21.6902 5.7986 21.3141Z" fill="#1A1A1A"/>
        <path d="M8.30971 11.1349C6.05203 11.1349 4.22186 8.91194 4.22186 6.16979C4.22186 3.42757 4.82278 1.20459 8.30971 1.20459C8.89623 1.20459 9.40093 1.2677 9.8351 1.3855C9.02972 2.87021 8.91934 4.67357 8.91934 6.11305C8.91934 7.74292 9.36116 9.29899 10.1748 10.5874C9.61556 10.9367 8.98184 11.1349 8.30971 11.1349Z" fill="#3DDBBF"/>
        <path d="M0.597334 18.5159C0.673093 13.7389 1.29689 12.3778 6.07103 11.5161C6.07103 11.5161 6.74308 12.3725 8.30946 12.3725C8.37423 12.3725 8.43704 12.3705 8.49886 12.3677C7.50362 12.8164 6.59823 13.4412 5.93148 14.3555C4.77882 15.936 4.51382 18.0592 4.45912 21.1784C1.24719 20.5437 0.588926 19.2183 0.588926 19.2183C0.588926 19.0456 0.588923 18.9271 0.588621 18.8461C0.589909 18.8746 0.592562 18.8235 0.597334 18.5159Z" fill="#3DDBBF"/>
        <path d="M22.2793 11.1351C21.6071 11.1351 20.9735 10.9368 20.4141 10.5877C21.2277 9.29924 21.6695 7.74316 21.6695 6.1133C21.6695 4.67373 21.5591 2.87038 20.7539 1.38575C21.188 1.26794 21.6926 1.20483 22.2793 1.20483C25.7662 1.20483 26.367 3.42781 26.367 6.17004C26.367 8.91211 24.5368 11.1351 22.2793 11.1351Z" fill="#3DDBBF"/>
        <path d="M22.0899 12.3677C22.1516 12.3705 22.2144 12.3725 22.2793 12.3725C23.8457 12.3725 24.5177 11.5161 24.5177 11.5161C29.2917 12.3778 29.9157 13.7389 29.9913 18.5159C29.9962 18.8236 29.9987 18.8746 30 18.846C29.9998 18.927 29.9997 19.0455 29.9997 19.2182C29.9997 19.2182 29.3414 20.5436 26.1297 21.1783C26.0747 18.0592 25.8099 15.936 24.6571 14.3554C23.9904 13.4413 23.0852 12.8164 22.0899 12.3677Z" fill="#3DDBBF"/>
    </symbol>
    <symbol id="search" viewBox="0 0 30 30" fill="none" xmlns="http://www.w3.org/2000/svg">
        <path d="M29.2816 26.2711L22.8801 20.5933C26.7593 15.586 26.4028 8.33311 21.8106 3.74085C19.3202 1.2505 16.0476 0 12.775 0C9.50246 0 6.22988 1.2505 3.73952 3.74085C-1.24651 8.72156 -1.24651 16.8312 3.73952 21.8119C6.22988 24.3022 9.50246 25.5474 12.775 25.5474C15.5368 25.5474 18.3038 24.6588 20.592 22.8815L26.2698 29.283C26.323 29.3415 26.3922 29.4107 26.4507 29.4639C27.334 30.2461 28.6803 30.161 29.4625 29.283C30.2448 28.3996 30.1596 27.0533 29.2816 26.2711ZM19.9268 19.9282C19.5756 20.2794 19.2085 20.5986 18.82 20.886C14.861 23.8446 9.21511 23.5253 5.61793 19.9282C1.67487 15.9851 1.67487 9.56765 5.61793 5.61926C9.56632 1.6762 15.9838 1.6762 19.9268 5.61926C23.524 9.21644 23.8433 14.8623 20.8847 18.8213C20.5973 19.2098 20.278 19.577 19.9268 19.9282Z" fill="#132431"/>
        <path d="M15.8711 7.90599V8.76006C15.8711 8.9761 15.8573 9.17299 15.8333 9.35604C15.7913 9.6801 15.7205 9.99885 15.6269 10.3043C15.4204 10.9519 15.1059 11.5479 14.6834 12.0736C14.6132 12.1582 14.5424 12.2423 14.4674 12.3221L14.2189 12.5898C13.8996 12.9415 13.4398 13.1485 12.9609 13.1485H12.5852C12.1111 13.1485 11.6514 12.9468 11.3273 12.5898L11.0788 12.3221C11.0038 12.2423 10.9335 12.1577 10.8675 12.0736C10.5908 11.7309 10.3514 11.351 10.1683 10.9428C9.93365 10.4363 9.78359 9.90094 9.71761 9.35178C9.6894 9.15915 9.67557 8.96705 9.67557 8.77921V7.92515C9.67557 7.63407 9.71335 7.34779 9.79264 7.07108C10.1683 5.75247 11.3927 4.82764 12.7725 4.82764C14.1524 4.82764 15.3773 5.75194 15.7525 7.07534C15.8333 7.33821 15.8711 7.6245 15.8711 7.90599Z" fill="#3DDBBF"/>
        <path d="M17.6452 15.2925C17.4952 15.2222 17.3403 15.1706 17.1759 15.128L15.397 14.4895C15.397 14.4709 15.3922 14.4522 15.3832 14.4331L15.0703 13.6482C15.0069 13.4896 14.8164 13.4252 14.6701 13.5136L13.5393 14.1942L12.7741 14.6539L12.0089 14.1942L10.8734 13.5088C10.7281 13.4242 10.5403 13.4854 10.4791 13.645L10.1646 14.4336C10.155 14.4522 10.1507 14.4714 10.1507 14.49L8.37184 15.1286C8.20742 15.1706 8.05257 15.2222 7.90251 15.293C7.03354 15.6846 6.42905 16.5148 6.32422 17.4752C6.56527 17.8057 6.82548 18.126 7.12294 18.4235C8.44528 19.7458 10.1529 20.5462 11.9946 20.7228L12.225 18.0994V18.0946C12.2484 17.9398 12.1968 17.7849 12.1031 17.6583C12.0935 17.6487 12.0893 17.6397 12.0845 17.6301L11.6668 16.9027C11.6109 16.8053 11.6109 16.685 11.6673 16.5877L12.0845 15.8656C12.1414 15.7666 12.2468 15.7059 12.3612 15.7059H13.1924C13.3036 15.7059 13.4068 15.7655 13.4622 15.8618L13.8815 16.5877C13.9379 16.685 13.9379 16.8053 13.882 16.9027L13.4643 17.6301C13.4595 17.6397 13.4547 17.6487 13.4457 17.6583C13.352 17.7849 13.3004 17.9398 13.3238 18.0946V18.0994L13.5537 20.7191C15.0048 20.5802 16.3724 20.0582 17.5462 19.1812C17.8506 18.9556 18.1428 18.7029 18.4221 18.4235C18.7228 18.1223 18.9936 17.8062 19.2251 17.4854C19.1224 16.5206 18.5168 15.6857 17.6452 15.2925Z" fill="#3DDBBF"/>
    </symbol>
</svg>