<svg width="0" height="0" fill="none" style="visibility: hidden; position: absolute;" aria-hidden="true">
    <symbol id="call" viewBox="0 0 28 28" fill="none" xmlns="http://www.w3.org/2000/svg">
        <path
            d="M0.764244 11.8777C0.269565 10.5416 -0.0886511 9.177 0.0193823 7.72713C0.087614 6.83447 0.423086 6.07258 1.07697 5.44715C1.78772 4.77624 2.45866 4.0712 3.15804 3.38891C4.06779 2.49057 5.21067 2.49625 6.12043 3.38891C6.68334 3.94043 7.24056 4.50332 7.79779 5.06621C8.33795 5.60635 8.88381 6.1465 9.42397 6.69233C10.3735 7.65322 10.3792 8.77331 9.42966 9.72851C8.74734 10.4108 8.07071 11.0988 7.37703 11.7697C7.19508 11.946 7.17802 12.0938 7.27468 12.3155C7.72956 13.4072 8.38913 14.3794 9.1283 15.2892C10.618 17.12 12.3011 18.7461 14.3082 20.0026C14.7404 20.2699 15.2123 20.4689 15.6615 20.7134C15.8946 20.8384 16.0481 20.7986 16.2358 20.6053C16.9124 19.906 17.6061 19.218 18.2998 18.53C19.2095 17.6317 20.3467 17.626 21.2565 18.53C22.3709 19.6331 23.4797 20.7418 24.5828 21.8562C25.5096 22.7887 25.5039 23.9315 24.5714 24.8696C23.9403 25.5064 23.275 26.1091 22.6837 26.7744C21.8194 27.7409 20.7277 28.0593 19.4881 27.9911C17.68 27.8944 16.014 27.2918 14.4049 26.5128C10.8341 24.7787 7.78642 22.3736 5.23342 19.3374C3.34567 17.0859 1.78772 14.641 0.764244 11.8777Z"
            fill="#3DDBBF" />
        <path
            d="M27.9996 13.913C27.9996 6.24294 21.7564 0 14.086 0V2.64955C20.2951 2.64955 25.3499 7.70417 25.3499 13.913H27.9996ZM20.3804 13.913H23.03C23.03 8.98347 19.0157 4.96934 14.086 4.96934V7.61889C14.9128 7.61829 15.7315 7.78068 16.4955 8.09678C17.2594 8.41288 17.9535 8.87648 18.5381 9.46106C19.1227 10.0456 19.5863 10.7397 19.9025 11.5036C20.2186 12.2675 20.381 13.0863 20.3804 13.913Z"
            fill="#262B47" />
    </symbol>
    <symbol id="location" viewBox="0 0 33 33" fill="none" xmlns="http://www.w3.org/2000/svg">
        <path
            d="M16.5003 0C10.7018 0 5.86554 4.67092 5.86554 10.6348C5.86554 12.9036 6.54732 14.9268 7.85579 16.8227L15.6865 29.0417C16.0663 29.6357 16.935 29.6345 17.3142 29.0417L25.1788 16.7811C26.4591 14.9712 27.1351 12.846 27.1351 10.6348C27.1351 4.77076 22.3643 0 16.5003 0ZM16.5003 15.4688C13.835 15.4688 11.6663 13.3001 11.6663 10.6348C11.6663 7.96944 13.835 5.80078 16.5003 5.80078C19.1656 5.80078 21.3343 7.96944 21.3343 10.6348C21.3343 13.3001 19.1656 15.4688 16.5003 15.4688Z"
            fill="#3DDBBF" />
        <path
            d="M24.0583 22.2166L19.1901 29.8276C17.93 31.7923 15.0636 31.7858 13.8095 29.8295L8.93338 22.2186C4.64312 23.2105 1.99835 25.0276 1.99835 27.1991C1.99835 30.9672 9.47027 32.9999 16.5003 32.9999C23.5303 32.9999 31.0023 30.9672 31.0023 27.1991C31.0023 25.0261 28.3538 23.208 24.0583 22.2166Z"
            fill="#262B47" />
    </symbol>
    <symbol id="mail" viewBox="0 0 32 32" fill="none" xmlns="http://www.w3.org/2000/svg">
        <path d="M0.0625 14.021V30.6039L10.7229 22.3125L0.0625 14.021Z" fill="#262B47" />
        <path d="M27.875 9.70679V14.8053L31.0233 12.3566L27.875 9.70679Z" fill="#262B47" />
        <path
            d="M16.6037 0.220172C16.2548 -0.0733906 15.7452 -0.0733906 15.3963 0.220172L12.9104 2.31248H19.0896L16.6037 0.220172Z"
            fill="#262B47" />
        <path d="M4.125 9.70679L0.976685 12.3566L4.125 14.8053V9.70679Z" fill="#262B47" />
        <path d="M12.5713 23.25L1.32129 32H30.678L19.428 23.25H12.5713Z" fill="#262B47" />
        <path d="M21.2773 22.3126L31.9378 30.6041V14.021L21.2773 22.3126Z" fill="#262B47" />
        <path
            d="M15.7637 11.2102C15.0032 11.2102 14.2167 11.9496 14.2167 13.1868C14.2167 14.4447 14.9839 15.2897 15.7006 15.2897C16.4552 15.2897 17.074 14.4068 17.1185 13.2966L17.1197 13.061C17.086 11.9657 16.5379 11.2102 15.7637 11.2102V11.2102Z"
            fill="#3DDBBF" />
        <path
            d="M19.4284 21.375L26 16.2637V5.125C26 4.60725 25.5803 4.1875 25.0625 4.1875H6.9375C6.41975 4.1875 6 4.60725 6 5.125V16.2638L12.5716 21.375H19.4284ZM9.39112 14.9943C8.94344 13.2921 9.16856 11.4976 10.0251 9.94137C10.8813 8.38575 12.2766 7.235 13.9539 6.70106C15.7234 6.13763 17.6024 6.30362 19.2443 7.16844C20.8865 8.03331 22.0863 9.48806 22.6224 11.2647C22.6254 11.2744 22.6281 11.2841 22.6307 11.2939C22.9871 12.6289 22.8816 13.8891 22.2886 15.3801C21.8878 16.3878 20.9051 17.4647 19.3491 17.4647C18.7846 17.4647 18.2433 17.2332 17.8249 16.8127C17.7259 16.7132 17.6368 16.6049 17.5569 16.4901C17.0314 16.9174 16.3943 17.1647 15.7006 17.1647C14.7945 17.1647 13.9135 16.7248 13.2836 15.9578C12.6762 15.2183 12.3418 14.2342 12.3418 13.1868C12.3418 12.1347 12.6976 11.1611 13.3439 10.4456C13.9811 9.73994 14.8632 9.33519 15.7638 9.33519C16.2591 9.33519 16.7297 9.45325 17.1527 9.67569C17.2347 9.24113 17.6156 8.91281 18.0731 8.91281H18.0778C18.5956 8.91537 19.0132 9.33719 19.0107 9.85494L18.9849 15.0634C18.9841 15.2233 19.0473 15.3828 19.1541 15.4901C19.191 15.5273 19.2655 15.5896 19.3491 15.5896C20.1056 15.5896 20.4384 14.9584 20.5462 14.6871C20.9842 13.586 21.0672 12.7191 20.8229 11.7918C20.4309 10.5064 19.5604 9.454 18.3706 8.82738C17.1766 8.1985 15.8099 8.07794 14.5226 8.48763C11.9852 9.29538 10.5277 11.9439 11.2045 14.5173C11.7665 16.6543 13.6982 18.1893 15.902 18.2503C16.4195 18.2646 16.8276 18.6958 16.8132 19.2134C16.7991 19.7221 16.3822 20.1249 15.8766 20.1249C15.8677 20.1249 15.859 20.1248 15.8501 20.1246C14.3973 20.0844 12.9632 19.5683 11.8119 18.6713C10.6158 17.7396 9.77875 16.4681 9.39112 14.9943V14.9943Z"
            fill="#3DDBBF" />
    </symbol>
</svg>