<svg width="0" height="0" style="visibility: hidden; position: absolute;" aria-hidden="true">
	<symbol id="innovative" viewBox="0 0 34 33" xmlns="http://www.w3.org/2000/svg">
		<path fill-rule="evenodd" clip-rule="evenodd" d="M24.807 0.960366C27.2919 0.405746 29.6325 0.359766 31.0733 0.406278C32.3995 0.449086 33.4409 1.49047 33.4836 2.81667C33.5301 4.25736 33.4841 6.59807 32.9296 9.08295C32.3762 11.562 31.3003 14.2568 29.2323 16.3248L29.1914 16.3657C27.5199 18.0372 26.2071 19.35 25.1216 20.29L25.5574 24.2122C25.6189 24.7657 25.4255 25.3172 25.0317 25.711L21.1407 29.6018C20.2101 30.5326 18.631 30.2085 18.1421 28.9864L16.3397 24.4804L10.5552 25.4444C9.3144 25.6512 8.23864 24.5756 8.44544 23.3346L9.40953 17.5501L4.90349 15.7477C3.68147 15.2589 3.35733 13.6799 4.28801 12.7491L8.17894 8.85822C8.57276 8.4644 9.12423 8.27097 9.67777 8.33246L13.5998 8.76826C14.5399 7.68272 15.8526 6.36997 17.5242 4.69835L17.5649 4.65759C19.6329 2.58959 22.3279 1.5137 24.807 0.960366ZM25.2063 2.74968C22.9184 3.26034 20.5941 4.22117 18.8613 5.95396C16.9392 7.87607 15.5809 9.23587 14.6921 10.3158L14.3766 10.6992L9.47529 10.1546L5.58437 14.0455L10.0904 15.848C10.8903 16.1679 11.3596 17.0017 11.2179 17.8515L10.2538 23.636L16.0383 22.672C16.8882 22.5303 17.722 22.9995 18.042 23.7995L19.8443 28.3055L23.7352 24.4146L23.1907 19.5134L23.574 19.1979C24.6541 18.3089 26.0138 16.9506 27.9359 15.0285C29.6688 13.2958 30.6296 10.9714 31.1402 8.68356C31.6495 6.40148 31.6948 4.22737 31.6513 2.87581C31.6396 2.51573 31.3741 2.25028 31.0141 2.23866C29.6625 2.19502 27.4884 2.24031 25.2063 2.74968Z" fill="#47C8BE" />
		<path fill-rule="evenodd" clip-rule="evenodd" d="M10.2497 32.6371C9.89171 32.2793 9.89171 31.6988 10.2497 31.3408L14.1387 27.4517C14.4967 27.0939 15.0772 27.0939 15.435 27.4517C15.7931 27.8098 15.7931 28.3902 15.435 28.7481L11.5461 32.6371C11.1881 32.9952 10.6077 32.9952 10.2497 32.6371Z" fill="#47C8BE" />
		<path fill-rule="evenodd" clip-rule="evenodd" d="M1.17522 23.5627C0.817244 23.2048 0.817244 22.6244 1.17522 22.2663L5.06431 18.3773C5.4223 18.0194 6.0027 18.0194 6.36068 18.3773C6.71865 18.7353 6.71865 19.3158 6.36068 19.6736L2.47159 23.5627C2.11361 23.9207 1.5332 23.9207 1.17522 23.5627Z" fill="#47C8BE" />
		<path fill-rule="evenodd" clip-rule="evenodd" d="M3.11638 30.6892C2.75841 30.3313 2.75841 29.7509 3.11638 29.3928L7.00547 25.5038C7.36345 25.1459 7.94384 25.1459 8.30184 25.5038C8.65981 25.8618 8.65981 26.4422 8.30184 26.8001L4.41275 30.6892C4.05476 31.0472 3.47436 31.0472 3.11638 30.6892Z" fill="#47C8BE" />
	</symbol>
	<symbol id="lidenskapelige" viewBox="0 0 35 39" xmlns="http://www.w3.org/2000/svg">
		<path d="M17.6092 1C11.2779 1 6.12646 6.15142 6.12646 12.4828C6.12646 16.2605 7.99229 19.7959 11.1172 21.9396C12.2672 22.7302 12.9752 23.9612 13.1144 25.368C12.3885 25.6401 11.8678 26.3354 11.8678 27.1552V28.431C11.8678 28.923 12.0596 29.3675 12.3656 29.7069C12.0596 30.0463 11.8678 30.4908 11.8678 30.9828V32.2586C11.8678 33.1026 12.4206 33.8125 13.1803 34.0662C13.4532 36.2465 15.3688 38 17.6092 38C18.2863 38 18.9336 37.8517 19.5341 37.5596C20.2531 37.2098 19.7238 36.0513 18.976 36.412C18.5505 36.6195 18.0908 36.7241 17.6092 36.7241C16.0982 36.7241 14.7923 35.6079 14.4872 34.1724H20.7318C20.6802 34.4239 20.6005 34.6681 20.4868 34.9011C20.138 35.6168 21.2764 36.1913 21.6343 35.4595C21.8492 35.0178 21.9847 34.5505 22.0422 34.065C22.7998 33.8101 23.3506 33.1012 23.3506 32.2586V30.9828C23.3506 30.4908 23.1589 30.0463 22.8528 29.7069C23.1589 29.3675 23.3506 28.923 23.3506 28.431V27.1552C23.3506 26.0998 22.4921 25.2414 21.4368 25.2414H18.2472V20.4045C18.2472 20.4045 23.8814 14.842 23.8864 14.8376C25.7223 12.9886 25.7223 9.97963 23.8864 8.13063C22.9961 7.23478 21.8112 6.74138 20.5497 6.74138C19.4676 6.74138 18.4415 7.10458 17.6092 7.7749C16.7775 7.10458 15.7515 6.74138 14.6688 6.74138C13.4072 6.74138 12.2223 7.23478 11.3321 8.13062C9.49616 9.97963 9.49616 12.9886 11.3371 14.842L16.9713 20.4045V25.2414H14.3827C14.2076 23.4599 13.3063 21.8965 11.8392 20.888C9.06132 18.9817 7.40233 15.84 7.40233 12.4828C7.40233 6.85476 11.9812 2.27586 17.6092 2.27586C23.2372 2.27586 27.8161 6.85476 27.8161 12.4828C27.8161 15.84 26.1571 18.9817 23.3786 20.888C22.5688 21.4443 21.9104 22.1874 21.4755 23.0365C21.1105 23.7492 22.2361 24.3527 22.6105 23.6185C22.9494 22.9569 23.4652 22.3769 24.1007 21.9396C27.2262 19.7959 29.092 16.2605 29.092 12.4828C29.092 6.15142 23.9406 1 17.6092 1ZM12.2379 13.938C10.8941 12.5849 10.8941 10.3833 12.2379 9.03021C12.8864 8.3767 13.7492 8.01724 14.6688 8.01724C15.5877 8.01724 16.4505 8.3767 17.0984 9.02896C17.3964 9.33021 17.813 9.33667 18.1194 9.03021C18.768 8.3767 19.6308 8.01724 20.5497 8.01724C21.4692 8.01724 22.332 8.3767 22.9806 9.03021C24.3237 10.3827 24.3243 12.5824 22.9831 13.9362L17.6092 19.2415L12.2379 13.938ZM13.1437 30.9828C13.1437 30.6308 13.4297 30.3448 13.7816 30.3448H14.4196C15.2375 30.3448 15.2471 29.069 14.4196 29.069H13.7816C13.4297 29.069 13.1437 28.783 13.1437 28.431V27.1552C13.1437 26.8032 13.4297 26.5172 13.7816 26.5172H21.4368C21.7888 26.5172 22.0747 26.8032 22.0747 27.1552V28.431C22.0747 28.783 21.7888 29.069 21.4368 29.069C21.4368 29.069 16.9937 29.069 16.9714 29.069C16.1574 29.069 16.1429 30.3448 16.9713 30.3448H21.4368C21.7888 30.3448 22.0747 30.6308 22.0747 30.9828V32.2586C22.0747 32.6106 21.7888 32.8966 21.4368 32.8966H13.7816C13.4297 32.8966 13.1437 32.6106 13.1437 32.2586V30.9828Z" fill="#47C8BE" stroke="#47C8BE" stroke-width="0.2" />
		<path d="M20.6465 10.5763C21.2682 10.7292 21.6684 11.5493 21.2293 12.0718C20.714 12.6849 21.6768 13.5225 22.2059 12.8931C22.6998 12.3055 22.786 11.5598 22.5776 10.8981C22.3464 10.1641 21.7526 9.53346 20.9508 9.3366C20.153 9.14075 19.8445 10.379 20.6465 10.5763Z" fill="#47C8BE" />
		<path d="M33.0751 8.53917C33.8557 8.30653 33.5034 7.08202 32.7113 7.31688C32.7113 7.31688 30.2725 8.04367 30.2655 8.04577C29.4885 8.27733 29.8407 9.50381 30.6293 9.26806C30.6293 9.26806 33.0688 8.54104 33.0751 8.53917Z" fill="white" stroke="white" stroke-width="0.2" />
		<path d="M31.4478 3.42829C31.2758 3.1596 30.9396 2.99848 30.605 3.2173C30.605 3.2173 28.4789 4.60888 28.4701 4.6146C27.7935 5.05742 28.4797 6.13261 29.1691 5.68243C29.1691 5.68243 31.2929 4.29233 31.304 4.28509C31.6274 4.07389 31.6199 3.69723 31.4478 3.42829Z" fill="white" stroke="white" stroke-width="0.2" />
		<path d="M33.5573 11.8473C33.5573 11.8473 31.0144 11.8467 31.0056 11.8467C30.1898 11.8465 30.1783 13.1225 31.0055 13.1225C31.0055 13.1225 33.5521 13.1232 33.5573 13.1232C34.3656 13.1234 34.3853 11.8473 33.5573 11.8473Z" fill="white" stroke="white" stroke-width="0.2" />
		<path d="M4.90592 8.04597C4.90592 8.04597 2.46676 7.31887 2.46072 7.31708C1.67819 7.08381 1.30521 8.30411 2.09566 8.53937C2.09566 8.53937 4.53419 9.26627 4.54085 9.26826C5.32819 9.50293 5.69574 8.28103 4.90592 8.04597Z" fill="white" stroke="white" stroke-width="0.2" />
		<path d="M6.70146 4.61433C6.70146 4.61433 4.57278 3.22146 4.56588 3.21699C3.87799 2.76688 3.1773 3.8328 3.8669 4.28477C3.8669 4.28477 5.99149 5.67492 6.00244 5.68208C6.66953 6.11859 7.37801 5.05769 6.70146 4.61433Z" fill="white" stroke="white" stroke-width="0.2" />
		<path d="M4.16583 11.8467C4.16583 11.8467 1.61823 11.8473 1.6141 11.8473C0.803026 11.8475 0.787607 13.1232 1.6141 13.1232C1.6141 13.1232 4.1573 13.1225 4.16579 13.1225C4.98672 13.1223 4.98937 11.8467 4.16583 11.8467Z" fill="white" stroke="white" stroke-width="0.2" />
	</symbol>
	<symbol id="profesjonelle" viewBox="0 0 35 35" xmlns="http://www.w3.org/2000/svg">
		<path d="M21.458 0.780762H14.7052C13.5071 0.780762 12.5269 1.761 12.5269 2.95908V4.15715H8.06134C6.37315 4.15715 5.06616 5.51859 5.06616 7.15233V9.65739C5.06616 10.9644 5.88303 12.0535 7.02664 12.4892V20.6579C7.02664 20.9846 7.24448 21.2025 7.57122 21.2025C7.89797 21.2025 8.1158 20.9846 8.1158 20.6579V12.8159C10.2397 13.3061 12.9081 13.6873 15.4132 13.8506V15.7567C15.4132 16.3012 15.8488 16.7914 16.4479 16.7914H19.7153C20.2599 16.7914 20.75 16.3557 20.75 15.7567V13.7962C22.9283 13.6328 25.5423 13.3061 28.0474 12.7615V21.5292C28.0474 21.8559 28.2652 22.0738 28.592 22.0738C28.9187 22.0738 29.1365 21.8559 29.1365 21.5292V12.4347C30.2801 11.9991 31.097 10.9099 31.097 9.60293V7.15233C31.097 5.46414 29.7356 4.15715 28.1018 4.15715H23.6363V2.95908C23.6363 1.761 22.656 0.780762 21.458 0.780762ZM13.616 2.95908C13.616 2.36004 14.1062 1.86992 14.7052 1.86992H21.458C22.057 1.86992 22.5471 2.36004 22.5471 2.95908V4.15715H13.616V2.95908ZM19.6609 15.6478H16.5568C16.5568 15.5933 16.5568 11.8357 16.5568 11.8902H19.6609C19.6609 11.9446 19.6609 15.7567 19.6609 15.6478ZM28.1018 5.2463C29.1365 5.2463 30.0079 6.11763 30.0079 7.15233V9.60293C30.0079 10.4198 29.5177 11.2367 28.483 11.509C25.8691 12.0535 23.7452 12.4347 20.75 12.6526V11.7812C20.75 11.2367 20.3144 10.7465 19.7153 10.7465H16.4479C15.9033 10.7465 15.4132 11.1822 15.4132 11.7812V12.707C12.3635 12.5437 9.25942 11.9991 7.57122 11.5634C6.75436 11.3456 6.15532 10.5832 6.15532 9.71185V7.20679C6.15532 6.17209 7.02664 5.30076 8.06134 5.30076C23.2006 5.2463 18.4083 5.2463 28.1018 5.2463Z" fill="white" stroke="white" stroke-width="0.2" />
		<path d="M33.7657 22.9452C33.4389 22.4006 32.7854 21.965 32.0775 21.856C31.5874 21.8016 31.0428 21.856 30.5527 22.1828C30.117 22.4551 29.1368 23.4353 27.0129 24.4156C26.7406 24.5245 26.6317 24.8512 26.7406 25.1235C26.8495 25.3958 27.1763 25.5047 27.4486 25.3958C29.5724 24.47 31.2606 22.9997 31.1517 23.0541C31.3695 22.8907 31.6963 22.8363 31.9686 22.8907C32.0775 22.9452 31.9686 22.8907 32.6765 23.2719C32.9488 23.5442 33.0033 24.0888 32.5676 24.5245C29.7358 27.1929 27.1218 30.0247 24.8346 31.4951C23.2553 32.5298 20.3146 32.8565 19.2799 32.8021C17.6462 32.7476 16.8838 32.2575 16.3936 32.0397C13.4529 30.5148 9.5864 29.9158 6.59122 31.604C6.31893 31.7674 6.21002 32.0941 6.37339 32.3664C6.53676 32.6387 6.86351 32.7476 7.1358 32.5842C9.74978 31.1139 13.2351 31.7129 15.958 33.0744C17.3194 33.7823 18.5175 33.9457 19.3344 33.9457C20.4235 33.9457 23.3642 33.7279 24.998 32.7476C27.1763 31.4406 31.2062 27.5197 33.4934 25.178C33.9835 24.6879 34.2013 23.7076 33.7657 22.9452Z" fill="#47C8BE" stroke="#47C8BE" stroke-width="0.2" />
		<path d="M1.52651 34.0001H4.84844C5.17519 34.0001 5.39302 33.7823 5.39302 33.4556C5.39302 32.7476 5.39302 35.9606 5.39302 26.7028C5.44748 26.7028 5.50194 26.6483 5.55639 26.6483C7.08121 25.5592 7.24459 25.0691 7.3535 24.9601C7.57133 24.6334 7.84362 24.1433 8.27929 23.871C8.76941 23.5442 9.20507 23.3264 9.96748 23.2175C13.1805 22.6729 16.0123 24.3066 18.354 25.178C24.181 27.1929 24.78 26.4305 25.5969 27.3018C25.8692 27.683 25.9781 28.2821 25.5969 28.5544C23.6364 29.2078 19.4976 28.7722 17.2648 28.1732C16.9925 28.1187 16.6658 28.2821 16.6113 28.5544C16.5569 28.8266 16.7203 29.1534 16.9925 29.2079C21.0769 30.297 25.2157 29.9158 25.9781 29.5346C26.9039 29.1534 27.394 27.7375 26.4682 26.5939C25.3246 25.1235 24.4533 26.3216 18.953 24.1977C15.6856 22.9452 13.2349 21.5293 9.74965 22.1283C9.20507 22.2372 8.71495 22.4006 8.11591 22.7274C7.57133 22.9997 6.91784 23.5987 6.53663 24.3066C6.26434 24.6878 6.04651 24.9601 5.44748 25.3958V24.9057C5.44748 24.5789 5.22965 24.3611 4.9029 24.3611H1.52651C1.19976 24.3611 0.981934 24.5789 0.981934 24.9057V29.4257C0.981934 29.7524 1.19976 29.9703 1.52651 29.9703C1.85326 29.9703 2.07109 29.7524 2.07109 29.4257V25.4503H4.30386C4.30386 25.6136 4.30386 33.3466 4.30386 32.911H2.07109V32.0941C2.07109 31.7674 1.85326 31.5495 1.52651 31.5495C1.19976 31.5495 0.981934 31.7674 0.981934 32.0941V33.4556C0.981934 33.7823 1.19976 34.0001 1.52651 34.0001Z" fill="#47C8BE" stroke="#47C8BE" stroke-width="0.2" />
	</symbol>
</svg>
