<svg viewBox="0 0 312 103" id="border" fill="none" xmlns="http://www.w3.org/2000/svg">
<path d="M166.603 99.0373H49.7216C43.3742 99.1537 37.0673 98.0041 31.1693 95.6555C25.2712 93.3069 19.9004 89.8066 15.3704 85.3589C10.8404 80.9112 7.24215 75.6054 4.78585 69.7514C2.32955 63.8974 1.06445 57.6126 1.06445 51.2642C1.06445 44.9158 2.32955 38.631 4.78585 32.777C7.24215 26.923 10.8404 21.6172 15.3704 17.1695C19.9004 12.7218 25.2712 9.22147 31.1693 6.8729C37.0673 4.52434 43.3742 3.37468 49.7216 3.49106H166.603V5.20355H49.7216C24.3253 5.20355 3.66899 25.8659 3.66899 51.2642C3.66899 76.6625 24.3313 97.3228 49.7276 97.3228H166.609L166.603 99.0373Z" fill="white" stroke="#132431"/>
<path d="M167.138 4.66954H166.602C166.517 4.66954 166.436 4.6357 166.375 4.57546C166.315 4.51522 166.281 4.43352 166.281 4.34832C166.281 4.26313 166.315 4.18142 166.375 4.12118C166.436 4.06094 166.517 4.0271 166.602 4.0271H167.138C167.224 4.0271 167.305 4.06094 167.366 4.12118C167.426 4.18142 167.46 4.26313 167.46 4.34832C167.46 4.43352 167.426 4.51522 167.366 4.57546C167.305 4.6357 167.224 4.66954 167.138 4.66954Z" fill="#3DDBBF"/>
<path d="M260.111 98.5013H259.011C258.926 98.5013 258.844 98.4674 258.784 98.4072C258.724 98.3469 258.69 98.2652 258.69 98.1801C258.69 98.0949 258.724 98.0131 258.784 97.9529C258.844 97.8927 258.926 97.8588 259.011 97.8588H260.111C260.197 97.8588 260.278 97.8927 260.339 97.9529C260.399 98.0131 260.433 98.0949 260.433 98.1801C260.433 98.2652 260.399 98.3469 260.339 98.4072C260.278 98.4674 260.197 98.5013 260.111 98.5013ZM245.803 98.5013H244.703C244.618 98.5013 244.536 98.4674 244.476 98.4072C244.416 98.3469 244.382 98.2652 244.382 98.1801C244.382 98.0949 244.416 98.0131 244.476 97.9529C244.536 97.8927 244.618 97.8588 244.703 97.8588H245.797C245.882 97.8588 245.964 97.8927 246.024 97.9529C246.085 98.0131 246.118 98.0949 246.118 98.1801C246.118 98.2652 246.085 98.3469 246.024 98.4072C245.964 98.4674 245.882 98.5013 245.797 98.5013H245.803ZM231.497 98.5013H230.397C230.312 98.5013 230.23 98.4674 230.17 98.4072C230.109 98.3469 230.076 98.2652 230.076 98.1801C230.076 98.0949 230.109 98.0131 230.17 97.9529C230.23 97.8927 230.312 97.8588 230.397 97.8588H231.497C231.582 97.8588 231.664 97.8927 231.724 97.9529C231.784 98.0131 231.818 98.0949 231.818 98.1801C231.818 98.2652 231.784 98.3469 231.724 98.4072C231.664 98.4674 231.582 98.5013 231.497 98.5013ZM273.255 97.6842C273.176 97.6833 273.099 97.6529 273.041 97.599C272.983 97.5451 272.946 97.4714 272.939 97.3922C272.932 97.313 272.954 97.234 273.002 97.1704C273.049 97.1067 273.119 97.0631 273.197 97.0478C273.556 96.9795 273.912 96.9072 274.267 96.8309C274.35 96.8131 274.437 96.8291 274.509 96.8754C274.581 96.9217 274.631 96.9945 274.649 97.0779C274.666 97.1612 274.65 97.2482 274.604 97.3197C274.558 97.3913 274.485 97.4415 274.402 97.4593C274.042 97.5376 273.679 97.6099 273.316 97.6781L273.255 97.6842ZM286.688 92.9301C286.617 92.9295 286.549 92.9054 286.493 92.8615C286.437 92.8177 286.397 92.7566 286.38 92.6878C286.362 92.619 286.368 92.5464 286.396 92.4813C286.425 92.4162 286.474 92.3622 286.536 92.3279C286.855 92.1552 287.174 91.9805 287.489 91.7999C287.526 91.7771 287.567 91.7619 287.61 91.7553C287.652 91.7487 287.696 91.7508 287.738 91.7615C287.78 91.7722 287.819 91.7912 287.853 91.8174C287.888 91.8436 287.917 91.8765 287.938 91.9141C287.959 91.9517 287.973 91.9932 287.978 92.0361C287.983 92.079 287.979 92.1225 287.967 92.164C287.954 92.2054 287.934 92.244 287.906 92.2773C287.879 92.3106 287.845 92.3381 287.806 92.358C287.488 92.5413 287.165 92.72 286.839 92.894C286.795 92.9171 286.746 92.9294 286.696 92.9301H286.688ZM298.065 84.3576C298.024 84.3577 297.983 84.3496 297.945 84.3338C297.906 84.3179 297.872 84.2946 297.843 84.2653C297.813 84.2356 297.789 84.2003 297.772 84.1613C297.756 84.1224 297.748 84.0806 297.748 84.0384C297.748 83.9962 297.756 83.9545 297.772 83.9155C297.789 83.8766 297.813 83.8413 297.843 83.8116C298.097 83.5439 298.348 83.2802 298.597 83.0206C298.656 82.9616 298.736 82.9278 298.819 82.9263C298.902 82.9248 298.983 82.9556 299.044 83.0124C299.105 83.0692 299.141 83.1474 299.146 83.2306C299.15 83.3138 299.122 83.3954 299.067 83.4582C298.814 83.7259 298.559 83.9936 298.302 84.2613C298.272 84.2917 298.237 84.3159 298.198 84.3325C298.158 84.349 298.116 84.3576 298.073 84.3576H298.065ZM306.365 72.7737C306.31 72.7734 306.256 72.759 306.208 72.7321C306.16 72.7051 306.12 72.6664 306.091 72.6196C306.063 72.5728 306.046 72.5194 306.044 72.4645C306.042 72.4096 306.053 72.3551 306.078 72.3059C306.242 71.9807 306.405 71.6535 306.562 71.3242C306.598 71.2473 306.664 71.1881 306.745 71.1597C306.825 71.1312 306.913 71.1359 306.99 71.1726C307.067 71.2094 307.126 71.2752 307.155 71.3556C307.183 71.436 307.179 71.5243 307.142 71.6013C306.981 71.9345 306.819 72.2678 306.652 72.6051C306.624 72.6551 306.584 72.697 306.535 72.7266C306.486 72.7562 306.43 72.7725 306.373 72.7737H306.365ZM310.782 59.2264H310.729C310.688 59.2195 310.648 59.2046 310.612 59.1823C310.576 59.16 310.545 59.1309 310.52 59.0966C310.496 59.0623 310.478 59.0235 310.468 58.9823C310.459 58.9412 310.457 58.8986 310.464 58.8569C310.522 58.4983 310.576 58.1382 310.627 57.7769C310.639 57.6923 310.684 57.6159 310.752 57.5644C310.82 57.5129 310.906 57.4904 310.99 57.5018C311.032 57.5075 311.073 57.5214 311.109 57.5428C311.146 57.5642 311.177 57.5926 311.203 57.6264C311.228 57.6602 311.247 57.6987 311.257 57.7397C311.267 57.7807 311.27 57.8234 311.263 57.8652C311.213 58.2326 311.157 58.596 311.099 58.9613C311.086 59.0327 311.049 59.0976 310.995 59.1456C310.941 59.1937 310.872 59.2221 310.8 59.2264H310.782ZM310.938 44.9723C310.861 44.9721 310.786 44.9439 310.728 44.893C310.67 44.8421 310.632 44.7719 310.621 44.6953C310.569 44.3339 310.515 43.9745 310.454 43.6152C310.447 43.5735 310.449 43.5309 310.459 43.4898C310.468 43.4487 310.486 43.4099 310.51 43.3756C310.535 43.3413 310.566 43.3122 310.602 43.2899C310.638 43.2676 310.678 43.2526 310.719 43.2458C310.761 43.2389 310.804 43.2403 310.845 43.2499C310.886 43.2595 310.925 43.2771 310.959 43.3018C310.993 43.3264 311.022 43.3575 311.045 43.3934C311.067 43.4292 311.082 43.4691 311.089 43.5108C311.149 43.8735 311.205 44.2389 311.257 44.6069C311.269 44.691 311.247 44.7762 311.195 44.8439C311.144 44.9116 311.068 44.9563 310.984 44.9683C310.975 44.9724 310.966 44.9758 310.956 44.9783L310.938 44.9723ZM306.829 31.3406C306.768 31.3403 306.709 31.3229 306.658 31.2906C306.607 31.2583 306.566 31.2124 306.54 31.1579C306.383 30.8287 306.222 30.5028 306.058 30.1802C306.037 30.1425 306.023 30.1009 306.019 30.0579C306.014 30.0149 306.018 29.9715 306.031 29.9301C306.043 29.8888 306.064 29.8504 306.092 29.8173C306.12 29.7842 306.154 29.757 306.193 29.7374C306.231 29.7178 306.273 29.7062 306.316 29.7033C306.359 29.7003 306.403 29.7061 306.443 29.7202C306.484 29.7344 306.522 29.7567 306.554 29.7857C306.586 29.8147 306.612 29.8499 306.63 29.8891C306.796 30.2164 306.959 30.5476 307.12 30.8789C307.156 30.9559 307.161 31.0442 307.133 31.1247C307.105 31.2052 307.046 31.2712 306.969 31.3085C306.925 31.3298 306.877 31.3408 306.829 31.3406V31.3406ZM298.798 19.576C298.754 19.5761 298.71 19.5671 298.669 19.5495C298.628 19.5319 298.592 19.5061 298.561 19.4736C298.314 19.2066 298.061 18.9436 297.808 18.6846C297.776 18.6551 297.751 18.6194 297.733 18.5797C297.715 18.54 297.706 18.4971 297.705 18.4536C297.705 18.4101 297.713 18.367 297.729 18.3267C297.746 18.2865 297.77 18.25 297.801 18.2196C297.832 18.1891 297.869 18.1652 297.91 18.1494C297.95 18.1336 297.994 18.1262 298.037 18.1277C298.08 18.1291 298.123 18.1393 298.163 18.1578C298.202 18.1762 298.237 18.2025 298.266 18.2349C298.524 18.5026 298.779 18.7703 299.031 19.038C299.089 19.1004 299.121 19.1833 299.118 19.2687C299.115 19.3541 299.079 19.435 299.017 19.4937C298.957 19.5472 298.879 19.5765 298.798 19.576V19.576ZM287.61 10.7425C287.554 10.7421 287.5 10.7276 287.451 10.7004C287.136 10.5197 286.815 10.345 286.493 10.1724C286.418 10.1322 286.362 10.0637 286.337 9.98198C286.312 9.90028 286.321 9.81206 286.361 9.73672C286.401 9.66138 286.47 9.60509 286.551 9.58024C286.633 9.55539 286.721 9.56402 286.797 9.60422C287.125 9.78089 287.448 9.96024 287.768 10.1423C287.831 10.1769 287.88 10.2313 287.908 10.2971C287.936 10.3628 287.942 10.436 287.923 10.5051C287.905 10.5743 287.865 10.6353 287.808 10.6787C287.751 10.7221 287.681 10.7452 287.61 10.7445V10.7425ZM274.287 5.68536C274.265 5.68734 274.243 5.68734 274.221 5.68536C273.864 5.60907 273.506 5.53746 273.149 5.47054C273.107 5.46276 273.068 5.44688 273.032 5.42381C272.997 5.40073 272.967 5.37091 272.943 5.33605C272.919 5.30119 272.902 5.26197 272.893 5.22063C272.885 5.17929 272.884 5.13664 272.892 5.09512C272.9 5.0536 272.916 5.01401 272.939 4.97863C272.962 4.94324 272.992 4.91274 273.026 4.88888C273.061 4.86502 273.1 4.84825 273.142 4.83955C273.183 4.83084 273.226 4.83037 273.267 4.83815C273.631 4.90641 273.993 4.97935 274.353 5.05697C274.43 5.07439 274.498 5.11928 274.543 5.18315C274.589 5.24702 274.61 5.32543 274.602 5.40356C274.594 5.4817 274.557 5.55414 274.499 5.60718C274.441 5.66022 274.366 5.69017 274.287 5.69139V5.68536ZM260.055 4.66148H258.955C258.87 4.66148 258.788 4.62764 258.728 4.5674C258.668 4.50716 258.634 4.42545 258.634 4.34026C258.634 4.25506 258.668 4.17337 258.728 4.11313C258.788 4.05289 258.87 4.01904 258.955 4.01904H260.055C260.14 4.01904 260.222 4.05289 260.282 4.11313C260.343 4.17337 260.376 4.25506 260.376 4.34026C260.376 4.42545 260.343 4.50716 260.282 4.5674C260.222 4.62764 260.14 4.66148 260.055 4.66148ZM245.747 4.66148H244.647C244.562 4.66148 244.48 4.62764 244.42 4.5674C244.359 4.50716 244.326 4.42545 244.326 4.34026C244.326 4.25506 244.359 4.17337 244.42 4.11313C244.48 4.05289 244.562 4.01904 244.647 4.01904H245.747C245.832 4.01904 245.914 4.05289 245.974 4.11313C246.034 4.17337 246.068 4.25506 246.068 4.34026C246.068 4.42545 246.034 4.50716 245.974 4.5674C245.914 4.62764 245.832 4.66148 245.747 4.66148ZM231.441 4.66148H230.339C230.253 4.66148 230.172 4.62764 230.111 4.5674C230.051 4.50716 230.017 4.42545 230.017 4.34026C230.017 4.25506 230.051 4.17337 230.111 4.11313C230.172 4.05289 230.253 4.01904 230.339 4.01904H231.441C231.526 4.01904 231.608 4.05289 231.668 4.11313C231.728 4.17337 231.762 4.25506 231.762 4.34026C231.762 4.42545 231.728 4.50716 231.668 4.5674C231.608 4.62764 231.526 4.66148 231.441 4.66148Z" fill="#132431"/>
<line x1="174.252" y1="4.65" x2="223.252" y2="4.65" stroke="#132431" stroke-width="0.7" stroke-dasharray="2 8"/>
<line x1="174.252" y1="98.65" x2="223.252" y2="98.65" stroke="#132431" stroke-width="0.7" stroke-dasharray="2 8"/>
<path d="M167.138 98.5013H166.602C166.517 98.5013 166.436 98.4674 166.375 98.4072C166.315 98.3469 166.281 98.2652 166.281 98.1801C166.281 98.0949 166.315 98.0131 166.375 97.9529C166.436 97.8927 166.517 97.8588 166.602 97.8588H167.138C167.224 97.8588 167.305 97.8927 167.366 97.9529C167.426 98.0131 167.46 98.0949 167.46 98.1801C167.46 98.2652 167.426 98.3469 167.366 98.4072C167.305 98.4674 167.224 98.5013 167.138 98.5013Z" fill="#3DDBBF"/>
<path d="M170.05 8.84536C169.181 8.84576 168.331 8.58842 167.609 8.1059C166.886 7.62338 166.323 6.93737 165.99 6.13463C165.657 5.3319 165.57 4.44851 165.74 3.59624C165.909 2.74396 166.327 1.96107 166.942 1.34663C167.556 0.732185 168.339 0.313794 169.191 0.144366C170.044 -0.0250611 170.927 0.062097 171.73 0.394816C172.533 0.727534 173.219 1.29086 173.701 2.01354C174.184 2.73621 174.441 3.58576 174.441 4.45472C174.439 5.6187 173.976 6.73456 173.153 7.55762C172.33 8.38068 171.214 8.84377 170.05 8.84536ZM170.05 1.77657C169.52 1.77657 169.002 1.93363 168.562 2.22791C168.122 2.52219 167.778 2.94047 167.576 3.42983C167.373 3.9192 167.32 4.45769 167.423 4.9772C167.527 5.49672 167.782 5.97391 168.156 6.34846C168.531 6.723 169.008 6.97807 169.527 7.08141C170.047 7.18475 170.585 7.13172 171.075 6.92901C171.564 6.72631 171.982 6.38304 172.277 5.94262C172.571 5.5022 172.728 4.9844 172.728 4.45472C172.728 3.74459 172.445 3.0637 171.943 2.56156C171.441 2.05943 170.76 1.7771 170.05 1.77657Z" fill="#3DDBBF"/>
<path d="M170.05 102.679C169.181 102.68 168.332 102.422 167.609 101.94C166.886 101.457 166.323 100.771 165.99 99.9689C165.657 99.1662 165.57 98.2829 165.739 97.4307C165.909 96.5785 166.327 95.7956 166.941 95.1811C167.555 94.5666 168.338 94.148 169.19 93.9784C170.042 93.8087 170.926 93.8956 171.728 94.228C172.531 94.5604 173.217 95.1234 173.7 95.8458C174.183 96.5682 174.441 97.4176 174.441 98.2865C174.439 99.4506 173.976 100.567 173.153 101.39C172.33 102.213 171.214 102.677 170.05 102.679ZM170.05 95.6083C169.52 95.6083 169.002 95.7654 168.562 96.0597C168.122 96.3539 167.778 96.7722 167.576 97.2616C167.373 97.7509 167.32 98.2894 167.423 98.8089C167.527 99.3284 167.782 99.8057 168.156 100.18C168.531 100.555 169.008 100.81 169.527 100.913C170.047 101.016 170.585 100.963 171.075 100.761C171.564 100.558 171.982 100.215 172.277 99.7744C172.571 99.3339 172.728 98.8161 172.728 98.2865C172.725 97.5775 172.442 96.8985 171.94 96.3978C171.439 95.8971 170.759 95.6154 170.05 95.6143V95.6083Z" fill="#3DDBBF"/>
</svg>
