<svg width="20" height="22" viewBox="0 0 20 22" fill="none" xmlns="http://www.w3.org/2000/svg">
<g clip-path="url(#clip0_170_505)">
<path d="M6.11136 13.5527C5.93949 13.7217 5.76605 13.5199 5.76605 13.5199C5.76605 13.5199 2.87855 10.3076 2.69105 10.1632C2.42699 9.96139 1.86136 9.64475 1.29574 10.2567C1.0598 10.511 0.675426 11.077 1.38949 11.9892C1.54418 12.1861 6.04261 17.1637 6.30511 17.4328C6.30511 17.4328 8.38324 19.5558 9.64105 20.3547C9.98949 20.5762 10.3817 20.8108 10.8395 20.9749C11.2957 21.139 11.8114 21.2522 12.3551 21.2522C12.8989 21.2587 13.4629 21.1488 13.9957 20.9437C14.5286 20.737 15.0254 20.4368 15.477 20.0906C15.5879 20.002 15.7004 19.9134 15.8051 19.8183L16.1082 19.5558C16.3192 19.3704 16.5161 19.1751 16.7051 18.9766C17.0848 18.5796 17.427 18.1547 17.7286 17.7199C18.0286 17.2835 18.2832 16.8323 18.4864 16.3828C18.6895 15.9333 18.8317 15.4821 18.9176 15.0555C19.0082 14.6306 19.0332 14.2287 19.0192 13.8776C19.0161 13.5265 18.9489 13.2262 18.8942 12.9867C18.8317 12.7472 18.7645 12.5683 18.7114 12.4502C18.6598 12.3321 18.6317 12.2697 18.6317 12.2697C18.5598 12.0581 18.4911 11.8563 18.4301 11.6742C18.2582 11.1607 18.0598 10.5848 17.8536 9.99256C17.7661 9.74154 17.7254 9.62834 17.7254 9.62834L17.727 9.63326C16.9692 7.47256 16.1551 5.24623 16.1551 5.24623C16.0317 4.85412 15.577 4.71795 15.2426 4.97061C14.277 5.69904 13.9817 6.76217 14.3223 7.89584L15.1957 10.4093C15.3192 10.6898 14.9786 11.0147 14.7504 10.8194C14.0332 10.2058 12.5161 8.51435 12.5161 8.51435C11.8379 7.83185 8.01136 3.71225 7.75511 3.46123C7.23949 2.95756 6.58949 2.69834 6.09418 3.08061C5.58793 3.47107 5.4473 4.07482 5.93636 4.73436C6.06918 4.91318 9.93636 9.20342 9.93636 9.20342C10.1614 9.45115 9.89574 9.80225 9.6473 9.56107C9.6473 9.56107 4.83636 4.29139 4.61918 4.04529C4.12699 3.4842 3.33636 3.36115 2.86761 3.82381C2.4098 4.27498 2.42074 5.0149 2.92074 5.59568C3.08011 5.77943 6.46918 9.53646 7.82543 11.0754C7.91605 11.1787 7.98636 11.3165 7.85199 11.4462C7.85043 11.4478 7.71449 11.602 7.53949 11.4051C7.17074 10.9917 3.48793 6.96232 3.28324 6.74412C2.81293 6.24209 2.18168 6.0042 1.67386 6.49311C1.21136 6.93771 1.13636 7.71373 1.66761 8.2617L6.12855 13.2131C6.12855 13.2131 6.27386 13.3936 6.11136 13.5527Z" fill="#FAC036"/>
<path d="M13.3531 9.4248L13.7296 9.84809C13.7296 9.84809 11.5749 12.0318 13.0437 15.3852C13.0437 15.3852 13.2343 15.8101 12.9843 15.8807C12.9843 15.8807 12.7656 16.0086 12.5156 15.3557C12.5156 15.354 11.0328 12.1696 13.3531 9.4248Z" fill="#E48C15"/>
<path d="M9.8877 2.17334C9.8877 2.17334 10.7955 2.31771 11.6361 3.26271C12.4768 4.20936 12.8658 5.42506 12.8658 5.42506" stroke="#DDC8C8" stroke-miterlimit="10" stroke-linecap="round"/>
<path d="M12.0996 1.07422C12.0996 1.07422 12.8605 1.47617 13.448 2.46875C14.0355 3.46133 14.1777 4.60977 14.1777 4.60977" stroke="#DDC8C8" stroke-miterlimit="10" stroke-linecap="round"/>
<path d="M5.5793 18.6666C5.5793 18.6666 4.66367 18.7306 3.64961 17.9956C2.63555 17.2606 2.00586 16.1614 2.00586 16.1614" stroke="#DDC8C8" stroke-miterlimit="10" stroke-linecap="round"/>
<path d="M4.92695 20.2794C4.92695 20.2794 4.07695 20.3171 3.10195 19.7511C2.12695 19.1851 1.4707 18.2549 1.4707 18.2549" stroke="#DDC8C8" stroke-miterlimit="10" stroke-linecap="round"/>
</g>
<defs>
<clipPath id="clip0_170_505">
<rect width="20" height="21" fill="white" transform="translate(0 0.5)"/>
</clipPath>
</defs>
</svg>
