<svg version="1.2" xmlns="http://www.w3.org/2000/svg" viewBox="0 0 115 117" width="115" height="117">
	<title>321-ai</title>
	<style>
		.s0 { fill: #3ddbbf } 
		.s1 { fill: #ffffff } 
	</style>
	<g id="321353356351 1">
		<g id="&lt;Group&gt;">
			<path id="&lt;Compound Path&gt;" fill-rule="evenodd" class="s0" d="m36.1 92.2c-0.6 1-1.9 1.3-2.8 0.7-6.6-4-12.6-4-19.2 0-4.7 2.9-9.6 7.8-9.6 21.7 0 1.1-0.9 2.1-2.1 2.1-1.2 0-2.1-1-2.1-2.1 0-12.6 3.6-20.4 11.7-25.3q3.4-2.1 6.9-2.9c-2.5-1.1-4.7-3.1-6-5.7q-1.3-2.6-1.3-5.4c0-6.7 5.4-12.1 12.1-12.1 6.6 0 12 5.4 12 12.1q0 2.8-1.3 5.4c-1.3 2.6-3.4 4.6-6 5.7q3.5 0.8 7 2.9c1 0.6 1.3 1.9 0.7 2.9zm-12.4-9.1c3 0 5.6-1.6 7-4.3q0.8-1.7 0.8-3.5c0-4.3-3.5-7.9-7.8-7.9-4.4 0-7.9 3.6-7.9 7.9q0 1.8 0.9 3.5c1.3 2.7 4 4.3 7 4.3z"/>
			<path id="&lt;Compound Path&gt;" fill-rule="evenodd" class="s0" d="m114.6 114.6c0 1.1-0.9 2.1-2.1 2.1-1.1 0-2.1-1-2.1-2.1 0-13.9-4.8-18.8-9.6-21.7-6.5-4-12.6-4-19.1 0-1 0.6-2.3 0.3-2.9-0.7-0.6-1-0.3-2.3 0.7-2.9q3.5-2.1 7-2.9c-2.5-1.1-4.7-3.1-6-5.7q-1.3-2.6-1.3-5.4c0-6.7 5.4-12.1 12.1-12.1 6.6 0 12 5.4 12 12.1q0 2.8-1.3 5.4c-1.3 2.6-3.4 4.6-6 5.7q3.5 0.8 7 2.9c8 4.9 11.6 12.7 11.6 25.3zm-23.3-31.5c3 0 5.7-1.6 7-4.3q0.8-1.7 0.8-3.5c0-4.3-3.5-7.9-7.8-7.9-4.3 0-7.9 3.6-7.9 7.9q0 1.8 0.9 3.5c1.3 2.7 4 4.3 7 4.3z"/>
			<path id="&lt;Compound Path&gt;" fill-rule="evenodd" class="s0" d="m80.9 114.6c0 1.1-0.9 2.1-2.1 2.1-1.2 0-2.1-1-2.1-2.1 0-13.9-4.9-18.8-9.6-21.7-6.6-4-12.6-4-19.2 0-4.7 2.9-9.6 7.8-9.6 21.7 0 1.1-0.9 2.1-2.1 2.1-1.1 0-2.1-1-2.1-2.1 0-12.6 3.6-20.4 11.7-25.3q3.5-2.1 7-2.9c-2.6-1.1-4.8-3.1-6.1-5.7q-1.3-2.6-1.3-5.4c0-6.7 5.4-12.1 12.1-12.1 6.6 0 12 5.4 12 12.1q0 2.8-1.3 5.4c-1.3 2.6-3.4 4.6-6 5.7q3.5 0.8 7 2.9c8.1 4.9 11.7 12.7 11.7 25.3zm-23.4-31.5c3 0 5.7-1.6 7-4.3q0.8-1.7 0.8-3.5c0-4.3-3.5-7.9-7.8-7.9-4.3 0-7.9 3.6-7.9 7.9q0 1.8 0.9 3.5c1.3 2.7 4 4.3 7 4.3z"/>
			<g id="&lt;Group&gt;">
				<g id="&lt;Group&gt;">
					<path id="&lt;Compound Path&gt;" fill-rule="evenodd" class="s1" d="m56.7 42.3c-7.4 0-13.3-6-13.3-13.3 0-7.3 5.9-13.3 13.3-13.3 7.3 0 13.2 6 13.2 13.3 0 7.3-5.9 13.3-13.2 13.3zm0-22.4c-5 0-9.1 4.1-9.1 9.1 0 5 4.1 9.1 9.1 9.1 5 0 9-4.1 9-9.1 0-5-4-9.1-9-9.1z"/>
				</g>
				<path id="&lt;Compound Path&gt;" fill-rule="evenodd" class="s1" d="m84.9 25.8v6.5c0 2.7-2.3 5-5 5h-2.9q-0.1 0.1-0.1 0.3l2 2c2 1.9 2 5.1 0 7l-4.6 4.7c-1 0.9-2.2 1.4-3.5 1.4-1.3 0-2.6-0.5-3.5-1.4l-2.1-2.1q-0.1 0.1-0.3 0.1v2.9c0 2.8-2.2 5-4.9 5h-6.6c-2.7 0-4.9-2.2-4.9-5v-2.9q-0.2 0-0.4-0.1l-2 2.1c-1 0.9-2.2 1.4-3.5 1.4-1.3 0-2.6-0.5-3.5-1.4l-4.6-4.7c-2-1.9-2-5.1 0-7l2-2q-0.1-0.2-0.2-0.3h-2.8c-2.8 0-5-2.3-5-5v-6.5c0-2.8 2.2-5 5-5h2.8q0.1-0.2 0.2-0.3l-2-2.1c-2-1.9-2-5 0-7l4.6-4.6c1.9-1.9 5.1-1.9 7 0l2 2q0.2 0 0.4-0.1v-2.9c0-2.7 2.2-4.9 4.9-4.9h6.6c2.7 0 4.9 2.2 4.9 4.9v2.9q0.2 0.1 0.3 0.1l2.1-2c1.9-1.9 5.1-1.9 7 0l4.6 4.6c2 2 2 5.1 0 7l-2 2.1q0 0.1 0.1 0.3h2.9c2.7 0 5 2.2 5 5zm-4.2 0c0-0.5-0.4-0.8-0.8-0.8h-4.4q0 0 0 0 0 0 0 0-0.3 0-0.6-0.1 0 0-0.1 0-0.3-0.1-0.5-0.3 0 0-0.1 0-0.2-0.2-0.3-0.4-0.1-0.1-0.1-0.1-0.2-0.2-0.3-0.5 0 0 0-0.1-0.4-1.3-1-2.5 0 0-0.1-0.1 0-0.1 0-0.2-0.1-0.1-0.1-0.2 0-0.1 0-0.2 0-0.1-0.1-0.2 0-0.1 0.1-0.2 0-0.1 0-0.2 0-0.1 0-0.2 0-0.1 0.1-0.2 0-0.1 0.1-0.2 0 0 0-0.1 0.1-0.1 0.2-0.2 0-0.1 0.1-0.2 0 0 0.1 0l3.1-3.1c0.3-0.3 0.3-0.8 0-1.1l-4.7-4.6c-0.2-0.2-0.4-0.3-0.5-0.3-0.1 0-0.4 0.1-0.6 0.3l-3 3q-0.2 0.2-0.4 0.3-0.1 0.1-0.1 0.1-0.2 0.1-0.4 0.2-0.1 0-0.1 0-0.3 0.1-0.5 0.1 0 0 0 0-0.1 0-0.1 0-0.2 0-0.4-0.1 0 0-0.1 0-0.2-0.1-0.3-0.1 0-0.1-0.1-0.1-1.3-0.6-2.5-1-0.1 0-0.1-0.1-0.1 0-0.2 0-0.1-0.1-0.2-0.1-0.1-0.1-0.1-0.2-0.1 0-0.2-0.1-0.1 0-0.1-0.1-0.1-0.1-0.2-0.2 0-0.1-0.1-0.2 0 0-0.1-0.1 0-0.1 0-0.2-0.1-0.1-0.1-0.2 0-0.1 0-0.2-0.1-0.1-0.1-0.2 0-0.1 0-0.1v-4.4c0-0.4-0.3-0.7-0.7-0.7h-6.6c-0.4 0-0.7 0.3-0.7 0.7v4.4q-0.1 0-0.1 0 0 0.2 0 0.3 0 0.1 0 0.2 0 0.1-0.1 0.2 0 0.1 0 0.1-0.1 0.1-0.1 0.2-0.1 0.1-0.2 0.2 0 0.1-0.1 0.1 0 0.1-0.1 0.2-0.1 0.1-0.2 0.1-0.1 0.1-0.1 0.1-0.1 0.1-0.2 0.1-0.1 0.1-0.2 0.1-0.1 0-0.1 0.1-1.3 0.4-2.5 1-0.1 0-0.1 0-0.2 0.1-0.3 0.2-0.1 0-0.2 0-0.2 0-0.4 0 0 0 0 0 0 0 0 0-0.3 0-0.5 0-0.1 0-0.1-0.1-0.2 0-0.4-0.1-0.1 0-0.1-0.1-0.2-0.1-0.4-0.3 0 0 0 0l-3.1-3c-0.3-0.3-0.8-0.3-1.1 0l-4.6 4.6c-0.3 0.3-0.3 0.8 0 1.1l3.1 3q0 0.1 0 0.1 0.1 0.1 0.2 0.2 0 0 0.1 0.1 0 0.1 0.1 0.2 0 0.1 0.1 0.2 0 0.1 0 0.2 0 0.1 0.1 0.2 0 0.1 0 0.2 0 0.1 0 0.2 0 0.1 0 0.2 0 0.1-0.1 0.2 0 0.1 0 0.2-0.1 0.1-0.1 0.2 0 0 0 0.1-0.7 1.3-1.1 2.5 0 0 0 0.1-0.1 0.3-0.3 0.5 0 0 0 0.1-0.2 0.2-0.4 0.3-0.1 0.1-0.1 0.1-0.2 0.2-0.5 0.3 0 0-0.1 0-0.3 0.1-0.6 0.1 0 0 0 0 0 0 0 0h-4.3c-0.4 0-0.8 0.3-0.8 0.8v6.5c0 0.4 0.4 0.8 0.8 0.8h4.3q0.1 0 0.1 0 0.1 0 0.2 0 0.1 0 0.2 0 0.1 0.1 0.2 0.1 0.1 0 0.2 0.1 0.1 0 0.2 0.1 0.1 0 0.1 0.1 0.1 0 0.2 0.1 0.1 0.1 0.1 0.1 0.1 0.1 0.2 0.2 0 0.1 0.1 0.2 0 0 0.1 0.1 0 0.1 0.1 0.2 0 0.1 0 0.1 0.4 1.4 1.1 2.6 0 0 0 0.1 0 0.1 0.1 0.2 0 0.1 0 0.2 0.1 0.1 0.1 0.2 0 0.1 0 0.2 0 0.1 0 0.2 0 0.1 0 0.2-0.1 0.1-0.1 0.2 0 0.1 0 0.1-0.1 0.1-0.1 0.2-0.1 0.1-0.1 0.2-0.1 0.1-0.1 0.2-0.1 0.1-0.2 0.2 0 0 0 0l-3.1 3.1c-0.3 0.3-0.3 0.8 0 1.1l4.6 4.6c0.3 0.3 0.8 0.3 1.1 0l3.1-3.1q0 0 0.1 0 0.1-0.1 0.2-0.2 0 0 0.1-0.1 0.1 0 0.2-0.1 0.1 0 0.2-0.1 0.1 0 0.2 0 0.1-0.1 0.2-0.1 0.1 0 0.2 0 0.1 0 0.2 0 0.1 0 0.2 0 0.1 0 0.2 0.1 0.1 0 0.2 0 0.1 0.1 0.2 0.1 0 0 0.1 0 1.2 0.7 2.5 1.1 0 0 0.1 0 0.1 0.1 0.2 0.1 0.1 0.1 0.2 0.1 0 0.1 0.1 0.1 0.1 0.1 0.2 0.2 0.1 0 0.1 0.1 0.1 0.1 0.1 0.2 0.1 0 0.2 0.1 0 0.1 0.1 0.2 0 0.1 0 0.2 0.1 0.1 0.1 0.2 0 0.1 0 0.2 0 0.1 0 0.2 0 0 0.1 0.1v4.3c0 0.5 0.3 0.8 0.7 0.8h6.6c0.4 0 0.7-0.3 0.7-0.8v-4.3q0-0.1 0-0.1 0-0.1 0.1-0.3 0 0 0-0.1 0-0.1 0.1-0.2 0-0.1 0-0.2 0.1-0.1 0.1-0.2 0.1-0.1 0.1-0.2 0.1-0.1 0.2-0.1 0-0.1 0.1-0.2 0.1 0 0.2-0.1 0-0.1 0.1-0.1 0.1-0.1 0.2-0.1 0.1-0.1 0.2-0.1 0 0 0.1 0 1.2-0.4 2.5-1.1 0.1 0 0.1 0 0.1-0.1 0.2-0.1 0.1 0 0.2-0.1 0.1 0 0.2 0 0.1 0 0.2 0 0.1 0 0.2 0 0.1 0 0.2 0 0.1 0 0.2 0.1 0.1 0 0.2 0 0.1 0.1 0.2 0.1 0.1 0 0.2 0.1 0 0 0.1 0.1 0.1 0.1 0.2 0.1 0 0.1 0.1 0.1l3 3.1c0.3 0.3 0.8 0.3 1.1 0l4.7-4.6c0.3-0.3 0.3-0.8 0-1.1l-3.1-3.1q-0.1 0-0.1-0.1-0.1-0.1-0.1-0.2-0.1 0-0.2-0.1 0-0.1 0-0.2-0.1-0.1-0.1-0.2-0.1-0.1-0.1-0.2 0-0.1 0-0.2 0-0.1 0-0.2-0.1-0.1-0.1-0.2 0.1-0.1 0.1-0.2 0-0.1 0-0.2 0-0.1 0.1-0.2 0-0.1 0-0.2 0.1 0 0.1-0.1 0.6-1.2 1-2.5 0 0 0-0.1 0.1-0.1 0.1-0.2 0.1 0 0.1-0.1 0.1-0.1 0.2-0.2 0-0.1 0.1-0.2 0 0 0.1-0.1 0.1-0.1 0.2-0.1 0.1-0.1 0.2-0.1 0-0.1 0.1-0.1 0.1-0.1 0.2-0.1 0.1 0 0.2-0.1 0.1 0 0.2 0 0.1 0 0.2 0 0.1 0 0.1 0h4.4c0.4 0 0.8-0.4 0.8-0.8z"/>
			</g>
		</g>
	</g>
</svg>