<svg width="23" height="252" viewBox="0 0 23 252" id="scroll" xmlns="http://www.w3.org/2000/svg">
    <line opacity="0.7" x1="11.2939" y1="2.18557e-08" x2="11.2939" y2="247" />
    <path fill-rule="evenodd" clip-rule="evenodd"
        d="M12.535 245.521C12.61 245.362 12.6933 245.204 12.7641 245.042C13.4438 243.378 14.3117 241.797 15.3508 240.33C16.1458 239.199 17.1127 238.198 18.2167 237.365C18.5435 237.16 18.8912 236.991 19.2539 236.861C19.2964 236.836 19.3433 236.821 19.3919 236.815C19.4405 236.809 19.4897 236.813 19.5368 236.827C19.5838 236.84 19.6276 236.863 19.6656 236.894C19.7035 236.925 19.7349 236.963 19.7579 237.006C19.8662 237.198 19.787 237.352 19.6496 237.523C18.4999 238.973 17.3086 240.397 16.2339 241.905C15.0214 243.723 14.0693 245.701 13.4056 247.782C13.1265 248.561 12.8599 249.353 12.5725 250.132C12.4713 250.402 12.3354 250.658 12.1684 250.894C11.8519 251.336 11.3895 251.315 11.0896 250.848C10.9677 250.673 10.8826 250.474 10.8397 250.265C10.4273 247.728 9.22763 245.529 7.94884 243.359C6.87177 241.526 5.61451 239.806 4.19576 238.223C3.84169 237.869 3.53345 237.469 3.2377 237.065C3.19281 236.998 3.16482 236.922 3.15611 236.842C3.14741 236.762 3.15824 236.681 3.18771 236.607C3.24171 236.548 3.30993 236.504 3.3858 236.479C3.46167 236.454 3.54262 236.449 3.62092 236.465C3.98046 236.598 4.31974 236.78 4.62896 237.006C6.49805 238.547 8.06451 240.421 9.24846 242.534C9.73998 243.367 10.1898 244.217 10.6605 245.062C10.723 245.125 11.6602 247.212 11.7061 247.291" />
</svg>