<svg width="37" height="37" viewBox="0 0 37 37" fill="none" xmlns="http://www.w3.org/2000/svg">
<path d="M24.305 21.4058C28.1341 16.1822 27.6909 8.81351 22.9695 4.09215C17.7578 -1.11967 9.30776 -1.11967 4.08997 4.09215C-1.1219 9.30397 -1.1219 17.754 4.08997 22.9658C8.81134 27.6872 16.1859 28.1362 21.4036 24.3071C21.9531 23.9053 22.479 23.4562 22.9695 22.9658C23.46 22.4753 23.9091 21.9494 24.305 21.4058ZM21.7758 19.844V19.4675C21.7758 17.0389 19.8081 15.0712 17.3736 15.0712H15.9495L13.5622 19.6272C13.5504 19.6567 13.5031 19.6567 13.4972 19.6272L11.11 15.0712H9.67997C7.25134 15.0712 5.28367 17.039 5.28367 19.4675V19.8396C3.89881 18.0357 3.13867 15.8427 3.13867 13.5289C3.13867 10.7516 4.22003 8.14573 6.18185 6.178C8.14361 4.21618 10.7555 3.13482 13.5327 3.13482C16.304 3.13482 18.9159 4.21618 20.8776 6.178C24.5295 9.82982 24.9727 15.5025 21.9236 19.6566C21.877 19.7209 21.824 19.7808 21.7758 19.844Z" fill="#47C8BE"/>
<path d="M35.875 31.3035L27.8326 23.2731L26.9995 24.1003L25.1441 22.2449C24.7482 22.7885 24.2931 23.3144 23.8027 23.799C23.3182 24.2894 22.7981 24.7385 22.2486 25.1521L24.0982 27.0016L23.265 27.8289L31.3073 35.8771C32.5718 37.1298 34.6104 37.1298 35.875 35.8771C37.1335 34.6126 37.1335 32.5681 35.875 31.3035Z" fill="#132431"/>
<path d="M13.5303 4.79822C11.2429 4.79822 9.38865 6.65255 9.38865 8.9399C9.38865 11.2273 11.243 14.6941 13.5303 14.6941C15.8177 14.6941 17.6721 11.2273 17.6721 8.9399C17.6721 6.65255 15.8177 4.79822 13.5303 4.79822Z" fill="#47C8BE"/>
<circle cx="13.5" cy="13.4999" r="12" stroke="#132431" stroke-width="3"/>
</svg>
