<svg width="39" height="39" viewBox="0 0 39 39" fill="none" xmlns="http://www.w3.org/2000/svg">
<g clip-path="url(#clip0_0_70)">
<path d="M13.4062 20.5664H25.5938C27.9038 20.5664 29.7832 18.687 29.7832 16.377V4.18945C29.7832 1.87939 27.9038 0 25.5938 0H13.4062C11.0962 0 9.2168 1.87939 9.2168 4.18945V16.377C9.2168 18.687 11.0962 20.5664 13.4062 20.5664ZM14.1139 10.0139C14.56 9.56772 15.2835 9.56772 15.7297 10.0139L17.6149 11.899L23.2704 6.24358C23.7165 5.79737 24.44 5.79737 24.8862 6.24358C25.3324 6.6898 25.3324 7.4132 24.8862 7.85941L18.4228 14.3228C18.1997 14.5459 17.9072 14.6575 17.6149 14.6575C17.3226 14.6575 17.0301 14.546 16.807 14.3228L14.114 11.6298C13.6677 11.1836 13.6677 10.4601 14.1139 10.0139Z" fill="#47C8BE"/>
<path d="M19.5 31.002C21.7086 31.002 23.499 29.2115 23.499 27.0029C23.499 24.7943 21.7086 23.0039 19.5 23.0039C17.2914 23.0039 15.501 24.7943 15.501 27.0029C15.501 29.2115 17.2914 31.002 19.5 31.002Z" fill="#132431"/>
<path d="M32.2588 31.002C34.4674 31.002 36.2578 29.2115 36.2578 27.0029C36.2578 24.7943 34.4674 23.0039 32.2588 23.0039C30.0502 23.0039 28.2598 24.7943 28.2598 27.0029C28.2598 29.2115 30.0502 31.002 32.2588 31.002Z" fill="#132431"/>
<path d="M6.74121 31.002C8.94981 31.002 10.7402 29.2115 10.7402 27.0029C10.7402 24.7943 8.94981 23.0039 6.74121 23.0039C4.53261 23.0039 2.74219 24.7943 2.74219 27.0029C2.74219 29.2115 4.53261 31.002 6.74121 31.002Z" fill="#132431"/>
<path d="M36.64 31.502C35.5071 32.6055 33.9615 33.2871 32.2588 33.2871C30.5561 33.2871 29.0104 32.6055 27.8775 31.502C27.6648 31.6877 27.4642 31.8868 27.2766 32.0978C28.0231 33.4041 28.4502 34.9153 28.4502 36.5244V39H37.7812C38.4123 39 38.9238 38.4884 38.9238 37.8574V36.5244C38.9238 34.5207 38.0395 32.7238 36.64 31.502Z" fill="#132431"/>
<path d="M11.1225 31.502C9.98956 32.6055 8.44388 33.2871 6.74121 33.2871C5.03854 33.2871 3.49286 32.6055 2.35996 31.502C0.960527 32.7238 0.0761719 34.5207 0.0761719 36.5244V37.8574C0.0761719 38.4884 0.587742 39 1.21875 39H10.5498V36.5244C10.5498 34.9153 10.9769 33.404 11.7234 32.0978C11.5358 31.8868 11.3351 31.6877 11.1225 31.502Z" fill="#132431"/>
<path d="M23.8813 31.502C22.7484 32.6055 21.2027 33.2871 19.5 33.2871C17.7973 33.2871 16.2517 32.6055 15.1187 31.502C13.7193 32.7238 12.835 34.5207 12.835 36.5244V39H26.165V36.5244C26.165 34.5207 25.2807 32.7238 23.8813 31.502Z" fill="#132431"/>
</g>
<defs>
<clipPath id="clip0_0_70">
<rect width="39" height="39" fill="white"/>
</clipPath>
</defs>
</svg>
