<svg width="38" height="35" viewBox="0 0 38 35" fill="none" xmlns="http://www.w3.org/2000/svg">
<path fill-rule="evenodd" clip-rule="evenodd" d="M7.76771 5.92439V2.18834C7.7685 1.77856 7.93119 1.38579 8.22014 1.09603C8.50908 0.806269 8.90076 0.643131 9.30939 0.642334H36.458C36.8667 0.643131 37.2584 0.806269 37.5473 1.09603C37.8363 1.38579 37.9989 1.77856 37.9997 2.18834V21.2954C37.9989 21.7052 37.8363 22.098 37.5473 22.3878C37.2584 22.6775 36.8667 22.8407 36.458 22.8415H32.7355V8.97869C32.7345 8.16895 32.4132 7.39265 31.8423 6.82008C31.2713 6.2475 30.4972 5.92539 29.6897 5.92439H7.76771ZM2.53802 7.43269C2.12939 7.43349 1.73771 7.59662 1.44876 7.88638C1.15982 8.17614 0.997133 8.56891 0.996338 8.97869V28.6424C0.996936 29.0528 1.15994 29.4462 1.44956 29.7362C1.73918 30.0262 2.13174 30.1891 2.54103 30.1891H7.76771V34.622C7.76766 34.6945 7.78846 34.7655 7.82764 34.8265C7.86681 34.8875 7.92268 34.9358 7.98857 34.9658C8.05445 34.9957 8.12754 35.0059 8.19908 34.9953C8.27061 34.9846 8.33756 34.9534 8.3919 34.9056L13.7494 30.1891H29.6867C30.0954 30.1885 30.4872 30.0254 30.7762 29.7356C31.0651 29.4458 31.2278 29.053 31.2284 28.6431V8.97869C31.2278 8.56885 31.0651 8.17597 30.7762 7.88616C30.4872 7.59636 30.0954 7.43329 29.6867 7.43269H2.53802ZM23.1402 20.0602C23.2712 20.0602 23.3969 20.0079 23.4895 19.915C23.5822 19.8221 23.6343 19.6961 23.6343 19.5647V18.0564C23.6343 17.925 23.5822 17.7989 23.4895 17.706C23.3969 17.6131 23.2712 17.5609 23.1402 17.5609C21.6594 17.5609 20.9164 15.7615 21.9632 14.7117C22.0092 14.6658 22.0456 14.6112 22.0705 14.5511C22.0954 14.491 22.1082 14.4265 22.1082 14.3614C22.1082 14.2963 22.0954 14.2319 22.0705 14.1718C22.0456 14.1117 22.0092 14.0571 21.9632 14.0111L20.8998 12.9448C20.854 12.8987 20.7996 12.8621 20.7396 12.8372C20.6797 12.8122 20.6154 12.7994 20.5505 12.7994C20.4856 12.7994 20.4214 12.8122 20.3614 12.8372C20.3015 12.8621 20.247 12.8987 20.2012 12.9448C19.1544 13.9945 17.36 13.2464 17.36 11.7645C17.36 11.6331 17.3079 11.5071 17.2153 11.4142C17.1226 11.3212 16.9969 11.269 16.8659 11.269H15.3633C15.2323 11.269 15.1066 11.3212 15.0139 11.4142C14.9213 11.5071 14.8692 11.6331 14.8692 11.7645C14.8692 13.2494 13.0756 13.9945 12.028 12.9448C11.9822 12.8987 11.9277 12.8621 11.8678 12.8372C11.8079 12.8122 11.7436 12.7994 11.6787 12.7994C11.6138 12.7994 11.5495 12.8122 11.4896 12.8372C11.4296 12.8621 11.3752 12.8987 11.3294 12.9448L10.2645 14.0111C10.2185 14.0571 10.1821 14.1117 10.1572 14.1718C10.1323 14.2319 10.1195 14.2963 10.1195 14.3614C10.1195 14.4265 10.1323 14.491 10.1572 14.5511C10.1821 14.6112 10.2185 14.6658 10.2645 14.7117C11.3113 15.7615 10.5653 17.5609 9.08754 17.5609C9.02265 17.5609 8.9584 17.5737 8.89846 17.5986C8.83851 17.6235 8.78404 17.66 8.73816 17.706C8.69228 17.752 8.65589 17.8067 8.63106 17.8668C8.60623 17.9269 8.59345 17.9913 8.59345 18.0564V19.5647C8.59345 19.6297 8.60623 19.6942 8.63106 19.7543C8.65589 19.8144 8.69228 19.869 8.73816 19.915C8.78404 19.961 8.83851 19.9975 8.89846 20.0224C8.9584 20.0473 9.02265 20.0602 9.08754 20.0602C10.5683 20.0602 11.3113 21.8596 10.2645 22.9093C10.2185 22.9553 10.1821 23.0099 10.1572 23.07C10.1323 23.1301 10.1195 23.1945 10.1195 23.2596C10.1195 23.3247 10.1323 23.3892 10.1572 23.4493C10.1821 23.5094 10.2185 23.564 10.2645 23.6099L11.3279 24.6763C11.3737 24.7224 11.4281 24.7589 11.4881 24.7839C11.548 24.8088 11.6123 24.8217 11.6772 24.8217C11.7421 24.8217 11.8064 24.8088 11.8663 24.7839C11.9262 24.7589 11.9807 24.7224 12.0265 24.6763C13.0749 23.625 14.8677 24.3694 14.8677 25.8565C14.8677 25.9879 14.9198 26.114 15.0124 26.2069C15.1051 26.2998 15.2308 26.352 15.3618 26.352H16.8659C16.9969 26.352 17.1226 26.2998 17.2153 26.2069C17.3079 26.114 17.36 25.9879 17.36 25.8565C17.36 24.3716 19.1544 23.6265 20.2012 24.6763C20.247 24.7224 20.3015 24.7589 20.3614 24.7839C20.4214 24.8088 20.4856 24.8217 20.5505 24.8217C20.6154 24.8217 20.6797 24.8088 20.7396 24.7839C20.7996 24.7589 20.854 24.7224 20.8998 24.6763L21.9632 23.6099C22.0092 23.564 22.0456 23.5094 22.0705 23.4493C22.0954 23.3892 22.1082 23.3247 22.1082 23.2596C22.1082 23.1945 22.0954 23.1301 22.0705 23.07C22.0456 23.0099 22.0092 22.9553 21.9632 22.9093C20.9164 21.8596 21.6594 20.0602 23.1402 20.0602ZM16.1154 15.6514C15.4923 15.6514 14.8832 15.8367 14.3651 16.1838C13.8471 16.5309 13.4433 17.0243 13.2049 17.6016C12.9664 18.1788 12.904 18.814 13.0256 19.4268C13.1471 20.0397 13.4472 20.6026 13.8878 21.0444C14.3283 21.4862 14.8897 21.7871 15.5008 21.909C16.1119 22.0309 16.7453 21.9683 17.3209 21.7292C17.8966 21.4901 18.3886 21.0852 18.7347 20.5656C19.0809 20.0461 19.2657 19.4353 19.2657 18.8105C19.2657 17.9727 18.9338 17.1691 18.343 16.5767C17.7522 15.9842 16.9509 15.6514 16.1154 15.6514Z" fill="#132431"/>
<path fill-rule="evenodd" clip-rule="evenodd" d="M7.76801 5.92439V2.18834C7.7688 1.77856 7.93148 1.38579 8.22043 1.09603C8.50938 0.806269 8.90105 0.643131 9.30969 0.642334H36.4583C36.867 0.643131 37.2587 0.806269 37.5476 1.09603C37.8366 1.38579 37.9992 1.77856 38 2.18834V21.2954C37.9992 21.7052 37.8366 22.098 37.5476 22.3878C37.2587 22.6775 36.867 22.8407 36.4583 22.8415H32.7357V8.97869C32.7348 8.16895 32.4135 7.39265 31.8426 6.82008C31.2716 6.2475 30.4975 5.92539 29.69 5.92439H7.76801Z" fill="#47C8BE"/>
</svg>
