<svg width="0" height="0" fill="none" style="visibility: hidden; position: absolute;" aria-hidden="true">
    <symbol id="arrow" viewBox="0 0 24 18" xmlns="http://www.w3.org/2000/svg">
        <line x1="0.745117" y1="8.81226" x2="20.7451" y2="8.81226" stroke="#3DDBBF"/>
        <path fill-rule="evenodd" clip-rule="evenodd" d="M19.1427 7.87427C19.0228 7.81746 18.9028 7.75435 18.7798 7.7007C17.5191 7.1857 16.3216 6.52814 15.2104 5.74087C14.3529 5.13856 13.5947 4.40596 12.9634 3.56959C12.8086 3.32194 12.6805 3.0585 12.5815 2.78375C12.5631 2.75156 12.5513 2.71602 12.5469 2.6792C12.5425 2.64238 12.5456 2.60504 12.5559 2.56942C12.5662 2.5338 12.5835 2.50062 12.6069 2.47184C12.6303 2.44306 12.6592 2.41927 12.692 2.40188C12.8371 2.31983 12.9539 2.37979 13.0833 2.48394C14.1816 3.35497 15.2609 4.25757 16.4033 5.0718C17.7803 5.99049 19.2793 6.71179 20.8564 7.21468C21.4465 7.42612 22.0461 7.6281 22.6363 7.84586C22.8412 7.92256 23.0354 8.02546 23.2138 8.152C23.5484 8.39185 23.5326 8.74215 23.1791 8.96938C23.0462 9.06175 22.8959 9.12616 22.7373 9.15873C20.8153 9.47116 19.149 10.3801 17.5048 11.3489C16.1163 12.165 14.8128 13.1175 13.6135 14.1924C13.3452 14.4607 13.0423 14.6942 12.7362 14.9183C12.6857 14.9523 12.6277 14.9735 12.5672 14.9801C12.5068 14.9867 12.4456 14.9785 12.389 14.9562C12.3445 14.9153 12.3112 14.8636 12.2924 14.8061C12.2736 14.7486 12.2699 14.6873 12.2817 14.628C12.3823 14.3556 12.5204 14.0985 12.692 13.8642C13.859 12.4481 15.2791 11.2613 16.8799 10.3643C17.5111 9.9919 18.1549 9.65107 18.7955 9.29445C18.8429 9.24711 20.424 8.53702 20.484 8.5023" fill="#3DDBBF"/>
    </symbol>
    <symbol id="border" viewBox="0 0 75 75" fill="none" xmlns="http://www.w3.org/2000/svg">
        <path d="M68.9141 75H7.67502C4.32159 75 1.59863 72.2679 1.59863 68.9236V38.2949H2.0555V68.9145C2.0555 72.012 4.57744 74.534 7.67502 74.534H68.9141V75Z" fill="#132431"/>
        <path d="M72.734 73.5837C72.67 73.5837 72.6061 73.5563 72.5604 73.5015C72.4782 73.4101 72.4873 73.2639 72.5878 73.1817C72.6975 73.0903 72.8071 72.9807 72.9076 72.8802C72.999 72.7888 73.1452 72.7888 73.2274 72.8802C73.3188 72.9715 73.3188 73.1177 73.2274 73.2C73.1178 73.3096 72.999 73.4193 72.8802 73.5289C72.8437 73.5655 72.7888 73.5837 72.734 73.5837ZM74.7717 69.1612C74.6437 69.1612 74.5432 69.0607 74.5432 68.9328V68.4759C74.5432 68.348 74.6437 68.2475 74.7717 68.2475C74.8996 68.2475 75.0001 68.348 75.0001 68.4759V68.9328C75.0001 69.0607 74.8996 69.1612 74.7717 69.1612ZM74.7717 64.1265C74.6437 64.1265 74.5432 64.026 74.5432 63.8981V63.4412C74.5432 63.3133 74.6437 63.2128 74.7717 63.2128C74.8996 63.2128 75.0001 63.3133 75.0001 63.4412V63.8981C75.0001 64.026 74.8996 64.1265 74.7717 64.1265ZM74.7717 59.1009C74.6437 59.1009 74.5432 59.0004 74.5432 58.8725V58.4156C74.5432 58.2877 74.6437 58.1872 74.7717 58.1872C74.8996 58.1872 75.0001 58.2877 75.0001 58.4156V58.8725C75.0001 59.0004 74.8996 59.1009 74.7717 59.1009ZM74.7717 54.0753C74.6437 54.0753 74.5432 53.9748 74.5432 53.8469V53.39C74.5432 53.2621 74.6437 53.1616 74.7717 53.1616C74.8996 53.1616 75.0001 53.2621 75.0001 53.39V53.8469C75.0001 53.9748 74.8996 54.0753 74.7717 54.0753ZM74.7717 49.0406C74.6437 49.0406 74.5432 48.9401 74.5432 48.8122V48.3553C74.5432 48.2274 74.6437 48.1269 74.7717 48.1269C74.8996 48.1269 75.0001 48.2274 75.0001 48.3553V48.8122C75.0001 48.9401 74.8996 49.0406 74.7717 49.0406ZM74.7717 44.015C74.6437 44.015 74.5432 43.9145 74.5432 43.7866V43.3297C74.5432 43.2018 74.6437 43.1013 74.7717 43.1013C74.8996 43.1013 75.0001 43.2018 75.0001 43.3297V43.7866C75.0001 43.9145 74.8996 44.015 74.7717 44.015ZM74.7717 38.9894C74.6437 38.9894 74.5432 38.8889 74.5432 38.761V38.3041C74.5432 38.1762 74.6437 38.0757 74.7717 38.0757C74.8996 38.0757 75.0001 38.1762 75.0001 38.3041V38.761C75.0001 38.8889 74.8996 38.9894 74.7717 38.9894Z" fill="#132431"/>
        <path d="M75.0004 38.295H74.5435V7.67551C74.5435 4.57792 72.0216 2.05599 68.924 2.05599H7.67578V1.59912H68.9149C72.2683 1.59912 74.9912 4.33121 74.9912 7.67551V38.295H75.0004Z" fill="#132431"/>
        <path d="M3.65497 38.295H0V7.67544C0 3.44481 3.44481 0 7.67544 0V3.65497C5.45505 3.65497 3.65497 5.46418 3.65497 7.67544V38.295Z" fill="#132431"/>
    </symbol>
    <symbol id="retail" viewBox="0 0 30 30" fill="none" xmlns="http://www.w3.org/2000/svg">
        <g clip-path="url(#clip0_0_271__retail)">
            <path d="M28.4531 6.68438C28.1893 6.35339 27.8541 6.08623 27.4727 5.90281C27.0912 5.71938 26.6733 5.62442 26.25 5.625H20.625V7.65938C21.0201 7.80046 21.3788 8.02785 21.675 8.325C21.9365 8.58574 22.1439 8.89551 22.2855 9.23656C22.427 9.57762 22.4999 9.94324 22.4999 10.3125C22.4999 10.6818 22.427 11.0474 22.2855 11.3884C22.1439 11.7295 21.9365 12.0393 21.675 12.3L19.8 14.175C19.2662 14.6931 18.5517 14.9829 17.8078 14.9829C17.064 14.9829 16.3494 14.6931 15.8156 14.175L13.95 12.3C13.6885 12.0393 13.4811 11.7295 13.3395 11.3884C13.198 11.0474 13.1251 10.6818 13.1251 10.3125C13.1251 9.94324 13.198 9.57762 13.3395 9.23656C13.4811 8.89551 13.6885 8.58574 13.95 8.325C14.2462 8.02785 14.6049 7.80046 15 7.65938V5.625H7.47187L6.53437 1.65937C6.48593 1.45438 6.36986 1.27168 6.20489 1.14072C6.03991 1.00976 5.83564 0.938172 5.625 0.9375H1.875C1.62636 0.9375 1.3879 1.03627 1.21209 1.21209C1.03627 1.3879 0.9375 1.62636 0.9375 1.875C0.9375 2.12364 1.03627 2.3621 1.21209 2.53791C1.3879 2.71373 1.62636 2.8125 1.875 2.8125H4.88438L8.19375 16.9031C7.49448 16.9607 6.84236 17.2789 6.3666 17.7946C5.89084 18.3103 5.62616 18.9859 5.625 19.6875C5.63064 20.4317 5.92877 21.1438 6.455 21.67C6.98122 22.1962 7.69332 22.4944 8.4375 22.5H24.375C24.6236 22.5 24.8621 22.4012 25.0379 22.2254C25.2137 22.0496 25.3125 21.8111 25.3125 21.5625C25.3125 21.3139 25.2137 21.0754 25.0379 20.8996C24.8621 20.7238 24.6236 20.625 24.375 20.625H8.4375C8.1908 20.6188 7.95592 20.5181 7.78143 20.3436C7.60693 20.1691 7.50618 19.9342 7.5 19.6875C7.5 19.4389 7.59877 19.2004 7.77459 19.0246C7.9504 18.8488 8.18886 18.75 8.4375 18.75H24.3C24.9228 18.749 25.5276 18.5414 26.0196 18.1596C26.5116 17.7779 26.8631 17.2436 27.0187 16.6406L28.9875 9.10312V9.075C29.085 8.66205 29.0875 8.23237 28.995 7.81829C28.9024 7.40422 28.7171 7.01652 28.4531 6.68438Z" fill="#132431"/>
            <path d="M21.5616 29.0625C23.1149 29.0625 24.3741 27.8033 24.3741 26.25C24.3741 24.6967 23.1149 23.4375 21.5616 23.4375C20.0083 23.4375 18.7491 24.6967 18.7491 26.25C18.7491 27.8033 20.0083 29.0625 21.5616 29.0625Z" fill="#3DDBBF"/>
            <path d="M11.2491 29.0625C12.8024 29.0625 14.0616 27.8033 14.0616 26.25C14.0616 24.6967 12.8024 23.4375 11.2491 23.4375C9.69576 23.4375 8.43656 24.6967 8.43656 26.25C8.43656 27.8033 9.69576 29.0625 11.2491 29.0625Z" fill="#3DDBBF"/>
            <path d="M15.2747 10.9753L17.1497 12.8503C17.3275 13.023 17.5656 13.1197 17.8134 13.1197C18.0613 13.1197 18.2994 13.023 18.4772 12.8503L20.3522 10.9753C20.523 10.7985 20.6175 10.5617 20.6153 10.3159C20.6132 10.0701 20.5146 9.83493 20.3408 9.66111C20.1669 9.48729 19.9318 9.38869 19.686 9.38656C19.4402 9.38442 19.2034 9.47891 19.0266 9.64969L18.75 9.92438V4.6875C18.75 4.43886 18.6512 4.2004 18.4754 4.02459C18.2996 3.84877 18.0611 3.75 17.8125 3.75C17.5639 3.75 17.3254 3.84877 17.1496 4.02459C16.9738 4.2004 16.875 4.43886 16.875 4.6875V9.92438L16.6003 9.64969C16.4235 9.47891 16.1867 9.38442 15.9409 9.38656C15.6951 9.38869 15.4599 9.48729 15.2861 9.66111C15.1123 9.83493 15.0137 10.0701 15.0116 10.3159C15.0094 10.5617 15.1039 10.7985 15.2747 10.9753Z" fill="#3DDBBF"/>
        </g>
        <defs>
            <clipPath id="clip0_0_271__retail">
                <rect width="30" height="30" fill="white"/>
            </clipPath>
        </defs>
    </symbol>
    <symbol id="search" viewBox="0 0 33 33" fill="none" xmlns="http://www.w3.org/2000/svg">
        <path d="M13.6797 16.7578C13.6797 17.4698 14.2568 18.0469 14.9688 18.0469H18.0303C18.7422 18.0469 19.3193 17.4698 19.3193 16.7578V16.1133H13.6797V16.7578Z" fill="#132431"/>
        <path d="M26.8125 5.47852C26.2786 5.47852 25.8457 5.91138 25.8457 6.44531C25.8457 6.97924 26.2786 7.41211 26.8125 7.41211H28.7461C29.28 7.41211 29.7129 6.97924 29.7129 6.44531C29.7129 5.91138 29.28 5.47852 28.7461 5.47852H26.8125Z" fill="#132431"/>
        <path d="M25.3307 2.73915C25.5977 3.20153 26.189 3.35996 26.6514 3.09299L28.3259 2.1262C28.7883 1.85923 28.9467 1.26794 28.6798 0.805554C28.4128 0.343167 27.8215 0.184741 27.3591 0.451706L25.6846 1.4185C25.2222 1.68547 25.0638 2.27676 25.3307 2.73915Z" fill="#132431"/>
        <path d="M25.6846 11.4719L27.3591 12.4387C27.8215 12.7057 28.4128 12.5472 28.6798 12.0849C28.9467 11.6225 28.7883 11.0312 28.3259 10.7642L26.6514 9.79741C26.189 9.53044 25.5977 9.68887 25.3307 10.1513C25.0638 10.6136 25.2222 11.2049 25.6846 11.4719Z" fill="#132431"/>
        <path d="M4.25391 7.41211H6.1875C6.72143 7.41211 7.1543 6.97924 7.1543 6.44531C7.1543 5.91138 6.72143 5.47852 6.1875 5.47852H4.25391C3.71998 5.47852 3.28711 5.91138 3.28711 6.44531C3.28711 6.97924 3.71998 7.41211 4.25391 7.41211Z" fill="#132431"/>
        <path d="M4.67408 2.1262L6.34864 3.09299C6.81103 3.35996 7.40232 3.20153 7.66929 2.73915C7.93625 2.27676 7.77782 1.68547 7.31544 1.4185L5.64088 0.451706C5.17849 0.184741 4.5872 0.343167 4.32024 0.805554C4.05327 1.26794 4.2117 1.85923 4.67408 2.1262Z" fill="#132431"/>
        <path d="M6.34864 9.79741L4.67408 10.7642C4.2117 11.0312 4.05327 11.6225 4.32024 12.0849C4.5872 12.5472 5.17849 12.7057 5.64088 12.4387L7.31544 11.4719C7.77782 11.2049 7.93625 10.6136 7.66929 10.1513C7.40232 9.68887 6.81103 9.53044 6.34864 9.79741Z" fill="#132431"/>
        <path d="M12.4007 11.4136C13.1823 12.0581 13.6802 12.9819 13.6802 13.995V14.1797H15.5332V8.13482L13.8828 6.48444C13.5052 6.10687 13.5052 5.49476 13.8828 5.11719C14.2603 4.73962 14.8725 4.73962 15.2501 5.11719L16.5 6.36713L17.75 5.11719C18.1275 4.73962 18.7397 4.73962 19.1172 5.11719C19.4948 5.49476 19.4948 6.10687 19.1172 6.48444L17.4668 8.13482V14.1797H19.3198V13.9949C19.3198 12.9818 19.8177 12.058 20.5993 11.4136C22.0316 10.2327 22.9453 8.4469 22.9453 6.44531C22.9453 2.8857 20.0596 0 16.5 0C12.9404 0 10.0547 2.8857 10.0547 6.44531C10.0547 8.4469 10.9684 10.2327 12.4007 11.4136Z" fill="#3DDBBF"/>
        <path d="M26.877 23.8477C28.4788 23.8477 29.7773 22.5491 29.7773 20.9473C29.7773 19.3454 28.4788 18.0469 26.877 18.0469C25.2751 18.0469 23.9766 19.3454 23.9766 20.9473C23.9766 22.5491 25.2751 23.8477 26.877 23.8477Z" fill="#132431"/>
        <path d="M6.12305 23.8477C7.72489 23.8477 9.02344 22.5491 9.02344 20.9473C9.02344 19.3454 7.72489 18.0469 6.12305 18.0469C4.52121 18.0469 3.22266 19.3454 3.22266 20.9473C3.22266 22.5491 4.52121 23.8477 6.12305 23.8477Z" fill="#132431"/>
        <path d="M29.5023 25.003C28.7456 25.4945 27.8444 25.7812 26.877 25.7812C25.7911 25.7812 24.7878 25.4212 23.9799 24.8145H21.7852C21.536 24.8145 21.334 24.6125 21.334 24.3633V22.2363C21.334 20.9904 20.324 19.9805 19.0781 19.9805H17.4668V24.4277C17.4668 26.7771 19.3713 28.6816 21.7207 28.6816V32.0332C21.7207 32.5671 22.1536 33 22.6875 33H32.0332C32.5671 33 33 32.5671 33 32.0332V29.6484C33 27.4425 31.5218 25.5829 29.5023 25.003Z" fill="#132431"/>
        <path d="M11.666 22.2363V24.3633C11.666 24.6125 11.464 24.8145 11.2148 24.8145H9.02009C8.21217 25.4212 7.20895 25.7812 6.12305 25.7812C5.15561 25.7812 4.25436 25.4945 3.49774 25.003C1.47823 25.5829 0 27.4425 0 29.6484V32.0332C0 32.5671 0.432867 33 0.966797 33H10.3125C10.8464 33 11.2793 32.5671 11.2793 32.0332V28.6816C13.6287 28.6816 15.5332 26.7771 15.5332 24.4277V19.9805H13.9219C12.676 19.9805 11.666 20.9904 11.666 22.2363Z" fill="#132431"/>
    </symbol>
    <symbol id="shape-1" viewBox="0 0 86 223" fill="none" xmlns="http://www.w3.org/2000/svg">
        <path d="M132.575 212.739C132.144 212.797 128.722 213.666 124.942 214.696C116.515 216.997 100.689 220.617 96.2366 221.289C81.8402 223.448 71.0559 223.253 62.6289 220.684C54.8032 218.303 48.4445 213.102 45.3697 206.567C44.2911 204.271 43.1783 199.59 43.0988 196.986C42.9408 191.202 44.4606 184.836 47.9183 176.862C48.6779 175.131 50.7326 170.767 52.5004 167.169C56.1068 159.779 57.5219 156.582 58.6812 153.202C63.9336 137.657 59.8177 126.477 43.5799 112.29C40.8504 109.897 35.1213 105.441 28.8647 100.836C17.3768 92.3742 12.4657 88.0446 8.20955 82.6882C3.57725 76.8282 0.963486 70.0539 0.906036 63.7225C0.8672 59.6989 2.09433 54.7301 4.09619 50.7821C8.35942 42.37 16.999 34.1773 29.4515 26.7207C36.8091 22.3131 43.53 19.017 58.7878 12.3101C63.5596 10.2081 70.5927 7.05672 74.4097 5.31946C78.2268 3.5822 82.0891 1.84648 82.9956 1.46681C83.9146 1.09764 84.7948 0.696435 84.9676 0.590497C85.2132 0.440602 85.3061 0.486357 85.3815 0.819033C85.4625 1.17711 85.3954 1.24571 85.0027 1.25447C84.7252 1.26306 81.1578 2.79683 76.4296 4.94236C71.9721 6.97312 64.414 10.351 59.6432 12.4528C50.1452 16.6329 46.2555 18.4141 41.495 20.7823C26.4068 28.3106 16.1895 35.706 9.56609 43.9382C6.07227 48.2656 4.29047 51.37 2.89544 55.5971C-0.603066 66.0807 2.1936 75.5956 11.7542 85.7168C15.4761 89.6595 19.7901 93.2394 29.108 100.109C43.0791 110.384 49.3353 115.934 54.2667 122.385C57.5855 126.727 59.4559 130.633 60.5675 135.543C61.951 141.654 61.5638 146.769 59.214 153.753C58.0547 157.134 56.6396 160.33 53.0332 167.72C49.2373 175.435 47.4409 179.511 46.1162 183.373C42.4165 194.13 42.8704 202.375 47.519 209.185C49.0663 211.442 51.7287 214.12 54.01 215.7C56.4068 217.348 60.5461 219.341 63.3177 220.194C71.7609 222.762 82.544 222.952 96.9407 220.795C102.65 219.932 119.723 215.866 132.193 212.384C133.044 212.151 133.225 212.151 133.277 212.381C133.329 212.611 133.197 212.681 132.569 212.742L132.575 212.739ZM129.893 209.032C128.535 209.339 122.445 210.785 116.392 212.236C102.893 215.454 98.1524 216.312 90.387 216.954C75.8381 218.151 65.5056 216.027 58.3657 210.426C50.6761 204.357 47.9201 194.873 50.6358 183.694C51.7442 179.128 53.0412 175.649 56.9763 166.801C61.0766 157.525 62.4691 153.796 63.5493 149.263C64.7708 144.054 64.9079 140.154 63.9925 135.453C63.1461 131.061 61.9623 128.156 59.2573 123.836C54.9569 116.972 48.6306 110.609 35.0169 99.4428C26.4682 92.4128 23.5849 89.8497 19.8666 85.9904C15.8006 81.7626 13.1745 78.0827 11.2377 73.8844C9.99922 71.2476 8.81979 66.2587 8.7978 63.616C8.7566 59.6034 9.7243 55.5338 11.6454 51.6406C17.1146 40.6575 30.1267 30.7621 51.1344 21.6241C60.3888 17.6067 76.349 11.6013 83.8446 9.32595C85.1516 8.92239 86.3558 8.50203 86.5258 8.38338C86.9617 8.056 87.0305 8.06716 87.1289 8.50149C87.2071 8.84688 87.1401 8.91624 86.7317 8.92776C84.7646 8.95657 62.5765 17.1649 51.9896 21.766C30.847 30.9613 17.7669 40.9664 12.1821 52.191C8.02544 60.5649 8.46005 68.6388 13.4853 76.9105C17.1281 82.9002 22.1708 87.9552 35.2651 98.7146C48.8788 109.881 55.2041 116.245 59.5046 123.108C62.3073 127.567 63.3672 130.217 64.3816 135.351C65.4606 140.698 65.3884 144.304 64.0859 149.814C63.0058 154.346 61.6133 158.075 57.513 167.351C54.5514 174.03 53.7314 176.003 52.649 179.205C48.881 190.314 49.3062 198.148 54.0627 204.922C58.4579 211.185 66.5521 215.334 76.4299 216.39C83.8123 217.179 91.9237 216.754 102.225 215.03C107.151 214.197 122.925 210.505 131.17 208.262C132.065 208.006 132.293 207.994 132.339 208.199C132.389 208.417 132.022 208.54 129.897 209.034L129.893 209.032ZM118.849 207.473C108.442 209.816 105.567 210.413 102.701 210.833C89.9905 212.662 80.863 212.522 73.4939 210.418C70.396 209.52 66.3282 207.537 64.1877 205.859C61.4879 203.741 59.7453 201.635 58.1737 198.617C56.9883 196.359 55.8167 191.26 55.8097 188.319C55.7893 182.638 57.3064 176.769 61.6942 165.655C65.1734 156.829 66.6872 152.118 67.5065 147.591C69.6486 135.842 66.6386 126.106 57.4259 114.98C53.6408 110.393 48.5362 105.353 39.1414 96.9145C26.4475 85.5048 21.978 80.4316 18.6685 73.6702C17.8024 71.8764 17.5648 71.1915 16.8863 68.2668C15.984 64.3578 15.9012 62.7529 16.437 59.4567C16.8758 56.8174 17.4598 54.9641 18.6382 52.6139C21.0963 47.7029 24.7754 43.4687 30.5338 38.8989C36.0688 34.5141 44.5471 29.7451 53.7568 25.8188C62.549 22.0805 74.6584 17.7398 84.2461 14.8973C86.0945 14.3445 87.7653 13.8043 87.9382 13.6984C88.1716 13.567 88.274 13.5823 88.329 13.8253C88.3926 14.1063 88.1975 14.1906 86.0125 14.7796C82.8988 15.6322 76.1753 17.8263 70.3735 19.8793C46.6925 28.2511 33.0029 35.9202 24.2188 45.7315C21.4526 48.8309 18.8612 53.1528 17.7826 56.462C17.1441 58.4352 16.6284 61.7529 16.643 63.7771C16.6564 66.3817 17.6392 70.2859 18.9145 72.941C22.2013 79.6832 26.6756 84.7734 39.3909 96.1829C51.2215 106.812 56.7202 112.502 60.912 118.449C67.4949 127.766 69.8359 137.088 68.1651 147.293C67.3658 152.259 65.9374 156.776 62.2325 166.203C57.8759 177.257 56.3334 183.158 56.3422 188.788C56.3369 191.598 57.2816 195.699 58.4187 197.888C59.9875 200.893 61.7337 203.011 64.4325 205.129C66.5945 206.83 71.0703 209.016 74.2021 209.92C81.6238 212.044 90.8131 212.168 103.612 210.292C106.675 209.854 109.246 209.313 118.821 207.145C125.173 205.707 130.588 204.414 130.873 204.295C131.289 204.094 131.407 204.108 131.459 204.337C131.52 204.606 130.913 204.757 118.847 207.475L118.849 207.473ZM125.326 202.445C106.445 206.585 96.8725 207.824 87.5206 207.347C84.3946 207.195 79.2918 206.307 76.9239 205.512C65.1917 201.567 59.8549 192.158 61.9889 179.134C62.6014 175.447 63.6184 171.802 66.3205 163.757C68.871 156.137 70.0603 151.943 70.716 148.302C72.2196 139.977 71.3548 132.377 68.0703 125.136C65.5783 119.652 61.2205 113.528 54.9968 106.764C52.4452 103.995 50.8979 102.463 44.4639 96.2046C38.1597 90.0779 36.223 88.1367 34.1461 85.865C29.785 81.0588 26.8104 76.8535 25.0059 72.9735C23.7917 70.372 22.706 65.7925 22.7031 63.2524C22.6677 57.9376 24.3668 53.4538 28.2991 48.4503C35.7956 38.9164 49.1094 31.3221 72.4354 23.2696C76.3993 21.8881 82.2309 20.0437 86.0752 18.9313C87.4627 18.5229 88.7358 18.1137 88.9087 18.0077C89.1421 17.8763 89.2474 17.9043 89.2995 18.1346C89.3631 18.4156 89.2156 18.4891 88.0473 18.7803C84.7631 19.5914 75.5022 22.5753 69.2219 24.8301C52.1277 30.9854 41.1455 36.8721 33.2084 44.1128C30.5225 46.5622 26.9904 51.0854 25.6651 53.8051C21.9052 61.3905 22.4905 68.4088 27.5626 76.4278C30.674 81.3817 34.0994 85.1769 44.7044 95.4782C55.3093 105.78 58.9603 109.792 63.1823 115.704C67.6996 122.075 69.8995 126.994 71.1941 133.73C71.9721 137.748 72.1264 140.173 71.8461 144.094C71.4713 149.34 70.3427 153.87 66.8511 164.312C63.265 174.99 62.1634 179.648 62.0636 184.362C61.8866 192.95 65.7647 199.398 73.428 203.243C76.5048 204.778 79.0781 205.607 82.8361 206.222C89.3434 207.289 96.1497 207.2 105.398 205.912C110.293 205.234 119.241 203.491 125.62 201.979C129.975 200.94 130.653 200.813 130.699 201.017C130.749 201.235 130.034 201.423 125.312 202.452L125.326 202.445ZM129.254 197.563C128.901 197.603 125.961 198.201 122.71 198.883C109.794 201.62 101.105 202.619 93.104 202.293C74.4459 201.558 65.5915 191.853 68.1899 174.997C68.7209 171.531 69.179 169.558 71.1304 162.409C72.056 159.014 73.0646 155.116 73.3814 153.754C76.1164 141.858 75.5275 132.864 71.4095 123.54C68.9475 117.968 64.4103 111.294 58.3581 104.397C56.8702 102.691 55.4986 101.227 45.8984 91.0616C36.1577 80.7257 32.4832 75.3209 30.7121 68.7322C28.3576 60.0036 31.2262 52.4054 39.6668 45.0099C41.9426 43.0015 47.1772 39.385 50.2016 37.7054C59.6961 32.4242 71.997 27.6904 89.3422 22.6484C90.129 22.4161 90.2755 22.4096 90.3334 22.6653C90.3855 22.8956 90.2875 22.972 89.816 22.9977C88.3716 23.0827 75.7621 27.1743 68.9111 29.7737C58.5345 33.7088 51.6126 37.1305 45.5136 41.3577C41.9169 43.8522 39.4712 45.9116 37.0927 48.48C31.3518 54.6584 29.1942 61.9778 31.0976 68.6418C32.8585 74.7486 36.7627 80.3703 46.139 90.3313C55.7429 100.495 57.111 101.961 58.5999 103.667C65.8928 112.003 70.5378 119.276 73.0728 126.333C73.9265 128.72 75.222 134.664 75.4218 137.159C75.7662 141.221 75.6232 144.658 74.9061 149.117C74.3411 152.727 73.6613 155.608 71.6578 162.959C69.7063 170.107 69.2491 172.08 68.7183 175.547C68.2341 178.643 68.1505 181.468 68.4678 184.248C69.0028 189.157 71.8059 193.763 76.0834 196.749C77.9403 198.049 81.4623 199.658 83.9223 200.351C93.0562 202.92 106.041 202.226 124.048 198.216C129.28 197.059 129.771 196.974 129.826 197.217C129.872 197.422 129.758 197.501 129.246 197.563L129.254 197.563ZM128.719 193.676C128.533 193.651 126.41 194.011 124.012 194.46C104.255 198.153 92.2491 198.008 84.1838 193.987C79.0663 191.435 76.04 187.51 74.7402 181.769C73.5386 176.461 73.8761 171.924 76.3356 159.982C78.3578 150.173 78.9798 145.081 78.8574 139.666C78.7633 135.614 78.4324 133.283 77.3549 129.105C75.7291 122.793 73.1388 117.384 68.6092 110.815C65.1766 105.826 62.8057 102.908 54.2641 93.1474C48.6711 86.752 45.7897 83.251 43.8065 80.4472C38.0846 72.3199 36.1574 65.0412 38.0368 58.7413C41.1462 48.4268 53.4171 39.6408 76.0842 31.5118C79.7813 30.1907 85.483 28.349 88.3462 27.557C89.461 27.2504 90.5702 26.9191 90.7933 26.8144C91.1107 26.6891 91.2473 26.7116 91.2811 26.9326C91.3361 27.1756 91.1254 27.2634 89.3945 27.6819C87.0748 28.248 81.3362 30.0847 76.9393 31.6577C65.4695 35.7735 57.0505 39.854 50.7326 44.3492C46.8387 47.1255 44.4867 49.3782 42.0511 52.6449C36.6267 59.9242 36.496 67.2625 41.6375 75.9526C44.1688 80.2316 46.8331 83.6474 54.5105 92.4205C64.7879 104.181 68.3392 108.753 71.9112 114.867C75.0141 120.216 76.3173 123.359 77.7485 129.027C80.215 138.832 80.0378 145.096 76.871 160.532C74.9745 169.725 74.4672 173.67 74.6535 177.836C75.0882 187.456 81.015 193.587 92.1223 195.857C97.8972 197.037 106.801 196.835 117.073 195.276C121.142 194.651 128.293 193.328 128.643 193.128C128.803 193.039 128.92 193.119 128.97 193.336C129.03 193.605 128.948 193.691 128.717 193.676L128.719 193.676ZM127.71 189.361C127.514 189.366 125.969 189.594 124.272 189.871C118.678 190.802 114.767 191.257 110.362 191.502C92.3736 192.444 82.9808 187.366 81.0309 175.627C80.2796 171.146 80.4171 167.324 81.7075 157.477C83.2808 145.319 83.4076 139.846 82.2922 132.451C81.4078 126.508 78.9133 119.706 75.2691 113.341C71.9286 107.524 68.5743 102.88 60.3127 92.6127C52.3125 82.7024 49.431 78.476 47.1867 73.3784C46.3355 71.421 45.2517 66.8677 45.2139 65.1151C45.1425 60.8034 46.4603 57.1046 49.4367 53.3258C54.3104 47.1008 63.265 41.5387 76.8459 36.2865C80.7178 34.7914 84.8074 33.3838 88.6691 32.1952C90.2546 31.7153 91.7063 31.2255 91.8789 31.1188C92.1247 30.9697 92.2148 31.0027 92.2658 31.3C92.3504 31.6738 92.3217 31.6913 90.4656 32.1382C84.8494 33.4883 73.1301 38.0118 66.3197 41.435C61.4923 43.8725 56.6872 47.0571 53.5614 49.8882C51.3798 51.8752 48.5877 55.4505 47.5657 57.5499C44.8236 63.238 45.209 68.7156 48.8576 75.6053C50.8919 79.4325 53.9712 83.7352 60.5525 91.8833C68.8149 102.15 72.1684 106.794 75.5089 112.611C79.2413 119.146 81.7482 126.079 82.7673 132.689C83.9446 140.286 83.8324 145.674 82.2377 158.025C80.4378 171.871 80.7324 176.66 83.6593 181.673C87.7007 188.554 96.7662 191.69 110.648 191.034C115.218 190.806 121.989 189.985 126.112 189.16C127.716 188.837 127.928 188.827 127.987 189.085C128.033 189.289 127.95 189.375 127.704 189.364L127.71 189.361ZM126.637 184.55C126.42 184.533 125.117 184.667 123.759 184.84C108.251 186.883 97.8249 185.149 92.4806 179.635C91.1736 178.291 90.1647 176.812 89.327 174.932C88.7445 173.666 88.4963 172.714 87.9227 169.819C87.0733 165.482 87.0049 163.441 87.4199 153.938C87.8392 144.676 87.8322 141.518 87.4058 136.305C87.1486 133.205 85.2507 124.534 84.2261 121.81C80.75 112.556 77.093 106.354 66.7575 92.1611C58.6288 81.0344 56.1548 76.711 54.6773 71.1309C53.2646 65.7649 53.6436 61.9155 55.9882 57.7422C59.1862 52.0451 66.2907 46.7266 77.1942 41.8526C81.6457 39.8632 89.5985 36.9225 91.9921 36.3806C92.4141 36.2851 92.7907 36.133 92.8314 36.0334C92.984 35.6892 93.2945 35.7541 93.3842 36.1503C93.4653 36.5084 93.3953 36.5643 92.9054 36.5809C92.2254 36.6272 86.8002 38.4472 83.3057 39.8026C75.6433 42.7876 68.4145 46.6018 64.0669 49.9916C55.8709 56.3636 52.9403 63.1836 55.062 70.9558C56.4576 76.0302 59.1844 80.7357 67.0014 91.4363C76.0455 103.849 79.6757 109.711 82.7215 116.777C84.6745 121.348 85.1285 122.755 86.4583 128.7C88.3918 137.241 88.5761 140.601 87.9543 154.492C87.5635 163.372 87.635 166.084 88.3106 169.721C88.9119 172.959 89.6333 174.839 91.0102 176.853C95.6861 183.63 105.642 186.269 120.879 184.769C122.358 184.622 124.277 184.376 125.146 184.219C126.584 183.961 126.749 183.964 126.881 184.256C126.992 184.527 126.941 184.592 126.635 184.554L126.637 184.55ZM125.187 179.166C124.879 179.182 123.493 179.308 122.12 179.417C111.001 180.362 102.529 178.032 98.3152 172.857C96.1272 170.166 95.0406 167.547 94.1388 162.766C93.4767 159.26 93.3096 157.067 92.9967 148.495C92.5887 136.812 91.7738 130.451 89.8705 124.148C86.7296 113.689 83.5661 107.564 72.6747 90.915C69.4477 85.9598 66.7606 81.353 65.3897 78.424C64.1372 75.7212 62.6718 70.4103 62.5967 68.263C62.3668 61.7286 65.4537 56.4732 72.5736 51.3084C77.2898 47.8752 83.4867 44.8054 91.042 42.1409C92.554 41.6108 93.9457 41.0905 94.1221 41.0003C94.3453 40.8956 94.4695 40.9351 94.5185 41.1519C94.5735 41.3948 94.4319 41.4945 93.7459 41.6631C92.534 41.9776 87.4578 43.893 85.2277 44.8686C73.4407 50.0519 66.2019 56.2189 63.9058 63.003C62.8864 66.0559 62.8831 68.9471 63.8951 72.7637C65.0822 77.2102 67.4779 81.8319 72.9211 90.1834C83.8405 106.879 87.0079 113.031 90.1332 123.493C92.2365 130.53 93.1105 137.094 93.5316 149.042C93.8276 157.107 94.0156 159.74 94.56 162.735C95.7712 169.612 98.7535 173.775 104.342 176.448C107.786 178.074 111.456 178.883 116.303 179.077C118.893 179.189 123.342 179.002 124.774 178.718C125.437 178.595 125.639 178.616 125.688 178.834C125.735 179.038 125.621 179.118 125.186 179.162L125.187 179.166ZM123.712 171.704C123.505 171.657 122.61 171.631 121.74 171.64C118.025 171.648 113.848 170.779 111.145 169.442C107.604 167.676 104.936 164.758 103.151 160.713C102.11 158.367 100.434 150.964 99.8949 146.329C98.7464 136.534 98.4038 134.367 96.998 128.086C95.924 123.342 95.3475 121.16 94.5874 118.965C91.8971 111.294 89.2432 105.672 83.7372 95.8804C76.9647 83.8375 75.1043 79.8232 73.9783 74.8497C72.6247 68.7983 73.5574 64.1242 77.0255 59.6831C80.1623 55.666 86.1178 51.6025 92.9132 48.8562C94.2378 48.3143 95.472 47.8054 95.6479 47.7129C95.8867 47.6054 95.9952 47.6476 96.0502 47.8906C96.1081 48.1462 96.0004 48.2516 95.4842 48.3684C94.483 48.5951 91.0465 50.126 88.5801 51.4364C81.1087 55.4132 76.1218 60.5612 74.5393 65.92C73.5117 69.4455 73.7638 73.6094 75.2768 77.8234C76.7008 81.7888 78.6226 85.6281 83.9868 95.1535C89.4894 104.93 92.1249 110.543 94.8379 118.238C95.6284 120.495 96.1916 122.623 97.3919 127.997C98.9568 134.981 99.2371 136.652 100.433 146.876C100.971 151.432 102.386 157.685 103.4 159.982C105.733 165.274 109.658 168.66 115.193 170.175C117.843 170.907 122.429 171.401 123.572 171.075C123.804 171.009 123.939 171.099 124.003 171.38C124.075 171.7 124.021 171.753 123.714 171.701L123.712 171.704ZM121.119 159.159C120.982 159.162 120.851 159.136 120.74 159.083C120.594 159.022 120.024 158.828 119.475 158.657C117.269 157.92 114.586 155.584 112.856 152.884C110.617 149.383 109.874 147.12 106.625 133.716C105.124 127.536 103.557 121.399 103.125 120.058C100.965 113.222 98.6492 107.496 94.2857 98.1604C88.9179 86.7269 88.0649 84.5585 86.9792 79.8532C86.1793 76.3917 86.0404 74.9041 86.2656 72.3398C86.6206 68.2405 88.3057 64.8617 91.5685 61.6899C92.9309 60.3732 95.289 58.6566 96.6845 57.9909C97.128 57.7695 97.5813 57.5191 97.6765 57.4166C97.9379 57.1162 98.1453 57.1628 98.2321 57.5463C98.2988 57.8408 98.2095 57.9553 97.865 58.0333C97.3023 58.1607 95.3676 59.3508 94.0563 60.3887C90.8767 62.9098 88.2214 66.6026 87.3223 69.8035C86.4923 72.7467 86.5149 75.9008 87.3716 79.685C88.3038 83.8026 89.3414 86.3497 94.5312 97.4337C98.8985 106.768 101.215 112.494 103.371 119.331C103.805 120.671 105.375 126.808 106.87 132.989C108.366 139.17 109.876 145.024 110.225 146.007C111.919 150.785 113.853 153.895 116.449 155.983C117.875 157.125 119.903 158.238 120.528 158.232C120.902 158.214 121.043 158.33 121.122 158.675C121.179 158.931 121.163 159.15 121.116 159.16L121.119 159.159Z" fill="#A8CFC4" fill-opacity="0.6"/>
    </symbol>
    <symbol id="shape-2" viewBox="0 0 220 77" fill="none" xmlns="http://www.w3.org/2000/svg">
        <path d="M76.2647 0.188477C73.7671 0.456856 70.3651 1.11997 67.6509 1.86243C54.5445 5.41601 42.9 14.1981 27.9985 31.7623C13.8711 48.3989 3.53075 64.6643 0.915538 74.3309C0.58043 75.5151 0.261986 76.5103 0.162042 76.5416C-0.173066 76.7003 0.0444447 76.9687 0.513791 76.9687C0.882213 76.9687 1.00371 76.8707 1.00371 76.5259C1.00371 74.947 3.48371 68.8183 6.03131 64.0952C14.5452 48.2843 33.2818 25.0812 46.107 14.4988C55.4753 6.74322 63.9725 2.68422 74.4128 0.962273C77.7316 0.408867 84.3348 0.219818 87.921 0.550888C93.3004 1.07295 99.7193 2.46285 104.982 4.26315C111.383 6.4435 117.3 9.14394 128.863 15.1776C140.854 21.4326 147.793 24.6071 154.994 27.1509C161.883 29.5673 167.313 30.9709 180.485 33.737C190.356 35.8056 192.87 36.3904 197.278 37.5912C204.384 39.5336 210.212 41.9343 214.288 44.6044C216.701 46.1833 220.405 49.4372 222.332 51.6959C226.103 56.1183 229.807 62.5163 231.986 68.4393C232.991 71.1397 234.265 75.9892 234.114 76.5259C234.016 76.905 234.081 76.9687 234.55 76.9687C234.985 76.9687 235.069 76.905 234.952 76.6366C234.869 76.4476 234.617 75.4681 234.399 74.4572C232.723 66.8437 229.136 59.2458 223.991 52.3913C222.115 49.9113 217.557 45.7416 214.858 44.0353C210.635 41.3662 205.121 39.1232 198.115 37.1965C193.706 35.9957 191.194 35.4109 181.323 33.3422C168.151 30.5781 162.72 29.1725 155.832 26.7552C148.626 24.2085 141.688 21.0379 129.689 14.7829C118.309 8.85989 112.376 6.12712 106.058 3.94775C101.014 2.21014 94.9975 0.851585 89.7014 0.26683C86.8187 -0.0485611 78.9417 -0.0965576 76.2608 0.188477H76.2647ZM78.879 7.21729C62.1706 8.51218 48.7125 16.7262 32.9761 35.2219C25.4009 44.1146 17.4063 55.9292 13.4517 64.0639C11.5449 68.0122 10.033 72.0242 9.34614 75.041C9.19524 75.7208 8.99337 76.4476 8.91009 76.6366C8.79251 76.905 8.87678 76.9687 9.31184 76.9687C9.78118 76.9687 9.84881 76.905 9.74789 76.5259C9.61365 76.0205 10.7365 72.1662 11.8594 69.3394C14.3228 63.1481 18.9486 55.2348 25.0991 46.6731C33.7972 34.5587 43.2998 24.4494 51.9636 18.1161C68.3711 6.09578 86.9735 4.32682 108.492 12.7289C112.95 14.4812 118.414 17.0386 126.542 21.2103C145.177 30.7505 151.948 33.3726 171.59 38.6638C185.903 42.522 190.947 44.2096 197.449 47.3215C208.376 52.549 216.738 60.1783 221.428 69.1641C222.785 71.7225 224.444 76.1762 224.243 76.666C224.145 76.8874 224.26 76.9667 224.662 76.9667C224.963 76.9667 225.215 76.8874 225.215 76.7767C225.212 76.7211 225.188 76.6687 225.148 76.6305C225.107 76.5924 225.053 76.5714 224.998 76.572C224.88 76.572 224.796 76.3663 224.796 76.0979C224.796 75.1811 223.104 70.7744 221.846 68.3736C217.204 59.4495 209.143 52.121 198.283 46.9228C191.781 43.812 186.737 42.1233 172.424 38.2671C152.783 32.9778 146.012 30.3538 127.375 20.8136C111.195 12.5242 103.113 9.44367 93.4258 7.88041C89.1526 7.20162 82.8346 6.90092 78.879 7.21729ZM78.4596 13.819C72.6442 14.3881 66.3095 16.2041 61.181 18.7635C58.5667 20.0584 54.3436 22.7118 51.6765 24.7178C39.2745 34.069 23.8586 54.3336 18.1442 68.786C17.2564 71.0134 15.9317 75.4201 15.9317 76.1155C15.9317 76.3682 15.8337 76.5739 15.7308 76.5739C15.6751 76.5731 15.6212 76.594 15.5806 76.6322C15.54 76.6704 15.5158 76.7229 15.5133 76.7786C15.5133 76.8893 15.7641 76.9687 16.0659 76.9687C16.452 76.9687 16.5686 76.8893 16.4853 76.6836C16.3344 76.3055 17.5572 72.1035 18.5635 69.5765C22.4516 59.7355 31.3506 46.3263 40.8864 35.9006C43.8857 32.6154 49.6678 27.2606 52.5172 25.1126C65.1572 15.588 78.4596 12.2871 93.6609 14.8935C102.459 16.4098 109.431 19.0632 124.866 26.7238C142.228 35.3639 148.899 37.9546 167.92 43.4829C171.839 44.6357 176.299 45.962 177.841 46.4674C188.449 49.8956 196.326 53.8282 202.762 58.899C205.225 60.8414 209.097 64.6486 210.806 66.8123C213.086 69.7028 216 75.04 216.035 76.4113C216.052 76.8697 216.152 76.9647 216.554 76.9647C217.091 76.9647 217.124 76.9167 216.839 76.427C216.636 75.9575 216.457 75.4779 216.303 74.9901C215.867 73.6315 214.246 70.3777 213.119 68.6401C209.314 62.7484 202.661 56.9998 194.651 52.6871C188.148 49.1806 182.551 47.1119 168.757 43.0881C149.737 37.5599 143.066 34.9692 125.704 26.3291C115.883 21.4483 111.777 19.6157 106.229 17.6116C101.051 15.7506 94.6153 14.2941 89.2859 13.8044C86.7726 13.5673 80.9073 13.583 78.4596 13.82V13.819ZM78.1588 20.0114C68.6229 21.3063 60.7626 24.7335 52.5172 31.2099C41.925 39.5355 29.8249 55.5188 24.4456 68.2806C23.4236 70.7293 22.0155 75.137 22.0155 75.8942C22.0155 76.1469 21.9176 76.4152 21.798 76.4819C21.412 76.7189 21.5795 76.9716 22.1331 76.9716C22.5515 76.9716 22.6358 76.9079 22.5349 76.6082C22.384 76.1185 23.6744 71.9008 24.8649 69.074C29.3899 58.3486 38.9091 44.907 48.294 36.0456C58.3864 26.5054 68.3378 21.5619 80.0185 20.2984C82.767 19.9986 89.2026 20.172 92.0854 20.5981C97.7498 21.4669 103.297 23.0311 109.615 25.5739C111.71 26.4114 118.33 29.4125 124.329 32.255C141.86 40.5473 145.886 42.0802 166.864 48.54C177.606 51.8575 184.176 54.4629 189.807 57.6218C196.192 61.192 201.622 65.7564 205.191 70.5266C206.481 72.2485 208.677 76.3055 208.522 76.6866C208.438 76.8923 208.556 76.9716 208.941 76.9716C209.243 76.9716 209.494 76.8923 209.494 76.7816C209.493 76.7284 209.471 76.6778 209.433 76.6399C209.396 76.602 209.346 76.5795 209.293 76.5769C209.18 76.5739 209.082 76.3682 209.082 76.1185C209.082 75.4867 206.869 71.411 205.613 69.7371C201.106 63.7034 194.233 58.6013 184.933 54.3679C180.357 52.2992 175.798 50.6566 167.704 48.1452C146.722 41.6806 142.699 40.1526 125.17 31.8603C119.169 29.0197 112.549 26.0166 110.454 25.1792C104.153 22.6521 98.6738 21.0878 92.9251 20.2034C90.0424 19.7616 80.9092 19.6353 78.1607 20.0143L78.1588 20.0114ZM80.7221 25.6336C69.7282 26.7395 60.1923 31.2412 51.0425 39.6403C40.7541 49.1022 31.2663 63.3175 28.1827 73.9322C27.8975 74.8951 27.6634 75.8912 27.6634 76.1273C27.6634 76.38 27.5654 76.57 27.4625 76.57C27.4067 76.5692 27.3526 76.5901 27.3119 76.6282C27.2711 76.6664 27.2468 76.7189 27.244 76.7747C27.244 76.8854 27.4958 76.9647 27.7976 76.9647C28.1827 76.9647 28.3003 76.8854 28.216 76.6797C27.8976 75.8902 30.1943 69.7616 32.3725 65.5605C39.3108 52.1974 50.2714 39.7353 60.8968 33.0856C66.3938 29.6427 72.1415 27.4937 78.7114 26.4045C82.2144 25.8168 88.1464 25.7727 91.7669 26.2938C100.951 27.62 106.599 29.579 122.989 37.0976C138.34 44.1421 143.837 46.2901 158.903 51.1043C173.182 55.6687 178.076 57.5483 184.16 60.8335C191.4 64.7348 196.996 69.6636 200.181 74.9382C200.684 75.759 201.035 76.5494 200.965 76.6915C200.897 76.8805 201.031 76.9598 201.401 76.9598C201.702 76.9598 201.954 76.8962 201.954 76.8178C201.954 76.7395 201.518 75.8697 200.998 74.8902C198.169 69.6078 192.523 64.5056 184.997 60.4466C178.913 57.1614 174.023 55.2818 159.742 50.7174C144.675 45.8993 139.178 43.7512 123.826 36.7107C114.944 32.6292 111.743 31.2579 107.42 29.6623C102.526 27.861 97.7832 26.6445 92.8202 25.9343C90.2393 25.571 83.1844 25.3976 80.7201 25.6336H80.7221ZM81.7117 30.8945C71.9907 32.0473 64.533 35.1748 56.5728 41.4612C47.2378 48.8211 37.551 62.0422 33.9834 72.3092C33.3798 73.9988 32.9104 75.6101 32.9104 75.8785C32.9104 76.1469 32.8125 76.4152 32.6929 76.4789C32.3079 76.7159 32.4754 76.9687 33.028 76.9687C33.4474 76.9687 33.5307 76.905 33.4307 76.6053C33.1623 75.8158 35.3904 70.1406 37.5863 66.0385C45.38 51.4442 57.7985 39.2652 69.7811 34.4481C72.6128 33.3109 76.3843 32.2364 79.4169 31.7153C82.9698 31.0992 89.7239 31.0992 93.5453 31.7466C102.126 33.1688 107.137 34.9535 125.807 43.2145C135.943 47.7133 143.368 50.5538 155.451 54.5697C167.384 58.5347 171.121 59.9402 176.299 62.436C181.914 65.1211 186.405 68.1644 189.773 71.5658C191.617 73.4141 193.578 76.0205 193.578 76.6082C193.578 76.8766 193.729 76.9716 194.097 76.9716C194.382 76.9716 194.634 76.9236 194.634 76.8736C194.634 76.5896 193.41 74.5679 192.606 73.4934C189.485 69.3708 184.096 65.3744 177.139 62.0422C171.96 59.5465 168.222 58.1409 156.291 54.1759C144.207 50.16 136.783 47.3195 126.644 42.8198C110.575 35.7116 105.544 33.7683 99.1108 32.2834C94.5526 31.206 92.1726 30.9415 87.1616 30.8778C84.5641 30.8465 82.1174 30.8465 81.7156 30.8945H81.7117ZM82.3476 36.7068C77.4543 37.2592 73.3654 38.4287 68.8257 40.5444C61.0271 44.1617 53.7763 50.3373 47.6238 58.5856C45.3271 61.6504 43.0185 65.3441 41.5899 68.1582C40.4004 70.5266 38.5524 75.3447 38.5524 76.1341C38.5524 76.3868 38.4544 76.5769 38.3516 76.5769C38.2958 76.576 38.2419 76.5969 38.2013 76.6352C38.1607 76.6734 38.1365 76.7259 38.134 76.7816C38.134 76.8923 38.3515 76.9716 38.6239 76.9716C39.0257 76.9716 39.1266 76.8736 39.1433 76.4339C39.1766 75.5817 40.7855 71.3797 42.026 68.8996C44.2385 64.5409 48.0089 59.0597 51.6285 54.9527C57.3116 48.54 63.2259 43.9276 69.6576 40.946C79.848 36.1925 89.5838 35.7028 102.238 39.2877C107.248 40.7099 111.387 42.3045 126.119 48.4949C135.42 52.4129 139.676 54.0545 151.056 58.0508C161.983 61.9051 165.837 63.4057 170.111 65.443C174.771 67.6547 178.156 69.7704 181.122 72.3141C182.63 73.5933 184.793 76.0254 184.859 76.5259C184.892 76.7473 185.128 76.905 185.479 76.9363C185.781 76.9687 186.032 76.9687 186.032 76.9207C186.032 76.6053 184.809 74.8833 183.753 73.6991C180.334 69.8605 173.58 65.8328 164.664 62.2949C162.871 61.5995 157.12 59.4985 151.894 57.6512C140.515 53.6549 136.258 52.0123 126.957 48.0953C107.181 39.7863 102.639 38.223 94.3605 36.9908C91.8972 36.6274 84.5895 36.4541 82.3437 36.7068H82.3476ZM83.6724 42.6297C75.5602 43.5936 68.7062 46.484 61.8355 51.8546C56.2876 56.1976 50.7388 62.8797 47.4553 69.1641C45.9473 72.0379 44.6402 75.3084 44.6402 76.1606C44.6402 76.3976 44.5422 76.572 44.4227 76.572C44.3959 76.5718 44.3693 76.5771 44.3446 76.5873C44.3198 76.5976 44.2974 76.6127 44.2786 76.6318C44.2598 76.6509 44.245 76.6735 44.2351 76.6984C44.2252 76.7233 44.2203 76.7499 44.2208 76.7767C44.2208 76.8874 44.4393 76.9667 44.7107 76.9667C45.0968 76.9667 45.2007 76.8687 45.2144 76.429C45.2644 74.7707 48.5655 68.1689 51.1973 64.488C62.7595 48.2667 78.3802 40.7481 95.0219 43.4016C102.58 44.6024 107.641 46.2607 124.552 53.0838C129.745 55.1692 137.891 58.3437 142.685 60.1126C159.208 66.2912 163.932 68.3129 168.606 71.2504C171.137 72.846 175.143 76.1782 175.143 76.7003C175.143 76.8736 175.377 76.9687 175.78 76.9687C176.466 76.9687 176.517 76.905 176.132 76.4309C175.059 75.0733 171.722 72.2936 169.495 70.887C164.769 67.9182 160.077 65.9122 143.518 59.7208C138.725 57.9519 130.584 54.7774 125.385 52.692C108.492 45.8846 103.535 44.2576 95.8558 43.0098C92.9897 42.5357 86.2023 42.331 83.6724 42.6307V42.6297ZM84.0242 49.0424C76.2648 50.1483 69.1422 53.5285 62.9408 59.0567C58.0807 63.3851 53.305 70.0339 51.7627 74.6306C51.4952 75.4358 51.1934 76.2419 51.0925 76.4309C50.824 76.9363 50.8583 76.9687 51.4609 76.9687C51.8803 76.9687 51.9802 76.905 51.8803 76.6523C51.6961 76.2105 53.2207 72.7196 54.5788 70.4609C59.5897 62.0892 67.8184 54.9654 76.2481 51.6802C85.633 48.0316 95.0513 48.3313 108.626 52.7067C113.738 54.3493 130.849 60.8727 144.273 66.2746C153.777 70.1132 160.043 73.3984 162.842 76.0362C163.512 76.668 164.031 76.9687 164.383 76.9687H164.92L164.267 76.1949C162.373 73.9636 156.004 70.3973 147.646 66.923C143.607 65.2324 127.232 58.8197 119.641 55.9449C109.519 52.1073 103.586 50.3373 97.5186 49.3108C94.2341 48.7584 86.9941 48.6164 84.0281 49.0424H84.0242ZM87.4928 55.6765C81.3257 56.2926 75.6112 58.377 70.7178 61.8052C65.6559 65.3431 61.181 70.603 59.2879 75.1997C59.0361 75.8001 58.751 76.4476 58.651 76.6366C58.4835 76.905 58.553 76.9687 58.9362 76.9687C59.3193 76.9687 59.4721 76.811 59.6563 76.1312C59.9914 75.0254 62.0197 71.6451 63.5944 69.6235C64.2803 68.7233 65.8401 67.0494 67.0473 65.8965C72.3434 60.857 78.9123 57.5091 85.5831 56.4503C90.2755 55.7079 93.8784 55.7715 99.1745 56.656C107.671 58.0929 121.417 62.7847 136.429 69.3894C142.446 72.0399 148.527 75.3887 149.284 76.4632C149.552 76.855 149.803 76.9687 150.39 76.9687H151.144L150.306 76.1782C147.474 73.4307 136.613 68.2972 121.933 62.769C106.213 56.8451 96.2918 54.792 87.4928 55.6765ZM90.4088 62.674C87.2586 63.0844 86.3915 63.2421 84.6611 63.6848C77.6385 65.4381 70.9353 70.3189 68.1869 75.6571L67.4824 77L68.0527 76.9363C68.3711 76.905 68.5886 76.8266 68.5426 76.7786C68.375 76.5896 69.347 75.041 70.6003 73.4621C74.1022 69.0867 79.7843 65.5008 85.4988 64.0796C88.7 63.2744 90.4255 63.0687 93.8618 63.0687C101.135 63.1001 109.331 65.0111 120.056 69.2131C126.022 71.5638 134.2 75.7521 134.569 76.6523C134.653 76.8736 134.955 76.9687 135.457 76.9687H136.228L135.525 76.3055C133.933 74.7726 126.961 71.2034 120.86 68.8183C113.151 65.7819 107.051 64.0482 100.984 63.1324C98.5043 62.769 91.9178 62.484 90.4088 62.674ZM92.7056 72.9243C89.2526 73.5248 86.2866 74.71 84.6777 76.1155L83.7057 76.9687H84.3916C84.8943 76.9687 85.2637 76.7943 85.7634 76.3212C86.7011 75.4397 89.2153 74.3152 91.6787 73.6991C94.5281 72.988 98.6679 72.8303 101.919 73.3201C105.857 73.9078 111.857 75.7208 112.779 76.6053C113.013 76.8423 113.432 76.9687 113.918 76.9687L114.702 76.953L114.037 76.4309C112.73 75.3731 107.467 73.6991 103.31 73.0194C100.529 72.5619 95.065 72.5139 92.7026 72.9214L92.7056 72.9243Z" fill="#A8CFC4" fill-opacity="0.6"/>
    </symbol>
    <symbol id="shape-3" viewBox="0 0 130 157" fill="none" xmlns="http://www.w3.org/2000/svg">
        <path d="M177.106 130.703C176.716 130.593 173.714 129.067 170.461 127.324C163.466 123.593 158.094 120.855 146.403 115.066C135.218 109.517 130.899 107.28 126.149 104.528C117.691 99.6171 112.938 95.8367 109.484 91.3096C108.483 90.0043 108.232 89.5258 107.216 86.9C106.202 84.3252 106.046 83.7927 105.967 82.4795C105.516 75.4637 110.306 68.2495 122.238 58.0139C128.576 52.5759 135.908 47.1901 140.893 44.3177C141.92 43.7284 142.962 43.1332 143.217 42.9824C143.576 42.7557 143.715 42.7724 143.815 43.0298C143.914 43.2871 143.757 43.4368 143.008 43.7615C139.75 45.1623 129.939 52.2574 123.103 58.1145C111.135 68.3848 106.158 75.9302 106.62 83.0993C106.754 85.2808 107.995 88.3605 109.552 90.4108C112.966 94.9188 117.752 98.703 126.217 103.629C130.971 106.381 135.287 108.618 146.471 114.166C158.162 119.956 163.508 122.668 170.691 126.502C174.031 128.299 176.905 129.751 177.073 129.756C177.255 129.756 177.482 130 177.611 130.333L177.839 130.922L177.106 130.703ZM173.703 120.503C173.387 120.625 171.379 120.005 168.977 119.05C163.306 116.778 149.383 109.235 139.935 103.311C132.671 98.7577 126.781 93.8296 124.094 90.0882C123.048 88.6256 122.724 88.0001 121.828 85.7297C120.67 82.7391 120.472 81.6291 120.71 79.0412C121.069 74.9759 123.254 70.7618 127.664 65.6356C132.172 60.4214 138.826 54.7348 144.112 51.5725C145.039 51.0218 145.905 50.4418 146.036 50.2696C146.382 49.8389 146.451 49.8467 146.663 50.3933C146.804 50.7572 146.756 50.8982 146.542 50.8932C145.81 50.8804 140.362 54.6465 136.842 57.5975C129.085 64.1081 123.644 71.0487 121.969 76.5836C120.976 79.8649 121.052 82.6629 122.2 85.5868C124.963 92.5977 133.988 99.6099 155.476 111.415C163.181 115.658 172.487 119.979 173.101 119.602C173.204 119.527 173.401 119.695 173.542 119.972C173.683 120.249 173.756 120.483 173.699 120.505L173.703 120.503ZM168.831 108.216C168.809 108.226 168.785 108.231 168.761 108.231C168.737 108.231 168.713 108.226 168.691 108.216C168.669 108.207 168.649 108.193 168.633 108.176C168.616 108.159 168.603 108.138 168.595 108.116C168.56 108.027 168.209 107.934 167.841 107.919C166.852 107.883 160.749 104.922 157.597 102.966C151.245 99.0197 145.866 94.5574 142.824 90.7094C138.202 84.8713 137.081 79.0747 139.471 73.211C140.541 70.5978 141.623 68.8698 143.706 66.4402C145.332 64.5373 148.791 61.4353 149.653 61.1018C149.897 61.0073 150.107 60.8241 150.123 60.6934C150.204 60.2612 150.512 60.3335 150.7 60.8189C150.853 61.2138 150.81 61.3172 150.502 61.3322C149.865 61.3512 146.71 64.1265 144.701 66.4043C138.945 72.9606 137.335 80.4602 140.441 86.1339C142.118 89.1847 144.638 92.1531 147.977 95.0146C150.532 97.2193 154.557 100.147 157.649 102.074C160.949 104.112 167.674 107.356 168.205 107.15C168.492 107.039 168.626 107.127 168.796 107.568C168.92 107.886 168.93 108.178 168.832 108.216L168.831 108.216ZM141.126 37.9626C140.787 38.1111 139.498 38.8374 138.273 39.5555C128.267 45.5049 110.832 58.8505 103.735 65.9961C99.552 70.2152 97.4674 73.1516 95.9251 76.978C94.4361 80.643 94.2243 82.7852 94.9746 86.0895C96.0945 91.0313 101.879 97.0125 110.96 102.59C117.073 106.346 125.717 110.578 141.72 117.647C159.046 125.321 165.119 128.467 171.082 132.895C172.803 134.184 176.404 137.38 176.551 137.76C176.585 137.849 176.4 138.01 176.141 138.11C175.825 138.233 175.68 138.201 175.685 137.99C175.673 137.576 172.375 134.733 169.739 132.874C163.91 128.743 157.217 125.365 138.892 117.293C130.43 113.569 120.75 109.009 116.674 106.8C104.519 100.28 97.4815 94.0535 95.008 87.6632C92.3057 80.6819 94.6502 74.19 102.872 65.8936C110.218 58.4953 127.804 45.1089 138.051 39.1007C139.626 38.1769 141.047 37.3124 141.192 37.1868C141.384 37.0422 141.514 37.0795 141.614 37.3368C141.72 37.6102 141.612 37.7571 141.128 37.9615L141.126 37.9626ZM138.855 32.7336C135.579 34.176 125.134 41.2078 110.699 51.6777C98.7017 60.3875 92.9986 65.1082 88.8199 69.797C86.0211 72.9394 83.9332 76.5924 83.1398 79.7095C81.6244 85.6541 83.4758 90.522 89.4438 96.2923C94.4064 101.091 100.503 104.891 111.901 110.305C119.649 113.973 124.093 115.865 136.889 120.912C153.968 127.653 159.905 130.485 165.434 134.523C167.328 135.919 169.684 137.991 170.391 138.923C170.679 139.282 171.042 139.666 171.195 139.762C171.436 139.914 171.378 139.971 170.955 140.083C170.532 140.194 170.374 140.116 170.166 139.707C169.841 139.082 167.466 136.965 165.368 135.421C159.813 131.358 153.477 128.349 136.313 121.566C123.602 116.556 119.071 114.627 111.582 111.069C104.825 107.869 100.925 105.77 97.1989 103.321C89.3823 98.1956 84.5113 92.8241 82.7822 87.4171C81.0949 82.1184 82.1148 77.4135 86.1074 71.9765C89.7741 66.9787 96.0834 61.553 109.831 51.5697C122.598 42.2994 131.282 36.3904 136.221 33.5714C137.576 32.8021 138.844 32.0675 139.036 31.9228C139.329 31.74 139.453 31.7614 139.553 32.0196C139.659 32.2929 139.516 32.4358 138.853 32.7274L138.855 32.7336ZM137.673 27.5884C137.528 27.6551 137.376 27.7078 137.221 27.7457C136.758 27.8729 133.495 29.7646 130.52 31.6486C127.388 33.6295 96.086 55.0298 91.5765 58.2763C82.9038 64.5127 77.8457 69.1582 74.8241 73.644C73.6494 75.3894 72.1255 79.0516 71.8136 80.8478C71.5017 82.644 71.6073 85.0979 72.0865 87.1113C73.5144 93.1033 80.6857 100.328 91.2198 106.407C101.011 112.059 111.488 116.505 133.706 124.435C144.478 128.276 148.151 129.699 152.347 131.618C157.684 134.054 161.086 136.141 164.357 138.958C165.126 139.621 166.805 141.396 166.899 141.639C166.911 141.67 166.73 141.757 166.485 141.852C166.155 141.98 166.028 141.906 165.893 141.557C165.681 141.011 163.996 139.517 161.658 137.789C156.492 133.972 150.31 131.221 133.135 125.094C118.968 120.037 112.266 117.447 104.585 114.067C85.0233 105.444 73.9125 96.2889 71.5377 86.8238C70.6118 83.1507 70.8063 80.2836 72.2197 76.8918C74.5541 71.3108 79.8578 65.9764 91.0418 57.9485C95.8666 54.4923 127.174 33.1071 130.072 31.2874C131.36 30.4747 133.425 29.2385 134.686 28.5241C135.946 27.8098 137.094 27.1034 137.236 26.9614C137.432 26.7836 137.541 26.8079 137.658 27.1122C137.746 27.3394 137.745 27.5493 137.679 27.592L137.673 27.5884ZM135.268 23.2132C133.32 24.0693 128.306 27.2518 119.961 32.9245C109.773 39.8528 104.94 43.0324 94.4674 49.7392C80.1138 58.9245 75.2216 62.3364 70.5689 66.4067C65.8095 70.5876 62.8081 74.9431 61.6915 79.2843C61.0078 81.957 61.0267 84.1843 61.7577 87.1819C62.1297 88.696 62.3555 89.2371 63.2987 90.9485C69.0667 101.282 82.8272 110.284 107.167 119.64C112.101 121.535 121.793 124.869 130.761 127.752C144.369 132.135 150.138 134.319 154.43 136.741C156.999 138.173 160.15 140.423 161.483 141.777C161.971 142.269 162.519 142.789 162.682 142.953C162.958 143.196 162.927 143.242 162.478 143.364C162.115 143.451 161.919 143.371 161.785 143.109C161.404 142.296 157.781 139.598 154.66 137.806C149.942 135.094 144.685 133.08 130.189 128.412C103.073 119.692 88.162 113.354 77.1472 105.853C65.613 97.9943 59.8348 89.2547 60.6171 80.9052C61.0756 76.1555 64.1769 71.1501 69.7032 66.3061C74.3571 62.2364 79.2484 58.8248 93.6025 49.6382C104.127 42.8943 108.996 39.683 119.105 32.8038C126.01 28.1068 129.849 25.6436 133.235 23.7217C134.305 23.1155 135.313 22.5162 135.467 22.4044C135.654 22.2446 135.784 22.282 135.883 22.5393C135.995 22.8277 135.881 22.9596 135.269 23.214L135.268 23.2132ZM133.298 18.9322C131.812 19.5764 127.053 22.5186 122.163 25.8072C103.363 38.5301 100.924 40.084 84.5071 49.8722C65.4473 61.2454 60.1016 65.0605 55.8884 70.2687C50.4823 76.9162 49.7925 84.6523 53.9241 91.7425C59.1165 100.588 69.0716 108.253 85.142 115.751C96.9523 121.249 107.419 124.984 127.637 130.908C145.574 136.189 150.286 138.031 155.641 141.964C156.8 142.822 158.718 144.488 158.818 144.746C158.83 144.776 158.626 144.89 158.382 144.984C158.065 145.107 157.895 145.05 157.795 144.793C157.601 144.291 154.64 142.104 152.223 140.684C147.437 137.877 142.613 136.131 127.069 131.572C106.997 125.691 96.417 121.918 84.8294 116.526C68.9737 109.154 58.9747 101.419 53.825 92.5401C52.4033 90.1058 51.0351 86.1845 50.7344 83.7877C49.8226 76.096 53.6179 69.7231 63.4127 62.5452C66.6144 60.1896 70.6131 57.6297 77.528 53.4695C102.924 38.1946 101.782 38.9152 121.305 25.7089C125.643 22.79 130.313 19.8661 132.421 18.7878C133.067 18.451 133.603 18.0863 133.611 17.9784C133.68 17.6024 133.998 17.6542 134.162 18.0792C134.309 18.4582 134.226 18.5433 133.304 18.9349L133.298 18.9322ZM132.423 14.4537C131.627 14.4473 125.913 18.0386 116.642 24.3494C101.433 34.7393 94.0675 39.2301 74.0435 50.3276C60.9316 57.6017 56.4388 60.3356 52.4329 63.4749C45.359 69.0217 41.9775 75.1532 42.2883 81.8694C42.4301 85.1817 43.3753 88.3065 45.1916 91.5483C51.9784 103.704 67.6936 114.439 92.337 123.754C102.147 127.46 110.559 130.068 125.563 134.087C135.275 136.68 138.875 137.747 142.444 139.071C147.343 140.875 151.838 143.323 153.948 145.317C154.995 146.313 154.989 146.298 154.458 146.503C154.127 146.631 153.951 146.56 153.717 146.178C153.262 145.429 150.294 143.523 147.356 142.078C142.531 139.687 138.371 138.33 124.99 134.749C109.986 130.731 101.575 128.123 91.7633 124.416C64.7951 114.243 48.5735 102.215 43.2718 88.4731C39.5002 78.7293 42.1244 70.7842 51.5664 63.3776C55.5762 60.2378 60.0654 57.5054 73.1765 50.2316C93.3326 39.0441 100.031 34.9678 115.776 24.2531C123.518 18.988 126.375 17.1486 129.573 15.3355C130.643 14.7292 131.728 14.1175 131.977 13.9507C132.371 13.729 132.475 13.7408 132.604 14.0744C132.71 14.3478 132.656 14.4736 132.422 14.4591L132.423 14.4537ZM130.639 9.71661C130.325 9.71601 126.089 12.1757 123.451 13.895C122.484 14.5139 118.762 17.0191 115.168 19.4743C95.8826 32.6461 85.7996 38.4866 61.4532 50.6327C51.0211 55.8227 47.6314 57.6928 44.0901 60.1982C38.6946 64.0142 35.6402 67.6055 33.876 72.2668C32.617 75.5469 32.2784 78.383 32.7168 82.0356C33.0268 84.6706 34.612 88.9803 36.3483 91.9734C41.4885 100.769 50.3063 108.752 62.8019 115.923C67.0706 118.372 76.8368 122.987 82.3678 125.156C95.3682 130.264 105.864 133.477 122.985 137.586C137.429 141.054 142.542 142.738 147.26 145.589C148.505 146.332 150.234 147.684 150.352 147.987C150.37 148.033 150.185 148.154 149.941 148.248C149.625 148.371 149.454 148.314 149.366 148.087C149.166 147.571 146.107 145.77 143.297 144.485C138.647 142.376 134.705 141.196 122.409 138.242C105.289 134.135 94.7826 130.924 81.7951 125.812C76.2684 123.643 66.9899 119.259 62.739 116.821C50.2479 109.649 41.4299 101.665 36.2851 92.8713C35.1263 90.8597 34.772 90.0714 33.5987 86.8257C32.5021 83.7809 32.2172 82.7881 32.0516 81.4206C30.9357 71.7509 35.5127 64.4968 47.0364 57.6456C50.0147 55.8643 52.6358 54.4834 60.5901 50.5311C84.9481 38.3805 95.0724 32.525 114.305 19.3736C121.741 14.2968 124.159 12.732 127.507 10.7946C128.818 10.043 130.036 9.30547 130.229 9.1652C130.53 8.96093 130.64 8.9887 130.77 9.32236C130.864 9.56551 130.821 9.7207 130.643 9.72036L130.639 9.71661ZM128.624 4.59786C127.809 4.58191 121.676 8.45678 112.449 14.8384C101.296 22.5223 93.7252 27.2896 84.7046 32.2433C73.7205 38.2755 65.735 42.1368 54.0804 47.0296C42.7293 51.8069 40.3364 52.925 36.2538 55.395C23.8183 62.8787 19.755 73.6491 24.6549 86.255C28.5913 96.4248 38.1826 107.075 51.0261 115.542C59.366 121.04 71.5645 126.859 84.2284 131.363C95.899 135.519 105.685 138.261 119.561 141.247C128.324 143.144 131.48 143.912 135.171 145.048C138.415 146.044 143.68 148.422 144.424 149.233C144.688 149.533 144.966 149.737 145.053 149.704C145.099 149.692 145.148 149.697 145.191 149.72C145.233 149.743 145.265 149.78 145.281 149.826C145.322 149.931 145.113 150.117 144.823 150.23C144.391 150.396 144.247 150.365 144.124 150.046C143.889 149.439 137.969 146.739 134.59 145.691C130.9 144.568 127.745 143.802 118.986 141.905C105.108 138.917 95.3243 136.178 83.6534 132.021C71.0293 127.535 59.2526 121.92 50.9564 116.439C40.2906 109.416 31.8648 100.88 26.9242 92.1285C25.2543 89.1801 23.1375 83.8384 22.5875 81.1892C20.3327 70.3348 24.5238 61.8189 35.3811 55.295C39.4646 52.8247 41.8563 51.7061 53.2082 46.9284C64.8613 42.0342 72.8502 38.1736 83.8329 32.143C92.9687 27.1059 100.227 22.5507 112.23 14.2924C119.626 9.19611 122.952 7.03517 125.834 5.43178C126.962 4.8026 128.041 4.17575 128.239 4.04703C128.54 3.84275 128.65 3.87054 128.773 4.18912C128.879 4.46243 128.825 4.58745 128.617 4.59849L128.624 4.59786ZM125.808 -1.48513C123.586 -0.523105 118.234 2.89527 110.157 8.53477C95.219 18.9412 85.2594 24.9258 72.0193 31.4822C63.6828 35.5988 53.0792 39.7898 43.4499 42.7844C34.2627 45.6426 30.3578 47.2061 26.1896 49.6694C14.6686 56.4849 10.2253 66.7739 13.2523 79.5466C14.008 82.6927 16.4166 88.5316 18.22 91.5681C24.5717 102.303 33.992 111.955 45.5611 119.607C56.6119 126.9 70.5399 133.132 88.0816 138.628C97.9519 141.72 104.228 143.286 116.374 145.689C128.101 147.986 131.045 148.718 135.437 150.422C136.836 150.962 138.711 152.051 138.852 152.415C138.876 152.476 138.693 152.599 138.434 152.699C138.133 152.816 137.878 152.757 137.659 152.489C136.944 151.666 131.856 149.831 127.08 148.678C125.52 148.317 120.448 147.258 115.804 146.351C103.656 143.95 97.3883 142.397 87.5125 139.291C59.7795 130.602 41.586 120.349 28.1158 105.824C24.3406 101.728 20.9983 97.2559 18.1415 92.4771C16.3449 89.4553 13.383 82.1898 12.61 78.9116C11.1105 72.6555 11.4211 66.8406 13.4923 62.0247C14.9999 58.4923 18.2591 54.5778 21.9052 51.8748C26.9762 48.115 32.4364 45.7046 44.1078 42.0941C53.5219 39.1838 62.818 35.4978 71.1544 31.3813C84.3956 24.8275 94.3536 18.8415 109.292 8.43382C116.177 3.64037 119.813 1.25544 123.091 -0.607158C124.489 -1.39213 125.765 -2.15212 125.92 -2.26039C126.107 -2.42017 126.237 -2.38285 126.337 -2.1246C126.448 -1.83619 126.334 -1.70522 125.808 -1.48424L125.808 -1.48513ZM122.588 -10.5702C121.468 -10.4336 114.661 -6.12345 106.546 -0.39981C92.0966 9.81854 83.2032 15.3547 71.9314 21.1493C66.1858 24.1059 62.2192 25.8514 57.1137 27.6878C50.431 30.1 47.6921 30.7928 37.1959 32.6567C27.8593 34.3165 26.8491 34.5678 21.5532 36.635C17.5159 38.1977 16.7136 38.5603 14.8996 39.7206C8.94201 43.4929 5.06527 47.8209 2.92869 53.0978C0.354578 59.4174 0.252822 66.7167 2.61305 75.8028C3.28379 78.3879 5.91013 85.1731 7.31305 87.9453C14.0797 101.33 24.5835 113.739 36.6989 122.715C49.022 131.833 65.0007 139.139 86.3768 145.407C96.1246 148.267 101.906 149.588 115.933 152.152C122.21 153.3 126.374 154.324 128.203 155.168C128.993 155.543 129.673 155.892 129.696 155.952C129.726 156.028 129.543 156.151 129.298 156.246C129.011 156.357 128.402 156.192 127.516 155.783C125.816 154.975 121.58 153.946 115.361 152.809C101.334 150.246 95.5522 148.924 85.8053 146.064C64.4854 139.814 48.911 132.701 36.6365 123.613C24.5282 114.652 14.0763 102.292 7.25156 88.8425C5.82765 86.0611 2.62562 77.7886 1.94993 75.188C-1.85012 60.3758 0.753124 49.9441 10.1649 42.3747C13.7691 39.4786 15.4629 38.5608 21.4056 36.2432C27.5128 33.8793 28.2178 33.6941 37.7726 32.0028C47.8811 30.2013 50.9171 29.4659 56.972 27.311C65.5007 24.2894 76.7902 18.4533 89.245 10.6356C93.7817 7.798 98.2836 4.74631 105.77 -0.542161C112.284 -5.14087 115.679 -7.37962 119.224 -9.36285C120.745 -10.2129 122.111 -11.0385 122.247 -11.1965C122.608 -11.6321 122.663 -11.6185 122.868 -11.0878C123.027 -10.6779 122.973 -10.6038 122.592 -10.5617L122.588 -10.5702Z" fill="#A8CFC4" fill-opacity="0.6"/>
    </symbol>
    <symbol id="technology-1" viewBox="0 0 32 32" fill="none" xmlns="http://www.w3.org/2000/svg">
        <g clip-path="url(#clip0_0_289__technology-1)">
            <path d="M0.893683 18.3128L2.98189 18.6551C3.31181 20.254 3.94319 21.7756 4.84229 23.1385L3.60566 24.8644C3.34908 25.2137 3.35349 25.6903 3.61653 26.0349C3.92834 26.416 4.25967 26.7808 4.60911 27.1277C4.96166 27.4809 5.32506 27.8063 5.69933 28.1209C6.04405 28.3844 6.52137 28.3888 6.87092 28.1317L8.59572 26.8945C9.95722 27.7941 11.4777 28.4259 13.0759 28.756L13.4176 30.8459C13.4827 31.2734 13.8238 31.6056 14.2529 31.6594C14.5501 31.6931 14.8495 31.7137 15.1554 31.7289C15.304 31.7361 15.4491 31.6825 15.5571 31.5803C15.6652 31.4782 15.727 31.3363 15.7282 31.1876V26.8409C15.7266 26.5479 15.4938 26.3084 15.201 26.2985C9.71985 26.0143 5.42139 21.4873 5.42139 15.9988C5.42139 10.5103 9.71985 5.98323 15.201 5.69909C15.4938 5.68917 15.7266 5.44975 15.7282 5.15668V0.813753C15.7274 0.665094 15.6661 0.523153 15.5582 0.42074C15.4504 0.318327 15.3055 0.264417 15.157 0.271346C14.8522 0.283997 14.5508 0.305361 14.2528 0.335335C13.8236 0.393812 13.4839 0.727402 13.4175 1.15543L13.0758 3.24527C11.4777 3.57581 9.95728 4.20772 8.59567 5.10729L6.87087 3.86956C6.52132 3.6124 6.044 3.61681 5.69928 3.88043C5.31918 4.19265 4.9553 4.52414 4.60906 4.87354C4.25699 5.21799 3.92555 5.58292 3.61648 5.96643C3.35233 6.31136 3.34793 6.78931 3.60561 7.13907L4.84223 8.86497C3.94335 10.2273 3.31197 11.7483 2.98184 13.3467L0.893631 13.6885C0.466026 13.7538 0.1338 14.0951 0.080047 14.5243C-0.026723 15.4977 -0.026723 16.4798 0.080047 17.4532C0.128288 17.8895 0.460619 18.2407 0.893683 18.3128Z" fill="#132431"/>
            <path d="M15.2095 7.88105C10.9245 8.15249 7.58798 11.707 7.58798 16.0006C7.58798 20.2942 10.9245 23.8487 15.2095 24.1202C15.3458 24.1258 15.4785 24.0753 15.5765 23.9803C15.6745 23.8854 15.7293 23.7544 15.728 23.6179V8.38329C15.7293 8.24681 15.6746 8.11585 15.5765 8.02089C15.4785 7.92593 15.3458 7.87538 15.2095 7.88105Z" fill="#3DDBBF"/>
            <path d="M19.5244 8.40716H16.8125V9.49192H19.5244C20.422 9.48924 21.1489 8.76233 21.1516 7.86475V4.51063C21.8987 4.24649 22.3469 3.48246 22.2129 2.70137C22.0789 1.92028 21.4017 1.34937 20.6092 1.34937C19.8167 1.34937 19.1394 1.92028 19.0054 2.70137C18.8714 3.48246 19.3196 4.24649 20.0668 4.51063V7.86475C20.0668 8.16433 19.8239 8.40716 19.5244 8.40716Z" fill="#132431"/>
            <path d="M16.8125 11.6615H22.2364C22.536 11.6615 22.7788 11.4186 22.7788 11.1191C22.7788 10.8195 22.536 10.5767 22.2364 10.5767H16.8125V11.6615Z" fill="#132431"/>
            <path d="M16.8125 23.594H19.5244C19.824 23.594 20.0668 23.8369 20.0668 24.1364V27.4906C19.3196 27.7547 18.8714 28.5187 19.0055 29.2998C19.1395 30.0809 19.8167 30.6518 20.6092 30.6518C21.4017 30.6518 22.079 30.0809 22.213 29.2998C22.347 28.5187 21.8988 27.7547 21.1516 27.4906V24.1364C21.1489 23.2389 20.422 22.512 19.5245 22.5093H16.8125V23.594H16.8125Z" fill="#132431"/>
            <path d="M24.9483 18.1702H16.8125V19.2549H24.9483C25.2479 19.2549 25.4907 19.4978 25.4907 19.7973V22.6091C24.7435 22.8732 24.2954 23.6373 24.4294 24.4184C24.5634 25.1995 25.2406 25.7704 26.0331 25.7704C26.8256 25.7704 27.5029 25.1995 27.6369 24.4184C27.7709 23.6373 27.3227 22.8732 26.5755 22.6091V19.7973C26.5728 18.8998 25.8459 18.1728 24.9483 18.1702Z" fill="#132431"/>
            <path d="M30.3722 14.3735C29.6851 14.3764 29.0739 14.8105 28.8448 15.4583H16.8125V16.5431H28.8448C29.122 17.3212 29.9389 17.7674 30.7434 17.5801C31.5479 17.3928 32.0838 16.6317 31.9888 15.8112C31.8938 14.9907 31.1982 14.3721 30.3722 14.3735Z" fill="#132431"/>
            <path d="M22.7788 20.882C22.7788 20.5824 22.536 20.3396 22.2364 20.3396H16.8125V21.4244H22.2364C22.536 21.4244 22.7788 21.1816 22.7788 20.882Z" fill="#132431"/>
            <path d="M26.5755 12.204V9.39222C27.3227 9.12808 27.7709 8.36405 27.6369 7.58296C27.5029 6.80187 26.8257 6.23096 26.0331 6.23096C25.2406 6.23096 24.5634 6.80187 24.4294 7.58296C24.2954 8.36405 24.7435 9.12808 25.4907 9.39222V12.204C25.4907 12.5036 25.2479 12.7464 24.9483 12.7464H16.8125V13.8312H24.9483C25.8459 13.8284 26.5729 13.1015 26.5755 12.204Z" fill="#132431"/>
        </g>
        <defs>
            <clipPath id="clip0_0_289__technology-1">
                <rect width="32" height="32" fill="white"/>
            </clipPath>
        </defs>
    </symbol>
    <symbol id="telent" viewBox="0 0 32 32" fill="none" xmlns="http://www.w3.org/2000/svg">
        <path fill-rule="evenodd" clip-rule="evenodd" d="M7.7 4.57101L8.33282 6.24929C8.34165 6.27353 8.35744 6.29459 8.37817 6.30979C8.39891 6.32498 8.42367 6.33363 8.44929 6.33464L10.2332 6.42389C10.2607 6.42374 10.2876 6.43241 10.3099 6.44865C10.3321 6.4649 10.3487 6.48786 10.3571 6.51422C10.3656 6.54058 10.3654 6.56896 10.3568 6.59524C10.3481 6.62152 10.3314 6.64434 10.3089 6.66039L8.91971 7.78488C8.89949 7.80085 8.88445 7.8225 8.8765 7.8471C8.86854 7.8717 8.86804 7.89812 8.87506 7.923L9.34288 9.65535C9.35163 9.68166 9.35182 9.71009 9.34341 9.73651C9.335 9.76293 9.31843 9.78595 9.29612 9.80223C9.27382 9.81852 9.24693 9.8272 9.21938 9.82703C9.19183 9.82687 9.16505 9.81785 9.14294 9.80129L7.65147 8.81817C7.63014 8.80375 7.60502 8.79604 7.57932 8.79604C7.55363 8.79604 7.52851 8.80375 7.50718 8.81817L6.01765 9.79934C5.99552 9.81562 5.96884 9.82441 5.94143 9.82445C5.91403 9.82448 5.88732 9.81575 5.86516 9.79952C5.843 9.78329 5.82652 9.7604 5.81811 9.73414C5.8097 9.70788 5.80978 9.67961 5.81835 9.6534L6.28359 7.92235C6.2906 7.89747 6.2901 7.87105 6.28215 7.84645C6.2742 7.82185 6.25916 7.80019 6.23894 7.78423L4.84906 6.65843C4.82742 6.64209 4.8114 6.61933 4.80327 6.59336C4.79514 6.56738 4.7953 6.53948 4.80372 6.5136C4.81215 6.48772 4.82842 6.46515 4.85025 6.44905C4.87207 6.43296 4.89836 6.42416 4.92541 6.42389L6.70612 6.33659C6.73186 6.33571 6.75675 6.32712 6.77762 6.31192C6.79848 6.29672 6.81436 6.27559 6.82323 6.25124L7.45606 4.57297C7.46441 4.54666 7.48085 4.5237 7.50301 4.50742C7.52517 4.49113 7.55189 4.48235 7.57932 4.48235C7.60676 4.48235 7.63348 4.49113 7.65564 4.50742C7.67779 4.5237 7.69423 4.54666 7.70259 4.57297L7.7 4.57101ZM23.5348 4.57101L24.1676 6.24929C24.1765 6.27363 24.1924 6.29476 24.2133 6.30997C24.2341 6.32517 24.259 6.33376 24.2848 6.33464L26.0681 6.42389C26.0956 6.4236 26.1226 6.43217 26.1449 6.44836C26.1673 6.46455 26.184 6.48751 26.1925 6.5139C26.201 6.5403 26.201 6.56874 26.1923 6.59508C26.1837 6.62143 26.1669 6.64431 26.1444 6.66039L24.7545 7.78488C24.7343 7.80085 24.7193 7.8225 24.7113 7.8471C24.7034 7.8717 24.7029 7.89812 24.7099 7.923L25.1777 9.65535C25.1863 9.68156 25.1864 9.70983 25.1779 9.73609C25.1695 9.76236 25.1531 9.78525 25.1309 9.80148C25.1087 9.81771 25.082 9.82644 25.0546 9.8264C25.0272 9.82637 25.0005 9.81757 24.9784 9.80129L23.4882 8.81622C23.4669 8.80179 23.4418 8.79409 23.4161 8.79409C23.3904 8.79409 23.3653 8.80179 23.3439 8.81622L21.8525 9.79934C21.8303 9.81562 21.8037 9.82441 21.7763 9.82445C21.7488 9.82448 21.7221 9.81575 21.7 9.79952C21.6778 9.78329 21.6613 9.7604 21.6529 9.73414C21.6445 9.70788 21.6446 9.67961 21.6532 9.6534L22.1184 7.92235C22.1254 7.89747 22.1249 7.87105 22.117 7.84645C22.109 7.82185 22.094 7.80019 22.0738 7.78423L20.6845 6.65843C20.6621 6.64239 20.6454 6.61957 20.6367 6.59328C20.628 6.567 20.6279 6.53862 20.6363 6.51226C20.6448 6.48591 20.6613 6.46294 20.6836 6.4467C20.7059 6.43046 20.7327 6.42178 20.7602 6.42194L22.5416 6.33464C22.5672 6.33363 22.592 6.32498 22.6127 6.30979C22.6334 6.29459 22.6492 6.27353 22.6581 6.24929L23.2941 4.57101C23.3025 4.5447 23.3189 4.52175 23.3411 4.50546C23.3632 4.48917 23.3899 4.48039 23.4174 4.48039C23.4448 4.48039 23.4715 4.48917 23.4937 4.50546C23.5159 4.52175 23.5323 4.5447 23.5406 4.57101H23.5348ZM15.6524 0.0906192L16.2858 1.76889C16.2945 1.79326 16.3103 1.81446 16.331 1.82978C16.3518 1.84509 16.3766 1.85384 16.4023 1.85489L18.1824 1.94219C18.2097 1.9421 18.2365 1.95075 18.2586 1.96691C18.2808 1.98306 18.2974 2.00589 18.3059 2.03211C18.3143 2.05833 18.3144 2.08658 18.3059 2.11281C18.2974 2.13903 18.2809 2.16187 18.2587 2.17804L16.8695 3.30254C16.8491 3.31854 16.834 3.34031 16.8261 3.36504C16.8181 3.38977 16.8177 3.41633 16.8248 3.44131L17.2926 5.17366C17.3012 5.19986 17.3013 5.22814 17.2929 5.2544C17.2845 5.28066 17.268 5.30355 17.2458 5.31978C17.2237 5.33601 17.197 5.34474 17.1696 5.3447C17.1422 5.34467 17.1155 5.33588 17.0934 5.31959L15.6012 4.33908C15.5799 4.32465 15.5548 4.31695 15.5291 4.31695C15.5034 4.31695 15.4783 4.32465 15.4569 4.33908L13.9687 5.32285C13.9466 5.33913 13.9199 5.34793 13.8925 5.34796C13.8651 5.34799 13.8384 5.33927 13.8162 5.32304C13.7941 5.30681 13.7776 5.28391 13.7692 5.25765C13.7608 5.23139 13.7608 5.20312 13.7694 5.17691L14.2353 3.44131C14.2424 3.41633 14.242 3.38977 14.2341 3.36504C14.2261 3.34031 14.211 3.31854 14.1906 3.30254L12.7995 2.17804C12.7772 2.16184 12.7607 2.13894 12.7522 2.11265C12.7438 2.08636 12.7438 2.05805 12.7524 2.0318C12.761 2.00555 12.7776 1.98272 12.7999 1.96661C12.8222 1.95051 12.849 1.94196 12.8765 1.94219L14.6578 1.85489C14.6835 1.85384 14.7083 1.84509 14.7291 1.82978C14.7498 1.81446 14.7656 1.79326 14.7743 1.76889L15.4071 0.0906192C15.4155 0.0643096 15.4319 0.0413538 15.4541 0.0250657C15.4762 0.00877762 15.5029 0 15.5304 0C15.5578 0 15.5845 0.00877762 15.6067 0.0250657C15.6288 0.0413538 15.6453 0.0643096 15.6536 0.0906192H15.6524ZM8.19888 16.3606C8.19888 18.3182 8.9712 20.1955 10.3459 21.5797C11.7207 22.9639 13.5852 23.7415 15.5294 23.7415C17.4736 23.7415 19.3381 22.9639 20.7129 21.5797C22.0876 20.1955 22.8599 18.3182 22.8599 16.3606H31.0588V18.4767L28.4855 19.4735C28.1587 20.8543 27.6154 22.1739 26.8762 23.3825L27.9963 25.9234L25.0244 28.9164L22.5008 27.7887C21.3007 28.5335 19.99 29.0805 18.6185 29.409L17.6285 32H13.4226L12.4319 29.4083C11.0605 29.0798 9.74991 28.533 8.54959 27.7887L6.02606 28.9164L3.06188 25.9208L4.18194 23.3799C3.44214 22.1716 2.89888 20.8519 2.57271 19.4709L0 18.4767V16.36L8.19888 16.3606Z" fill="#132431"/>
        <path fill-rule="evenodd" clip-rule="evenodd" d="M12.8091 20.7058H18.6018C19.7777 19.9918 20.6518 18.8698 21.0584 17.5523C20.4477 16.7002 19.6438 16.0061 18.713 15.5273C17.7822 15.0486 16.7514 14.7989 15.7055 14.7989C14.6596 14.7989 13.6287 15.0486 12.698 15.5273C11.7672 16.0061 10.9633 16.7002 10.3525 17.5523C10.7591 18.8699 11.6332 19.9919 12.8091 20.7058ZM15.7055 7.5293C16.365 7.5293 17.0096 7.72556 17.558 8.09327C18.1063 8.46097 18.5337 8.98361 18.786 9.59508C19.0384 10.2066 19.1044 10.8794 18.9758 11.5285C18.8471 12.1777 18.5296 12.774 18.0632 13.242C17.5969 13.71 17.0028 14.0287 16.356 14.1578C15.7092 14.2869 15.0387 14.2206 14.4295 13.9674C13.8202 13.7141 13.2994 13.2852 12.9331 12.7349C12.5667 12.1845 12.3711 11.5375 12.3711 10.8757C12.3711 9.98817 12.7224 9.137 13.3477 8.50943C13.973 7.88186 14.8212 7.5293 15.7055 7.5293Z" fill="#3DDBBF"/>
    </symbol>
</svg>