<svg width="24" height="18" viewBox="0 0 24 18" id="arrow" xmlns="http://www.w3.org/2000/svg">
    <line x1="0.745117" y1="8.81226" x2="20.7451" y2="8.81226" stroke="#3DDBBF" />
    <path fill-rule="evenodd" clip-rule="evenodd"
        d="M19.1427 7.87427C19.0228 7.81746 18.9028 7.75435 18.7798 7.7007C17.5191 7.1857 16.3216 6.52814 15.2104 5.74087C14.3529 5.13856 13.5947 4.40596 12.9634 3.56959C12.8086 3.32194 12.6805 3.0585 12.5815 2.78375C12.5631 2.75156 12.5513 2.71602 12.5469 2.6792C12.5425 2.64238 12.5456 2.60504 12.5559 2.56942C12.5662 2.5338 12.5835 2.50062 12.6069 2.47184C12.6303 2.44306 12.6592 2.41927 12.692 2.40188C12.8371 2.31983 12.9539 2.37979 13.0833 2.48394C14.1816 3.35497 15.2609 4.25757 16.4033 5.0718C17.7803 5.99049 19.2793 6.71179 20.8564 7.21468C21.4465 7.42612 22.0461 7.6281 22.6363 7.84586C22.8412 7.92256 23.0354 8.02546 23.2138 8.152C23.5484 8.39185 23.5326 8.74215 23.1791 8.96938C23.0462 9.06175 22.8959 9.12616 22.7373 9.15873C20.8153 9.47116 19.149 10.3801 17.5048 11.3489C16.1163 12.165 14.8128 13.1175 13.6135 14.1924C13.3452 14.4607 13.0423 14.6942 12.7362 14.9183C12.6857 14.9523 12.6277 14.9735 12.5672 14.9801C12.5068 14.9867 12.4456 14.9785 12.389 14.9562C12.3445 14.9153 12.3112 14.8636 12.2924 14.8061C12.2736 14.7486 12.2699 14.6873 12.2817 14.628C12.3823 14.3556 12.5204 14.0985 12.692 13.8642C13.859 12.4481 15.2791 11.2613 16.8799 10.3643C17.5111 9.9919 18.1549 9.65107 18.7955 9.29445C18.8429 9.24711 20.424 8.53702 20.484 8.5023"
        fill="#3DDBBF" />
</svg>