<svg width="75" height="75" viewBox="0 0 75 75" fill="none" xmlns="http://www.w3.org/2000/svg">
<path d="M68.9141 75H7.67502C4.32159 75 1.59863 72.2679 1.59863 68.9236V38.2949H2.0555V68.9145C2.0555 72.012 4.57744 74.534 7.67502 74.534H68.9141V75Z" fill="#132431"/>
<path d="M72.734 73.5837C72.67 73.5837 72.6061 73.5563 72.5604 73.5015C72.4782 73.4101 72.4873 73.2639 72.5878 73.1817C72.6975 73.0903 72.8071 72.9807 72.9076 72.8802C72.999 72.7888 73.1452 72.7888 73.2274 72.8802C73.3188 72.9715 73.3188 73.1177 73.2274 73.2C73.1178 73.3096 72.999 73.4193 72.8802 73.5289C72.8437 73.5655 72.7888 73.5837 72.734 73.5837ZM74.7717 69.1612C74.6437 69.1612 74.5432 69.0607 74.5432 68.9328V68.4759C74.5432 68.348 74.6437 68.2475 74.7717 68.2475C74.8996 68.2475 75.0001 68.348 75.0001 68.4759V68.9328C75.0001 69.0607 74.8996 69.1612 74.7717 69.1612ZM74.7717 64.1265C74.6437 64.1265 74.5432 64.026 74.5432 63.8981V63.4412C74.5432 63.3133 74.6437 63.2128 74.7717 63.2128C74.8996 63.2128 75.0001 63.3133 75.0001 63.4412V63.8981C75.0001 64.026 74.8996 64.1265 74.7717 64.1265ZM74.7717 59.1009C74.6437 59.1009 74.5432 59.0004 74.5432 58.8725V58.4156C74.5432 58.2877 74.6437 58.1872 74.7717 58.1872C74.8996 58.1872 75.0001 58.2877 75.0001 58.4156V58.8725C75.0001 59.0004 74.8996 59.1009 74.7717 59.1009ZM74.7717 54.0753C74.6437 54.0753 74.5432 53.9748 74.5432 53.8469V53.39C74.5432 53.2621 74.6437 53.1616 74.7717 53.1616C74.8996 53.1616 75.0001 53.2621 75.0001 53.39V53.8469C75.0001 53.9748 74.8996 54.0753 74.7717 54.0753ZM74.7717 49.0406C74.6437 49.0406 74.5432 48.9401 74.5432 48.8122V48.3553C74.5432 48.2274 74.6437 48.1269 74.7717 48.1269C74.8996 48.1269 75.0001 48.2274 75.0001 48.3553V48.8122C75.0001 48.9401 74.8996 49.0406 74.7717 49.0406ZM74.7717 44.015C74.6437 44.015 74.5432 43.9145 74.5432 43.7866V43.3297C74.5432 43.2018 74.6437 43.1013 74.7717 43.1013C74.8996 43.1013 75.0001 43.2018 75.0001 43.3297V43.7866C75.0001 43.9145 74.8996 44.015 74.7717 44.015ZM74.7717 38.9894C74.6437 38.9894 74.5432 38.8889 74.5432 38.761V38.3041C74.5432 38.1762 74.6437 38.0757 74.7717 38.0757C74.8996 38.0757 75.0001 38.1762 75.0001 38.3041V38.761C75.0001 38.8889 74.8996 38.9894 74.7717 38.9894Z" fill="#132431"/>
<path d="M75.0004 38.295H74.5435V7.67551C74.5435 4.57792 72.0216 2.05599 68.924 2.05599H7.67578V1.59912H68.9149C72.2683 1.59912 74.9912 4.33121 74.9912 7.67551V38.295H75.0004Z" fill="#132431"/>
<path d="M3.65497 38.295H0V7.67544C0 3.44481 3.44481 0 7.67544 0V3.65497C5.45505 3.65497 3.65497 5.46418 3.65497 7.67544V38.295Z" fill="#132431"/>
</svg>
