<svg viewBox="0 0 30 30" fill="none" id="retail" xmlns="http://www.w3.org/2000/svg">
    <g clip-path="url(#clip0_0_271)">
        <path
            d="M28.4531 6.68438C28.1893 6.35339 27.8541 6.08623 27.4727 5.90281C27.0912 5.71938 26.6733 5.62442 26.25 5.625H20.625V7.65938C21.0201 7.80046 21.3788 8.02785 21.675 8.325C21.9365 8.58574 22.1439 8.89551 22.2855 9.23656C22.427 9.57762 22.4999 9.94324 22.4999 10.3125C22.4999 10.6818 22.427 11.0474 22.2855 11.3884C22.1439 11.7295 21.9365 12.0393 21.675 12.3L19.8 14.175C19.2662 14.6931 18.5517 14.9829 17.8078 14.9829C17.064 14.9829 16.3494 14.6931 15.8156 14.175L13.95 12.3C13.6885 12.0393 13.4811 11.7295 13.3395 11.3884C13.198 11.0474 13.1251 10.6818 13.1251 10.3125C13.1251 9.94324 13.198 9.57762 13.3395 9.23656C13.4811 8.89551 13.6885 8.58574 13.95 8.325C14.2462 8.02785 14.6049 7.80046 15 7.65938V5.625H7.47187L6.53437 1.65937C6.48593 1.45438 6.36986 1.27168 6.20489 1.14072C6.03991 1.00976 5.83564 0.938172 5.625 0.9375H1.875C1.62636 0.9375 1.3879 1.03627 1.21209 1.21209C1.03627 1.3879 0.9375 1.62636 0.9375 1.875C0.9375 2.12364 1.03627 2.3621 1.21209 2.53791C1.3879 2.71373 1.62636 2.8125 1.875 2.8125H4.88438L8.19375 16.9031C7.49448 16.9607 6.84236 17.2789 6.3666 17.7946C5.89084 18.3103 5.62616 18.9859 5.625 19.6875C5.63064 20.4317 5.92877 21.1438 6.455 21.67C6.98122 22.1962 7.69332 22.4944 8.4375 22.5H24.375C24.6236 22.5 24.8621 22.4012 25.0379 22.2254C25.2137 22.0496 25.3125 21.8111 25.3125 21.5625C25.3125 21.3139 25.2137 21.0754 25.0379 20.8996C24.8621 20.7238 24.6236 20.625 24.375 20.625H8.4375C8.1908 20.6188 7.95592 20.5181 7.78143 20.3436C7.60693 20.1691 7.50618 19.9342 7.5 19.6875C7.5 19.4389 7.59877 19.2004 7.77459 19.0246C7.9504 18.8488 8.18886 18.75 8.4375 18.75H24.3C24.9228 18.749 25.5276 18.5414 26.0196 18.1596C26.5116 17.7779 26.8631 17.2436 27.0187 16.6406L28.9875 9.10312V9.075C29.085 8.66205 29.0875 8.23237 28.995 7.81829C28.9024 7.40422 28.7171 7.01652 28.4531 6.68438Z"
            fill="#132431" />
        <path
            d="M21.5616 29.0625C23.1149 29.0625 24.3741 27.8033 24.3741 26.25C24.3741 24.6967 23.1149 23.4375 21.5616 23.4375C20.0083 23.4375 18.7491 24.6967 18.7491 26.25C18.7491 27.8033 20.0083 29.0625 21.5616 29.0625Z"
            fill="#3DDBBF" />
        <path
            d="M11.2491 29.0625C12.8024 29.0625 14.0616 27.8033 14.0616 26.25C14.0616 24.6967 12.8024 23.4375 11.2491 23.4375C9.69576 23.4375 8.43656 24.6967 8.43656 26.25C8.43656 27.8033 9.69576 29.0625 11.2491 29.0625Z"
            fill="#3DDBBF" />
        <path
            d="M15.2747 10.9753L17.1497 12.8503C17.3275 13.023 17.5656 13.1197 17.8134 13.1197C18.0613 13.1197 18.2994 13.023 18.4772 12.8503L20.3522 10.9753C20.523 10.7985 20.6175 10.5617 20.6153 10.3159C20.6132 10.0701 20.5146 9.83493 20.3408 9.66111C20.1669 9.48729 19.9318 9.38869 19.686 9.38656C19.4402 9.38442 19.2034 9.47891 19.0266 9.64969L18.75 9.92438V4.6875C18.75 4.43886 18.6512 4.2004 18.4754 4.02459C18.2996 3.84877 18.0611 3.75 17.8125 3.75C17.5639 3.75 17.3254 3.84877 17.1496 4.02459C16.9738 4.2004 16.875 4.43886 16.875 4.6875V9.92438L16.6003 9.64969C16.4235 9.47891 16.1867 9.38442 15.9409 9.38656C15.6951 9.38869 15.4599 9.48729 15.2861 9.66111C15.1123 9.83493 15.0137 10.0701 15.0116 10.3159C15.0094 10.5617 15.1039 10.7985 15.2747 10.9753Z"
            fill="#3DDBBF" />
    </g>
    <defs>
        <clipPath id="clip0_0_271">
            <rect width="30" height="30" fill="white" />
        </clipPath>
    </defs>
</svg>