<svg width="33" height="33" viewBox="0 0 33 33" fill="none" xmlns="http://www.w3.org/2000/svg">
<path d="M13.6797 16.7578C13.6797 17.4698 14.2568 18.0469 14.9688 18.0469H18.0303C18.7422 18.0469 19.3193 17.4698 19.3193 16.7578V16.1133H13.6797V16.7578Z" fill="#132431"/>
<path d="M26.8125 5.47852C26.2786 5.47852 25.8457 5.91138 25.8457 6.44531C25.8457 6.97924 26.2786 7.41211 26.8125 7.41211H28.7461C29.28 7.41211 29.7129 6.97924 29.7129 6.44531C29.7129 5.91138 29.28 5.47852 28.7461 5.47852H26.8125Z" fill="#132431"/>
<path d="M25.3307 2.73915C25.5977 3.20153 26.189 3.35996 26.6514 3.09299L28.3259 2.1262C28.7883 1.85923 28.9467 1.26794 28.6798 0.805554C28.4128 0.343167 27.8215 0.184741 27.3591 0.451706L25.6846 1.4185C25.2222 1.68547 25.0638 2.27676 25.3307 2.73915Z" fill="#132431"/>
<path d="M25.6846 11.4719L27.3591 12.4387C27.8215 12.7057 28.4128 12.5472 28.6798 12.0849C28.9467 11.6225 28.7883 11.0312 28.3259 10.7642L26.6514 9.79741C26.189 9.53044 25.5977 9.68887 25.3307 10.1513C25.0638 10.6136 25.2222 11.2049 25.6846 11.4719Z" fill="#132431"/>
<path d="M4.25391 7.41211H6.1875C6.72143 7.41211 7.1543 6.97924 7.1543 6.44531C7.1543 5.91138 6.72143 5.47852 6.1875 5.47852H4.25391C3.71998 5.47852 3.28711 5.91138 3.28711 6.44531C3.28711 6.97924 3.71998 7.41211 4.25391 7.41211Z" fill="#132431"/>
<path d="M4.67408 2.1262L6.34864 3.09299C6.81103 3.35996 7.40232 3.20153 7.66929 2.73915C7.93625 2.27676 7.77782 1.68547 7.31544 1.4185L5.64088 0.451706C5.17849 0.184741 4.5872 0.343167 4.32024 0.805554C4.05327 1.26794 4.2117 1.85923 4.67408 2.1262Z" fill="#132431"/>
<path d="M6.34864 9.79741L4.67408 10.7642C4.2117 11.0312 4.05327 11.6225 4.32024 12.0849C4.5872 12.5472 5.17849 12.7057 5.64088 12.4387L7.31544 11.4719C7.77782 11.2049 7.93625 10.6136 7.66929 10.1513C7.40232 9.68887 6.81103 9.53044 6.34864 9.79741Z" fill="#132431"/>
<path d="M12.4007 11.4136C13.1823 12.0581 13.6802 12.9819 13.6802 13.995V14.1797H15.5332V8.13482L13.8828 6.48444C13.5052 6.10687 13.5052 5.49476 13.8828 5.11719C14.2603 4.73962 14.8725 4.73962 15.2501 5.11719L16.5 6.36713L17.75 5.11719C18.1275 4.73962 18.7397 4.73962 19.1172 5.11719C19.4948 5.49476 19.4948 6.10687 19.1172 6.48444L17.4668 8.13482V14.1797H19.3198V13.9949C19.3198 12.9818 19.8177 12.058 20.5993 11.4136C22.0316 10.2327 22.9453 8.4469 22.9453 6.44531C22.9453 2.8857 20.0596 0 16.5 0C12.9404 0 10.0547 2.8857 10.0547 6.44531C10.0547 8.4469 10.9684 10.2327 12.4007 11.4136Z" fill="#3DDBBF"/>
<path d="M26.877 23.8477C28.4788 23.8477 29.7773 22.5491 29.7773 20.9473C29.7773 19.3454 28.4788 18.0469 26.877 18.0469C25.2751 18.0469 23.9766 19.3454 23.9766 20.9473C23.9766 22.5491 25.2751 23.8477 26.877 23.8477Z" fill="#132431"/>
<path d="M6.12305 23.8477C7.72489 23.8477 9.02344 22.5491 9.02344 20.9473C9.02344 19.3454 7.72489 18.0469 6.12305 18.0469C4.52121 18.0469 3.22266 19.3454 3.22266 20.9473C3.22266 22.5491 4.52121 23.8477 6.12305 23.8477Z" fill="#132431"/>
<path d="M29.5023 25.003C28.7456 25.4945 27.8444 25.7812 26.877 25.7812C25.7911 25.7812 24.7878 25.4212 23.9799 24.8145H21.7852C21.536 24.8145 21.334 24.6125 21.334 24.3633V22.2363C21.334 20.9904 20.324 19.9805 19.0781 19.9805H17.4668V24.4277C17.4668 26.7771 19.3713 28.6816 21.7207 28.6816V32.0332C21.7207 32.5671 22.1536 33 22.6875 33H32.0332C32.5671 33 33 32.5671 33 32.0332V29.6484C33 27.4425 31.5218 25.5829 29.5023 25.003Z" fill="#132431"/>
<path d="M11.666 22.2363V24.3633C11.666 24.6125 11.464 24.8145 11.2148 24.8145H9.02009C8.21217 25.4212 7.20895 25.7812 6.12305 25.7812C5.15561 25.7812 4.25436 25.4945 3.49774 25.003C1.47823 25.5829 0 27.4425 0 29.6484V32.0332C0 32.5671 0.432867 33 0.966797 33H10.3125C10.8464 33 11.2793 32.5671 11.2793 32.0332V28.6816C13.6287 28.6816 15.5332 26.7771 15.5332 24.4277V19.9805H13.9219C12.676 19.9805 11.666 20.9904 11.666 22.2363Z" fill="#132431"/>
</svg>
