<svg width="220" height="77" viewBox="0 0 220 77" fill="none" xmlns="http://www.w3.org/2000/svg">
<path d="M76.2647 0.188477C73.7671 0.456856 70.3651 1.11997 67.6509 1.86243C54.5445 5.41601 42.9 14.1981 27.9985 31.7623C13.8711 48.3989 3.53075 64.6643 0.915538 74.3309C0.58043 75.5151 0.261986 76.5103 0.162042 76.5416C-0.173066 76.7003 0.0444447 76.9687 0.513791 76.9687C0.882213 76.9687 1.00371 76.8707 1.00371 76.5259C1.00371 74.947 3.48371 68.8183 6.03131 64.0952C14.5452 48.2843 33.2818 25.0812 46.107 14.4988C55.4753 6.74322 63.9725 2.68422 74.4128 0.962273C77.7316 0.408867 84.3348 0.219818 87.921 0.550888C93.3004 1.07295 99.7193 2.46285 104.982 4.26315C111.383 6.4435 117.3 9.14394 128.863 15.1776C140.854 21.4326 147.793 24.6071 154.994 27.1509C161.883 29.5673 167.313 30.9709 180.485 33.737C190.356 35.8056 192.87 36.3904 197.278 37.5912C204.384 39.5336 210.212 41.9343 214.288 44.6044C216.701 46.1833 220.405 49.4372 222.332 51.6959C226.103 56.1183 229.807 62.5163 231.986 68.4393C232.991 71.1397 234.265 75.9892 234.114 76.5259C234.016 76.905 234.081 76.9687 234.55 76.9687C234.985 76.9687 235.069 76.905 234.952 76.6366C234.869 76.4476 234.617 75.4681 234.399 74.4572C232.723 66.8437 229.136 59.2458 223.991 52.3913C222.115 49.9113 217.557 45.7416 214.858 44.0353C210.635 41.3662 205.121 39.1232 198.115 37.1965C193.706 35.9957 191.194 35.4109 181.323 33.3422C168.151 30.5781 162.72 29.1725 155.832 26.7552C148.626 24.2085 141.688 21.0379 129.689 14.7829C118.309 8.85989 112.376 6.12712 106.058 3.94775C101.014 2.21014 94.9975 0.851585 89.7014 0.26683C86.8187 -0.0485611 78.9417 -0.0965576 76.2608 0.188477H76.2647ZM78.879 7.21729C62.1706 8.51218 48.7125 16.7262 32.9761 35.2219C25.4009 44.1146 17.4063 55.9292 13.4517 64.0639C11.5449 68.0122 10.033 72.0242 9.34614 75.041C9.19524 75.7208 8.99337 76.4476 8.91009 76.6366C8.79251 76.905 8.87678 76.9687 9.31184 76.9687C9.78118 76.9687 9.84881 76.905 9.74789 76.5259C9.61365 76.0205 10.7365 72.1662 11.8594 69.3394C14.3228 63.1481 18.9486 55.2348 25.0991 46.6731C33.7972 34.5587 43.2998 24.4494 51.9636 18.1161C68.3711 6.09578 86.9735 4.32682 108.492 12.7289C112.95 14.4812 118.414 17.0386 126.542 21.2103C145.177 30.7505 151.948 33.3726 171.59 38.6638C185.903 42.522 190.947 44.2096 197.449 47.3215C208.376 52.549 216.738 60.1783 221.428 69.1641C222.785 71.7225 224.444 76.1762 224.243 76.666C224.145 76.8874 224.26 76.9667 224.662 76.9667C224.963 76.9667 225.215 76.8874 225.215 76.7767C225.212 76.7211 225.188 76.6687 225.148 76.6305C225.107 76.5924 225.053 76.5714 224.998 76.572C224.88 76.572 224.796 76.3663 224.796 76.0979C224.796 75.1811 223.104 70.7744 221.846 68.3736C217.204 59.4495 209.143 52.121 198.283 46.9228C191.781 43.812 186.737 42.1233 172.424 38.2671C152.783 32.9778 146.012 30.3538 127.375 20.8136C111.195 12.5242 103.113 9.44367 93.4258 7.88041C89.1526 7.20162 82.8346 6.90092 78.879 7.21729ZM78.4596 13.819C72.6442 14.3881 66.3095 16.2041 61.181 18.7635C58.5667 20.0584 54.3436 22.7118 51.6765 24.7178C39.2745 34.069 23.8586 54.3336 18.1442 68.786C17.2564 71.0134 15.9317 75.4201 15.9317 76.1155C15.9317 76.3682 15.8337 76.5739 15.7308 76.5739C15.6751 76.5731 15.6212 76.594 15.5806 76.6322C15.54 76.6704 15.5158 76.7229 15.5133 76.7786C15.5133 76.8893 15.7641 76.9687 16.0659 76.9687C16.452 76.9687 16.5686 76.8893 16.4853 76.6836C16.3344 76.3055 17.5572 72.1035 18.5635 69.5765C22.4516 59.7355 31.3506 46.3263 40.8864 35.9006C43.8857 32.6154 49.6678 27.2606 52.5172 25.1126C65.1572 15.588 78.4596 12.2871 93.6609 14.8935C102.459 16.4098 109.431 19.0632 124.866 26.7238C142.228 35.3639 148.899 37.9546 167.92 43.4829C171.839 44.6357 176.299 45.962 177.841 46.4674C188.449 49.8956 196.326 53.8282 202.762 58.899C205.225 60.8414 209.097 64.6486 210.806 66.8123C213.086 69.7028 216 75.04 216.035 76.4113C216.052 76.8697 216.152 76.9647 216.554 76.9647C217.091 76.9647 217.124 76.9167 216.839 76.427C216.636 75.9575 216.457 75.4779 216.303 74.9901C215.867 73.6315 214.246 70.3777 213.119 68.6401C209.314 62.7484 202.661 56.9998 194.651 52.6871C188.148 49.1806 182.551 47.1119 168.757 43.0881C149.737 37.5599 143.066 34.9692 125.704 26.3291C115.883 21.4483 111.777 19.6157 106.229 17.6116C101.051 15.7506 94.6153 14.2941 89.2859 13.8044C86.7726 13.5673 80.9073 13.583 78.4596 13.82V13.819ZM78.1588 20.0114C68.6229 21.3063 60.7626 24.7335 52.5172 31.2099C41.925 39.5355 29.8249 55.5188 24.4456 68.2806C23.4236 70.7293 22.0155 75.137 22.0155 75.8942C22.0155 76.1469 21.9176 76.4152 21.798 76.4819C21.412 76.7189 21.5795 76.9716 22.1331 76.9716C22.5515 76.9716 22.6358 76.9079 22.5349 76.6082C22.384 76.1185 23.6744 71.9008 24.8649 69.074C29.3899 58.3486 38.9091 44.907 48.294 36.0456C58.3864 26.5054 68.3378 21.5619 80.0185 20.2984C82.767 19.9986 89.2026 20.172 92.0854 20.5981C97.7498 21.4669 103.297 23.0311 109.615 25.5739C111.71 26.4114 118.33 29.4125 124.329 32.255C141.86 40.5473 145.886 42.0802 166.864 48.54C177.606 51.8575 184.176 54.4629 189.807 57.6218C196.192 61.192 201.622 65.7564 205.191 70.5266C206.481 72.2485 208.677 76.3055 208.522 76.6866C208.438 76.8923 208.556 76.9716 208.941 76.9716C209.243 76.9716 209.494 76.8923 209.494 76.7816C209.493 76.7284 209.471 76.6778 209.433 76.6399C209.396 76.602 209.346 76.5795 209.293 76.5769C209.18 76.5739 209.082 76.3682 209.082 76.1185C209.082 75.4867 206.869 71.411 205.613 69.7371C201.106 63.7034 194.233 58.6013 184.933 54.3679C180.357 52.2992 175.798 50.6566 167.704 48.1452C146.722 41.6806 142.699 40.1526 125.17 31.8603C119.169 29.0197 112.549 26.0166 110.454 25.1792C104.153 22.6521 98.6738 21.0878 92.9251 20.2034C90.0424 19.7616 80.9092 19.6353 78.1607 20.0143L78.1588 20.0114ZM80.7221 25.6336C69.7282 26.7395 60.1923 31.2412 51.0425 39.6403C40.7541 49.1022 31.2663 63.3175 28.1827 73.9322C27.8975 74.8951 27.6634 75.8912 27.6634 76.1273C27.6634 76.38 27.5654 76.57 27.4625 76.57C27.4067 76.5692 27.3526 76.5901 27.3119 76.6282C27.2711 76.6664 27.2468 76.7189 27.244 76.7747C27.244 76.8854 27.4958 76.9647 27.7976 76.9647C28.1827 76.9647 28.3003 76.8854 28.216 76.6797C27.8976 75.8902 30.1943 69.7616 32.3725 65.5605C39.3108 52.1974 50.2714 39.7353 60.8968 33.0856C66.3938 29.6427 72.1415 27.4937 78.7114 26.4045C82.2144 25.8168 88.1464 25.7727 91.7669 26.2938C100.951 27.62 106.599 29.579 122.989 37.0976C138.34 44.1421 143.837 46.2901 158.903 51.1043C173.182 55.6687 178.076 57.5483 184.16 60.8335C191.4 64.7348 196.996 69.6636 200.181 74.9382C200.684 75.759 201.035 76.5494 200.965 76.6915C200.897 76.8805 201.031 76.9598 201.401 76.9598C201.702 76.9598 201.954 76.8962 201.954 76.8178C201.954 76.7395 201.518 75.8697 200.998 74.8902C198.169 69.6078 192.523 64.5056 184.997 60.4466C178.913 57.1614 174.023 55.2818 159.742 50.7174C144.675 45.8993 139.178 43.7512 123.826 36.7107C114.944 32.6292 111.743 31.2579 107.42 29.6623C102.526 27.861 97.7832 26.6445 92.8202 25.9343C90.2393 25.571 83.1844 25.3976 80.7201 25.6336H80.7221ZM81.7117 30.8945C71.9907 32.0473 64.533 35.1748 56.5728 41.4612C47.2378 48.8211 37.551 62.0422 33.9834 72.3092C33.3798 73.9988 32.9104 75.6101 32.9104 75.8785C32.9104 76.1469 32.8125 76.4152 32.6929 76.4789C32.3079 76.7159 32.4754 76.9687 33.028 76.9687C33.4474 76.9687 33.5307 76.905 33.4307 76.6053C33.1623 75.8158 35.3904 70.1406 37.5863 66.0385C45.38 51.4442 57.7985 39.2652 69.7811 34.4481C72.6128 33.3109 76.3843 32.2364 79.4169 31.7153C82.9698 31.0992 89.7239 31.0992 93.5453 31.7466C102.126 33.1688 107.137 34.9535 125.807 43.2145C135.943 47.7133 143.368 50.5538 155.451 54.5697C167.384 58.5347 171.121 59.9402 176.299 62.436C181.914 65.1211 186.405 68.1644 189.773 71.5658C191.617 73.4141 193.578 76.0205 193.578 76.6082C193.578 76.8766 193.729 76.9716 194.097 76.9716C194.382 76.9716 194.634 76.9236 194.634 76.8736C194.634 76.5896 193.41 74.5679 192.606 73.4934C189.485 69.3708 184.096 65.3744 177.139 62.0422C171.96 59.5465 168.222 58.1409 156.291 54.1759C144.207 50.16 136.783 47.3195 126.644 42.8198C110.575 35.7116 105.544 33.7683 99.1108 32.2834C94.5526 31.206 92.1726 30.9415 87.1616 30.8778C84.5641 30.8465 82.1174 30.8465 81.7156 30.8945H81.7117ZM82.3476 36.7068C77.4543 37.2592 73.3654 38.4287 68.8257 40.5444C61.0271 44.1617 53.7763 50.3373 47.6238 58.5856C45.3271 61.6504 43.0185 65.3441 41.5899 68.1582C40.4004 70.5266 38.5524 75.3447 38.5524 76.1341C38.5524 76.3868 38.4544 76.5769 38.3516 76.5769C38.2958 76.576 38.2419 76.5969 38.2013 76.6352C38.1607 76.6734 38.1365 76.7259 38.134 76.7816C38.134 76.8923 38.3515 76.9716 38.6239 76.9716C39.0257 76.9716 39.1266 76.8736 39.1433 76.4339C39.1766 75.5817 40.7855 71.3797 42.026 68.8996C44.2385 64.5409 48.0089 59.0597 51.6285 54.9527C57.3116 48.54 63.2259 43.9276 69.6576 40.946C79.848 36.1925 89.5838 35.7028 102.238 39.2877C107.248 40.7099 111.387 42.3045 126.119 48.4949C135.42 52.4129 139.676 54.0545 151.056 58.0508C161.983 61.9051 165.837 63.4057 170.111 65.443C174.771 67.6547 178.156 69.7704 181.122 72.3141C182.63 73.5933 184.793 76.0254 184.859 76.5259C184.892 76.7473 185.128 76.905 185.479 76.9363C185.781 76.9687 186.032 76.9687 186.032 76.9207C186.032 76.6053 184.809 74.8833 183.753 73.6991C180.334 69.8605 173.58 65.8328 164.664 62.2949C162.871 61.5995 157.12 59.4985 151.894 57.6512C140.515 53.6549 136.258 52.0123 126.957 48.0953C107.181 39.7863 102.639 38.223 94.3605 36.9908C91.8972 36.6274 84.5895 36.4541 82.3437 36.7068H82.3476ZM83.6724 42.6297C75.5602 43.5936 68.7062 46.484 61.8355 51.8546C56.2876 56.1976 50.7388 62.8797 47.4553 69.1641C45.9473 72.0379 44.6402 75.3084 44.6402 76.1606C44.6402 76.3976 44.5422 76.572 44.4227 76.572C44.3959 76.5718 44.3693 76.5771 44.3446 76.5873C44.3198 76.5976 44.2974 76.6127 44.2786 76.6318C44.2598 76.6509 44.245 76.6735 44.2351 76.6984C44.2252 76.7233 44.2203 76.7499 44.2208 76.7767C44.2208 76.8874 44.4393 76.9667 44.7107 76.9667C45.0968 76.9667 45.2007 76.8687 45.2144 76.429C45.2644 74.7707 48.5655 68.1689 51.1973 64.488C62.7595 48.2667 78.3802 40.7481 95.0219 43.4016C102.58 44.6024 107.641 46.2607 124.552 53.0838C129.745 55.1692 137.891 58.3437 142.685 60.1126C159.208 66.2912 163.932 68.3129 168.606 71.2504C171.137 72.846 175.143 76.1782 175.143 76.7003C175.143 76.8736 175.377 76.9687 175.78 76.9687C176.466 76.9687 176.517 76.905 176.132 76.4309C175.059 75.0733 171.722 72.2936 169.495 70.887C164.769 67.9182 160.077 65.9122 143.518 59.7208C138.725 57.9519 130.584 54.7774 125.385 52.692C108.492 45.8846 103.535 44.2576 95.8558 43.0098C92.9897 42.5357 86.2023 42.331 83.6724 42.6307V42.6297ZM84.0242 49.0424C76.2648 50.1483 69.1422 53.5285 62.9408 59.0567C58.0807 63.3851 53.305 70.0339 51.7627 74.6306C51.4952 75.4358 51.1934 76.2419 51.0925 76.4309C50.824 76.9363 50.8583 76.9687 51.4609 76.9687C51.8803 76.9687 51.9802 76.905 51.8803 76.6523C51.6961 76.2105 53.2207 72.7196 54.5788 70.4609C59.5897 62.0892 67.8184 54.9654 76.2481 51.6802C85.633 48.0316 95.0513 48.3313 108.626 52.7067C113.738 54.3493 130.849 60.8727 144.273 66.2746C153.777 70.1132 160.043 73.3984 162.842 76.0362C163.512 76.668 164.031 76.9687 164.383 76.9687H164.92L164.267 76.1949C162.373 73.9636 156.004 70.3973 147.646 66.923C143.607 65.2324 127.232 58.8197 119.641 55.9449C109.519 52.1073 103.586 50.3373 97.5186 49.3108C94.2341 48.7584 86.9941 48.6164 84.0281 49.0424H84.0242ZM87.4928 55.6765C81.3257 56.2926 75.6112 58.377 70.7178 61.8052C65.6559 65.3431 61.181 70.603 59.2879 75.1997C59.0361 75.8001 58.751 76.4476 58.651 76.6366C58.4835 76.905 58.553 76.9687 58.9362 76.9687C59.3193 76.9687 59.4721 76.811 59.6563 76.1312C59.9914 75.0254 62.0197 71.6451 63.5944 69.6235C64.2803 68.7233 65.8401 67.0494 67.0473 65.8965C72.3434 60.857 78.9123 57.5091 85.5831 56.4503C90.2755 55.7079 93.8784 55.7715 99.1745 56.656C107.671 58.0929 121.417 62.7847 136.429 69.3894C142.446 72.0399 148.527 75.3887 149.284 76.4632C149.552 76.855 149.803 76.9687 150.39 76.9687H151.144L150.306 76.1782C147.474 73.4307 136.613 68.2972 121.933 62.769C106.213 56.8451 96.2918 54.792 87.4928 55.6765ZM90.4088 62.674C87.2586 63.0844 86.3915 63.2421 84.6611 63.6848C77.6385 65.4381 70.9353 70.3189 68.1869 75.6571L67.4824 77L68.0527 76.9363C68.3711 76.905 68.5886 76.8266 68.5426 76.7786C68.375 76.5896 69.347 75.041 70.6003 73.4621C74.1022 69.0867 79.7843 65.5008 85.4988 64.0796C88.7 63.2744 90.4255 63.0687 93.8618 63.0687C101.135 63.1001 109.331 65.0111 120.056 69.2131C126.022 71.5638 134.2 75.7521 134.569 76.6523C134.653 76.8736 134.955 76.9687 135.457 76.9687H136.228L135.525 76.3055C133.933 74.7726 126.961 71.2034 120.86 68.8183C113.151 65.7819 107.051 64.0482 100.984 63.1324C98.5043 62.769 91.9178 62.484 90.4088 62.674ZM92.7056 72.9243C89.2526 73.5248 86.2866 74.71 84.6777 76.1155L83.7057 76.9687H84.3916C84.8943 76.9687 85.2637 76.7943 85.7634 76.3212C86.7011 75.4397 89.2153 74.3152 91.6787 73.6991C94.5281 72.988 98.6679 72.8303 101.919 73.3201C105.857 73.9078 111.857 75.7208 112.779 76.6053C113.013 76.8423 113.432 76.9687 113.918 76.9687L114.702 76.953L114.037 76.4309C112.73 75.3731 107.467 73.6991 103.31 73.0194C100.529 72.5619 95.065 72.5139 92.7026 72.9214L92.7056 72.9243Z" fill="#A8CFC4" fill-opacity="0.6"/>
</svg>
