<svg width="86" height="223" viewBox="0 0 86 223" fill="none" xmlns="http://www.w3.org/2000/svg">
<path d="M132.575 212.739C132.144 212.797 128.722 213.666 124.942 214.696C116.515 216.997 100.689 220.617 96.2366 221.289C81.8402 223.448 71.0559 223.253 62.6289 220.684C54.8032 218.303 48.4445 213.102 45.3697 206.567C44.2911 204.271 43.1783 199.59 43.0988 196.986C42.9408 191.202 44.4606 184.836 47.9183 176.862C48.6779 175.131 50.7326 170.767 52.5004 167.169C56.1068 159.779 57.5219 156.582 58.6812 153.202C63.9336 137.657 59.8177 126.477 43.5799 112.29C40.8504 109.897 35.1213 105.441 28.8647 100.836C17.3768 92.3742 12.4657 88.0446 8.20955 82.6882C3.57725 76.8282 0.963486 70.0539 0.906036 63.7225C0.8672 59.6989 2.09433 54.7301 4.09619 50.7821C8.35942 42.37 16.999 34.1773 29.4515 26.7207C36.8091 22.3131 43.53 19.017 58.7878 12.3101C63.5596 10.2081 70.5927 7.05672 74.4097 5.31946C78.2268 3.5822 82.0891 1.84648 82.9956 1.46681C83.9146 1.09764 84.7948 0.696435 84.9676 0.590497C85.2132 0.440602 85.3061 0.486357 85.3815 0.819033C85.4625 1.17711 85.3954 1.24571 85.0027 1.25447C84.7252 1.26306 81.1578 2.79683 76.4296 4.94236C71.9721 6.97312 64.414 10.351 59.6432 12.4528C50.1452 16.6329 46.2555 18.4141 41.495 20.7823C26.4068 28.3106 16.1895 35.706 9.56609 43.9382C6.07227 48.2656 4.29047 51.37 2.89544 55.5971C-0.603066 66.0807 2.1936 75.5956 11.7542 85.7168C15.4761 89.6595 19.7901 93.2394 29.108 100.109C43.0791 110.384 49.3353 115.934 54.2667 122.385C57.5855 126.727 59.4559 130.633 60.5675 135.543C61.951 141.654 61.5638 146.769 59.214 153.753C58.0547 157.134 56.6396 160.33 53.0332 167.72C49.2373 175.435 47.4409 179.511 46.1162 183.373C42.4165 194.13 42.8704 202.375 47.519 209.185C49.0663 211.442 51.7287 214.12 54.01 215.7C56.4068 217.348 60.5461 219.341 63.3177 220.194C71.7609 222.762 82.544 222.952 96.9407 220.795C102.65 219.932 119.723 215.866 132.193 212.384C133.044 212.151 133.225 212.151 133.277 212.381C133.329 212.611 133.197 212.681 132.569 212.742L132.575 212.739ZM129.893 209.032C128.535 209.339 122.445 210.785 116.392 212.236C102.893 215.454 98.1524 216.312 90.387 216.954C75.8381 218.151 65.5056 216.027 58.3657 210.426C50.6761 204.357 47.9201 194.873 50.6358 183.694C51.7442 179.128 53.0412 175.649 56.9763 166.801C61.0766 157.525 62.4691 153.796 63.5493 149.263C64.7708 144.054 64.9079 140.154 63.9925 135.453C63.1461 131.061 61.9623 128.156 59.2573 123.836C54.9569 116.972 48.6306 110.609 35.0169 99.4428C26.4682 92.4128 23.5849 89.8497 19.8666 85.9904C15.8006 81.7626 13.1745 78.0827 11.2377 73.8844C9.99922 71.2476 8.81979 66.2587 8.7978 63.616C8.7566 59.6034 9.7243 55.5338 11.6454 51.6406C17.1146 40.6575 30.1267 30.7621 51.1344 21.6241C60.3888 17.6067 76.349 11.6013 83.8446 9.32595C85.1516 8.92239 86.3558 8.50203 86.5258 8.38338C86.9617 8.056 87.0305 8.06716 87.1289 8.50149C87.2071 8.84688 87.1401 8.91624 86.7317 8.92776C84.7646 8.95657 62.5765 17.1649 51.9896 21.766C30.847 30.9613 17.7669 40.9664 12.1821 52.191C8.02544 60.5649 8.46005 68.6388 13.4853 76.9105C17.1281 82.9002 22.1708 87.9552 35.2651 98.7146C48.8788 109.881 55.2041 116.245 59.5046 123.108C62.3073 127.567 63.3672 130.217 64.3816 135.351C65.4606 140.698 65.3884 144.304 64.0859 149.814C63.0058 154.346 61.6133 158.075 57.513 167.351C54.5514 174.03 53.7314 176.003 52.649 179.205C48.881 190.314 49.3062 198.148 54.0627 204.922C58.4579 211.185 66.5521 215.334 76.4299 216.39C83.8123 217.179 91.9237 216.754 102.225 215.03C107.151 214.197 122.925 210.505 131.17 208.262C132.065 208.006 132.293 207.994 132.339 208.199C132.389 208.417 132.022 208.54 129.897 209.034L129.893 209.032ZM118.849 207.473C108.442 209.816 105.567 210.413 102.701 210.833C89.9905 212.662 80.863 212.522 73.4939 210.418C70.396 209.52 66.3282 207.537 64.1877 205.859C61.4879 203.741 59.7453 201.635 58.1737 198.617C56.9883 196.359 55.8167 191.26 55.8097 188.319C55.7893 182.638 57.3064 176.769 61.6942 165.655C65.1734 156.829 66.6872 152.118 67.5065 147.591C69.6486 135.842 66.6386 126.106 57.4259 114.98C53.6408 110.393 48.5362 105.353 39.1414 96.9145C26.4475 85.5048 21.978 80.4316 18.6685 73.6702C17.8024 71.8764 17.5648 71.1915 16.8863 68.2668C15.984 64.3578 15.9012 62.7529 16.437 59.4567C16.8758 56.8174 17.4598 54.9641 18.6382 52.6139C21.0963 47.7029 24.7754 43.4687 30.5338 38.8989C36.0688 34.5141 44.5471 29.7451 53.7568 25.8188C62.549 22.0805 74.6584 17.7398 84.2461 14.8973C86.0945 14.3445 87.7653 13.8043 87.9382 13.6984C88.1716 13.567 88.274 13.5823 88.329 13.8253C88.3926 14.1063 88.1975 14.1906 86.0125 14.7796C82.8988 15.6322 76.1753 17.8263 70.3735 19.8793C46.6925 28.2511 33.0029 35.9202 24.2188 45.7315C21.4526 48.8309 18.8612 53.1528 17.7826 56.462C17.1441 58.4352 16.6284 61.7529 16.643 63.7771C16.6564 66.3817 17.6392 70.2859 18.9145 72.941C22.2013 79.6832 26.6756 84.7734 39.3909 96.1829C51.2215 106.812 56.7202 112.502 60.912 118.449C67.4949 127.766 69.8359 137.088 68.1651 147.293C67.3658 152.259 65.9374 156.776 62.2325 166.203C57.8759 177.257 56.3334 183.158 56.3422 188.788C56.3369 191.598 57.2816 195.699 58.4187 197.888C59.9875 200.893 61.7337 203.011 64.4325 205.129C66.5945 206.83 71.0703 209.016 74.2021 209.92C81.6238 212.044 90.8131 212.168 103.612 210.292C106.675 209.854 109.246 209.313 118.821 207.145C125.173 205.707 130.588 204.414 130.873 204.295C131.289 204.094 131.407 204.108 131.459 204.337C131.52 204.606 130.913 204.757 118.847 207.475L118.849 207.473ZM125.326 202.445C106.445 206.585 96.8725 207.824 87.5206 207.347C84.3946 207.195 79.2918 206.307 76.9239 205.512C65.1917 201.567 59.8549 192.158 61.9889 179.134C62.6014 175.447 63.6184 171.802 66.3205 163.757C68.871 156.137 70.0603 151.943 70.716 148.302C72.2196 139.977 71.3548 132.377 68.0703 125.136C65.5783 119.652 61.2205 113.528 54.9968 106.764C52.4452 103.995 50.8979 102.463 44.4639 96.2046C38.1597 90.0779 36.223 88.1367 34.1461 85.865C29.785 81.0588 26.8104 76.8535 25.0059 72.9735C23.7917 70.372 22.706 65.7925 22.7031 63.2524C22.6677 57.9376 24.3668 53.4538 28.2991 48.4503C35.7956 38.9164 49.1094 31.3221 72.4354 23.2696C76.3993 21.8881 82.2309 20.0437 86.0752 18.9313C87.4627 18.5229 88.7358 18.1137 88.9087 18.0077C89.1421 17.8763 89.2474 17.9043 89.2995 18.1346C89.3631 18.4156 89.2156 18.4891 88.0473 18.7803C84.7631 19.5914 75.5022 22.5753 69.2219 24.8301C52.1277 30.9854 41.1455 36.8721 33.2084 44.1128C30.5225 46.5622 26.9904 51.0854 25.6651 53.8051C21.9052 61.3905 22.4905 68.4088 27.5626 76.4278C30.674 81.3817 34.0994 85.1769 44.7044 95.4782C55.3093 105.78 58.9603 109.792 63.1823 115.704C67.6996 122.075 69.8995 126.994 71.1941 133.73C71.9721 137.748 72.1264 140.173 71.8461 144.094C71.4713 149.34 70.3427 153.87 66.8511 164.312C63.265 174.99 62.1634 179.648 62.0636 184.362C61.8866 192.95 65.7647 199.398 73.428 203.243C76.5048 204.778 79.0781 205.607 82.8361 206.222C89.3434 207.289 96.1497 207.2 105.398 205.912C110.293 205.234 119.241 203.491 125.62 201.979C129.975 200.94 130.653 200.813 130.699 201.017C130.749 201.235 130.034 201.423 125.312 202.452L125.326 202.445ZM129.254 197.563C128.901 197.603 125.961 198.201 122.71 198.883C109.794 201.62 101.105 202.619 93.104 202.293C74.4459 201.558 65.5915 191.853 68.1899 174.997C68.7209 171.531 69.179 169.558 71.1304 162.409C72.056 159.014 73.0646 155.116 73.3814 153.754C76.1164 141.858 75.5275 132.864 71.4095 123.54C68.9475 117.968 64.4103 111.294 58.3581 104.397C56.8702 102.691 55.4986 101.227 45.8984 91.0616C36.1577 80.7257 32.4832 75.3209 30.7121 68.7322C28.3576 60.0036 31.2262 52.4054 39.6668 45.0099C41.9426 43.0015 47.1772 39.385 50.2016 37.7054C59.6961 32.4242 71.997 27.6904 89.3422 22.6484C90.129 22.4161 90.2755 22.4096 90.3334 22.6653C90.3855 22.8956 90.2875 22.972 89.816 22.9977C88.3716 23.0827 75.7621 27.1743 68.9111 29.7737C58.5345 33.7088 51.6126 37.1305 45.5136 41.3577C41.9169 43.8522 39.4712 45.9116 37.0927 48.48C31.3518 54.6584 29.1942 61.9778 31.0976 68.6418C32.8585 74.7486 36.7627 80.3703 46.139 90.3313C55.7429 100.495 57.111 101.961 58.5999 103.667C65.8928 112.003 70.5378 119.276 73.0728 126.333C73.9265 128.72 75.222 134.664 75.4218 137.159C75.7662 141.221 75.6232 144.658 74.9061 149.117C74.3411 152.727 73.6613 155.608 71.6578 162.959C69.7063 170.107 69.2491 172.08 68.7183 175.547C68.2341 178.643 68.1505 181.468 68.4678 184.248C69.0028 189.157 71.8059 193.763 76.0834 196.749C77.9403 198.049 81.4623 199.658 83.9223 200.351C93.0562 202.92 106.041 202.226 124.048 198.216C129.28 197.059 129.771 196.974 129.826 197.217C129.872 197.422 129.758 197.501 129.246 197.563L129.254 197.563ZM128.719 193.676C128.533 193.651 126.41 194.011 124.012 194.46C104.255 198.153 92.2491 198.008 84.1838 193.987C79.0663 191.435 76.04 187.51 74.7402 181.769C73.5386 176.461 73.8761 171.924 76.3356 159.982C78.3578 150.173 78.9798 145.081 78.8574 139.666C78.7633 135.614 78.4324 133.283 77.3549 129.105C75.7291 122.793 73.1388 117.384 68.6092 110.815C65.1766 105.826 62.8057 102.908 54.2641 93.1474C48.6711 86.752 45.7897 83.251 43.8065 80.4472C38.0846 72.3199 36.1574 65.0412 38.0368 58.7413C41.1462 48.4268 53.4171 39.6408 76.0842 31.5118C79.7813 30.1907 85.483 28.349 88.3462 27.557C89.461 27.2504 90.5702 26.9191 90.7933 26.8144C91.1107 26.6891 91.2473 26.7116 91.2811 26.9326C91.3361 27.1756 91.1254 27.2634 89.3945 27.6819C87.0748 28.248 81.3362 30.0847 76.9393 31.6577C65.4695 35.7735 57.0505 39.854 50.7326 44.3492C46.8387 47.1255 44.4867 49.3782 42.0511 52.6449C36.6267 59.9242 36.496 67.2625 41.6375 75.9526C44.1688 80.2316 46.8331 83.6474 54.5105 92.4205C64.7879 104.181 68.3392 108.753 71.9112 114.867C75.0141 120.216 76.3173 123.359 77.7485 129.027C80.215 138.832 80.0378 145.096 76.871 160.532C74.9745 169.725 74.4672 173.67 74.6535 177.836C75.0882 187.456 81.015 193.587 92.1223 195.857C97.8972 197.037 106.801 196.835 117.073 195.276C121.142 194.651 128.293 193.328 128.643 193.128C128.803 193.039 128.92 193.119 128.97 193.336C129.03 193.605 128.948 193.691 128.717 193.676L128.719 193.676ZM127.71 189.361C127.514 189.366 125.969 189.594 124.272 189.871C118.678 190.802 114.767 191.257 110.362 191.502C92.3736 192.444 82.9808 187.366 81.0309 175.627C80.2796 171.146 80.4171 167.324 81.7075 157.477C83.2808 145.319 83.4076 139.846 82.2922 132.451C81.4078 126.508 78.9133 119.706 75.2691 113.341C71.9286 107.524 68.5743 102.88 60.3127 92.6127C52.3125 82.7024 49.431 78.476 47.1867 73.3784C46.3355 71.421 45.2517 66.8677 45.2139 65.1151C45.1425 60.8034 46.4603 57.1046 49.4367 53.3258C54.3104 47.1008 63.265 41.5387 76.8459 36.2865C80.7178 34.7914 84.8074 33.3838 88.6691 32.1952C90.2546 31.7153 91.7063 31.2255 91.8789 31.1188C92.1247 30.9697 92.2148 31.0027 92.2658 31.3C92.3504 31.6738 92.3217 31.6913 90.4656 32.1382C84.8494 33.4883 73.1301 38.0118 66.3197 41.435C61.4923 43.8725 56.6872 47.0571 53.5614 49.8882C51.3798 51.8752 48.5877 55.4505 47.5657 57.5499C44.8236 63.238 45.209 68.7156 48.8576 75.6053C50.8919 79.4325 53.9712 83.7352 60.5525 91.8833C68.8149 102.15 72.1684 106.794 75.5089 112.611C79.2413 119.146 81.7482 126.079 82.7673 132.689C83.9446 140.286 83.8324 145.674 82.2377 158.025C80.4378 171.871 80.7324 176.66 83.6593 181.673C87.7007 188.554 96.7662 191.69 110.648 191.034C115.218 190.806 121.989 189.985 126.112 189.16C127.716 188.837 127.928 188.827 127.987 189.085C128.033 189.289 127.95 189.375 127.704 189.364L127.71 189.361ZM126.637 184.55C126.42 184.533 125.117 184.667 123.759 184.84C108.251 186.883 97.8249 185.149 92.4806 179.635C91.1736 178.291 90.1647 176.812 89.327 174.932C88.7445 173.666 88.4963 172.714 87.9227 169.819C87.0733 165.482 87.0049 163.441 87.4199 153.938C87.8392 144.676 87.8322 141.518 87.4058 136.305C87.1486 133.205 85.2507 124.534 84.2261 121.81C80.75 112.556 77.093 106.354 66.7575 92.1611C58.6288 81.0344 56.1548 76.711 54.6773 71.1309C53.2646 65.7649 53.6436 61.9155 55.9882 57.7422C59.1862 52.0451 66.2907 46.7266 77.1942 41.8526C81.6457 39.8632 89.5985 36.9225 91.9921 36.3806C92.4141 36.2851 92.7907 36.133 92.8314 36.0334C92.984 35.6892 93.2945 35.7541 93.3842 36.1503C93.4653 36.5084 93.3953 36.5643 92.9054 36.5809C92.2254 36.6272 86.8002 38.4472 83.3057 39.8026C75.6433 42.7876 68.4145 46.6018 64.0669 49.9916C55.8709 56.3636 52.9403 63.1836 55.062 70.9558C56.4576 76.0302 59.1844 80.7357 67.0014 91.4363C76.0455 103.849 79.6757 109.711 82.7215 116.777C84.6745 121.348 85.1285 122.755 86.4583 128.7C88.3918 137.241 88.5761 140.601 87.9543 154.492C87.5635 163.372 87.635 166.084 88.3106 169.721C88.9119 172.959 89.6333 174.839 91.0102 176.853C95.6861 183.63 105.642 186.269 120.879 184.769C122.358 184.622 124.277 184.376 125.146 184.219C126.584 183.961 126.749 183.964 126.881 184.256C126.992 184.527 126.941 184.592 126.635 184.554L126.637 184.55ZM125.187 179.166C124.879 179.182 123.493 179.308 122.12 179.417C111.001 180.362 102.529 178.032 98.3152 172.857C96.1272 170.166 95.0406 167.547 94.1388 162.766C93.4767 159.26 93.3096 157.067 92.9967 148.495C92.5887 136.812 91.7738 130.451 89.8705 124.148C86.7296 113.689 83.5661 107.564 72.6747 90.915C69.4477 85.9598 66.7606 81.353 65.3897 78.424C64.1372 75.7212 62.6718 70.4103 62.5967 68.263C62.3668 61.7286 65.4537 56.4732 72.5736 51.3084C77.2898 47.8752 83.4867 44.8054 91.042 42.1409C92.554 41.6108 93.9457 41.0905 94.1221 41.0003C94.3453 40.8956 94.4695 40.9351 94.5185 41.1519C94.5735 41.3948 94.4319 41.4945 93.7459 41.6631C92.534 41.9776 87.4578 43.893 85.2277 44.8686C73.4407 50.0519 66.2019 56.2189 63.9058 63.003C62.8864 66.0559 62.8831 68.9471 63.8951 72.7637C65.0822 77.2102 67.4779 81.8319 72.9211 90.1834C83.8405 106.879 87.0079 113.031 90.1332 123.493C92.2365 130.53 93.1105 137.094 93.5316 149.042C93.8276 157.107 94.0156 159.74 94.56 162.735C95.7712 169.612 98.7535 173.775 104.342 176.448C107.786 178.074 111.456 178.883 116.303 179.077C118.893 179.189 123.342 179.002 124.774 178.718C125.437 178.595 125.639 178.616 125.688 178.834C125.735 179.038 125.621 179.118 125.186 179.162L125.187 179.166ZM123.712 171.704C123.505 171.657 122.61 171.631 121.74 171.64C118.025 171.648 113.848 170.779 111.145 169.442C107.604 167.676 104.936 164.758 103.151 160.713C102.11 158.367 100.434 150.964 99.8949 146.329C98.7464 136.534 98.4038 134.367 96.998 128.086C95.924 123.342 95.3475 121.16 94.5874 118.965C91.8971 111.294 89.2432 105.672 83.7372 95.8804C76.9647 83.8375 75.1043 79.8232 73.9783 74.8497C72.6247 68.7983 73.5574 64.1242 77.0255 59.6831C80.1623 55.666 86.1178 51.6025 92.9132 48.8562C94.2378 48.3143 95.472 47.8054 95.6479 47.7129C95.8867 47.6054 95.9952 47.6476 96.0502 47.8906C96.1081 48.1462 96.0004 48.2516 95.4842 48.3684C94.483 48.5951 91.0465 50.126 88.5801 51.4364C81.1087 55.4132 76.1218 60.5612 74.5393 65.92C73.5117 69.4455 73.7638 73.6094 75.2768 77.8234C76.7008 81.7888 78.6226 85.6281 83.9868 95.1535C89.4894 104.93 92.1249 110.543 94.8379 118.238C95.6284 120.495 96.1916 122.623 97.3919 127.997C98.9568 134.981 99.2371 136.652 100.433 146.876C100.971 151.432 102.386 157.685 103.4 159.982C105.733 165.274 109.658 168.66 115.193 170.175C117.843 170.907 122.429 171.401 123.572 171.075C123.804 171.009 123.939 171.099 124.003 171.38C124.075 171.7 124.021 171.753 123.714 171.701L123.712 171.704ZM121.119 159.159C120.982 159.162 120.851 159.136 120.74 159.083C120.594 159.022 120.024 158.828 119.475 158.657C117.269 157.92 114.586 155.584 112.856 152.884C110.617 149.383 109.874 147.12 106.625 133.716C105.124 127.536 103.557 121.399 103.125 120.058C100.965 113.222 98.6492 107.496 94.2857 98.1604C88.9179 86.7269 88.0649 84.5585 86.9792 79.8532C86.1793 76.3917 86.0404 74.9041 86.2656 72.3398C86.6206 68.2405 88.3057 64.8617 91.5685 61.6899C92.9309 60.3732 95.289 58.6566 96.6845 57.9909C97.128 57.7695 97.5813 57.5191 97.6765 57.4166C97.9379 57.1162 98.1453 57.1628 98.2321 57.5463C98.2988 57.8408 98.2095 57.9553 97.865 58.0333C97.3023 58.1607 95.3676 59.3508 94.0563 60.3887C90.8767 62.9098 88.2214 66.6026 87.3223 69.8035C86.4923 72.7467 86.5149 75.9008 87.3716 79.685C88.3038 83.8026 89.3414 86.3497 94.5312 97.4337C98.8985 106.768 101.215 112.494 103.371 119.331C103.805 120.671 105.375 126.808 106.87 132.989C108.366 139.17 109.876 145.024 110.225 146.007C111.919 150.785 113.853 153.895 116.449 155.983C117.875 157.125 119.903 158.238 120.528 158.232C120.902 158.214 121.043 158.33 121.122 158.675C121.179 158.931 121.163 159.15 121.116 159.16L121.119 159.159Z" fill="#A8CFC4" fill-opacity="0.6"/>
</svg>
