<svg width="130" height="157" viewBox="0 0 130 157" fill="none" xmlns="http://www.w3.org/2000/svg">
<path d="M177.106 130.703C176.716 130.593 173.714 129.067 170.461 127.324C163.466 123.593 158.094 120.855 146.403 115.066C135.218 109.517 130.899 107.28 126.149 104.528C117.691 99.6171 112.938 95.8367 109.484 91.3096C108.483 90.0043 108.232 89.5258 107.216 86.9C106.202 84.3252 106.046 83.7927 105.967 82.4795C105.516 75.4637 110.306 68.2495 122.238 58.0139C128.576 52.5759 135.908 47.1901 140.893 44.3177C141.92 43.7284 142.962 43.1332 143.217 42.9824C143.576 42.7557 143.715 42.7724 143.815 43.0298C143.914 43.2871 143.757 43.4368 143.008 43.7615C139.75 45.1623 129.939 52.2574 123.103 58.1145C111.135 68.3848 106.158 75.9302 106.62 83.0993C106.754 85.2808 107.995 88.3605 109.552 90.4108C112.966 94.9188 117.752 98.703 126.217 103.629C130.971 106.381 135.287 108.618 146.471 114.166C158.162 119.956 163.508 122.668 170.691 126.502C174.031 128.299 176.905 129.751 177.073 129.756C177.255 129.756 177.482 130 177.611 130.333L177.839 130.922L177.106 130.703ZM173.703 120.503C173.387 120.625 171.379 120.005 168.977 119.05C163.306 116.778 149.383 109.235 139.935 103.311C132.671 98.7577 126.781 93.8296 124.094 90.0882C123.048 88.6256 122.724 88.0001 121.828 85.7297C120.67 82.7391 120.472 81.6291 120.71 79.0412C121.069 74.9759 123.254 70.7618 127.664 65.6356C132.172 60.4214 138.826 54.7348 144.112 51.5725C145.039 51.0218 145.905 50.4418 146.036 50.2696C146.382 49.8389 146.451 49.8467 146.663 50.3933C146.804 50.7572 146.756 50.8982 146.542 50.8932C145.81 50.8804 140.362 54.6465 136.842 57.5975C129.085 64.1081 123.644 71.0487 121.969 76.5836C120.976 79.8649 121.052 82.6629 122.2 85.5868C124.963 92.5977 133.988 99.6099 155.476 111.415C163.181 115.658 172.487 119.979 173.101 119.602C173.204 119.527 173.401 119.695 173.542 119.972C173.683 120.249 173.756 120.483 173.699 120.505L173.703 120.503ZM168.831 108.216C168.809 108.226 168.785 108.231 168.761 108.231C168.737 108.231 168.713 108.226 168.691 108.216C168.669 108.207 168.649 108.193 168.633 108.176C168.616 108.159 168.603 108.138 168.595 108.116C168.56 108.027 168.209 107.934 167.841 107.919C166.852 107.883 160.749 104.922 157.597 102.966C151.245 99.0197 145.866 94.5574 142.824 90.7094C138.202 84.8713 137.081 79.0747 139.471 73.211C140.541 70.5978 141.623 68.8698 143.706 66.4402C145.332 64.5373 148.791 61.4353 149.653 61.1018C149.897 61.0073 150.107 60.8241 150.123 60.6934C150.204 60.2612 150.512 60.3335 150.7 60.8189C150.853 61.2138 150.81 61.3172 150.502 61.3322C149.865 61.3512 146.71 64.1265 144.701 66.4043C138.945 72.9606 137.335 80.4602 140.441 86.1339C142.118 89.1847 144.638 92.1531 147.977 95.0146C150.532 97.2193 154.557 100.147 157.649 102.074C160.949 104.112 167.674 107.356 168.205 107.15C168.492 107.039 168.626 107.127 168.796 107.568C168.92 107.886 168.93 108.178 168.832 108.216L168.831 108.216ZM141.126 37.9626C140.787 38.1111 139.498 38.8374 138.273 39.5555C128.267 45.5049 110.832 58.8505 103.735 65.9961C99.552 70.2152 97.4674 73.1516 95.9251 76.978C94.4361 80.643 94.2243 82.7852 94.9746 86.0895C96.0945 91.0313 101.879 97.0125 110.96 102.59C117.073 106.346 125.717 110.578 141.72 117.647C159.046 125.321 165.119 128.467 171.082 132.895C172.803 134.184 176.404 137.38 176.551 137.76C176.585 137.849 176.4 138.01 176.141 138.11C175.825 138.233 175.68 138.201 175.685 137.99C175.673 137.576 172.375 134.733 169.739 132.874C163.91 128.743 157.217 125.365 138.892 117.293C130.43 113.569 120.75 109.009 116.674 106.8C104.519 100.28 97.4815 94.0535 95.008 87.6632C92.3057 80.6819 94.6502 74.19 102.872 65.8936C110.218 58.4953 127.804 45.1089 138.051 39.1007C139.626 38.1769 141.047 37.3124 141.192 37.1868C141.384 37.0422 141.514 37.0795 141.614 37.3368C141.72 37.6102 141.612 37.7571 141.128 37.9615L141.126 37.9626ZM138.855 32.7336C135.579 34.176 125.134 41.2078 110.699 51.6777C98.7017 60.3875 92.9986 65.1082 88.8199 69.797C86.0211 72.9394 83.9332 76.5924 83.1398 79.7095C81.6244 85.6541 83.4758 90.522 89.4438 96.2923C94.4064 101.091 100.503 104.891 111.901 110.305C119.649 113.973 124.093 115.865 136.889 120.912C153.968 127.653 159.905 130.485 165.434 134.523C167.328 135.919 169.684 137.991 170.391 138.923C170.679 139.282 171.042 139.666 171.195 139.762C171.436 139.914 171.378 139.971 170.955 140.083C170.532 140.194 170.374 140.116 170.166 139.707C169.841 139.082 167.466 136.965 165.368 135.421C159.813 131.358 153.477 128.349 136.313 121.566C123.602 116.556 119.071 114.627 111.582 111.069C104.825 107.869 100.925 105.77 97.1989 103.321C89.3823 98.1956 84.5113 92.8241 82.7822 87.4171C81.0949 82.1184 82.1148 77.4135 86.1074 71.9765C89.7741 66.9787 96.0834 61.553 109.831 51.5697C122.598 42.2994 131.282 36.3904 136.221 33.5714C137.576 32.8021 138.844 32.0675 139.036 31.9228C139.329 31.74 139.453 31.7614 139.553 32.0196C139.659 32.2929 139.516 32.4358 138.853 32.7274L138.855 32.7336ZM137.673 27.5884C137.528 27.6551 137.376 27.7078 137.221 27.7457C136.758 27.8729 133.495 29.7646 130.52 31.6486C127.388 33.6295 96.086 55.0298 91.5765 58.2763C82.9038 64.5127 77.8457 69.1582 74.8241 73.644C73.6494 75.3894 72.1255 79.0516 71.8136 80.8478C71.5017 82.644 71.6073 85.0979 72.0865 87.1113C73.5144 93.1033 80.6857 100.328 91.2198 106.407C101.011 112.059 111.488 116.505 133.706 124.435C144.478 128.276 148.151 129.699 152.347 131.618C157.684 134.054 161.086 136.141 164.357 138.958C165.126 139.621 166.805 141.396 166.899 141.639C166.911 141.67 166.73 141.757 166.485 141.852C166.155 141.98 166.028 141.906 165.893 141.557C165.681 141.011 163.996 139.517 161.658 137.789C156.492 133.972 150.31 131.221 133.135 125.094C118.968 120.037 112.266 117.447 104.585 114.067C85.0233 105.444 73.9125 96.2889 71.5377 86.8238C70.6118 83.1507 70.8063 80.2836 72.2197 76.8918C74.5541 71.3108 79.8578 65.9764 91.0418 57.9485C95.8666 54.4923 127.174 33.1071 130.072 31.2874C131.36 30.4747 133.425 29.2385 134.686 28.5241C135.946 27.8098 137.094 27.1034 137.236 26.9614C137.432 26.7836 137.541 26.8079 137.658 27.1122C137.746 27.3394 137.745 27.5493 137.679 27.592L137.673 27.5884ZM135.268 23.2132C133.32 24.0693 128.306 27.2518 119.961 32.9245C109.773 39.8528 104.94 43.0324 94.4674 49.7392C80.1138 58.9245 75.2216 62.3364 70.5689 66.4067C65.8095 70.5876 62.8081 74.9431 61.6915 79.2843C61.0078 81.957 61.0267 84.1843 61.7577 87.1819C62.1297 88.696 62.3555 89.2371 63.2987 90.9485C69.0667 101.282 82.8272 110.284 107.167 119.64C112.101 121.535 121.793 124.869 130.761 127.752C144.369 132.135 150.138 134.319 154.43 136.741C156.999 138.173 160.15 140.423 161.483 141.777C161.971 142.269 162.519 142.789 162.682 142.953C162.958 143.196 162.927 143.242 162.478 143.364C162.115 143.451 161.919 143.371 161.785 143.109C161.404 142.296 157.781 139.598 154.66 137.806C149.942 135.094 144.685 133.08 130.189 128.412C103.073 119.692 88.162 113.354 77.1472 105.853C65.613 97.9943 59.8348 89.2547 60.6171 80.9052C61.0756 76.1555 64.1769 71.1501 69.7032 66.3061C74.3571 62.2364 79.2484 58.8248 93.6025 49.6382C104.127 42.8943 108.996 39.683 119.105 32.8038C126.01 28.1068 129.849 25.6436 133.235 23.7217C134.305 23.1155 135.313 22.5162 135.467 22.4044C135.654 22.2446 135.784 22.282 135.883 22.5393C135.995 22.8277 135.881 22.9596 135.269 23.214L135.268 23.2132ZM133.298 18.9322C131.812 19.5764 127.053 22.5186 122.163 25.8072C103.363 38.5301 100.924 40.084 84.5071 49.8722C65.4473 61.2454 60.1016 65.0605 55.8884 70.2687C50.4823 76.9162 49.7925 84.6523 53.9241 91.7425C59.1165 100.588 69.0716 108.253 85.142 115.751C96.9523 121.249 107.419 124.984 127.637 130.908C145.574 136.189 150.286 138.031 155.641 141.964C156.8 142.822 158.718 144.488 158.818 144.746C158.83 144.776 158.626 144.89 158.382 144.984C158.065 145.107 157.895 145.05 157.795 144.793C157.601 144.291 154.64 142.104 152.223 140.684C147.437 137.877 142.613 136.131 127.069 131.572C106.997 125.691 96.417 121.918 84.8294 116.526C68.9737 109.154 58.9747 101.419 53.825 92.5401C52.4033 90.1058 51.0351 86.1845 50.7344 83.7877C49.8226 76.096 53.6179 69.7231 63.4127 62.5452C66.6144 60.1896 70.6131 57.6297 77.528 53.4695C102.924 38.1946 101.782 38.9152 121.305 25.7089C125.643 22.79 130.313 19.8661 132.421 18.7878C133.067 18.451 133.603 18.0863 133.611 17.9784C133.68 17.6024 133.998 17.6542 134.162 18.0792C134.309 18.4582 134.226 18.5433 133.304 18.9349L133.298 18.9322ZM132.423 14.4537C131.627 14.4473 125.913 18.0386 116.642 24.3494C101.433 34.7393 94.0675 39.2301 74.0435 50.3276C60.9316 57.6017 56.4388 60.3356 52.4329 63.4749C45.359 69.0217 41.9775 75.1532 42.2883 81.8694C42.4301 85.1817 43.3753 88.3065 45.1916 91.5483C51.9784 103.704 67.6936 114.439 92.337 123.754C102.147 127.46 110.559 130.068 125.563 134.087C135.275 136.68 138.875 137.747 142.444 139.071C147.343 140.875 151.838 143.323 153.948 145.317C154.995 146.313 154.989 146.298 154.458 146.503C154.127 146.631 153.951 146.56 153.717 146.178C153.262 145.429 150.294 143.523 147.356 142.078C142.531 139.687 138.371 138.33 124.99 134.749C109.986 130.731 101.575 128.123 91.7633 124.416C64.7951 114.243 48.5735 102.215 43.2718 88.4731C39.5002 78.7293 42.1244 70.7842 51.5664 63.3776C55.5762 60.2378 60.0654 57.5054 73.1765 50.2316C93.3326 39.0441 100.031 34.9678 115.776 24.2531C123.518 18.988 126.375 17.1486 129.573 15.3355C130.643 14.7292 131.728 14.1175 131.977 13.9507C132.371 13.729 132.475 13.7408 132.604 14.0744C132.71 14.3478 132.656 14.4736 132.422 14.4591L132.423 14.4537ZM130.639 9.71661C130.325 9.71601 126.089 12.1757 123.451 13.895C122.484 14.5139 118.762 17.0191 115.168 19.4743C95.8826 32.6461 85.7996 38.4866 61.4532 50.6327C51.0211 55.8227 47.6314 57.6928 44.0901 60.1982C38.6946 64.0142 35.6402 67.6055 33.876 72.2668C32.617 75.5469 32.2784 78.383 32.7168 82.0356C33.0268 84.6706 34.612 88.9803 36.3483 91.9734C41.4885 100.769 50.3063 108.752 62.8019 115.923C67.0706 118.372 76.8368 122.987 82.3678 125.156C95.3682 130.264 105.864 133.477 122.985 137.586C137.429 141.054 142.542 142.738 147.26 145.589C148.505 146.332 150.234 147.684 150.352 147.987C150.37 148.033 150.185 148.154 149.941 148.248C149.625 148.371 149.454 148.314 149.366 148.087C149.166 147.571 146.107 145.77 143.297 144.485C138.647 142.376 134.705 141.196 122.409 138.242C105.289 134.135 94.7826 130.924 81.7951 125.812C76.2684 123.643 66.9899 119.259 62.739 116.821C50.2479 109.649 41.4299 101.665 36.2851 92.8713C35.1263 90.8597 34.772 90.0714 33.5987 86.8257C32.5021 83.7809 32.2172 82.7881 32.0516 81.4206C30.9357 71.7509 35.5127 64.4968 47.0364 57.6456C50.0147 55.8643 52.6358 54.4834 60.5901 50.5311C84.9481 38.3805 95.0724 32.525 114.305 19.3736C121.741 14.2968 124.159 12.732 127.507 10.7946C128.818 10.043 130.036 9.30547 130.229 9.1652C130.53 8.96093 130.64 8.9887 130.77 9.32236C130.864 9.56551 130.821 9.7207 130.643 9.72036L130.639 9.71661ZM128.624 4.59786C127.809 4.58191 121.676 8.45678 112.449 14.8384C101.296 22.5223 93.7252 27.2896 84.7046 32.2433C73.7205 38.2755 65.735 42.1368 54.0804 47.0296C42.7293 51.8069 40.3364 52.925 36.2538 55.395C23.8183 62.8787 19.755 73.6491 24.6549 86.255C28.5913 96.4248 38.1826 107.075 51.0261 115.542C59.366 121.04 71.5645 126.859 84.2284 131.363C95.899 135.519 105.685 138.261 119.561 141.247C128.324 143.144 131.48 143.912 135.171 145.048C138.415 146.044 143.68 148.422 144.424 149.233C144.688 149.533 144.966 149.737 145.053 149.704C145.099 149.692 145.148 149.697 145.191 149.72C145.233 149.743 145.265 149.78 145.281 149.826C145.322 149.931 145.113 150.117 144.823 150.23C144.391 150.396 144.247 150.365 144.124 150.046C143.889 149.439 137.969 146.739 134.59 145.691C130.9 144.568 127.745 143.802 118.986 141.905C105.108 138.917 95.3243 136.178 83.6534 132.021C71.0293 127.535 59.2526 121.92 50.9564 116.439C40.2906 109.416 31.8648 100.88 26.9242 92.1285C25.2543 89.1801 23.1375 83.8384 22.5875 81.1892C20.3327 70.3348 24.5238 61.8189 35.3811 55.295C39.4646 52.8247 41.8563 51.7061 53.2082 46.9284C64.8613 42.0342 72.8502 38.1736 83.8329 32.143C92.9687 27.1059 100.227 22.5507 112.23 14.2924C119.626 9.19611 122.952 7.03517 125.834 5.43178C126.962 4.8026 128.041 4.17575 128.239 4.04703C128.54 3.84275 128.65 3.87054 128.773 4.18912C128.879 4.46243 128.825 4.58745 128.617 4.59849L128.624 4.59786ZM125.808 -1.48513C123.586 -0.523105 118.234 2.89527 110.157 8.53477C95.219 18.9412 85.2594 24.9258 72.0193 31.4822C63.6828 35.5988 53.0792 39.7898 43.4499 42.7844C34.2627 45.6426 30.3578 47.2061 26.1896 49.6694C14.6686 56.4849 10.2253 66.7739 13.2523 79.5466C14.008 82.6927 16.4166 88.5316 18.22 91.5681C24.5717 102.303 33.992 111.955 45.5611 119.607C56.6119 126.9 70.5399 133.132 88.0816 138.628C97.9519 141.72 104.228 143.286 116.374 145.689C128.101 147.986 131.045 148.718 135.437 150.422C136.836 150.962 138.711 152.051 138.852 152.415C138.876 152.476 138.693 152.599 138.434 152.699C138.133 152.816 137.878 152.757 137.659 152.489C136.944 151.666 131.856 149.831 127.08 148.678C125.52 148.317 120.448 147.258 115.804 146.351C103.656 143.95 97.3883 142.397 87.5125 139.291C59.7795 130.602 41.586 120.349 28.1158 105.824C24.3406 101.728 20.9983 97.2559 18.1415 92.4771C16.3449 89.4553 13.383 82.1898 12.61 78.9116C11.1105 72.6555 11.4211 66.8406 13.4923 62.0247C14.9999 58.4923 18.2591 54.5778 21.9052 51.8748C26.9762 48.115 32.4364 45.7046 44.1078 42.0941C53.5219 39.1838 62.818 35.4978 71.1544 31.3813C84.3956 24.8275 94.3536 18.8415 109.292 8.43382C116.177 3.64037 119.813 1.25544 123.091 -0.607158C124.489 -1.39213 125.765 -2.15212 125.92 -2.26039C126.107 -2.42017 126.237 -2.38285 126.337 -2.1246C126.448 -1.83619 126.334 -1.70522 125.808 -1.48424L125.808 -1.48513ZM122.588 -10.5702C121.468 -10.4336 114.661 -6.12345 106.546 -0.39981C92.0966 9.81854 83.2032 15.3547 71.9314 21.1493C66.1858 24.1059 62.2192 25.8514 57.1137 27.6878C50.431 30.1 47.6921 30.7928 37.1959 32.6567C27.8593 34.3165 26.8491 34.5678 21.5532 36.635C17.5159 38.1977 16.7136 38.5603 14.8996 39.7206C8.94201 43.4929 5.06527 47.8209 2.92869 53.0978C0.354578 59.4174 0.252822 66.7167 2.61305 75.8028C3.28379 78.3879 5.91013 85.1731 7.31305 87.9453C14.0797 101.33 24.5835 113.739 36.6989 122.715C49.022 131.833 65.0007 139.139 86.3768 145.407C96.1246 148.267 101.906 149.588 115.933 152.152C122.21 153.3 126.374 154.324 128.203 155.168C128.993 155.543 129.673 155.892 129.696 155.952C129.726 156.028 129.543 156.151 129.298 156.246C129.011 156.357 128.402 156.192 127.516 155.783C125.816 154.975 121.58 153.946 115.361 152.809C101.334 150.246 95.5522 148.924 85.8053 146.064C64.4854 139.814 48.911 132.701 36.6365 123.613C24.5282 114.652 14.0763 102.292 7.25156 88.8425C5.82765 86.0611 2.62562 77.7886 1.94993 75.188C-1.85012 60.3758 0.753124 49.9441 10.1649 42.3747C13.7691 39.4786 15.4629 38.5608 21.4056 36.2432C27.5128 33.8793 28.2178 33.6941 37.7726 32.0028C47.8811 30.2013 50.9171 29.4659 56.972 27.311C65.5007 24.2894 76.7902 18.4533 89.245 10.6356C93.7817 7.798 98.2836 4.74631 105.77 -0.542161C112.284 -5.14087 115.679 -7.37962 119.224 -9.36285C120.745 -10.2129 122.111 -11.0385 122.247 -11.1965C122.608 -11.6321 122.663 -11.6185 122.868 -11.0878C123.027 -10.6779 122.973 -10.6038 122.592 -10.5617L122.588 -10.5702Z" fill="#A8CFC4" fill-opacity="0.6"/>
</svg>
