<svg width="32" height="32" viewBox="0 0 32 32" fill="none" xmlns="http://www.w3.org/2000/svg">
<g clip-path="url(#clip0_0_289)">
<path d="M0.893683 18.3128L2.98189 18.6551C3.31181 20.254 3.94319 21.7756 4.84229 23.1385L3.60566 24.8644C3.34908 25.2137 3.35349 25.6903 3.61653 26.0349C3.92834 26.416 4.25967 26.7808 4.60911 27.1277C4.96166 27.4809 5.32506 27.8063 5.69933 28.1209C6.04405 28.3844 6.52137 28.3888 6.87092 28.1317L8.59572 26.8945C9.95722 27.7941 11.4777 28.4259 13.0759 28.756L13.4176 30.8459C13.4827 31.2734 13.8238 31.6056 14.2529 31.6594C14.5501 31.6931 14.8495 31.7137 15.1554 31.7289C15.304 31.7361 15.4491 31.6825 15.5571 31.5803C15.6652 31.4782 15.727 31.3363 15.7282 31.1876V26.8409C15.7266 26.5479 15.4938 26.3084 15.201 26.2985C9.71985 26.0143 5.42139 21.4873 5.42139 15.9988C5.42139 10.5103 9.71985 5.98323 15.201 5.69909C15.4938 5.68917 15.7266 5.44975 15.7282 5.15668V0.813753C15.7274 0.665094 15.6661 0.523153 15.5582 0.42074C15.4504 0.318327 15.3055 0.264417 15.157 0.271346C14.8522 0.283997 14.5508 0.305361 14.2528 0.335335C13.8236 0.393812 13.4839 0.727402 13.4175 1.15543L13.0758 3.24527C11.4777 3.57581 9.95728 4.20772 8.59567 5.10729L6.87087 3.86956C6.52132 3.6124 6.044 3.61681 5.69928 3.88043C5.31918 4.19265 4.9553 4.52414 4.60906 4.87354C4.25699 5.21799 3.92555 5.58292 3.61648 5.96643C3.35233 6.31136 3.34793 6.78931 3.60561 7.13907L4.84223 8.86497C3.94335 10.2273 3.31197 11.7483 2.98184 13.3467L0.893631 13.6885C0.466026 13.7538 0.1338 14.0951 0.080047 14.5243C-0.026723 15.4977 -0.026723 16.4798 0.080047 17.4532C0.128288 17.8895 0.460619 18.2407 0.893683 18.3128Z" fill="#132431"/>
<path d="M15.2095 7.88105C10.9245 8.15249 7.58798 11.707 7.58798 16.0006C7.58798 20.2942 10.9245 23.8487 15.2095 24.1202C15.3458 24.1258 15.4785 24.0753 15.5765 23.9803C15.6745 23.8854 15.7293 23.7544 15.728 23.6179V8.38329C15.7293 8.24681 15.6746 8.11585 15.5765 8.02089C15.4785 7.92593 15.3458 7.87538 15.2095 7.88105Z" fill="#3DDBBF"/>
<path d="M19.5244 8.40716H16.8125V9.49192H19.5244C20.422 9.48924 21.1489 8.76233 21.1516 7.86475V4.51063C21.8987 4.24649 22.3469 3.48246 22.2129 2.70137C22.0789 1.92028 21.4017 1.34937 20.6092 1.34937C19.8167 1.34937 19.1394 1.92028 19.0054 2.70137C18.8714 3.48246 19.3196 4.24649 20.0668 4.51063V7.86475C20.0668 8.16433 19.8239 8.40716 19.5244 8.40716Z" fill="#132431"/>
<path d="M16.8125 11.6615H22.2364C22.536 11.6615 22.7788 11.4186 22.7788 11.1191C22.7788 10.8195 22.536 10.5767 22.2364 10.5767H16.8125V11.6615Z" fill="#132431"/>
<path d="M16.8125 23.594H19.5244C19.824 23.594 20.0668 23.8369 20.0668 24.1364V27.4906C19.3196 27.7547 18.8714 28.5187 19.0055 29.2998C19.1395 30.0809 19.8167 30.6518 20.6092 30.6518C21.4017 30.6518 22.079 30.0809 22.213 29.2998C22.347 28.5187 21.8988 27.7547 21.1516 27.4906V24.1364C21.1489 23.2389 20.422 22.512 19.5245 22.5093H16.8125V23.594H16.8125Z" fill="#132431"/>
<path d="M24.9483 18.1702H16.8125V19.2549H24.9483C25.2479 19.2549 25.4907 19.4978 25.4907 19.7973V22.6091C24.7435 22.8732 24.2954 23.6373 24.4294 24.4184C24.5634 25.1995 25.2406 25.7704 26.0331 25.7704C26.8256 25.7704 27.5029 25.1995 27.6369 24.4184C27.7709 23.6373 27.3227 22.8732 26.5755 22.6091V19.7973C26.5728 18.8998 25.8459 18.1728 24.9483 18.1702Z" fill="#132431"/>
<path d="M30.3722 14.3735C29.6851 14.3764 29.0739 14.8105 28.8448 15.4583H16.8125V16.5431H28.8448C29.122 17.3212 29.9389 17.7674 30.7434 17.5801C31.5479 17.3928 32.0838 16.6317 31.9888 15.8112C31.8938 14.9907 31.1982 14.3721 30.3722 14.3735Z" fill="#132431"/>
<path d="M22.7788 20.882C22.7788 20.5824 22.536 20.3396 22.2364 20.3396H16.8125V21.4244H22.2364C22.536 21.4244 22.7788 21.1816 22.7788 20.882Z" fill="#132431"/>
<path d="M26.5755 12.204V9.39222C27.3227 9.12808 27.7709 8.36405 27.6369 7.58296C27.5029 6.80187 26.8257 6.23096 26.0331 6.23096C25.2406 6.23096 24.5634 6.80187 24.4294 7.58296C24.2954 8.36405 24.7435 9.12808 25.4907 9.39222V12.204C25.4907 12.5036 25.2479 12.7464 24.9483 12.7464H16.8125V13.8312H24.9483C25.8459 13.8284 26.5729 13.1015 26.5755 12.204Z" fill="#132431"/>
</g>
<defs>
<clipPath id="clip0_0_289">
<rect width="32" height="32" fill="white"/>
</clipPath>
</defs>
</svg>
