<svg width="32" height="32" viewBox="0 0 32 32" fill="none" xmlns="http://www.w3.org/2000/svg">
<path fill-rule="evenodd" clip-rule="evenodd" d="M7.7 4.57101L8.33282 6.24929C8.34165 6.27353 8.35744 6.29459 8.37817 6.30979C8.39891 6.32498 8.42367 6.33363 8.44929 6.33464L10.2332 6.42389C10.2607 6.42374 10.2876 6.43241 10.3099 6.44865C10.3321 6.4649 10.3487 6.48786 10.3571 6.51422C10.3656 6.54058 10.3654 6.56896 10.3568 6.59524C10.3481 6.62152 10.3314 6.64434 10.3089 6.66039L8.91971 7.78488C8.89949 7.80085 8.88445 7.8225 8.8765 7.8471C8.86854 7.8717 8.86804 7.89812 8.87506 7.923L9.34288 9.65535C9.35163 9.68166 9.35182 9.71009 9.34341 9.73651C9.335 9.76293 9.31843 9.78595 9.29612 9.80223C9.27382 9.81852 9.24693 9.8272 9.21938 9.82703C9.19183 9.82687 9.16505 9.81785 9.14294 9.80129L7.65147 8.81817C7.63014 8.80375 7.60502 8.79604 7.57932 8.79604C7.55363 8.79604 7.52851 8.80375 7.50718 8.81817L6.01765 9.79934C5.99552 9.81562 5.96884 9.82441 5.94143 9.82445C5.91403 9.82448 5.88732 9.81575 5.86516 9.79952C5.843 9.78329 5.82652 9.7604 5.81811 9.73414C5.8097 9.70788 5.80978 9.67961 5.81835 9.6534L6.28359 7.92235C6.2906 7.89747 6.2901 7.87105 6.28215 7.84645C6.2742 7.82185 6.25916 7.80019 6.23894 7.78423L4.84906 6.65843C4.82742 6.64209 4.8114 6.61933 4.80327 6.59336C4.79514 6.56738 4.7953 6.53948 4.80372 6.5136C4.81215 6.48772 4.82842 6.46515 4.85025 6.44905C4.87207 6.43296 4.89836 6.42416 4.92541 6.42389L6.70612 6.33659C6.73186 6.33571 6.75675 6.32712 6.77762 6.31192C6.79848 6.29672 6.81436 6.27559 6.82323 6.25124L7.45606 4.57297C7.46441 4.54666 7.48085 4.5237 7.50301 4.50742C7.52517 4.49113 7.55189 4.48235 7.57932 4.48235C7.60676 4.48235 7.63348 4.49113 7.65564 4.50742C7.67779 4.5237 7.69423 4.54666 7.70259 4.57297L7.7 4.57101ZM23.5348 4.57101L24.1676 6.24929C24.1765 6.27363 24.1924 6.29476 24.2133 6.30997C24.2341 6.32517 24.259 6.33376 24.2848 6.33464L26.0681 6.42389C26.0956 6.4236 26.1226 6.43217 26.1449 6.44836C26.1673 6.46455 26.184 6.48751 26.1925 6.5139C26.201 6.5403 26.201 6.56874 26.1923 6.59508C26.1837 6.62143 26.1669 6.64431 26.1444 6.66039L24.7545 7.78488C24.7343 7.80085 24.7193 7.8225 24.7113 7.8471C24.7034 7.8717 24.7029 7.89812 24.7099 7.923L25.1777 9.65535C25.1863 9.68156 25.1864 9.70983 25.1779 9.73609C25.1695 9.76236 25.1531 9.78525 25.1309 9.80148C25.1087 9.81771 25.082 9.82644 25.0546 9.8264C25.0272 9.82637 25.0005 9.81757 24.9784 9.80129L23.4882 8.81622C23.4669 8.80179 23.4418 8.79409 23.4161 8.79409C23.3904 8.79409 23.3653 8.80179 23.3439 8.81622L21.8525 9.79934C21.8303 9.81562 21.8037 9.82441 21.7763 9.82445C21.7488 9.82448 21.7221 9.81575 21.7 9.79952C21.6778 9.78329 21.6613 9.7604 21.6529 9.73414C21.6445 9.70788 21.6446 9.67961 21.6532 9.6534L22.1184 7.92235C22.1254 7.89747 22.1249 7.87105 22.117 7.84645C22.109 7.82185 22.094 7.80019 22.0738 7.78423L20.6845 6.65843C20.6621 6.64239 20.6454 6.61957 20.6367 6.59328C20.628 6.567 20.6279 6.53862 20.6363 6.51226C20.6448 6.48591 20.6613 6.46294 20.6836 6.4467C20.7059 6.43046 20.7327 6.42178 20.7602 6.42194L22.5416 6.33464C22.5672 6.33363 22.592 6.32498 22.6127 6.30979C22.6334 6.29459 22.6492 6.27353 22.6581 6.24929L23.2941 4.57101C23.3025 4.5447 23.3189 4.52175 23.3411 4.50546C23.3632 4.48917 23.3899 4.48039 23.4174 4.48039C23.4448 4.48039 23.4715 4.48917 23.4937 4.50546C23.5159 4.52175 23.5323 4.5447 23.5406 4.57101H23.5348ZM15.6524 0.0906192L16.2858 1.76889C16.2945 1.79326 16.3103 1.81446 16.331 1.82978C16.3518 1.84509 16.3766 1.85384 16.4023 1.85489L18.1824 1.94219C18.2097 1.9421 18.2365 1.95075 18.2586 1.96691C18.2808 1.98306 18.2974 2.00589 18.3059 2.03211C18.3143 2.05833 18.3144 2.08658 18.3059 2.11281C18.2974 2.13903 18.2809 2.16187 18.2587 2.17804L16.8695 3.30254C16.8491 3.31854 16.834 3.34031 16.8261 3.36504C16.8181 3.38977 16.8177 3.41633 16.8248 3.44131L17.2926 5.17366C17.3012 5.19986 17.3013 5.22814 17.2929 5.2544C17.2845 5.28066 17.268 5.30355 17.2458 5.31978C17.2237 5.33601 17.197 5.34474 17.1696 5.3447C17.1422 5.34467 17.1155 5.33588 17.0934 5.31959L15.6012 4.33908C15.5799 4.32465 15.5548 4.31695 15.5291 4.31695C15.5034 4.31695 15.4783 4.32465 15.4569 4.33908L13.9687 5.32285C13.9466 5.33913 13.9199 5.34793 13.8925 5.34796C13.8651 5.34799 13.8384 5.33927 13.8162 5.32304C13.7941 5.30681 13.7776 5.28391 13.7692 5.25765C13.7608 5.23139 13.7608 5.20312 13.7694 5.17691L14.2353 3.44131C14.2424 3.41633 14.242 3.38977 14.2341 3.36504C14.2261 3.34031 14.211 3.31854 14.1906 3.30254L12.7995 2.17804C12.7772 2.16184 12.7607 2.13894 12.7522 2.11265C12.7438 2.08636 12.7438 2.05805 12.7524 2.0318C12.761 2.00555 12.7776 1.98272 12.7999 1.96661C12.8222 1.95051 12.849 1.94196 12.8765 1.94219L14.6578 1.85489C14.6835 1.85384 14.7083 1.84509 14.7291 1.82978C14.7498 1.81446 14.7656 1.79326 14.7743 1.76889L15.4071 0.0906192C15.4155 0.0643096 15.4319 0.0413538 15.4541 0.0250657C15.4762 0.00877762 15.5029 0 15.5304 0C15.5578 0 15.5845 0.00877762 15.6067 0.0250657C15.6288 0.0413538 15.6453 0.0643096 15.6536 0.0906192H15.6524ZM8.19888 16.3606C8.19888 18.3182 8.9712 20.1955 10.3459 21.5797C11.7207 22.9639 13.5852 23.7415 15.5294 23.7415C17.4736 23.7415 19.3381 22.9639 20.7129 21.5797C22.0876 20.1955 22.8599 18.3182 22.8599 16.3606H31.0588V18.4767L28.4855 19.4735C28.1587 20.8543 27.6154 22.1739 26.8762 23.3825L27.9963 25.9234L25.0244 28.9164L22.5008 27.7887C21.3007 28.5335 19.99 29.0805 18.6185 29.409L17.6285 32H13.4226L12.4319 29.4083C11.0605 29.0798 9.74991 28.533 8.54959 27.7887L6.02606 28.9164L3.06188 25.9208L4.18194 23.3799C3.44214 22.1716 2.89888 20.8519 2.57271 19.4709L0 18.4767V16.36L8.19888 16.3606Z" fill="#132431"/>
<path fill-rule="evenodd" clip-rule="evenodd" d="M12.8091 20.7058H18.6018C19.7777 19.9918 20.6518 18.8698 21.0584 17.5523C20.4477 16.7002 19.6438 16.0061 18.713 15.5273C17.7822 15.0486 16.7514 14.7989 15.7055 14.7989C14.6596 14.7989 13.6287 15.0486 12.698 15.5273C11.7672 16.0061 10.9633 16.7002 10.3525 17.5523C10.7591 18.8699 11.6332 19.9919 12.8091 20.7058ZM15.7055 7.5293C16.365 7.5293 17.0096 7.72556 17.558 8.09327C18.1063 8.46097 18.5337 8.98361 18.786 9.59508C19.0384 10.2066 19.1044 10.8794 18.9758 11.5285C18.8471 12.1777 18.5296 12.774 18.0632 13.242C17.5969 13.71 17.0028 14.0287 16.356 14.1578C15.7092 14.2869 15.0387 14.2206 14.4295 13.9674C13.8202 13.7141 13.2994 13.2852 12.9331 12.7349C12.5667 12.1845 12.3711 11.5375 12.3711 10.8757C12.3711 9.98817 12.7224 9.137 13.3477 8.50943C13.973 7.88186 14.8212 7.5293 15.7055 7.5293Z" fill="#3DDBBF"/>
</svg>
