<svg width="22" height="142" viewBox="0 0 22 142" fill="none" xmlns="http://www.w3.org/2000/svg">
<path d="M0.923828 0.599365V5.3015L5.62597 0.599365H0.923828Z" fill="#1A1A1A"/>
<path d="M0.923828 14.8795V19.5816L19.9061 0.599365H15.2039L0.923828 14.8795Z" fill="#1A1A1A"/>
<path d="M0.923828 33.8576L21.9986 12.7869V8.08472L0.923828 29.1595V33.8576Z" fill="#1A1A1A"/>
<path d="M0.923828 48.1419L21.9986 27.0671V22.365L0.923828 43.4398V48.1419Z" fill="#1A1A1A"/>
<path d="M0.923828 62.418L21.9986 41.3433V36.6411L0.923828 57.7159V62.418Z" fill="#1A1A1A"/>
<path d="M0.923828 76.6981L21.9986 55.6233V50.9211L0.923828 71.9959V76.6981Z" fill="#1A1A1A"/>
<path d="M0.923828 90.9781L21.9986 69.9033V65.2012L0.923828 86.276V90.9781Z" fill="#1A1A1A"/>
<path d="M0.923828 105.258L21.9986 84.1836V79.4814L0.923828 100.556V105.258Z" fill="#1A1A1A"/>
<path d="M0.923828 119.534L21.9986 98.4636V93.7615L0.923828 114.836V119.534Z" fill="#1A1A1A"/>
<path d="M0.923828 133.814L21.9986 112.744V108.042L0.923828 129.116V133.814Z" fill="#1A1A1A"/>
<path d="M7.71874 141.3L21.9989 127.02V122.318L3.0166 141.3H7.71874Z" fill="#1A1A1A"/>
<path d="M21.999 141.3V136.598L17.2969 141.3H21.999Z" fill="#1A1A1A"/>
</svg>
