<svg width="46" height="44" viewBox="0 0 46 44" fill="none" xmlns="http://www.w3.org/2000/svg">
<g clip-path="url(#clip0_170_558)">
<path d="M2.49127 1.25513C2.49127 1.50274 2.41845 1.74479 2.28206 1.95068C2.14568 2.15656 1.95182 2.31703 1.72501 2.41178C1.4982 2.50654 1.24865 2.53134 1.00788 2.48303C0.767103 2.43472 0.545928 2.31548 0.372338 2.14039C0.198749 1.9653 0.0805296 1.74223 0.0326365 1.49937C-0.0152567 1.25652 0.00933564 1.00479 0.103281 0.776023C0.197227 0.547258 0.356328 0.351732 0.560447 0.214165C0.764567 0.0765987 1.00455 0.00317383 1.25004 0.00317383C1.57924 0.00317383 1.89493 0.135075 2.12771 0.369862C2.36048 0.60465 2.49127 0.923091 2.49127 1.25513Z" fill="#1A1A1A"/>
<path d="M1.24646 16.3443C1.9354 16.3443 2.4939 15.781 2.4939 15.0861C2.4939 14.3912 1.9354 13.8279 1.24646 13.8279C0.55752 13.8279 -0.000976562 14.3912 -0.000976562 15.0861C-0.000976562 15.781 0.55752 16.3443 1.24646 16.3443Z" fill="#1A1A1A"/>
<path d="M2.49127 28.9109C2.49127 29.1585 2.41845 29.4006 2.28206 29.6064C2.14568 29.8123 1.95182 29.9728 1.72501 30.0676C1.4982 30.1623 1.24865 30.1871 1.00788 30.1388C0.767103 30.0905 0.545928 29.9712 0.372338 29.7962C0.198749 29.6211 0.0805296 29.398 0.0326365 29.1551C-0.0152567 28.9123 0.00933564 28.6606 0.103281 28.4318C0.197227 28.203 0.356328 28.0075 0.560447 27.8699C0.764567 27.7324 1.00455 27.6589 1.25004 27.6589C1.57924 27.6589 1.89493 27.7908 2.12771 28.0256C2.36048 28.2604 2.49127 28.5789 2.49127 28.9109Z" fill="#1A1A1A"/>
<path d="M2.49127 42.7417C2.49127 42.9893 2.41845 43.2314 2.28206 43.4372C2.14568 43.6431 1.95182 43.8036 1.72501 43.8984C1.4982 43.9931 1.24865 44.0179 1.00788 43.9696C0.767103 43.9213 0.545928 43.8021 0.372338 43.627C0.198749 43.4519 0.0805296 43.2288 0.0326365 42.9859C-0.0152567 42.7431 0.00933564 42.4914 0.103281 42.2626C0.197227 42.0338 0.356328 41.8383 0.560447 41.7007C0.764567 41.5632 1.00455 41.4897 1.25004 41.4897C1.57924 41.4897 1.89493 41.6216 2.12771 41.8564C2.36048 42.0912 2.49127 42.4097 2.49127 42.7417Z" fill="#1A1A1A"/>
<path d="M16.9942 1.25513C16.9942 1.50274 16.9214 1.74479 16.785 1.95068C16.6486 2.15656 16.4548 2.31703 16.228 2.41178C16.0012 2.50654 15.7516 2.53134 15.5108 2.48303C15.27 2.43472 15.0489 2.31548 14.8753 2.14039C14.7017 1.9653 14.5835 1.74223 14.5356 1.49937C14.4877 1.25652 14.5123 1.00479 14.6062 0.776023C14.7002 0.547258 14.8593 0.351732 15.0634 0.214165C15.2675 0.0765987 15.5075 0.00317383 15.753 0.00317383C16.0822 0.00317383 16.3979 0.135075 16.6306 0.369862C16.8634 0.60465 16.9942 0.923091 16.9942 1.25513Z" fill="#1A1A1A"/>
<path d="M16.9942 15.083C16.9942 15.3306 16.9214 15.5727 16.785 15.7786C16.6486 15.9844 16.4548 16.1449 16.228 16.2397C16.0012 16.3344 15.7516 16.3592 15.5108 16.3109C15.27 16.2626 15.0489 16.1434 14.8753 15.9683C14.7017 15.7932 14.5835 15.5701 14.5356 15.3272C14.4877 15.0844 14.5123 14.8327 14.6062 14.6039C14.7002 14.3751 14.8593 14.1796 15.0634 14.042C15.2675 13.9045 15.5075 13.8311 15.753 13.8311C16.0822 13.8311 16.3979 13.963 16.6306 14.1977C16.8634 14.4325 16.9942 14.751 16.9942 15.083Z" fill="#1A1A1A"/>
<path d="M16.9942 28.9109C16.9942 29.1585 16.9214 29.4006 16.785 29.6064C16.6486 29.8123 16.4548 29.9728 16.228 30.0676C16.0012 30.1623 15.7516 30.1871 15.5108 30.1388C15.27 30.0905 15.0489 29.9712 14.8753 29.7962C14.7017 29.6211 14.5835 29.398 14.5356 29.1551C14.4877 28.9123 14.5123 28.6606 14.6062 28.4318C14.7002 28.203 14.8593 28.0075 15.0634 27.8699C15.2675 27.7324 15.5075 27.6589 15.753 27.6589C16.0822 27.6589 16.3979 27.7908 16.6306 28.0256C16.8634 28.2604 16.9942 28.5789 16.9942 28.9109Z" fill="#1A1A1A"/>
<path d="M16.9942 42.7417C16.9942 42.9893 16.9214 43.2314 16.785 43.4372C16.6486 43.6431 16.4548 43.8036 16.228 43.8984C16.0012 43.9931 15.7516 44.0179 15.5108 43.9696C15.27 43.9213 15.0489 43.8021 14.8753 43.627C14.7017 43.4519 14.5835 43.2288 14.5356 42.9859C14.4877 42.7431 14.5123 42.4914 14.6062 42.2626C14.7002 42.0338 14.8593 41.8383 15.0634 41.7007C15.2675 41.5632 15.5075 41.4897 15.753 41.4897C16.0822 41.4897 16.3979 41.6216 16.6306 41.8564C16.8634 42.0912 16.9942 42.4097 16.9942 42.7417Z" fill="#1A1A1A"/>
<path d="M31.4981 1.25513C31.4981 1.50274 31.4253 1.74479 31.2889 1.95068C31.1525 2.15656 30.9587 2.31703 30.7319 2.41178C30.5051 2.50654 30.2555 2.53134 30.0147 2.48303C29.7739 2.43472 29.5527 2.31548 29.3791 2.14039C29.2056 1.9653 29.0874 1.74223 29.0395 1.49937C28.9916 1.25652 29.0161 1.00479 29.1101 0.776023C29.204 0.547258 29.3631 0.351732 29.5673 0.214165C29.7714 0.0765987 30.0114 0.00317383 30.2568 0.00317383C30.586 0.00317383 30.9017 0.135075 31.1345 0.369862C31.3673 0.60465 31.4981 0.923091 31.4981 1.25513Z" fill="#1A1A1A"/>
<path d="M31.4981 15.083C31.4981 15.3306 31.4253 15.5727 31.2889 15.7786C31.1525 15.9844 30.9587 16.1449 30.7319 16.2397C30.5051 16.3344 30.2555 16.3592 30.0147 16.3109C29.7739 16.2626 29.5527 16.1434 29.3791 15.9683C29.2056 15.7932 29.0874 15.5701 29.0395 15.3272C28.9916 15.0844 29.0161 14.8327 29.1101 14.6039C29.204 14.3751 29.3631 14.1796 29.5673 14.042C29.7714 13.9045 30.0114 13.8311 30.2568 13.8311C30.586 13.8311 30.9017 13.963 31.1345 14.1977C31.3673 14.4325 31.4981 14.751 31.4981 15.083Z" fill="#1A1A1A"/>
<path d="M31.4981 28.9109C31.4981 29.1585 31.4253 29.4006 31.2889 29.6064C31.1525 29.8123 30.9587 29.9728 30.7319 30.0676C30.5051 30.1623 30.2555 30.1871 30.0147 30.1388C29.7739 30.0905 29.5527 29.9712 29.3791 29.7962C29.2056 29.6211 29.0874 29.398 29.0395 29.1551C28.9916 28.9123 29.0161 28.6606 29.1101 28.4318C29.204 28.203 29.3631 28.0075 29.5673 27.8699C29.7714 27.7324 30.0114 27.6589 30.2568 27.6589C30.586 27.6589 30.9017 27.7908 31.1345 28.0256C31.3673 28.2604 31.4981 28.5789 31.4981 28.9109Z" fill="#1A1A1A"/>
<path d="M31.4981 42.7417C31.4981 42.9893 31.4253 43.2314 31.2889 43.4372C31.1525 43.6431 30.9587 43.8036 30.7319 43.8984C30.5051 43.9931 30.2555 44.0179 30.0147 43.9696C29.7739 43.9213 29.5527 43.8021 29.3791 43.627C29.2056 43.4519 29.0874 43.2288 29.0395 42.9859C28.9916 42.7431 29.0161 42.4914 29.1101 42.2626C29.204 42.0338 29.3631 41.8383 29.5673 41.7007C29.7714 41.5632 30.0114 41.4897 30.2568 41.4897C30.586 41.4897 30.9017 41.6216 31.1345 41.8564C31.3673 42.0912 31.4981 42.4097 31.4981 42.7417Z" fill="#1A1A1A"/>
<path d="M46.002 1.25513C46.002 1.50274 45.9292 1.74479 45.7928 1.95068C45.6564 2.15656 45.4626 2.31703 45.2358 2.41178C45.009 2.50654 44.7594 2.53134 44.5186 2.48303C44.2778 2.43472 44.0566 2.31548 43.8831 2.14039C43.7095 1.9653 43.5913 1.74223 43.5434 1.49937C43.4955 1.25652 43.52 1.00479 43.614 0.776023C43.7079 0.547258 43.867 0.351732 44.0712 0.214165C44.2753 0.0765987 44.5153 0.00317383 44.7608 0.00317383C45.0899 0.00317383 45.4056 0.135075 45.6384 0.369862C45.8712 0.60465 46.002 0.923091 46.002 1.25513Z" fill="#1A1A1A"/>
<path d="M46.002 15.083C46.002 15.3306 45.9292 15.5727 45.7928 15.7786C45.6564 15.9844 45.4626 16.1449 45.2358 16.2397C45.009 16.3344 44.7594 16.3592 44.5186 16.3109C44.2778 16.2626 44.0566 16.1434 43.8831 15.9683C43.7095 15.7932 43.5913 15.5701 43.5434 15.3272C43.4955 15.0844 43.52 14.8327 43.614 14.6039C43.7079 14.3751 43.867 14.1796 44.0712 14.042C44.2753 13.9045 44.5153 13.8311 44.7608 13.8311C45.0899 13.8311 45.4056 13.963 45.6384 14.1977C45.8712 14.4325 46.002 14.751 46.002 15.083Z" fill="#1A1A1A"/>
<path d="M46.002 28.9109C46.002 29.1585 45.9292 29.4006 45.7928 29.6064C45.6564 29.8123 45.4626 29.9728 45.2358 30.0676C45.009 30.1623 44.7594 30.1871 44.5186 30.1388C44.2778 30.0905 44.0566 29.9712 43.8831 29.7962C43.7095 29.6211 43.5913 29.398 43.5434 29.1551C43.4955 28.9123 43.52 28.6606 43.614 28.4318C43.7079 28.203 43.867 28.0075 44.0712 27.8699C44.2753 27.7324 44.5153 27.6589 44.7608 27.6589C45.0899 27.6589 45.4056 27.7908 45.6384 28.0256C45.8712 28.2604 46.002 28.5789 46.002 28.9109Z" fill="#1A1A1A"/>
<path d="M46.002 42.7417C46.002 42.9893 45.9292 43.2314 45.7928 43.4372C45.6564 43.6431 45.4626 43.8036 45.2358 43.8984C45.009 43.9931 44.7594 44.0179 44.5186 43.9696C44.2778 43.9213 44.0566 43.8021 43.8831 43.627C43.7095 43.4519 43.5913 43.2288 43.5434 42.9859C43.4955 42.7431 43.52 42.4914 43.614 42.2626C43.7079 42.0338 43.867 41.8383 44.0712 41.7007C44.2753 41.5632 44.5153 41.4897 44.7608 41.4897C45.0899 41.4897 45.4056 41.6216 45.6384 41.8564C45.8712 42.0912 46.002 42.4097 46.002 42.7417Z" fill="#1A1A1A"/>
</g>
<defs>
<clipPath id="clip0_170_558">
<rect width="46" height="44" fill="white" transform="translate(-0.000976562)"/>
</clipPath>
</defs>
</svg>
