<svg width="22" height="141" viewBox="0 0 22 141" fill="none" xmlns="http://www.w3.org/2000/svg">
<path d="M-0.000976562 0V4.70214L4.70116 0H-0.000976562Z" fill="#3CDBC0"/>
<path d="M-0.000976562 14.2801V18.9823L18.9813 0H14.2791L-0.000976562 14.2801Z" fill="#3CDBC0"/>
<path d="M-0.000976562 33.2582L21.0738 12.1875V7.48535L-0.000976562 28.5601V33.2582Z" fill="#3CDBC0"/>
<path d="M-0.000976562 47.5426L21.0738 26.4678V21.7656L-0.000976562 42.8404V47.5426Z" fill="#3CDBC0"/>
<path d="M-0.000976562 61.8187L21.0738 40.7439V36.0417L-0.000976562 57.1165V61.8187Z" fill="#3CDBC0"/>
<path d="M-0.000976562 76.0987L21.0738 55.0239V50.3218L-0.000976562 71.3966V76.0987Z" fill="#3CDBC0"/>
<path d="M-0.000976562 90.3787L21.0738 69.3039V64.6018L-0.000976562 85.6766V90.3787Z" fill="#3CDBC0"/>
<path d="M-0.000976562 104.659L21.0738 83.5842V78.8821L-0.000976562 99.9569V104.659Z" fill="#3CDBC0"/>
<path d="M-0.000976562 118.935L21.0738 97.8642V93.1621L-0.000976562 114.237V118.935Z" fill="#3CDBC0"/>
<path d="M-0.000976562 133.215L21.0738 112.144V107.442L-0.000976562 128.517V133.215Z" fill="#3CDBC0"/>
<path d="M6.79393 140.701L21.0741 126.42V121.718L2.0918 140.701H6.79393Z" fill="#3CDBC0"/>
<path d="M21.0742 140.701V135.999L16.3721 140.701H21.0742Z" fill="#3CDBC0"/>
</svg>
