<svg width="17" height="85" viewBox="0 0 17 85" fill="none" xmlns="http://www.w3.org/2000/svg">
<path d="M1.06896 82.7097C1.65718 82.7097 2.13402 83.1866 2.13402 83.7748C2.13402 84.363 1.65718 84.8398 1.06896 84.8398C0.480749 84.8398 0.00390621 84.363 0.00390616 83.7748C0.00390611 83.1866 0.480749 82.7097 1.06896 82.7097Z" fill="#132431"/>
<path d="M14.9772 82.7097C15.5654 82.7097 16.0422 83.1866 16.0422 83.7748C16.0422 84.363 15.5654 84.8398 14.9772 84.8398C14.389 84.8398 13.9121 84.363 13.9121 83.7748C13.9121 83.1866 14.389 82.7097 14.9772 82.7097Z" fill="#132431"/>
<path d="M1.06896 68.9263C1.65718 68.9263 2.13402 69.4031 2.13402 69.9913C2.13402 70.5796 1.65718 71.0564 1.06896 71.0564C0.480749 71.0564 0.00390621 70.5796 0.00390616 69.9913C0.00390611 69.4031 0.480749 68.9263 1.06896 68.9263Z" fill="#132431"/>
<path d="M14.9772 68.9263C15.5654 68.9263 16.0422 69.4031 16.0422 69.9913C16.0422 70.5796 15.5654 71.0564 14.9772 71.0564C14.389 71.0564 13.9121 70.5796 13.9121 69.9913C13.9121 69.4031 14.389 68.9263 14.9772 68.9263Z" fill="#132431"/>
<path d="M2.13872 56.184C2.13967 55.972 2.07761 55.7644 1.96042 55.5878C1.84323 55.4111 1.67618 55.2732 1.48049 55.1917C1.28481 55.1101 1.0693 55.0885 0.861325 55.1296C0.653347 55.1708 0.462286 55.2728 0.312376 55.4227C0.162466 55.5726 0.0604788 55.7636 0.0193513 55.9716C-0.0217762 56.1796 -0.000198292 56.3951 0.0813705 56.5908C0.162939 56.7865 0.300798 56.9535 0.477468 57.0707C0.654138 57.1879 0.861645 57.25 1.07365 57.249C1.35573 57.2478 1.62591 57.1351 1.82537 56.9357C2.02484 56.7362 2.13746 56.466 2.13872 56.184Z" fill="#132431"/>
<path d="M16.0422 56.184C16.0422 55.9733 15.9798 55.7674 15.8627 55.5923C15.7457 55.4171 15.5794 55.2806 15.3848 55.2C15.1901 55.1194 14.976 55.0983 14.7694 55.1394C14.5628 55.1805 14.373 55.2819 14.224 55.4309C14.0751 55.5798 13.9737 55.7696 13.9326 55.9762C13.8915 56.1828 13.9126 56.3969 13.9932 56.5915C14.0738 56.7862 14.2103 56.9525 14.3854 57.0695C14.5606 57.1866 14.7665 57.249 14.9772 57.249C15.2596 57.249 15.5305 57.1368 15.7303 56.9371C15.93 56.7373 16.0422 56.4664 16.0422 56.184Z" fill="#132431"/>
<path d="M2.13872 42.4247C2.13967 42.2127 2.07761 42.0052 1.96042 41.8285C1.84323 41.6518 1.67618 41.514 1.48049 41.4324C1.28481 41.3508 1.0693 41.3292 0.861325 41.3704C0.653347 41.4115 0.462286 41.5135 0.312376 41.6634C0.162466 41.8133 0.0604788 42.0044 0.0193513 42.2123C-0.0217762 42.4203 -0.000198292 42.6358 0.0813705 42.8315C0.162939 43.0272 0.300798 43.1942 0.477468 43.3114C0.654138 43.4286 0.861645 43.4907 1.07365 43.4897C1.35573 43.4885 1.62591 43.3759 1.82537 43.1764C2.02484 42.9769 2.13746 42.7068 2.13872 42.4247Z" fill="#132431"/>
<path d="M16.0422 42.4247C16.0422 42.214 15.9798 42.0081 15.8627 41.833C15.7457 41.6578 15.5794 41.5213 15.3848 41.4407C15.1901 41.3601 14.976 41.339 14.7694 41.3801C14.5628 41.4212 14.373 41.5226 14.224 41.6716C14.0751 41.8205 13.9737 42.0103 13.9326 42.2169C13.8915 42.4235 13.9126 42.6377 13.9932 42.8323C14.0738 43.0269 14.2103 43.1932 14.3854 43.3103C14.5606 43.4273 14.7665 43.4897 14.9772 43.4897C15.2596 43.4897 15.5305 43.3775 15.7303 43.1778C15.93 42.9781 16.0422 42.7072 16.0422 42.4247Z" fill="#132431"/>
<path d="M1.06896 27.5762C1.65718 27.5762 2.13402 28.053 2.13402 28.6412C2.13402 29.2295 1.65718 29.7063 1.06896 29.7063C0.480749 29.7063 0.00390621 29.2295 0.00390616 28.6412C0.00390611 28.053 0.480749 27.5762 1.06896 27.5762Z" fill="#132431"/>
<path d="M14.9772 27.5762C15.5654 27.5762 16.0422 28.053 16.0422 28.6412C16.0422 29.2295 15.5654 29.7063 14.9772 29.7063C14.389 29.7063 13.9121 29.2295 13.9121 28.6412C13.9121 28.053 14.389 27.5762 14.9772 27.5762Z" fill="#132431"/>
<path d="M1.06896 13.7927C1.65718 13.7927 2.13402 14.2696 2.13402 14.8578C2.13402 15.446 1.65718 15.9229 1.06896 15.9229C0.480749 15.9229 0.00390621 15.446 0.00390616 14.8578C0.00390611 14.2696 0.480749 13.7927 1.06896 13.7927Z" fill="#132431"/>
<path d="M14.9772 13.7927C15.5654 13.7927 16.0422 14.2696 16.0422 14.8578C16.0422 15.446 15.5654 15.9229 14.9772 15.9229C14.389 15.9229 13.9121 15.446 13.9121 14.8578C13.9121 14.2696 14.389 13.7927 14.9772 13.7927Z" fill="#132431"/>
<path d="M2.13872 1.07458C2.13967 0.862577 2.07761 0.655069 1.96042 0.478399C1.84323 0.301729 1.67618 0.163864 1.48049 0.0822948C1.28481 0.000725872 1.0693 -0.0208665 0.861325 0.020261C0.653347 0.0613884 0.462286 0.163375 0.312376 0.313286C0.162466 0.463196 0.0604788 0.654271 0.0193513 0.862249C-0.0217762 1.07023 -0.000198292 1.28573 0.0813705 1.48142C0.162939 1.6771 0.300798 1.84414 0.477468 1.96133C0.654138 2.07852 0.861645 2.14059 1.07365 2.13964C1.35573 2.13838 1.62591 2.02576 1.82537 1.82629C2.02484 1.62683 2.13746 1.35666 2.13872 1.07458Z" fill="#132431"/>
<path d="M16.0422 1.07459C16.0422 0.863942 15.9798 0.658023 15.8627 0.482875C15.7457 0.307728 15.5794 0.171219 15.3848 0.0906068C15.1901 0.00999535 14.976 -0.0111023 14.7694 0.0299932C14.5628 0.0710887 14.373 0.17253 14.224 0.321481C14.0751 0.470432 13.9737 0.660205 13.9326 0.866806C13.8915 1.07341 13.9126 1.28755 13.9932 1.48217C14.0738 1.67678 14.2103 1.84312 14.3854 1.96015C14.5606 2.07718 14.7665 2.13965 14.9772 2.13965C15.2596 2.13965 15.5305 2.02744 15.7303 1.8277C15.93 1.62796 16.0422 1.35706 16.0422 1.07459Z" fill="#132431"/>
</svg>
