<svg width="138" height="422" viewBox="0 0 138 422" fill="none" xmlns="http://www.w3.org/2000/svg">
<path d="M137.66 285.048C137.175 289.533 135.978 295.642 134.638 300.516C128.223 324.052 112.37 344.963 80.6629 371.722C50.6305 397.091 21.2683 415.66 3.81826 420.356C1.68054 420.958 -0.115916 421.53 -0.172497 421.709C-0.45894 422.311 -0.943419 421.92 -0.943419 421.077C-0.943419 420.416 -0.766602 420.198 -0.144206 420.198C2.70608 420.198 13.7695 415.744 22.2956 411.169C50.8374 395.881 92.7235 362.234 111.827 339.204C125.827 322.38 133.154 307.122 136.263 288.374C137.262 282.414 137.603 270.556 137.006 264.116C136.063 254.456 133.554 242.93 130.304 233.479C126.368 221.984 121.493 211.36 110.601 190.595C99.31 169.062 93.5793 156.602 88.9874 143.67C84.6253 131.3 82.0915 121.549 77.0982 97.8949C73.3639 80.1691 72.3083 75.6541 70.1405 67.7397C66.6342 54.9794 62.3004 44.5135 57.4804 37.1938C54.6301 32.86 48.7563 26.2089 44.6789 22.7478C36.6956 15.977 25.1459 9.32593 14.4538 5.41269C9.57894 3.60739 0.824732 1.31992 -0.144225 1.59091C-0.828506 1.76685 -0.943437 1.65079 -0.943437 0.807953C-0.943437 0.0267029 -0.828506 -0.124634 -0.344028 0.0865173C-0.00277122 0.236084 1.7654 0.688293 3.59015 1.07892C17.3341 4.08954 31.0498 10.5294 43.4235 19.7689C47.9005 23.1384 55.4276 31.3239 58.5077 36.1696C63.326 43.7533 67.3751 53.6544 70.8531 66.2352C73.0208 74.1532 74.0764 78.6646 77.8108 96.3904C82.8006 120.044 85.3379 129.796 89.7017 142.165C94.299 155.105 100.023 167.564 111.314 189.112C122.006 209.547 126.939 220.201 130.874 231.547C134.01 240.605 136.463 251.409 137.518 260.919C138.088 266.096 138.174 280.241 137.66 285.055L137.66 285.048ZM124.971 280.354C122.634 310.357 107.806 334.525 74.4177 362.783C58.3645 376.386 37.0368 390.743 22.3522 397.844C15.2247 401.268 7.9823 403.983 2.53634 405.217C1.30923 405.488 -0.00275349 405.85 -0.34401 406C-0.828488 406.211 -0.943419 406.06 -0.943419 405.278C-0.943419 404.435 -0.828488 404.314 -0.144207 404.495C0.768168 404.736 7.72591 402.72 12.8288 400.703C24.0054 396.28 38.2905 387.973 53.746 376.928C75.6148 361.309 93.864 344.245 105.297 328.687C126.996 299.223 130.189 265.818 115.022 227.176C111.859 219.17 107.242 209.359 99.7114 194.764C82.4894 161.299 77.756 149.14 68.2043 113.868C61.2395 88.1663 58.193 79.1081 52.5755 67.4317C43.1388 47.8092 29.3665 32.7931 13.1453 24.3719C8.52688 21.9349 0.487012 18.956 -0.397072 19.3167C-0.796678 19.4926 -0.9399 19.2868 -0.9399 18.5636C-0.9399 18.0234 -0.796678 17.5712 -0.596875 17.5712C-0.4965 17.5762 -0.401964 17.6196 -0.333074 17.6924C-0.264184 17.7653 -0.226289 17.8618 -0.227328 17.9618C-0.227328 18.1729 0.143988 18.3243 0.628466 18.3243C2.28347 18.3243 10.2385 21.363 14.5722 23.6205C30.682 31.9573 43.9115 46.4332 53.2951 65.9343C58.9109 77.6107 61.9592 86.6689 68.9205 112.371C78.4686 147.641 83.2055 159.799 100.427 193.266C115.391 222.322 120.952 236.836 123.774 254.231C125 261.905 125.543 273.25 124.971 280.354ZM113.054 281.107C112.027 291.55 108.748 302.925 104.128 312.135C101.791 316.829 97.0008 324.413 93.3795 329.202C76.4988 351.473 39.9172 379.156 13.8279 389.418C9.80705 391.012 1.85206 393.391 0.596655 393.391C0.140468 393.391 -0.230848 393.567 -0.230848 393.751C-0.229365 393.852 -0.267112 393.948 -0.336092 394.021C-0.405072 394.094 -0.499867 394.138 -0.600395 394.142C-0.800198 394.142 -0.94342 393.692 -0.94342 393.15C-0.94342 392.456 -0.800198 392.247 -0.428883 392.397C0.25363 392.668 7.83907 390.472 12.4009 388.665C30.1657 381.683 54.372 365.702 73.1924 348.578C79.1228 343.192 88.7894 332.809 92.667 327.693C109.861 304.994 115.819 281.107 111.114 253.809C108.377 238.01 103.587 225.491 89.7583 197.772C74.1613 166.595 69.4845 154.616 59.505 120.459C57.4238 113.421 55.0297 105.412 54.1173 102.642C47.9288 83.5932 40.8296 69.4481 31.6757 57.8914C28.1695 53.4679 21.2966 46.5158 17.3907 43.4454C12.1728 39.3527 2.53809 34.1198 0.0626526 34.0565C-0.76485 34.0266 -0.936363 33.8454 -0.936363 33.1239C-0.936363 32.1597 -0.849723 32.0999 0.0343617 32.6119C0.88193 32.9765 1.7477 33.2977 2.62827 33.5743C5.08072 34.3573 10.9546 37.2694 14.0913 39.2928C24.7268 46.1252 35.1042 58.0726 42.8895 72.4569C49.2195 84.1351 52.9539 94.1857 60.2175 118.955C70.1971 153.111 74.8739 165.09 90.4709 196.268C99.2817 213.904 102.59 221.277 106.208 231.239C109.567 240.538 112.196 252.095 113.08 261.665C113.508 266.179 113.48 276.711 113.052 281.107L113.054 281.107ZM101.876 281.647C99.5381 298.771 93.3513 312.886 81.6601 327.693C66.6307 346.713 37.7777 368.442 14.7402 378.102C10.3198 379.937 2.36306 382.466 0.996261 382.466C0.540073 382.466 0.0555951 382.642 -0.0646404 382.856C-0.492537 383.55 -0.948725 383.249 -0.948725 382.255C-0.948725 381.503 -0.833794 381.352 -0.292734 381.533C0.59135 381.804 8.20508 379.487 13.308 377.349C32.6695 369.223 56.934 352.129 72.9307 335.276C90.1526 317.153 99.0766 299.283 101.358 278.307C101.899 273.372 101.586 261.815 100.816 256.638C99.2481 246.466 96.4243 236.505 91.8342 225.16C90.3224 221.398 84.9047 209.51 79.7735 198.737C64.8042 167.256 62.037 160.026 50.3759 122.354C44.3871 103.064 39.6838 91.2666 33.9814 81.1544C27.5365 69.6892 19.2968 59.9377 10.6858 53.5294C7.57737 51.2121 0.253615 47.269 -0.434202 47.547C-0.805518 47.6983 -0.948739 47.4871 -0.94874 46.7956C-0.94874 46.2537 -0.805518 45.8015 -0.605715 45.8015C-0.509699 45.8049 -0.418461 45.844 -0.350036 45.9111C-0.28161 45.9782 -0.240977 46.0685 -0.236167 46.164C-0.230863 46.3663 0.140452 46.5423 0.591336 46.5423C1.7318 46.5423 9.08916 50.5153 12.111 52.7711C23.0029 60.865 32.2133 73.2065 39.8553 89.9082C43.5897 98.1253 46.5549 106.311 51.0885 120.846C62.7584 158.526 65.5167 165.749 80.4861 197.227C85.6137 208.002 91.0349 219.89 92.5467 223.652C97.1086 234.968 99.9324 244.807 101.529 255.13C102.326 260.307 102.555 276.708 101.87 281.643L101.876 281.647ZM91.7263 277.044C89.73 296.786 81.6035 313.91 66.4415 330.341C49.361 348.816 23.6995 365.854 4.5379 371.391C2.79979 371.903 1.00156 372.324 0.575436 372.324C0.119249 372.324 -0.223776 372.5 -0.223776 372.684C-0.222276 372.785 -0.259966 372.882 -0.328903 372.955C-0.397839 373.028 -0.492639 373.072 -0.593323 373.077C-0.793126 373.077 -0.936348 372.624 -0.936348 372.083C-0.936348 371.391 -0.793126 371.18 -0.421811 371.331C1.00333 371.903 12.0668 367.779 19.6504 363.867C43.7736 351.408 66.27 331.725 78.2741 312.645C84.4892 302.774 88.3685 292.452 90.3347 280.654C91.3957 274.364 91.4752 263.712 90.5346 257.21C88.1404 240.718 84.6041 230.576 71.0317 201.144C58.315 173.577 54.4374 163.706 45.7468 136.651C37.5072 111.009 34.114 102.222 28.1836 91.2965C21.141 78.2952 12.2436 68.2463 2.72198 62.526C1.24025 61.6234 -0.186658 60.9917 -0.443043 61.1184C-0.784299 61.2398 -0.927521 60.9988 -0.927521 60.3354C-0.927521 59.7952 -0.81259 59.343 -0.671136 59.343C-0.529683 59.343 1.04045 60.126 2.80862 61.0586C12.3444 66.1384 21.5547 76.2787 28.882 89.7921C34.8125 100.717 38.2056 109.499 46.4453 135.145C55.1429 162.201 59.0205 172.072 71.7301 199.639C79.098 215.59 81.5735 221.338 84.4538 229.101C87.7055 237.89 89.9015 246.406 91.1835 255.319C91.8395 259.953 92.1524 272.622 91.7263 277.047L91.7263 277.044ZM82.2295 275.267C80.1483 292.723 74.5026 306.115 63.1545 320.41C49.8684 337.173 26.0017 354.568 7.46776 360.975C4.41767 362.058 1.50903 362.901 1.02455 362.901C0.540072 362.901 0.0555943 363.077 -0.0593367 363.292C-0.487234 363.983 -0.943421 363.682 -0.943421 362.69C-0.943421 361.937 -0.82849 361.787 -0.287431 361.967C1.13771 362.449 11.3825 358.448 18.7876 354.505C45.1333 340.509 67.1187 318.209 75.8146 296.691C77.8674 291.606 79.8071 284.833 80.7477 279.387C81.8599 273.007 81.8599 260.879 80.6912 254.016C78.1238 238.608 74.9022 229.61 59.9894 196.083C51.8682 177.881 46.7405 164.548 39.4911 142.85C32.3335 121.422 29.7962 114.711 25.2909 105.412C20.4437 95.3294 14.95 87.2642 8.80979 81.2161C5.47325 77.9046 0.768154 74.3837 -0.292748 74.3837C-0.777226 74.3837 -0.948738 74.1128 -0.948738 73.4512C-0.948738 72.9391 -0.862098 72.4869 -0.771922 72.4869C-0.259153 72.4869 3.39035 74.6846 5.33003 76.1292C12.7723 81.7333 19.9864 91.4109 26.0017 103.904C30.507 113.203 33.0443 119.916 40.2019 141.342C47.4514 163.041 52.579 176.373 60.702 194.579C73.5336 223.435 77.0417 232.469 79.7222 244.022C81.6672 252.208 82.1446 256.482 82.2595 265.48C82.3161 270.145 82.3161 274.538 82.2295 275.26L82.2295 275.267ZM71.7372 274.125C70.7399 282.912 68.6287 290.255 64.8095 298.407C58.2796 312.411 47.1313 325.432 32.2416 336.48C26.709 340.604 20.0412 344.75 14.9613 347.315C10.6858 349.451 1.9882 352.77 0.563058 352.77C0.106871 352.77 -0.236154 352.946 -0.236154 353.13C-0.234671 353.231 -0.272418 353.327 -0.341398 353.4C-0.410378 353.473 -0.505173 353.517 -0.605701 353.521C-0.805504 353.521 -0.948726 353.13 -0.948726 352.641C-0.948726 351.92 -0.771909 351.739 0.0219986 351.709C1.56031 351.649 9.14575 348.76 13.6228 346.532C21.4911 342.559 31.3858 335.788 38.7997 329.288C50.3759 319.083 58.7022 308.462 64.0845 296.913C72.6654 278.613 73.5495 261.13 67.078 238.408C64.5106 229.409 61.6321 221.977 50.4572 195.522C43.3846 178.82 40.4211 171.177 33.207 150.741C26.2492 131.12 23.5404 124.198 19.8626 116.523C15.8701 108.157 12.0508 102.077 7.45891 96.7512C5.14968 94.0432 0.759314 90.1599 -0.144221 90.0402C-0.543827 89.9804 -0.828502 89.5581 -0.885084 88.9264C-0.943433 88.3844 -0.943433 87.9341 -0.856793 87.9341C-0.287443 87.9341 2.821 90.1299 4.95871 92.0267C11.8882 98.1658 19.1589 110.294 25.5455 126.305C26.8009 129.525 30.5936 139.853 33.9284 149.237C41.1425 169.671 44.1077 177.316 51.1787 194.018C66.178 229.531 69 237.686 71.2244 252.553C71.8804 256.976 72.1933 270.099 71.7372 274.132L71.7372 274.125ZM61.045 271.746C59.3052 286.313 54.0873 298.621 44.3924 310.959C36.5524 320.922 24.4899 330.886 13.1453 336.782C7.95754 339.49 2.05362 341.838 0.515317 341.838C0.0874203 341.838 -0.227314 342.014 -0.227314 342.228C-0.227069 342.276 -0.236499 342.324 -0.255051 342.368C-0.273602 342.413 -0.300899 342.453 -0.335335 342.487C-0.369771 342.521 -0.410649 342.547 -0.455563 342.565C-0.500477 342.583 -0.548519 342.592 -0.596861 342.591C-0.796664 342.591 -0.939886 342.198 -0.939886 341.711C-0.939886 341.018 -0.763069 340.831 0.0308389 340.806C3.02435 340.717 14.9418 334.789 21.5866 330.063C50.8692 309.3 64.4417 281.249 59.6517 251.365C57.4839 237.792 54.4904 228.704 42.1734 198.337C38.4089 189.012 32.6783 174.383 29.485 165.775C18.3314 136.104 14.6819 127.621 9.37914 119.226C6.49879 114.681 0.48348 107.488 -0.458954 107.488C-0.77192 107.488 -0.943432 107.067 -0.943432 106.344C-0.943432 105.113 -0.828502 105.021 0.0272923 105.713C2.47797 107.639 7.49604 113.63 10.0351 117.63C15.3944 126.116 19.0157 134.543 30.1923 164.278C33.3856 172.885 39.1162 187.504 42.8806 196.84C55.1694 227.176 58.1063 236.078 60.359 249.867C61.2148 255.014 61.5843 267.203 61.0433 271.746L61.045 271.746ZM49.4688 271.114C47.4726 285.048 41.3706 297.838 31.3911 308.974C23.5775 317.702 11.5752 326.278 3.2772 329.047C1.82376 329.528 0.368559 330.07 0.0273021 330.251C-0.885073 330.733 -0.943423 330.671 -0.943423 329.589C-0.943423 328.836 -0.828492 328.657 -0.372304 328.836C0.42514 329.167 6.72689 326.429 10.8043 323.99C25.9168 314.992 38.7767 300.215 44.7072 285.078C51.2936 268.225 50.7525 251.312 42.8541 226.935C39.8889 217.756 28.1129 187.029 18.3614 162.923C11.432 145.855 5.50154 134.604 0.739865 129.577C-0.400604 128.374 -0.943431 127.441 -0.943432 126.81L-0.943432 125.845L0.453422 127.019C4.48131 130.42 10.9192 141.857 17.1909 156.866C20.2428 164.119 31.819 193.523 37.0085 207.156C43.9362 225.332 47.1313 235.986 48.9844 246.882C49.9816 252.78 50.238 265.781 49.4688 271.107L49.4688 271.114ZM37.493 264.885C36.3808 275.96 32.6182 286.222 26.4296 295.009C20.043 304.099 10.5479 312.135 2.24989 315.534C1.166 315.986 -0.00275739 316.498 -0.344014 316.678C-0.828492 316.979 -0.943423 316.854 -0.943423 316.166C-0.943423 315.478 -0.658748 315.203 0.568361 314.872C2.56462 314.271 8.66657 310.628 12.3161 307.801C13.941 306.569 16.9628 303.768 19.044 301.6C28.1412 292.09 34.1848 280.294 36.0962 268.315C37.4364 259.888 37.3215 253.418 35.7249 243.908C33.131 228.651 24.6614 203.966 12.7387 177.008C7.954 166.203 1.90863 155.283 -0.0310552 153.924C-0.738323 153.442 -0.94343 152.992 -0.94343 151.938L-0.94343 150.585L0.483482 152.089C5.4432 157.174 14.7102 176.677 24.6897 203.039C35.3836 231.269 39.0897 249.084 37.493 264.885ZM24.8612 259.649C24.1204 265.306 23.8357 266.863 23.0365 269.97C19.8715 282.581 11.0607 294.618 1.42415 299.554L-1.00001 300.819L-0.885074 299.795C-0.828493 299.223 -0.68704 298.832 -0.600399 298.915C-0.259143 299.216 2.53633 297.47 5.38662 295.22C13.285 288.931 19.7583 278.728 22.3239 268.466C23.7773 262.718 24.1487 259.619 24.1487 253.448C24.0921 240.387 20.6424 225.67 13.0569 206.41C8.81333 195.696 1.25264 181.011 -0.372311 180.348C-0.771917 180.198 -0.943429 179.656 -0.943429 178.753L-0.943429 177.369L0.253621 178.632C3.02081 181.491 9.46401 194.01 13.7695 204.965C19.2508 218.81 22.3805 229.765 24.0337 240.658C24.6897 245.111 25.2043 256.939 24.8612 259.649ZM6.35734 255.524C5.27346 261.725 3.13397 267.051 0.59665 269.94L-0.943425 271.686L-0.943425 270.454C-0.943425 269.552 -0.628691 268.888 0.225334 267.991C1.81669 266.307 3.84654 261.792 4.95872 257.368C6.24241 252.252 6.52709 244.818 5.643 238.979C4.5821 231.908 1.30922 221.134 -0.287437 219.478C-0.715334 219.058 -0.943428 218.305 -0.943428 217.432L-0.915137 216.024L0.0272971 217.219C1.93692 219.566 4.95872 229.017 6.18583 236.481C7.01156 241.476 7.09821 251.287 6.36265 255.53L6.35734 255.524Z" fill="#537774" fill-opacity="0.15"/>
</svg>
