<svg width="149" height="278" viewBox="0 0 149 278" fill="none" xmlns="http://www.w3.org/2000/svg">
<path d="M0.056483 115.719C0.584514 112.714 0.832652 111.696 1.31259 110.399C3.13999 105.572 7.54791 100.975 14.5123 96.7057C17.7997 94.6697 22.2509 92.3542 30.8753 88.2168C53.69 77.2167 63.2877 71.0759 71.867 61.9631C76.3028 57.2516 79.1574 53.0643 81.7629 47.4677C84.2905 42.0325 85.6245 37.5015 87.6721 27.5679C89.5332 18.4887 90.7268 14.4818 92.5773 11.1651C97.2776 2.77515 107.203 -0.343746 128.095 0.0296773C144.148 0.309025 161.181 2.62154 172.732 6.10425C177.819 7.63154 181.573 9.12621 187.839 12.081C193.033 14.5442 194.4 15.1355 194.648 15.0856C194.772 15.0693 194.911 15.316 194.942 15.6443C195.005 16.1242 194.958 16.202 194.756 16.0379C194.617 15.9236 194.058 15.6606 193.531 15.4475C192.989 15.2497 190.506 14.117 188.009 12.9353C180.581 9.43819 177.231 8.1077 171.957 6.51514C160.681 3.1169 143.621 0.755383 128.099 0.440517C121.119 0.292684 116.529 0.522126 111.519 1.29393C103.728 2.47659 98.9559 4.65955 95.404 8.6328C91.9925 12.4726 90.4988 16.4814 88.0684 28.3848C86.0207 38.3184 84.6867 42.8503 82.1591 48.2846C79.5998 53.8015 76.7 58.0704 72.4652 62.5688C64.0899 71.4685 54.3036 77.7073 31.6591 88.6258C16.1492 96.0962 11.1864 99.1171 6.61015 103.912C-0.431142 111.284 -1.2679 118.525 3.24388 133.268C4.01908 135.797 4.73274 137.849 9.50996 151.625C14.3189 165.515 17.8545 177.994 22.1508 196.167C27.331 218.15 30.1693 227.691 33.9694 235.884C37.6607 243.815 41.2742 247.262 45.0589 246.474C47.4162 245.982 49.3869 244.734 55.6049 239.858C60.5841 235.95 63.5311 233.947 66.8656 232.19C73.6116 228.644 80.8241 227.165 88.6984 227.724C97.0112 228.315 104.674 230.466 117.422 235.77C126.403 239.513 128.977 240.399 132.281 240.924C134.995 241.352 137.244 240.613 139.028 238.741C140.145 237.559 140.796 236.393 141.401 234.505C143.448 228.109 142.685 216.616 139.504 205.419C137.208 197.39 134.599 191.38 126.879 176.373C120.599 164.174 117.637 157.477 115.48 150.613C112.798 142.042 111.588 133.799 111.882 126.083C112.394 112.537 116.815 101.471 126.26 90.06C134.357 80.2579 153.946 63.1332 176.562 46.0739C185.573 39.2765 190.94 35.6805 194.461 34.0879C194.973 33.8585 195.004 33.8748 194.942 34.3836C194.896 34.7618 194.756 34.926 194.477 34.9596C193.612 35.0248 187.591 38.8838 182.38 42.7256C162.537 57.3207 142.545 74.1007 132.002 85.0356C124.774 92.5232 120.602 98.2695 117.422 105.149C115.608 109.057 114.724 111.536 113.84 115.197C111.234 125.984 111.885 137.067 115.872 149.791C118.027 156.655 120.99 163.353 127.271 175.553C133.534 187.715 135.256 191.413 137.677 197.866C142.035 209.507 143.928 222.724 142.531 231.984C142.035 235.35 141.197 237.468 139.755 239.11C138.141 240.934 136.048 241.671 132.976 241.475C129.472 241.244 126.54 240.308 117.126 236.387C104.082 230.968 96.4822 228.803 88.3242 228.161C81.3445 227.619 74.1637 229.162 67.6341 232.61C64.2996 234.367 61.3526 236.369 56.3734 240.277C48.6964 246.303 46.9478 247.223 43.4546 247.026C39.6699 246.812 36.9403 243.971 33.575 236.698C29.775 228.522 26.9386 218.966 21.7555 196.998C17.4602 178.822 13.9236 166.344 9.11562 152.456C7.99897 149.238 6.30814 144.392 5.37809 141.685C2.53887 133.508 1.17408 128.63 0.414271 124.036C0.119959 122.212 -0.112798 116.712 0.0574443 115.727L0.056483 115.719ZM16.3108 121.351C16.6955 119.134 17.1639 117.623 18.0796 115.591C19.1808 113.145 20.7783 110.896 23.0424 108.629C27.2454 104.443 32.922 101.06 44.4462 95.9051C64.2678 87.039 69.0451 84.6737 75.8382 80.3539C86.4622 73.6054 94.0623 64.8871 99.1031 53.6729C100.762 49.9627 101.91 46.8918 104.345 39.6681C107.711 29.6356 109.525 25.4982 112.286 21.6066C118.475 12.8883 129.129 9.07914 144.08 10.2282C159.342 11.3946 169.532 16.7636 170.944 24.3492C171.099 25.1373 171.145 26.4832 171.084 27.83C171.006 29.6683 170.882 30.3258 170.324 31.8685C167.641 39.3888 160.521 47.0885 136.233 68.8114C124.802 79.056 120.941 82.7998 116.908 87.6601C109.122 97.0023 104.702 107.313 103.197 119.627C101.987 129.445 103.259 140.297 107.045 152.349C108.984 158.506 110.721 162.939 115.544 174.104C122.043 189.127 123.904 194.89 124.152 200.719C124.322 204.726 123.826 206.761 122.244 208.584C121.186 209.799 120.042 210.408 117.995 210.849C115.141 211.457 111.358 211.145 102.113 209.505C94.094 208.093 89.6582 207.617 84.1827 207.633C77.2809 207.633 72.1478 208.537 62.4067 211.459C53.9853 213.987 53.4274 214.086 49.3792 214.102C46.541 214.119 45.8119 214.052 44.9117 213.74C40.1816 212.034 36.6297 207.797 33.6058 200.244C31.0772 193.94 29.6355 188.85 25.0458 170.017C23.8205 164.944 21.8046 156.866 20.5946 152.056C17.5698 140.086 16.8725 136.868 16.3291 132.385C15.9732 129.545 15.9732 123.371 16.3137 121.353L16.3108 121.351ZM16.7148 131.563C17.2572 136.046 17.9555 139.263 20.9794 151.232C22.1893 156.043 24.2052 164.121 25.4305 169.195C29.1383 184.399 30.6242 189.964 32.2237 194.611C34.8455 202.291 36.924 206.219 40.1498 209.601C41.3906 210.899 42.3216 211.687 43.267 212.193C45.6869 213.523 46.4621 213.703 49.3783 213.687C52.558 213.67 53.6429 213.441 61.6306 211.043C71.7121 208.022 76.4893 207.203 84.1818 207.203C90.3709 207.203 94.5422 207.614 102.887 209.091C108.284 210.044 111.355 210.504 113.563 210.651C120.387 211.111 124.202 207.434 123.768 200.8C123.411 195.464 121.333 189.192 115.16 174.924C108.919 160.497 106.5 153.814 104.562 145.573C100.638 128.925 101.91 113.047 108.254 99.6499C111.216 93.3612 115.155 87.8933 121.126 81.7525C124.275 78.5184 127.579 75.4485 136.605 67.3705C159.731 46.6988 167.287 38.4758 169.921 31.1168C171.053 27.8991 170.979 25.2064 169.641 22.4974C166.384 15.8967 156.613 11.5789 142.732 10.6103C134.294 10.0189 126.121 11.6279 120.63 14.9608C115.109 18.2938 111.123 23.4823 107.958 31.4461C107.323 33.0387 105.864 37.1098 104.732 40.4927C102.297 47.7164 101.15 50.7873 99.4907 54.4975C94.4653 65.6627 87.1605 74.0691 76.6134 80.7676C69.8203 85.0874 65.043 87.4499 45.2214 96.3189C33.5115 101.557 27.9745 104.874 23.632 109.257C19.6146 113.28 17.5987 117.073 16.6994 122.179C16.358 124.165 16.3579 128.78 16.7148 131.57L16.7148 131.563ZM33.2009 132.235C33.248 131.89 33.3721 130.823 33.4962 129.871C34.3801 122.96 38.1647 117.524 45.2993 112.943C49.435 110.283 56.4042 106.917 63.5234 104.159C77.4819 98.7245 84.8021 98.1006 87.6875 102.106C89.3784 104.438 89.7967 107.246 90.092 117.869C90.5267 133.549 91.2086 138.622 95.3347 156.555C96.2802 160.676 97.2891 165.387 97.5526 167.03C99.0723 176.11 97.9864 181.117 93.9074 184.008C90.9759 186.077 87.4096 187.143 77.1414 188.966C61.368 191.774 56.8543 192.052 52.3108 190.493C46.3852 188.457 42.4928 182.562 39.2044 170.675C37.0798 162.959 34.5676 150.448 33.6674 143.059C33.3105 140.103 33.0316 133.585 33.2019 132.238L33.2009 132.235ZM34.0665 142.283C35.2139 151.822 38.7341 168.126 41.154 174.99C44.1471 183.462 47.9827 188.338 53.0658 190.079C57.3621 191.54 60.79 191.327 76.3614 188.551C83.7134 187.238 87.4509 186.351 90.0718 185.287C93.2977 183.957 95.9965 181.462 96.9005 178.934C98.4202 174.647 98.0941 171.052 94.9462 157.375C90.8201 139.446 90.1372 134.372 89.7034 118.689C89.4707 110.25 89.2225 107.54 88.4473 105.242C87.1133 101.268 84.0731 99.5117 79.5911 100.102C69.8972 101.384 50.4795 109.606 42.7861 115.684C40.801 117.244 38.2263 120.018 37.1116 121.809C35.0648 125.059 34.1184 128.064 33.5914 132.956C33.451 134.3 33.6991 139.213 34.0723 142.282L34.0665 142.283ZM128.54 40.606C129.485 37.1425 132.675 33.3161 135.318 32.4953C137.752 31.7273 139.934 32.528 140.511 34.3999C140.806 35.3522 140.619 37.0599 140.107 38.16C138.944 40.606 135.935 43.9063 133.718 45.1869C131.81 46.287 129.577 46.0902 128.754 44.7443C128.32 44.0541 128.212 41.805 128.538 40.606L128.54 40.606ZM129.361 44.2183C129.997 45.1216 130.959 45.5622 131.766 45.3184C134.526 44.4813 139.288 39.3091 140.125 36.2228C140.451 35.0402 139.179 33.247 137.72 32.8237C135.487 32.1997 131.547 35.451 129.654 39.5068C128.585 41.7886 128.507 43.0203 129.36 44.2183L129.361 44.2183ZM119.576 122.487C119.839 120.04 120.49 116.707 121.22 114.048C124.709 101.208 133.332 89.7998 150.579 75.2008C166.915 61.3602 182.887 51.2298 192.379 48.6677C193.542 48.3394 194.519 48.0274 194.55 47.9295C194.705 47.6012 194.969 47.8143 194.969 48.2741C194.969 48.635 194.873 48.7541 194.534 48.7541C192.984 48.7541 186.966 51.1837 182.328 53.6796C166.803 62.0207 144.019 80.3769 133.628 92.9417C126.012 102.12 122.026 110.445 120.336 120.673C119.792 123.924 119.607 130.393 119.932 133.907C120.444 139.177 121.809 145.466 123.577 150.622C125.718 156.893 128.37 162.689 134.294 174.018C140.436 185.766 143.553 192.563 146.051 199.619C148.424 206.367 149.802 211.687 152.518 224.592C154.55 234.262 155.124 236.726 156.303 241.043C158.21 248.005 160.567 253.715 163.189 257.708C164.74 260.073 167.935 263.701 170.153 265.59C174.495 269.283 180.778 272.912 186.594 275.047C189.245 276.032 194.007 277.28 194.534 277.132C194.906 277.036 194.969 277.099 194.969 277.559C194.969 277.985 194.906 278.068 194.643 277.953C194.457 277.871 193.495 277.624 192.503 277.411C185.027 275.769 177.566 272.255 170.836 267.215C168.4 265.376 164.306 260.911 162.631 258.267C160.01 254.13 157.807 248.728 155.915 241.864C154.736 237.544 154.162 235.083 152.131 225.413C149.416 212.508 148.036 207.188 145.663 200.439C143.162 193.38 140.049 186.582 133.907 174.827C128.091 163.678 125.407 157.865 123.267 151.676C121.561 146.734 120.227 140.84 119.653 135.651C119.343 132.827 119.296 125.11 119.576 122.483L119.576 122.487ZM126.478 125.048C127.749 108.679 135.815 95.4943 153.976 80.0774C162.708 72.656 174.31 64.8237 182.297 60.9493C186.174 59.0813 190.114 57.6001 193.076 56.9271C193.744 56.7793 194.457 56.5815 194.643 56.4999C194.906 56.3847 194.969 56.4673 194.969 56.8935C194.969 57.3534 194.906 57.4196 194.534 57.3207C194.038 57.1892 190.253 58.2893 187.478 59.3894C181.398 61.8027 173.628 66.3347 165.221 72.3603C153.325 80.8818 143.399 90.1915 137.18 98.6794C125.376 114.754 123.639 132.979 131.89 154.06C133.61 158.428 136.122 163.781 140.218 171.743C149.586 190.001 152.16 196.634 157.356 215.877C161.145 229.899 162.802 234.841 165.857 241.211C170.99 251.917 178.482 260.109 187.305 264.704C189.818 266.033 194.191 267.658 194.672 267.461C194.889 267.365 194.967 267.478 194.967 267.872C194.967 268.167 194.889 268.414 194.78 268.414C194.726 268.411 194.674 268.387 194.637 268.348C194.599 268.308 194.579 268.255 194.579 268.201C194.579 268.085 194.377 268.003 194.114 268.003C193.214 268.003 188.887 266.345 186.529 265.113C177.766 260.565 170.57 252.668 165.466 242.028C162.411 235.658 160.753 230.716 156.967 216.694C151.773 197.452 149.196 190.819 139.828 172.56C131.689 156.709 128.664 148.79 127.129 139.3C126.462 135.113 126.167 128.924 126.478 125.048ZM132.96 124.638C133.519 118.94 135.302 112.734 137.815 107.71C139.087 105.149 141.692 101.011 143.662 98.3981C152.844 86.248 172.743 71.145 186.934 65.5466C189.121 64.6769 193.448 63.379 194.131 63.379C194.379 63.379 194.581 63.283 194.581 63.1822C194.581 63.1276 194.601 63.0748 194.639 63.035C194.676 62.9952 194.728 62.9716 194.782 62.9691C194.891 62.9691 194.969 63.2149 194.969 63.5105C194.969 63.8887 194.891 64.003 194.689 63.9214C194.318 63.7735 190.192 64.9715 187.71 65.9574C178.047 69.7665 164.88 78.4848 154.643 87.8271C151.417 90.7655 146.159 96.4302 144.05 99.2218C134.697 111.605 131.456 124.638 134.015 139.53C135.504 148.15 138.11 154.98 145.632 170.102C154.116 187.111 156.66 193.647 162.088 212.281C163.22 216.121 164.522 220.491 165.019 222.002C168.385 232.394 172.247 240.111 177.226 246.416C179.133 248.83 182.872 252.622 184.996 254.298C187.834 256.53 193.075 259.385 194.422 259.42C194.872 259.436 194.965 259.535 194.965 259.929C194.965 260.455 194.918 260.487 194.437 260.208C193.976 260.009 193.505 259.834 193.026 259.683C191.692 259.256 188.497 257.667 186.791 256.563C181.006 252.836 175.361 246.318 171.126 238.47C167.683 232.099 165.652 226.615 161.7 213.102C156.272 194.467 153.728 187.932 145.244 170.923C140.452 161.301 138.652 157.279 136.684 151.844C134.857 146.77 133.427 140.465 132.946 135.244C132.713 132.782 132.728 127.036 132.961 124.638L132.96 124.638ZM139.041 124.343C140.312 115.001 143.677 107.3 150.037 99.2218C158.212 88.8446 173.907 76.9902 186.438 71.72C188.842 70.7188 193.17 69.3393 193.914 69.3393C194.162 69.3393 194.426 69.2434 194.491 69.1263C194.724 68.748 194.972 68.9122 194.972 69.4545C194.972 69.8644 194.909 69.947 194.615 69.8481C194.134 69.7003 189.993 70.9645 187.217 72.1309C176.685 76.564 163.487 85.8899 154.785 95.0843C145.417 104.972 140.563 114.721 139.322 126.165C139.028 128.857 139.198 135.162 139.617 137.987C140.47 143.536 142.006 148.97 144.503 155.16C145.325 157.213 148.272 163.698 151.063 169.576C159.206 186.75 160.711 190.695 167.054 211.247C170.311 221.771 172.87 228.208 175.972 233.725C179.477 239.98 183.959 245.3 188.643 248.796C190.334 250.06 194.318 252.212 194.692 252.06C194.894 251.977 194.972 252.093 194.972 252.47C194.972 252.766 194.894 253.012 194.785 253.012C194.733 253.01 194.683 252.989 194.646 252.952C194.609 252.916 194.587 252.867 194.584 252.814C194.581 252.704 194.379 252.608 194.134 252.608C193.514 252.608 189.512 250.441 187.868 249.21C181.943 244.794 176.933 238.061 172.777 228.949C170.745 224.466 169.132 220 166.666 212.07C160.318 191.514 158.818 187.573 150.675 170.4C147.886 164.521 144.937 158.035 144.115 155.983C141.634 149.809 140.098 144.441 139.229 138.809C138.795 135.985 138.671 127.037 139.044 124.345L139.041 124.343ZM144.561 126.854C145.647 116.083 150.068 106.741 158.315 97.777C167.606 87.6975 181.564 78.4023 191.987 75.3813C192.933 75.1019 193.911 74.8725 194.143 74.8725C194.391 74.8725 194.578 74.7766 194.578 74.6758C194.577 74.621 194.597 74.5681 194.635 74.5282C194.672 74.4882 194.724 74.4644 194.779 74.4617C194.887 74.4617 194.965 74.7084 194.965 75.0041C194.965 75.3813 194.887 75.4965 194.685 75.4139C193.91 75.102 187.892 77.3521 183.767 79.4861C170.645 86.2835 158.408 97.0215 151.879 107.431C148.498 112.817 146.388 118.448 145.318 124.884C144.741 128.316 144.698 134.128 145.21 137.675C146.512 146.672 148.435 152.205 155.818 168.263C162.735 183.302 164.845 188.688 169.572 203.448C174.054 217.437 175.899 222.231 179.125 228.192C182.956 235.285 187.796 240.767 192.975 243.888C193.781 244.38 194.557 244.725 194.697 244.656C194.882 244.59 194.96 244.721 194.96 245.083C194.96 245.378 194.898 245.624 194.821 245.624C194.744 245.624 193.89 245.197 192.928 244.688C187.741 241.917 182.731 236.385 178.745 229.012C175.52 223.052 173.674 218.261 169.192 204.27C164.461 189.508 162.352 184.123 155.438 169.083C151.43 160.381 150.084 157.245 148.517 153.01C146.748 148.215 145.554 143.569 144.857 138.707C144.5 136.178 144.33 129.266 144.561 126.852L144.561 126.854ZM149.727 127.824C150.859 118.3 153.93 110.994 160.103 103.195C167.33 94.0495 180.312 84.5594 190.394 81.0642C192.053 80.4729 193.635 80.0131 193.898 80.0131C194.162 80.0131 194.426 79.9171 194.488 79.8C194.721 79.4227 194.969 79.5869 194.969 80.1283C194.969 80.5391 194.906 80.6207 194.612 80.5228C193.837 80.2598 188.264 82.4427 184.236 84.594C169.906 92.2295 157.947 104.396 153.217 116.135C152.1 118.909 151.045 122.604 150.533 125.575C149.928 129.056 149.928 135.673 150.564 139.417C151.96 147.823 153.713 152.733 161.825 171.023C166.242 180.954 169.031 188.228 172.975 200.066C176.868 211.756 178.248 215.418 180.699 220.491C183.335 225.991 186.324 230.392 189.664 233.691C191.479 235.498 194.038 237.419 194.615 237.419C194.879 237.419 194.972 237.567 194.972 237.927C194.972 238.207 194.925 238.454 194.876 238.454C194.597 238.454 192.612 237.255 191.557 236.466C187.508 233.409 183.584 228.129 180.312 221.314C177.862 216.24 176.481 212.578 172.588 200.889C168.645 189.05 165.855 181.777 161.437 171.844C154.457 156.101 152.549 151.173 151.091 144.87C150.033 140.404 149.773 138.072 149.711 133.163C149.68 130.618 149.68 128.221 149.727 127.827L149.727 127.824ZM155.434 128.447C155.977 123.653 157.125 119.647 159.203 115.199C162.755 107.559 168.819 100.455 176.918 94.4277C179.927 92.1776 183.554 89.916 186.318 88.5163C188.643 87.351 193.374 85.5405 194.15 85.5405C194.398 85.5405 194.584 85.4445 194.584 85.3437C194.583 85.2891 194.604 85.2363 194.642 85.1965C194.679 85.1567 194.731 85.1331 194.785 85.1306C194.894 85.1306 194.972 85.3437 194.972 85.6106C194.972 86.0041 194.876 86.1031 194.444 86.1194C193.607 86.152 189.481 87.7282 187.046 88.9435C182.766 91.1111 177.384 94.805 173.351 98.3511C167.054 103.919 162.525 109.713 159.597 116.014C154.929 125.998 154.449 135.536 157.969 147.933C159.365 152.842 160.931 156.897 167.01 171.33C170.857 180.442 172.469 184.612 176.393 195.761C180.178 206.465 181.651 210.241 183.652 214.429C185.823 218.993 187.901 222.31 190.399 225.216C191.655 226.693 194.043 228.812 194.534 228.877C194.752 228.91 194.906 229.14 194.937 229.485C194.969 229.78 194.969 230.026 194.922 230.026C194.612 230.026 192.921 228.828 191.758 227.793C187.989 224.444 184.034 217.827 180.56 209.092C179.877 207.336 177.814 201.701 176 196.581C172.076 185.433 170.463 181.262 166.617 172.15C158.458 152.776 156.923 148.326 155.713 140.216C155.357 137.802 155.186 130.643 155.434 128.443L155.434 128.447ZM161.25 129.744C162.197 121.797 165.035 115.082 170.309 108.351C174.573 102.916 181.135 97.4795 187.305 94.2627C190.127 92.7853 193.339 91.5047 194.175 91.5047C194.408 91.5047 194.579 91.4087 194.579 91.2916C194.579 91.2653 194.584 91.2393 194.595 91.2151C194.605 91.1908 194.619 91.1689 194.638 91.1505C194.657 91.132 194.679 91.1175 194.704 91.1078C194.728 91.0981 194.754 91.0933 194.78 91.0938C194.889 91.0938 194.967 91.3079 194.967 91.5738C194.967 91.952 194.871 92.0538 194.439 92.0672C192.811 92.1162 186.328 95.3503 182.714 97.9287C166.786 109.256 159.403 124.56 162.008 140.864C163.187 148.269 164.816 153.227 171.516 169.794C173.563 174.882 176.68 182.863 178.417 187.559C184.484 203.746 186.47 208.374 189.354 212.954C190.921 215.434 194.193 219.358 194.705 219.358C194.876 219.358 194.969 219.588 194.969 219.982C194.969 220.654 194.906 220.704 194.441 220.327C193.108 219.276 190.378 216.007 188.997 213.825C186.082 209.195 184.112 204.598 178.033 188.376C176.296 183.68 173.179 175.704 171.131 170.611C164.446 154.06 162.849 149.204 161.624 141.681C161.158 138.873 160.957 132.223 161.251 129.744L161.25 129.744ZM167.547 130.089C168.633 122.487 171.952 115.509 177.381 109.434C181.631 104.672 188.159 99.9936 192.673 98.4826C193.464 98.2206 194.255 97.9249 194.441 97.826C194.937 97.563 194.969 97.5966 194.969 98.187C194.969 98.5978 194.906 98.6957 194.658 98.5978C194.225 98.4173 190.797 99.911 188.579 101.242C180.358 106.151 173.363 114.212 170.137 122.471C166.555 131.665 166.849 140.892 171.145 154.192C172.758 159.2 179.164 175.963 184.468 189.115C188.237 198.426 191.463 204.564 194.053 207.307C194.674 207.963 194.969 208.472 194.969 208.817L194.969 209.343L194.209 208.703C192.018 206.847 188.516 200.607 185.105 192.419C183.445 188.462 177.148 172.42 174.325 164.982C170.557 155.066 168.819 149.254 167.811 143.31C167.268 140.092 167.129 132.999 167.547 130.093L167.547 130.089ZM174.061 133.487C174.666 127.445 176.713 121.847 180.079 117.053C183.553 112.094 188.718 107.71 193.232 105.855C193.822 105.608 194.457 105.329 194.643 105.231C194.906 105.067 194.969 105.135 194.969 105.51C194.969 105.886 194.814 106.036 194.147 106.216C193.061 106.544 189.742 108.531 187.756 110.074C186.873 110.746 185.229 112.274 184.097 113.457C179.148 118.645 175.861 125.081 174.821 131.616C174.092 136.214 174.155 139.743 175.023 144.932C176.434 153.256 181.041 166.723 187.527 181.43C190.129 187.325 193.418 193.283 194.473 194.024C194.857 194.287 194.969 194.533 194.969 195.108L194.969 195.846L194.193 195.025C191.495 192.251 186.454 181.611 181.026 167.229C175.209 151.827 173.193 142.108 174.061 133.487ZM180.933 136.344C181.336 133.258 181.49 132.408 181.925 130.713C183.647 123.833 188.439 117.266 193.681 114.573L195 113.883L194.937 114.442C194.906 114.754 194.83 114.967 194.782 114.922C194.597 114.758 193.076 115.71 191.526 116.938C187.229 120.369 183.708 125.935 182.313 131.534C181.522 134.67 181.32 136.361 181.32 139.727C181.351 146.853 183.227 154.882 187.353 165.39C189.662 171.235 193.774 179.246 194.658 179.608C194.876 179.69 194.969 179.986 194.969 180.478L194.969 181.234L194.318 180.544C192.813 178.984 189.308 172.154 186.966 166.178C183.984 158.625 182.282 152.648 181.383 146.705C181.026 144.275 180.746 137.822 180.933 136.344ZM190.998 138.594C191.587 135.211 192.751 132.306 194.131 130.729L194.969 129.777L194.969 130.449C194.969 130.942 194.798 131.303 194.333 131.793C193.468 132.712 192.363 135.175 191.759 137.588C191.06 140.38 190.905 144.436 191.386 147.621C191.963 151.479 193.744 157.357 194.612 158.26C194.845 158.489 194.969 158.9 194.969 159.376L194.954 160.144L194.441 159.493C193.402 158.212 191.759 153.056 191.091 148.984C190.642 146.259 190.595 140.906 190.995 138.591L190.998 138.594Z" fill="#537774" fill-opacity="0.5"/>
</svg>
