<svg width="123" height="140" viewBox="0 0 123 140" fill="none" xmlns="http://www.w3.org/2000/svg">
<path d="M121 121.302L116.962 121.302L121 125.34L121 121.302Z" fill="#3CDBC0"/>
<path d="M108.738 121.302L104.701 121.302L121 137.602L121 133.564L108.738 121.302Z" fill="#3CDBC0"/>
<path d="M92.4423 121.302L110.535 139.398L114.572 139.398L96.4764 121.302L92.4423 121.302Z" fill="#3CDBC0"/>
<path d="M80.1771 121.302L98.273 139.398L102.311 139.398L84.2146 121.302L80.1771 121.302Z" fill="#3CDBC0"/>
<path d="M67.9194 121.302L86.0153 139.398L90.0528 139.398L71.9569 121.302L67.9194 121.302Z" fill="#3CDBC0"/>
<path d="M55.6577 121.302L73.7536 139.398L77.7911 139.398L59.6952 121.302L55.6577 121.302Z" fill="#3CDBC0"/>
<path d="M43.396 121.302L61.4919 139.398L65.5294 139.398L47.4335 121.302L43.396 121.302Z" fill="#3CDBC0"/>
<path d="M31.1342 121.302L49.2301 139.398L53.2676 139.398L35.1717 121.302L31.1342 121.302Z" fill="#3CDBC0"/>
<path d="M18.8759 121.302L36.9684 139.398L41.0059 139.398L22.9099 121.302L18.8759 121.302Z" fill="#3CDBC0"/>
<path d="M6.6142 121.302L24.7066 139.398L28.7441 139.398L10.6482 121.302L6.6142 121.302Z" fill="#3CDBC0"/>
<path d="M0.187174 127.137L12.4488 139.398L16.4863 139.398L0.187174 123.099L0.187174 127.137Z" fill="#3CDBC0"/>
<path d="M0.187174 139.398L4.22467 139.398L0.187174 135.361L0.187174 139.398Z" fill="#3CDBC0"/>
<path d="M104.546 0.944092V4.98159L108.583 0.944092L104.546 0.944092Z" fill="#3CDBC0"/>
<path d="M104.546 13.2057V17.2432L120.845 0.944092L116.808 0.944092L104.546 13.2057Z" fill="#3CDBC0"/>
<path d="M104.546 29.5014L122.642 11.409V7.37146L104.546 25.4674V29.5014Z" fill="#3CDBC0"/>
<path d="M104.546 41.7665L122.642 23.6706V19.6331L104.546 37.729V41.7665Z" fill="#3CDBC0"/>
<path d="M104.546 54.0248L122.642 35.9289V31.8914L104.546 49.9873V54.0248Z" fill="#3CDBC0"/>
<path d="M104.546 66.2864L122.642 48.1905V44.153L104.546 62.2489V66.2864Z" fill="#3CDBC0"/>
<path d="M104.546 78.5481L122.642 60.4522V56.4147L104.546 74.5106V78.5481Z" fill="#3CDBC0"/>
<path d="M104.546 90.8097L122.642 72.7138V68.6763L104.546 86.7722V90.8097Z" fill="#3CDBC0"/>
<path d="M104.546 103.068L122.642 84.9755V80.938L104.546 99.0339V103.068Z" fill="#3CDBC0"/>
<path d="M104.546 115.33L122.642 97.2371V93.1996L104.546 111.296V115.33Z" fill="#3CDBC0"/>
<path d="M110.38 121.757L122.642 109.495V105.458L106.343 121.757H110.38Z" fill="#3CDBC0"/>
<path d="M122.642 121.757V117.719L118.604 121.757H122.642Z" fill="#3CDBC0"/>
</svg>
